<svg fill="none" height="235" viewBox="0 0 1287 235" width="1287" xmlns="http://www.w3.org/2000/svg"><g clip-rule="evenodd" fill="#1a1a1a" fill-rule="evenodd"><path d="m1246.81 229.914c12.73.308 25.74-.308 37.91 4.057.73.258 1.53-.117 1.79-.845.25-.727-.12-1.527-.85-1.79-12.45-4.466-25.76-3.907-38.78-4.22-.77-.023-1.42.593-1.43 1.365-.03.773.59 1.411 1.36 1.433z"/><path d="m1245.66 211.381c3.97-3.662 8.3-6.404 13.54-7.764.75-.193 1.19-.957 1-1.705s-.96-1.197-1.7-1.003c-5.69 1.477-10.41 4.433-14.72 8.412-.57.522-.61 1.408-.09 1.977.52.568 1.41.605 1.97.083z"/><path d="m1234.62 171.409c1.82-6.254 5.41-11.146 10.9-14.679.65-.417.84-1.283.42-1.933s-1.28-.839-1.93-.422c-6.08 3.912-10.05 9.326-12.06 16.25-.22.741.21 1.519.94 1.735.75.217 1.52-.21 1.73-.951z"/><path d="m1171.92 162.922c-1.08 1.278-2.05 2.654-2.88 4.12-.37.653-1.02 2.039-1.12 3.229-.11 1.267.32 2.335 1.43 2.898 1.46.747 2.64.669 3.54.218.87-.434 1.55-1.286 1.98-2.429.82-2.184.7-5.523.27-7.428 1.16-1.195 2.42-2.279 3.78-3.243 10.1-7.177 24.92-4.531 36.32 6.201 3.99 3.757 5.91 11.648 6.91 20.162 1.56 13.256.67 28.062.55 32.4-.03 1.071.07 1.707.13 1.834.26.624.72.787 1.05.848.46.084.84-.005 1.14-.162.41-.215.74-.593.9-1.177.08-.322.1-.771.09-1.25-.01-.332-.08-.694-.01-.932.44-1.523.96-3.011 1.48-4.509 1.71-5.036 3.92-9.756 6.39-14.47 7.81-14.978 15.38-30.804 28.2-42.215.57-.512.63-1.398.11-1.975-.5-.578-1.39-.631-1.97-.118-13.07 11.637-20.84 27.736-28.82 43.011-2.09 4.009-4.01 8.025-5.61 12.225.17-7.43.1-17.714-1.25-26.814-1.21-8.093-3.5-15.245-7.38-18.898-12.49-11.756-28.78-14.307-39.84-6.444-1.19.842-2.31 1.768-3.36 2.772-5.79-10.48-18.18-14.68-29.13-9.668-.71.321-1.01 1.152-.69 1.854s1.15 1.012 1.85.692c9.87-4.517 21.06-.486 25.94 9.268zm.81 3.508c-.45.641-.87 1.304-1.26 1.99-.21.369-.57 1.077-.72 1.769-.03.163-.04.417-.04.534.39.191.69.282.94.159.3-.153.46-.511.61-.911.38-1.004.5-2.335.47-3.541z"/><path d="m102.808 80.9141c12.731.3078 25.741-.3078 37.913 4.0574.726.2574 1.524-.1176 1.786-.8451.257-.7275-.117-1.5278-.842-1.7908-12.458-4.4659-25.763-3.9063-38.79-4.2197-.77-.0224-1.412.5932-1.428 1.3655-.023.7723.591 1.4103 1.361 1.4327z"/><path d="m101.664 62.3805c3.968-3.6611 8.299-6.4039 13.535-7.7633.747-.1936 1.194-.9575 1.004-1.7052-.195-.7477-.96-1.1971-1.702-1.0034-5.693 1.4774-10.409 4.4334-14.7232 8.4119-.5693.5227-.6084 1.4086-.0838 1.9772.519.5681 1.406.6055 1.97.0828z"/><path d="m90.6248 22.4094c1.8195-6.2539 5.4026-11.1463 10.8942-14.67931.648-.41693.837-1.28324.419-1.93298-.413-.64974-1.278-.83892-1.926-.42199-6.0776 3.91189-10.0514 9.32588-12.0662 16.25028-.2177.7409.2121 1.5189.9488 1.7349.7423.2166 1.5181-.2099 1.7302-.9509z"/><path d="m27.9199 13.9219c-1.0828 1.2777-2.0539 2.6544-2.8799 4.1201-.3684.6525-1.0158 2.0393-1.1163 3.2285-.1116 1.267.3181 2.336 1.4232 2.899 1.4678.7465 2.6399.6688 3.5441.2171.8707-.4337 1.5515-1.286 1.9813-2.4288.8204-2.1843.6976-5.5225.2679-7.4275 1.1553-1.1954 2.4222-2.2795 3.7784-3.2432 10.102-7.17735 24.9201-4.53081 36.3225 6.2008 3.9906 3.7575 5.9105 11.6484 6.9095 20.1622 1.5572 13.2561.6698 28.062.547 32.3998-.0279 1.0711.0725 1.7068.1283 1.8339.2623.6245.7256.7868 1.0493.8484.4688.0839.8427-.0056 1.1441-.1623.4074-.2149.7424-.5932.8986-1.1769.0837-.3224.106-.7712.0949-1.2497-.0112-.3319-.0782-.6945-.0112-.9324.4353-1.5233.96-3.0108 1.4734-4.509 1.7135-5.0362 3.9292-9.7556 6.3905-14.4695 7.8193-14.9781 15.3815-30.8042 28.2015-42.21581.575-.51207.631-1.39741.118-1.97496-.508-.57755-1.39-.63017-1.971-.11754-13.076 11.63711-20.8454 27.73571-28.8209 43.01051-2.093 4.0098-4.013 8.0253-5.6092 12.2254.1619-7.4298.1005-17.7143-1.2557-26.814-1.2056-8.093-3.4994-15.2452-7.3784-18.898-12.4907-11.7563-28.7822-14.30657-39.8441-6.44364-1.1832.8417-2.3106 1.76734-3.3599 2.77134-5.7877-10.47923-18.1779-14.67936-29.128246-9.66722-.703231.32067-1.010191 1.15118-.692063 1.85353.323709.70235 1.149699 1.0124 1.852929.69173 9.86758-4.516295 21.05788-.48579 25.94148 9.26816zm.8092 3.5084c-.4521.6402-.8707 1.304-1.2613 1.9901-.2065.3682-.5638 1.0762-.7144 1.769-.0335.1623-.0391.4164-.0391.5339.3851.1903.6865.2821.932.1584.307-.1522.4633-.5104.614-.9106.3795-1.004.5023-2.3348.4688-3.5408z"/></g></svg>