<svg fill="none" height="65" viewBox="0 0 185 65" width="185" xmlns="http://www.w3.org/2000/svg"><path d="m1.38281 32.3494c0-16.5686 13.43149-30.00003 29.99999-30.00003h121.0002c16.568 0 30 13.43143 30 30.00003 0 16.5685-13.432 30-30 30h-121.0002c-16.5685 0-29.99999-13.4315-29.99999-30z" fill="#f9375b"/><path d="m32.9578 1.9095.4035 1.44471zm1.05-.11508.09-1.497304zm3.15 1.01897-.7592 1.29366zm1.05.2567.1462 1.49286zm1.05-.10281-.1462-1.49286zm1.05-.39245-.8171-1.25789zm1.05-.68208-.8171-1.257895zm1.05-.01879.7847-1.278377zm1.05.64451-.7847 1.27838zm1.05.38708.1838-1.4887zm1.05.12963-.1838 1.48869zm1.05.04568-.0546-1.49901zm1.05-.03827-.0546-1.49901zm2.1.0203-.0375 1.49953zm1.05-.0547-.1923-1.48763zm1.05-.13571.1923 1.48763zm1.05-.24646.4831 1.42007zm1.05-.35722-.4831-1.420068zm1.05.10015-.7034 1.32483zm1.05.5575.7034-1.32483zm1.05.13186.4042 1.44452zm1.05-.29379-.4042-1.44452zm1.05-.05133.2686-1.47575zm1.05.19114-.2686 1.47575zm1.05-.19208.7208 1.31549zm1.05-.57529-.7207-1.315493zm1.05-.29498-.021-1.499855zm2.1.31914.8173-1.257763zm.525.34116-.8173 1.25777zm.525.34116-.8173 1.25776zm1.05-.05178.8988 1.2009zm1.05-.78586-.8988-1.200899zm3.15.32207.362-1.455659zm1.05.26113-.362 1.45566zm1.05.2229.2599-1.47732zm.525.09235.2599-1.47733zm.525.09234-.2598 1.47732zm1.05-.2465.8134 1.2603zm.525-.33884-.8134-1.2603zm.525-.33885-.8134-1.260297zm2.1.5294.7242-1.31362zm1.05.14497.3979 1.44625zm.525-.14446-.3979-1.44625zm.525-.14445-.3979-1.44625zm1.05-.18997.1296 1.49439zm1.05-.09105-.1296-1.494391zm1.575-.10005-.0778-1.497984zm.525-.02727.0778 1.49798zm1.05.10375-.3632 1.45537zm.525.13101.3632-1.455369zm2.625.30294-.0389 1.4995zm1.05-.14259.4279 1.43769zm1.05-.31247-.4278-1.437692zm1.05-.0707-.2412 1.48048zm1.05.17107.2412-1.480481zm1.575.24151-.2204 1.48372zm.525.07799.2204-1.48372zm1.05-.12677-.545-1.39747zm.525-.20476.5451 1.39747zm2.1-.24852-.2273 1.48268zm.5252.0805.227-1.482666zm1.05-.08667.455 1.42929zm.525-.16718-.455-1.429281zm.525-.16717-.455-1.429287zm1.05-.12186-.129 1.49444zm1.05.09063.129-1.494444zm1.05.15164.298-1.470154zm1.05.21265-.298 1.47015zm1.05.26176-.426 1.43828zm.525.15543.426-1.43829zm.525.15543.426-1.43829zm1.575-.12723-.39-1.448436zm.525-.14134.39 1.44844zm1.05-.03868.288-1.472124zm1.05.2053-.288 1.47213zm1.05.24491-.392 1.44779zm1.05.28451.392-1.44779zm1.05-.0563-.531-1.40301zm.525-.19854.53 1.40301zm1.575-.27981-.327 1.46391zm1.05.23458.327-1.46391zm1.05.13276-.044 1.49934zm.525.01546-.044 1.49935zm.525.01546.044-1.49935zm1.05-.26606.709 1.32193zm1.05-.56305-.709-1.321932zm1.05.09914-.881 1.21437zm.525.38066.88-1.21438zm1.575.44317-.778-1.28283zm.525-.31815-.778-1.28283zm.525-.31816.777 1.28284zm1.05-.42638-.303-1.469105zm1.05-.21646.303 1.46911zm1.05.22107-.797 1.27072zm1.05.6586.797-1.27071zm1.05-.01259-.819-1.25696zm1.05-.6838.818 1.25696zm1.05.00688-.83 1.24942zm1.05.69755.83-1.24943zm1.05.28056.193 1.48751zm1.05-.1364-.193-1.4875zm1.05.00944-.22 1.48386zm1.05.15528-.22 1.48386zm1.05-.15999.618 1.36653zm.525-.23764-.619-1.36653zm.525-.23763.618 1.36654zm1.05-.09819-.385 1.44974zm1.05.27888.385-1.44974zm1.05.09597-.124-1.494888zm1.05-.08695-.124-1.494879zm1.05-.08811.127 1.4946zm.525-.04465-.127-1.494609zm.525-.04465.127 1.4946zm1.05-.19779-.42-1.439991zm1.05-.30628.42 1.43999zm1.052-.02597-.351 1.45821zm1.055.25434.352-1.458214zm5.251.60871-1.071 1.05065zm.886.90311 1.071-1.05065zm2.009.58845-.131 1.4943zm1.045.13176-.244 1.48009zm.523.08614.244-1.4801zm.524.08613.243-1.48009zm1.455.56999.691-1.33122zm.466.24193-.692 1.33121zm.974.40556-.46 1.42778zm.508.16363-.46 1.42778zm.508.16363.46-1.42779zm1.037.3231.433-1.43617zm.529.15947-.433 1.43617zm.529.15947.433-1.43617zm.765.7352-1.388.56912zm.236.57573 1.388-.56912zm1.075 1.25042-.244 1.48011zm1.204.19789-.243 1.48012zm.746.70922 1.46-.34489zm.144.6102-1.46.3448zm.144.6102-1.459.3449zm.766.7553-.34 1.4608zm1.244.2902.341-1.4608zm.934.5837 1.222-.8703zm.313.4386 1.221-.8702zm.312.4387 1.222-.8703zm.418 1.0069 1.475-.2741zm.106.5684 1.475-.2742zm.105.5683-1.474.2741zm.334 1.0369 1.349-.6552zm.227.4685-1.349.6551zm.228.4685-1.35.6551zm.451.9348 1.352-.6502zm.225.4662-1.352.6502zm.224.4663 1.352-.6502zm.645.8619-1.028 1.0927zm.421.3957 1.027-1.0926zm.42.3957 1.028-1.0926zm.581.9049 1.431-.4495zm.32 1.0183 1.431-.4495zm.166 1.0535-1.5.0176zm.261 2.1276 1.348-.6578zm.241.4949 1.348-.6578zm.242.4948-1.348.6578zm.051 1.0448-1.418-.4906zm-.381 1.0998 1.418.4906zm.146 1.0662-1.257.8188zm.673 1.0328 1.257-.8187zm.304 1.0553 1.497.0902zm-.033.5389-1.497-.0903zm-.142 1.6104-1.484-.2159zm-.155 1.0654 1.484.216zm-.493.9942 1.114 1.0039zm-.832.9231-1.114-1.0039zm-.184 1.0605 1.399-.5405zm.232.599 1.399-.5405zm.231.5991-1.399.5405zm-.111 1.0485-1.193-.9098zm-.686.8988 1.192.9098zm-.545.9355 1.386.5744zm-.403.972-1.385-.5744zm-.614.8618-1.009-1.1098zm-.414.3758 1.01 1.1098zm-.413.3758 1.009 1.1098zm-.596.8633-1.404-.5281zm-.367.9752 1.404.5281zm-.729 3.2968.852 1.2346zm-.922.6362-.852-1.2346zm-.795.7298 1.165.9448zm-.668.8233-1.165-.9448zm-.744.7476.95 1.161zm-.411.3359-.949-1.161zm-.41.336.949 1.161zm-.858.6194.803 1.2669zm-.894.5669.803 1.2669zm-.865.5973.901 1.1992zm-.836.6278-.901-1.1992zm-.791.7097 1.09 1.0302zm-.748.7916-1.091-1.0302zm-.813.7107-.875-1.2179zm-.876.6298.876 1.2179zm-1.012.3278-.033-1.4997zm-.574.0129-.033-1.4996zm-.574.0129.034 1.4997zm-1.03.2936-.786-1.278zm-.457.2807.785 1.278zm-.457.2806.785 1.278zm-.959.4525.486 1.4192zm-1.004.3437-.486-1.4192zm-1.035.2012.082 1.4977zm-.534.0294.083 1.4977zm-.533.0293-.083-1.4977zm-1.067-.0235.148-1.4927zm-.534-.0528.148-1.4927zm-.533-.0528-.148 1.4927zm-1.05-.0543.004-1.5zm-1.032-.0028-.004 1.5zm-1.036.0622-.182-1.4889zm-.52.0636.182 1.4889zm-.52.0636-.182-1.4889zm-1.045.2023.384 1.4503zm-1.05.2775-.383-1.4502zm-1.05-.058.527-1.4046zm-.525-.1968-.526 1.4046zm-.525-.1968.527-1.4046zm-1.05-.1424-.154-1.492zm-1.05.1087.155 1.4921zm-1.05-.0018-.159 1.4915zm-1.05-.1123.16-1.4915zm-1.05.2445-.745-1.3016zm-1.05.6015.746 1.3016zm-1.05-.0549-.841 1.2419zm-.525-.3556.842-1.242zm-.525-.3556.842-1.242zm-1.05-.1836.468 1.4255zm-.525.1721-.467-1.4254zm-.525.1721-.467-1.4254zm-1.05.0745.274-1.4748zm-1.05-.195-.274 1.4747zm-1.05.1437.627 1.363zm-1.05.4826-.626-1.363zm-1.05-.0229.675-1.34zm-.525-.2642-.674 1.3399zm-.525-.2642-.674 1.34zm-1.05-.0745-.509-1.4107zm-1.05.3793.51 1.4108zm-1.05-.0503-.623 1.3642zm-.525-.24-.623 1.3642zm-.525-.24.624-1.3642zm-1.05.1442.886 1.2104zm-.525.3842-.885-1.2105zm-.525.3842-.885-1.2105zm-1.05.1072.7-1.3267zm-.525-.2769.7-1.3267zm-.525-.2769-.699 1.3267zm-1.05-.087-.51-1.4106zm-.525.1898.511 1.4106zm-.525.1899-.51-1.4106zm-1.05-.0397-.601 1.3743zm-.525-.2296-.601 1.3743zm-.525-.2296.601-1.3743zm-1.05-.1898-.113-1.4957zm-.525.0399-.113-1.4957zm-.525.0398.114 1.4957zm-1.05.2357.525 1.4054zm-.525.196-.524-1.4054zm-.525.1959-.524-1.4053zm-1.05.0572-.383 1.4502zm-.525-.1387.384-1.4503zm-.525-.1387.384-1.4503zm-1.05-.2473-.304 1.4689zm-.525-.1086-.304 1.4689zm-.525-.1087.304-1.4689zm-1.05-.1454.105-1.4963zm-1.05-.0737.105-1.4963zm-1.05.1014-.381-1.4506zm-1.05.2764.382 1.4505zm-1.05.2953.431 1.437zm-1.05.3144-.43-1.437zm-1.05.2068-.141-1.4933zm-.525.0497.142 1.4933zm-.525.0497-.141-1.4933zm-1.05.0834.097 1.4969zm-.5246.0338.0961 1.4969zm-.525.0337-.0962-1.4969zm-1.05-.0822-.3234 1.4648zm-.525-.1159.3233-1.4647zm-.525-.1159.3233-1.4647zm-1.05-.0476.1934 1.4875zm-1.05.1366-.1935-1.4875zm-1.05-.0044-.2057 1.4858zm-1.05-.1454.2056-1.4858zm-1.05-.1315-.1673 1.4906zm-.525-.0589.1672-1.4907zm-.525-.059-.1673 1.4907zm-1.05-.204.3996-1.4458zm-.525-.1451-.3997 1.4458zm-.525-.1451-.3997 1.4458zm-1.05.1517.7383 1.3057zm-1.05.5938-.7384-1.3058zm-1.05.2882.0247-1.4998zm-1.05-.0174-.0248 1.4998zm-1.05-.1114-.2882 1.4721zm-.525-.1028-.2882 1.4721zm-.525-.1027.2881-1.4721zm-1.575-.2739.2412-1.4805zm-.525-.0855-.2413 1.4804zm-1.05-.0278-.164-1.4911zm-.525.0577-.164-1.491zm-.525.0577.1639 1.491zm-1.05-.0276.2405-1.4806zm-.525-.0853-.2406 1.4806zm-.525-.0853.2405-1.4805zm-1.05-.1189-.0959 1.497zm-.525-.0336.0958-1.4969zm-.525-.0336-.0959 1.497zm-1.575.2351-.3718-1.4532zm-.525.1343.3718 1.4532zm-1.05.2698-.3748-1.4525zm-.525.1354.3747 1.4525zm-.525.1355.3747 1.4524zm-1.05.1442-.025-1.4998zm-.525.0087-.025-1.4998zm-.525.0087.0249 1.4998zm-1.05-.1244-.3689 1.4539zm-.525-.1332.3689-1.454zm-.525-.1333-.369 1.454zm-1.05-.1421.0254-1.4998zm-1.05-.0178-.0255 1.4998zm-1.05.0953.2922 1.4713zm-1.05.2086.2922 1.4712zm-1.05-.1635.6815-1.3363zm-.525-.2678-.6816 1.3363zm-.525-.2678.6815-1.3362zm-3.15.3403-.5753 1.3853zm-1.05-.436.5752-1.3854zm-1.05-.1849.0946 1.4971zm-.525.0332-.0946-1.497zm-.525.0332.0946 1.497zm-1.05.2273-.5204-1.4068zm-1.05.3884.5203 1.4069zm-1.05.1929-.0037 1.5zm-1.05-.0025.0036-1.5zm-1.05-.0409-.1128 1.4958zm-1.05-.0791.1127-1.4958zm-1.05-.2646.5908-1.3787zm-1.05-.45-.5909 1.3787zm-1.05-.2487.0676-1.4985zm-1.05-.0473-.0676 1.4984zm-1.05.2165.624 1.364zm-1.05.4803-.6241-1.364zm-1.05.351.3096 1.4677zm-1.05.2215-.3096-1.4677zm-1.05-.0732.496-1.4157zm-1.05-.3679-.496 1.4156zm-1.05.0098-.5194-1.4073zm-1.05.3875.5193 1.4072zm-1.05-.0942.7211-1.3152zm-1.05-.5757-.7212 1.3153zm-1.0448-.259-.0833-1.4976zm-.5198.0289.0832 1.4977zm-.5198.0289.0833 1.4977zm-1.0594.1547.3405 1.4608zm-1.0792.2515.3405 1.4609zm-1.0673.0587.1892-1.488zm-1.0555-.1342-.1892 1.488zm-.9994-.3593-.7898 1.2752zm-.4716-.2921.7898-1.2752zm-.4716-.2921.7898-1.2752zm-.9358-.5388-.704 1.3245zm-.4642-.2467.7039-1.3246zm-.4642-.2467-.7039 1.3246zm-1.0069-.2871.1114-1.4959zm-1.0853-.0808-.1114 1.4959zm-1.1014-.1049-.1719 1.4902zm-1.1174-.1289.172-1.4901zm-1.015-.3488-.7932 1.2732zm-.9127-.5686-.7932 1.2732zm-.9256-.55-.7391 1.3053zm-.4693-.2657.7391-1.3053zm-.4693-.2658-.7391 1.3053zm-.8178-.6896 1.1588-.9525zm-.6969-.8479-1.1588.9525zm-.7896-.7298-.8548 1.2326zm-.8822-.6118.8548-1.2326zm-.5666-.9153-1.46918.3025zm-.25098-1.2188 1.46918-.3025zm-.68257-.8205.53149-1.4027zm-1.11417-.4222-.53149 1.4027zm-.79428-.6927-1.34568.6627zm-.47438-.9633-1.34568.6626zm-.44208-1.5781-1.47447.2755zm-.10244-.5482 1.47447-.2756zm-.53148-.9052.95933-1.1531zm-1.70495-1.4666 1.03155-1.089zm-.83569-.7916-1.03155 1.089zm-.41298-1.5351-1.49999-.0064zm-.22837-1.6231 1.35116-.6514zm-.46648-.9675-1.35116.6514zm-.04972-2.1387-1.490858-.1653zm-.00777-1.5905-1.496704.0994zm-.19324-1.5515 1.45775-.3534zm-.12431-.5126-1.457753.3535zm-.1243-.5126 1.45775-.3535zm.03695-1.0322-1.432577-.4446zm.32395-2.0885 1.43612-.4331zm-.31963-1.0599-1.436125.4331zm.66055-5.1879 1.45123.3794zm.2663-1.0187-1.45123-.3793zm.65963-2-1.41438-.4995zm.38286-.9815-1.37906-.5901zm.20737-.4846 1.37905.5901zm.20736-.4846 1.37906.59zm.39187-.9867-1.40794-.5174zm.36901-1.0042 1.40794.5174zm.43994-.9714-1.31753-.717zm.25544-.4694 1.31753.717zm.25544-.4693-1.31753-.7171zm.78112-.7373-.68117-1.3365zm1.05137-.5359-.68117-1.3364zm.89449-.6297-1.05036-1.0709zm.73761-.7235 1.05036 1.0709zm.50418-.9576-1.46272-.3323zm.27075-1.1916 1.46273.3323zm.51453-.9745 1.06 1.0613zm.3791-.3787-1.05996-1.06131zm1.4058-.77935-.0509-1.49914zm.6475-.022.0509 1.49915zm1.7154-.33167-.8469-1.23801zm1.6485-1.21929 1.0159 1.1036zm.774-.71249-1.0159-1.10361zm.8294-.63366.7969 1.27078zm1.739-1.2235-1.0331-1.08757zm.4119-.39127 1.033 1.08757zm.4119-.39126-1.0331-1.08757zm.9379-.4994-.3021-1.46927zm.5259-.10814-.3021-1.46927zm1.5682-.3441-.3606-1.45603zm2.1153-.16636.5367-1.40069zm1.1333.43428-.5367 1.40069zm1.069.09725-.3482-1.45902zm1.0046-.23978.3483 1.45902zm1.0171-.30577.5095 1.41082zm.5147-.18588-.5095-1.41083zm.5148-.18589.5094 1.41083zm.5155-.16747 1.4986-.06336zm.0008.0184-1.4987.06335zm.5265-.10981-.4035-1.444713zm.525-.14662.4035 1.44471.525-.14662-.4035-1.44471-.4035-1.444719-.525.146623zm.525-.14662.4035 1.44471c.1955-.0546.3788-.07317.5566-.06249l.0899-1.4973.09-1.497304c-.5223-.03138-1.039.026763-1.5435.167665zm1.05-.11508-.0899 1.4973.525.03154.0899-1.4973.09-1.497301-.525-.031543zm.525.03154-.0899 1.4973.5249.03154.09-1.4973.09-1.497298-.525-.031543zm.525.03154-.09 1.4973c.0794.00477.2025.03142.3808.13602l.7592-1.29366.7592-1.293667c-.5217-.306212-1.0986-.506002-1.7192-.543291zm1.05.33966-.7592 1.29366.525.30812.7592-1.29367.7592-1.29366-.525-.308117zm.525.30811-.7592 1.29367.525.30811.7592-1.29366.7592-1.29367-.525-.30811zm.525.30812-.7592 1.29366c.5796.34014 1.2433.52563 1.9554.4559l-.1462-1.49286-.1462-1.49286c-.0025.00025-.0077.00093-.0226-.0027-.0168-.00412-.057-.0167-.122-.05481zm1.05.2567.1462 1.49286.525-.0514-.1462-1.49286-.1462-1.49286-.525.0514zm.525-.0514.1462 1.49286.525-.05141-.1462-1.49286-.1462-1.49286-.525.05141zm.525-.05141.1462 1.49286c.6301-.06169 1.2068-.29346 1.7209-.62741l-.8171-1.2579-.8171-1.25789c-.1859.12077-.3092.15064-.3791.15748zm1.05-.39245.8171 1.2579.525-.34105-.8171-1.25789-.8171-1.257892-.525.341042zm.525-.34104.8171 1.25789.525-.34104-.8171-1.25789-.8171-1.257895-.525.341043zm.525-.34104.8171 1.25789c-.0148.00963-.1094.06386-.2653.06665-.1576.00282-.2606-.04906-.2865-.06495l.7847-1.27838.7847-1.278377c-.3759-.230729-.8289-.386896-1.3365-.377813-.5059.00905-.9505.180094-1.3153.417085zm1.05-.01879-.7847 1.27838.525.32226.7847-1.27838.7847-1.278381-.525-.322256zm.525.32226-.7847 1.27838.525.32225.7847-1.27838.7847-1.27837-.525-.322261zm.525.32225-.7847 1.27838c.5031.30879 1.0556.5239 1.6509.59739l.1838-1.48869.1838-1.4887c-.1047-.01293-.2522-.05587-.4491-.17675zm1.05.38708-.1838 1.48869.525.06482.1838-1.4887.1838-1.4887-.525-.06481zm.525.06481-.1838 1.4887.525.06481.1838-1.48869.1838-1.4887-.525-.06482zm.525.06482-.1838 1.48869c.4285.05291.8583.07167 1.2884.05599l-.0546-1.499-.0546-1.49901c-.2698.00984-.5401-.00185-.8116-.03537zm1.05.04568.0546 1.499.525-.01913-.0546-1.49901-.0546-1.499-.525.01913zm.525-.01914.0546 1.49901.525-.01914-.0546-1.499-.0546-1.49901-.525.01914zm.525-.01913.0546 1.499c.3193-.01163.6386-.01345.9579-.00546l.0375-1.49953.0376-1.49953c-.3808-.00953-.7615-.00736-1.1422.00651zm1.05-.00599-.0375 1.49953.525.01315.0375-1.49953.0376-1.49953-.525-.01315zm.525.01315-.0375 1.49953.525.01314.0375-1.49953.0376-1.49953-.525-.01314zm.525.01314-.0375 1.49953c.4274.01071.8542-.0116 1.2798-.06661l-.1923-1.48762-.1923-1.48763c-.2744.03547-.5476.04963-.8201.0428zm1.05-.0547.1923 1.48762.525-.06785-.1923-1.48763-.1923-1.48762-.525.06785zm.525-.06786.1923 1.48763.525-.06785-.1923-1.48763-.1923-1.48763-.525.06786zm.525-.06785.1923 1.48763c.4535-.05862.9008-.16434 1.3408-.31402l-.4831-1.42007-.4831-1.42007c-.26.08845-.5127.14705-.7592.1789zm1.05-.24646.4831 1.42007.525-.17861-.4831-1.42007-.4831-1.42007-.525.17861zm.525-.17861.4831 1.42007.525-.17861-.4831-1.42007-.4831-1.420068-.525.178608zm.525-.17861.4831 1.42007c-.0054.00185-.0186.00569-.0383.0081-.02.00244-.0413.00278-.0622.00079-.0447-.00426-.059-.01616-.036-.00398l.7034-1.32483.7034-1.32484c-.686-.364281-1.4644-.458056-2.2365-.195378zm1.05.10015-.7034 1.32483.525.27876.7034-1.32484.7034-1.32483-.525-.27876zm.525.27875-.7034 1.32484.525.27875.7034-1.32484.7034-1.32483-.525-.27875zm.525.27875-.7034 1.32484c.6565.3486 1.4016.46306 2.1576.25154l-.4042-1.44452-.4042-1.44452c.0036-.001.0128-.00315.0264-.00419.0137-.00106.0275-.00065.0397.00088.0121.00152.0186.00361.0185.00357-.0004-.00013-.0093-.00308-.027-.01243zm1.05.13186.4042 1.44452.525-.14689-.4042-1.44452-.4042-1.44452-.525.14689zm.525-.14689.4042 1.44452.525-.1469-.4042-1.44452-.4042-1.44452-.525.1469zm.525-.1469.4042 1.44452c.1359-.03802.2559-.04218.3772-.0201l.2686-1.47575.2686-1.47575c-.5786-.10533-1.1587-.07527-1.7228.08256zm1.05-.05133-.2686 1.47575.525.09557.2686-1.47575.2686-1.47575-.525-.09557zm.525.09557-.2686 1.47575.525.09557.2686-1.47575.2686-1.47575-.525-.09557zm.525.09557-.2686 1.47575c.7296.13282 1.4266-.01664 2.0394-.35234l-.7208-1.31549-.7207-1.31549c-.026.01421-.0448.02216-.0566.02647-.0116.00426-.0173.00529-.0176.00534-.0002.00003.0024-.00041.0067-.00041s.0069.00044.0068.00042zm1.05-.19208.7208 1.31549.525-.28764-.7208-1.3155-.7207-1.31549-.525.28765zm.525-.28765.7208 1.3155.525-.28765-.7208-1.31549-.7207-1.315493-.525.287643zm.525-.28764.7208 1.31549c.1656-.09076.2774-.1096.3502-.11062l-.021-1.49985-.021-1.499855c-.6272.008766-1.2154.186579-1.7497.479342zm1.05-.29498.021 1.49985.525-.00734-.021-1.49985-.021-1.499852-.525.007337zm.525-.00734.021 1.49985.525-.00733-.021-1.49986-.0209-1.499849-.5251.007337zm.525-.00734.021 1.49986c.0059-.00009.0206.00022.0495.00943.0309.0098.0848.03203.1622.0823l.8173-1.25777.8173-1.257763c-.5504-.357699-1.1877-.585697-1.8882-.575906zm1.05.33382-.8173 1.25777.525.34116.8173-1.25777.8173-1.25777-.525-.341153zm.525.34116-.8173 1.25777.525.34115.8173-1.25776.8173-1.25777-.525-.34116zm.525.34116-.8173 1.25776c.3875.25184.8696.425 1.4162.39805.5398-.02662.9951-.24115 1.3499-.50669l-.8988-1.2009-.8988-1.2009c.0048-.00358.1101-.07851.2999-.08787.1966-.00969.3287.05838.3662.08278zm1.05-.05178.8988 1.2009.525-.39293-.8988-1.2009-.8988-1.2009-.525.39293zm.525-.39293.8988 1.2009.525-.39293-.8988-1.2009-.8988-1.200899-.525.392929zm.525-.39293.8988 1.2009c.0445-.03333.034-.01405-.0305.00113-.0323.00757-.0709.01235-.1132.01143-.0422-.00091-.0788-.00729-.1073-.0152l.4022-1.44508.4022-1.445084c-.8909-.2479406-1.7132.01369-2.351.491005zm1.05-.24682-.4022 1.44508.525.14611.4022-1.44508.4022-1.445084-.525-.14611zm.525.14611-.4022 1.44508.525.14611.4022-1.44508.4022-1.445083-.525-.146111zm.525.14611-.4022 1.44508c.3633.10109.7267.19684 1.0902.28725l.362-1.45566.362-1.455659c-.3364-.083678-.6731-.172372-1.0098-.266094zm1.05.27667-.362 1.45566.525.13057.362-1.45567.362-1.45566-.525-.130559zm.525.13056-.362 1.45567.525.13056.362-1.45566.362-1.45566-.525-.13057zm.525.13057-.362 1.45566c.3833.09532.7674.17688 1.1522.24457l.2598-1.47733.2599-1.47732c-.3152-.05544-.6312-.12248-.9479-.20124zm1.05.2229-.2598 1.47733.525.09234.2598-1.47732.2599-1.47733-.525-.09234zm.525.09235-.2598 1.47732.525.09234.2598-1.47732.2599-1.47732-.525-.09235zm.525.09234-.2598 1.47732c.7854.13815 1.5139-.07025 2.1232-.46352l-.8134-1.2603-.8134-1.2603c-.0532.03435-.0708.03489-.0544.03105.0079-.00185.0204-.00392.0362-.00438.0158-.00047.0301.00082.0415.00281zm1.05-.2465.8134 1.2603.525-.33885-.8134-1.26029-.8134-1.2603-.525.33884zm.525-.33884.8134 1.26029.525-.33884-.8134-1.2603-.8134-1.260297-.525.338847zm.525-.33885.8134 1.2603c-.0051.00331-.0826.0499-.2179.05627-.1391.00655-.2368-.03427-.2696-.05237l.7241-1.31363.7242-1.313617c-.3829-.21105-.8306-.340095-1.3197-.317069-.4853.022844-.9128.190614-1.2679.419819zm1.05-.04943-.7241 1.31363.525.28941.7241-1.31362.7242-1.313622-.525-.289415zm.525.28942-.7241 1.31362.525.28942.7241-1.31363.7242-1.31362-.525-.289412zm.525.28941-.7241 1.31363c.6546.36086 1.4053.48855 2.172.27759l-.3979-1.44625-.3979-1.44626c.0057-.00156.0171-.00404.0328-.00512.0159-.00109.0315-.00044.0453.00146.0293.00405.0289.01061-.006-.00867zm1.05.14497.3979 1.44625.525-.14445-.3979-1.44626-.3979-1.44625-.525.14445zm.525-.14446.3979 1.44626.525-.14446-.3979-1.44625-.3979-1.44625-.525.14445zm.525-.14445.3979 1.44625c.2652-.07294.5254-.11961.7817-.14183l-.1296-1.49439-.1296-1.494396c-.4437.038472-.8834.118455-1.3183.238116zm1.05-.18997.1296 1.49439.525-.04552-.1296-1.4944-.1296-1.494389-.525.045523zm.525-.04553.1296 1.4944.525-.04553-.1296-1.49439-.1296-1.494391-.525.045522zm.525-.04552.1296 1.49439c.3328-.02885.6655-.05192.9982-.0692l-.0778-1.49798-.0778-1.497978c-.3673.019077-.7346.044537-1.1018.076377zm1.05-.07279.0778 1.49798.525-.02726-.0778-1.49798-.0778-1.497984-.525.027266zm.525-.02726.0778 1.49798.525-.02727-.0778-1.49798-.0778-1.49798-.525.027266zm.525-.02727.0778 1.49798c.1974-.01025.3988.00869.609.06114l.3632-1.45537.3632-1.455371c-.4898-.122233-.9884-.172462-1.491-.146359zm1.05.10375-.3632 1.45537.525.13101.3632-1.45537.3632-1.455369-.525-.131012zm.525.13101-.3632 1.45537.525.13101.3632-1.45537.3632-1.455366-.525-.131013zm.525.13101-.3632 1.45537c.4529.11303.9116.17676 1.3743.18878l.0389-1.4995.039-1.49949c-.2374-.00617-.4787-.03887-.7258-.100526zm1.05.14465-.0389 1.4995.525.01364.0389-1.4995.039-1.49949-.525-.01364zm.525.01364-.0389 1.4995.525.01364.0389-1.4995.039-1.49949-.525-.01364zm.525.01364-.0389 1.4995c.5145.01336 1.0219-.05715 1.5168-.2044l-.4279-1.43769-.4278-1.43769c-.2052.06106-.3978.0856-.5832.08079zm1.05-.14259.4279 1.43769.525-.15624-.4279-1.43769-.4278-1.437688-.525.156238zm.525-.15624.4279 1.43769.525-.15623-.4279-1.43769-.4278-1.437692-.525.156234zm.525-.15623.4279 1.43769c.1397-.04158.2611-.04744.3809-.02791l.2412-1.48048.2412-1.480481c-.5801-.09452-1.1588-.053241-1.719.113489zm1.05-.0707-.2412 1.48048.525.08553.2412-1.48048.2412-1.480476-.525-.085535zm.525.08553-.2412 1.48048.525.08554.2412-1.48048.2412-1.480481-.525-.085535zm.525.08554-.2412 1.48048c.3569.05815.7138.11374 1.0708.16676l.2204-1.48372.2204-1.483716c-.343-.05096-.6861-.104387-1.0292-.160285zm1.05.16352-.2204 1.48372.525.07799.2204-1.48372.2204-1.483718-.525-.077988zm.525.07799-.2204 1.48372.525.07799.2204-1.48372.2204-1.48372-.525-.077988zm.525.07799-.2204 1.48372c.6243.09274 1.2377.01231 1.8154-.21302l-.545-1.39747-.545-1.39747c-.1223.04768-.2089.05176-.2846.04052zm1.05-.12677.545 1.39747.5251-.20476-.5451-1.39747-.545-1.397474-.525.204764zm.525-.20476.5451 1.39747.5249-.20475-.545-1.39748-.545-1.397472-.525.204758zm.525-.20476.545 1.39748c.1201-.04682.2041-.05034.2777-.03907l.2273-1.48267.2274-1.482668c-.6265-.09606-1.2424-.016746-1.8224.209456zm1.05-.12426-.2273 1.48267.525.08051.2273-1.48268.2274-1.482667-.525-.080501zm.525.0805-.2273 1.48268.525.0805.2275-1.48268.227-1.482666-.5248-.080501zm.5252.0805-.2275 1.48268c.5875.09004 1.1705.03885 1.7325-.14006l-.455-1.42929-.455-1.429286c-.138.043992-.255.050584-.368.03329zm1.05-.08667.455 1.42929.525-.16718-.455-1.42929-.455-1.429281-.525.167175zm.525-.16718.455 1.42929.525-.16718-.455-1.42928-.455-1.429287-.525.167176zm.525-.16717.455 1.42928c.17-.05421.322-.06912.466-.0567l.129-1.49444.129-1.4944447c-.556-.0479948-1.105.018327-1.634.1870177zm1.05-.12186-.129 1.49444.525.04532.129-1.49445.129-1.4944392-.525-.0453155zm.525.04531-.129 1.49445.525.04531.129-1.49444.129-1.494444-.525-.0453152zm.525.04532-.129 1.49444c.292.02524.586.06757.881.12735l.298-1.47015.298-1.470154c-.405-.081986-.812-.140749-1.219-.17593zm1.05.15164-.298 1.47015.525.10633.298-1.47016.298-1.470149-.525-.106325zm.525.10632-.298 1.47016.525.10632.298-1.47015.298-1.470155-.525-.106324zm.525.10633-.298 1.47015c.306.06196.613.13849.922.22989l.426-1.43828.426-1.438293c-.392-.115842-.784-.213811-1.178-.293622zm1.05.26176-.426 1.43828.525.15544.426-1.43829.426-1.43829-.525-.155433zm.525.15543-.426 1.43829.525.15543.426-1.43829.426-1.43829-.525-.15543zm.525.15543-.426 1.43829c.614.18172 1.246.19105 1.866.02424l-.39-1.44843-.39-1.44843c-.08.02164-.148.02157-.234-.00396zm1.05.0141.39 1.44843.525-.14133-.39-1.44843-.39-1.448436-.525.141336zm.525-.14133.39 1.44843.525-.14133-.39-1.44844-.39-1.448429-.525.141333zm.525-.14134.39 1.44844c.132-.0357.251-.03874.372-.015l.288-1.47212.288-1.472124c-.579-.113121-1.161-.090374-1.728.062375zm1.05-.03868-.288 1.47212.525.10265.288-1.47212.288-1.472124-.525-.10265zm.525.10265-.288 1.47212.525.10266.288-1.47213.288-1.472123-.525-.102651zm.525.10265-.288 1.47213c.314.06145.629.13493.946.22057l.392-1.44779.392-1.4478c-.384-.10403-.769-.19382-1.154-.269233zm1.05.24491-.392 1.44779.525.14226.392-1.4478.392-1.44779-.525-.14226zm.525.14225-.392 1.4478.525.14225.392-1.44779.392-1.44779-.525-.14226zm.525.14226-.392 1.44779c.664.18017 1.337.13915 1.972-.10107l-.53-1.40302-.531-1.40301c-.065.02451-.092.02102-.127.01152zm1.05-.0563.53 1.40302.525-.19855-.53-1.40301-.531-1.40302-.525.19855zm.525-.19854.53 1.40301.525-.19855-.53-1.40301-.531-1.40302-.525.19855zm.525-.19855.53 1.40301c.089-.03355.141-.03186.193-.02036l.327-1.46391.327-1.463912c-.649-.144887-1.297-.089029-1.908.142152zm1.05-.08126-.327 1.46391.525.11729.327-1.46391.327-1.46391-.525-.117292zm.525.11729-.327 1.46391.525.11729.327-1.46391.327-1.46391-.525-.11729zm.525.11729-.327 1.46391c.44.09846.885.15502 1.333.16819l.044-1.49934.044-1.49935c-.253-.00744-.508-.03939-.767-.09732zm1.05.13276-.044 1.49934.525.01547.044-1.49935.044-1.49935-.525-.01546zm.525.01546-.044 1.49935.525.01546.044-1.49935.044-1.49935-.525-.01546zm.525.01546-.044 1.49935c.645.01902 1.253-.14876 1.803-.44348l-.709-1.32193-.709-1.32193c-.15.08065-.243.09024-.297.08864zm1.05-.26606.709 1.32193.525-.28152-.709-1.32194-.709-1.321928-.525.281528zm.525-.28153.709 1.32194.525-.28153-.709-1.32193-.709-1.321932-.525.281524zm.525-.28152.709 1.32193c-.051.02701-.169.07018-.325.05545-.147-.01389-.222-.06932-.215-.06387l.881-1.21437.88-1.21438c-.342-.248325-.767-.447165-1.264-.494097-.506-.047779-.975.07271-1.375.287405zm1.05.09914-.881 1.21437.525.38066.881-1.21437.88-1.21438-.525-.38066zm.525.38066-.881 1.21437.525.38066.881-1.21437.88-1.21438-.525-.38066zm.525.38066-.881 1.21437c.353.25553.796.45796 1.317.48894.527.03138 1.001-.12124 1.391-.35797l-.777-1.28283-.778-1.28283c.041-.02463.165-.08163.342-.07107.17.01014.264.07526.266.07701zm1.05.06251.777 1.28283.525-.31815-.777-1.28283-.778-1.28283-.525.31815zm.525-.31815.777 1.28283.525-.31815-.777-1.28284-.778-1.28283-.525.31816zm.525-.31816.777 1.28284c.225-.13609.416-.20714.576-.24011l-.303-1.46911-.303-1.469105c-.54.111337-1.049.324537-1.525.612655zm1.05-.42638.303 1.46911.525-.10823-.303-1.46911-.303-1.469106-.525.108231zm.525-.10823.303 1.46911.525-.10823-.303-1.46911-.303-1.469107-.525.108231zm.525-.10823.303 1.46911c-.011.00228-.026.00415-.044.00412-.017-.00004-.032-.00198-.043-.00426-.023-.00476-.011-.00735.037.02282l.797-1.27072.797-1.270717c-.623-.390406-1.362-.5818313-2.15-.41946zm1.05.22107-.797 1.27072.525.3293.797-1.27072.797-1.270716-.525-.329301zm.525.3293-.797 1.27072.525.3293.797-1.27072.797-1.27071-.525-.329306zm.525.3293-.797 1.27072c.374.23477.828.39681 1.34.39068.51-.00613.959-.17816 1.325-.41704l-.818-1.25695-.819-1.25696c.017-.01095.115-.06691.276-.06884.161-.00194.266.05243.29.06768zm1.05-.01259.818 1.25695.525-.34189-.818-1.25696-.819-1.256957-.525.341897zm.525-.3419.818 1.25696.525-.3419-.818-1.25696-.819-1.256954-.525.341897zm.525-.3419.818 1.25696c-.023.01496-.131.07491-.303.07378-.171-.00112-.276-.06195-.295-.07444l.83-1.24942.83-1.249423c-.369-.245002-.824-.42324-1.345-.426652-.522-.003418-.981.169346-1.354.412241zm1.05.00688-.83 1.24942.525.34877.83-1.24942.83-1.24942-.525-.348773zm.525.34877-.83 1.24942.525.34878.83-1.24942.83-1.24943-.525-.34877zm.525.34878-.83 1.24942c.591.39256 1.299.61926 2.073.51865l-.193-1.48751-.193-1.4875c.01-.0013.021-.00174.033-.00093.012.0008.019.00255.022.00324.005.00143-.022-.00461-.082-.0448zm1.05.28056.193 1.48751.525-.06821-.193-1.4875-.193-1.4875-.525.0682zm.525-.0682.193 1.4875.525-.0682-.193-1.4875-.193-1.4875-.525.0682zm.525-.0682.193 1.4875c.213-.02762.424-.02579.637.0058l.22-1.48386.219-1.48387c-.486-.07193-.975-.07639-1.462-.01307zm1.05.00944-.22 1.48386.525.07764.22-1.48386.219-1.48386-.525-.07765zm.525.07764-.22 1.48386.525.07764.22-1.48386.219-1.48386-.525-.07764zm.525.07764-.22 1.48386c.66.09749 1.3-.0108 1.888-.27732l-.618-1.36653-.619-1.36654c-.111.05033-.171.04869-.212.04267zm1.05-.15999.618 1.36653.525-.23763-.618-1.36654-.619-1.36653-.525.23763zm.525-.23764.618 1.36654.525-.23763-.618-1.36654-.619-1.36653-.525.23763zm.525-.23763.618 1.36654c.02-.00883.033-.01294.039-.01477.007-.00178.009-.00179.007-.00165-.001.00016-.003.00017-.005.00002-.002-.00016 0-.0002.006.00141l.385-1.44974.385-1.449738c-.706-.187354-1.409-.110225-2.054.181398zm1.05-.09819-.385 1.44974.525.13944.385-1.44974.385-1.449739-.525-.139439zm.525.13944-.385 1.44974.525.13943.385-1.44973.385-1.44974-.525-.139439zm.525.13944-.385 1.44973c.51.1356 1.032.1847 1.559.14112l-.124-1.49488-.124-1.494888c-.174.014388-.352-.000502-.541-.050822zm1.05.09597.124 1.49488.525-.04347-.124-1.49488-.124-1.494889-.525.043471zm.525-.04347.124 1.49488.525-.04347-.124-1.49489-.124-1.494879-.525.04347zm.525-.04348.124 1.49489c.351-.02907.702-.05854 1.053-.0884l-.127-1.4946-.127-1.49461c-.349.029672-.698.058952-1.047.087841zm1.05-.08811.127 1.4946.525-.04465-.127-1.4946-.127-1.494609-.525.044649zm.525-.04465.127 1.4946.525-.04465-.127-1.4946-.127-1.494608-.525.044649zm.525-.04465.127 1.4946c.453-.03852.901-.12348 1.343-.2524l-.42-1.43999-.42-1.439991c-.258.075266-.51.122159-.757.143173zm1.05-.19779.42 1.43999.525-.15314-.42-1.43999-.42-1.439992-.525.153141zm.525-.15314.42 1.43999.525-.15314-.42-1.43999-.42-1.439992-.525.15314zm.525-.15314.42 1.43999c.101-.02943.186-.03068.281-.00775l.351-1.45821.352-1.458217c-.608-.1466263-1.225-.1305647-1.824.044195zm1.052-.02597-.351 1.45821.527.12717.352-1.45821.351-1.458215-.527-.127172zm.528.12717-.352 1.45821.528.12718.351-1.45822.352-1.458214-.528-.127171zm.527.12717-.351 1.45822c.455.10968.915.16995 1.38.17901l.029-1.49972.03-1.499713c-.243-.004731-.488-.036136-.736-.096011zm1.058.13751-.029 1.49972.531.01034.029-1.49972.029-1.499713-.53-.01034zm.531.01034-.029 1.49972.531.01034.029-1.49972.029-1.499713-.531-.01034zm.531.01034-.029 1.49972c.366.00714.735.00972 1.107.00776l-.008-1.49998-.008-1.499982c-.347.001832-.692-.000583-1.033-.007231zm1.07.0075.008 1.49998.539-.00285-.008-1.49998-.008-1.499976-.539.002844zm.539-.00285.008 1.49998.539-.00284-.008-1.49998-.008-1.499981-.539.002845zm.539-.00284.008 1.49998c-.016.00008-.037-.00161-.059-.00651-.023-.00489-.042-.01176-.057-.01831-.029-.01341-.021-.01732.02.0242l1.071-1.05065 1.07-1.05065c-.526-.536105-1.225-.902447-2.061-.898041zm.983.44871-1.071 1.05065.443.45156 1.071-1.05065 1.07-1.05066-.443-.45155zm.443.45156-1.071 1.05065.443.45155 1.071-1.05065 1.071-1.05065-.444-.45156zm.443.45155-1.071 1.05065c.492.50086 1.131.87312 1.905.94084l.131-1.4943.131-1.4943c.011.00101.023.00328.035.00661.011.0033.018.00649.019.00716.002.00133-.026-.01241-.079-.06731zm.965.49719-.131 1.4943.522.04563.131-1.4943.13-1.4943-.521-.04563zm.522.04563-.131 1.4943.522.04563.131-1.4943.13-1.4943-.522-.04563zm.522.04563-.131 1.4943c.31.02707.62.06622.932.11755l.244-1.48009.243-1.48009c-.385-.06351-.772-.1122-1.158-.14597zm1.045.13176-.244 1.48009.524.08614.243-1.48009.244-1.4801-.524-.08613zm.523.08614-.243 1.48009.523.08613.244-1.48009.243-1.48009-.523-.08614zm.524.08613-.244 1.48009c.195.032.373.0916.542.17919l.691-1.33122.691-1.33122c-.452-.23498-.933-.39409-1.437-.47693zm.989.32806-.691 1.33122.466.24193.691-1.33122.691-1.33122-.466-.24193zm.466.24193-.691 1.33122.465.24192.692-1.33121.691-1.33122-.466-.24193zm.466.24193-.692 1.33121c.387.20053.789.36781 1.206.50213l.46-1.42778.46-1.42779c-.261-.08385-.508-.18695-.743-.30899zm.974.40556-.46 1.42778.508.16363.46-1.42778.46-1.42779-.508-.16363zm.508.16363-.46 1.42778.508.16363.46-1.42778.46-1.42779-.508-.16363zm.508.16363-.46 1.42778c.348.11207.703.22256 1.064.33149l.433-1.43617.433-1.43617c-.344-.1037-.681-.20861-1.01-.31472zm1.037.3231-.433 1.43617.529.15947.433-1.43617.433-1.43617-.529-.15947zm.529.15947-.433 1.43617.529.15947.433-1.43617.433-1.43617-.529-.15947zm.529.15947-.433 1.43617c-.017-.00521-.042-.01499-.071-.03185-.03-.01699-.057-.03743-.079-.05919-.047-.045-.053-.07252-.04-.04081l1.388-.56912 1.388-.56912c-.304-.74231-.876-1.348-1.72-1.60225zm.765.7352-1.388.56912.237.57573 1.387-.56912 1.388-.56912-.236-.57573zm.236.57573-1.387.56912.236.57574 1.387-.56912 1.388-.56912-.236-.57574zm.236.57574-1.387.56912c.35.85391 1.055 1.43327 1.982 1.58567l.244-1.48011.243-1.48015c.02.00327.099.02286.187.09351.086.0697.117.13741.119.14284zm.839.67468-.244 1.48011.603.099.243-1.48017.243-1.48014-.602-.09895zm.602.09894-.243 1.48017.602.0989.243-1.48012.243-1.48015-.602-.09894zm.602.09895-.243 1.48012c-.04-.0065-.171-.041-.303-.166-.129-.1226-.163-.2422-.168-.2601l1.46-.3448 1.46-.34489c-.1-.42471-.307-.86588-.685-1.22489-.381-.36141-.837-.54707-1.278-.61959zm.746.70922-1.46.3448.144.6102 1.46-.3448 1.46-.3449-.144-.61019zm.144.6102-1.46.3448.145.6103 1.459-.3449 1.46-.3448-.144-.6103zm.144.6102-1.459.3449c.102.4316.31.8623.67 1.2171.358.3536.789.5548 1.215.6541l.34-1.4608.341-1.4607c.011.0025.107.0295.21.1313.105.1031.137.2045.143.2293zm.766.7553-.34 1.4608.621.1451.341-1.4608.341-1.4608-.622-.145zm.622.1451-.341 1.4608.622.145.341-1.4607.341-1.4608-.622-.1451zm.622.1451-.341 1.4607c.072.0167.095.0326.091.0298-.002-.0013-.009-.0056-.017-.0133s-.015-.016-.021-.0233l1.222-.8702 1.222-.8703c-.458-.6435-1.115-1.0108-1.815-1.1742zm.934.5837-1.222.8702.313.4387 1.222-.8703 1.221-.8702-.312-.4387zm.313.4386-1.222.8703.312.4386 1.222-.8702 1.222-.8703-.313-.4386zm.312.4387-1.222.8702c.073.1017.132.2307.165.4109l1.475-.2742 1.475-.2741c-.107-.5776-.327-1.1199-.671-1.6031zm.418 1.0069-1.475.2742.106.5683 1.475-.2741 1.475-.2742-.106-.5683zm.106.5684-1.475.2741.106.5683 1.474-.2741 1.475-.2741-.105-.5684zm.105.5683-1.474.2741c.092.4967.242.9723.458 1.4179l1.35-.6551 1.349-.6552c-.087-.1791-.159-.3947-.208-.6558zm.334 1.0369-1.35.6551.228.4685 1.349-.6551 1.349-.6552-.227-.4685zm.227.4685-1.349.6551.227.4685 1.35-.6551 1.349-.6552-.228-.4685zm.228.4685-1.35.6551c.151.3107.301.6207.45.9299l1.351-.6502 1.352-.6502c-.15-.3125-.302-.6258-.454-.9398zm.451.9348-1.351.6502.224.4662 1.352-.6502 1.351-.6502-.224-.4662zm.225.4662-1.352.6502.224.4663 1.352-.6502 1.352-.6502-.225-.4663zm.224.4663-1.352.6502c.238.4952.57.9289.969 1.3044l1.028-1.0927 1.027-1.0926c-.161-.1521-.26-.293-.32-.4195zm.645.8619-1.028 1.0927.421.3957 1.028-1.0927 1.027-1.0926-.421-.3957zm.421.3957-1.028 1.0927.421.3957 1.027-1.0927 1.028-1.0926-.421-.3957zm.42.3957-1.027 1.0927c.109.1024.154.1876.177.2617l1.431-.4495 1.431-.4495c-.19-.6049-.532-1.1229-.984-1.548zm.581.9049-1.431.4495.16.5092 1.431-.4495 1.431-.4496-.16-.5091zm.16.5092-1.431.4495.16.5092 1.431-.4496 1.431-.4495-.16-.5092zm.16.5091-1.431.4496c.062.1968.095.4023.097.6215l1.5-.0176 1.5-.0177c-.006-.5064-.084-1.0032-.235-1.4853zm.166 1.0535-1.5.0176.007.5442 1.5-.0176 1.499-.0176-.006-.5443zm.007.5442-1.5.0176.006.5443 1.5-.0177 1.5-.0176-.007-.5442zm.006.5442-1.5.0177c.007.5874.143 1.1522.4 1.6792l1.348-.6577 1.348-.6578c-.065-.1328-.095-.2608-.096-.399zm.248 1.0392-1.348.6577.241.4949 1.348-.6577 1.348-.6578-.241-.4949zm.241.4949-1.348.6577.242.4949 1.348-.6578 1.348-.6577-.242-.4949zm.242.4948-1.348.6578c-.001-.0021-.005-.011-.009-.0261-.004-.0152-.007-.0323-.008-.0497-.002-.0377.006-.0504-.002-.0278l1.418.4906 1.417.4907c.249-.7197.226-1.4829-.12-2.1932zm.051 1.0448-1.418-.4906-.19.5498 1.417.4907 1.418.4907.19-.5499zm-.191.5499-1.417-.4907-.19.5499 1.417.4907 1.418.4906.19-.5498zm-.19.5499-1.417-.4907c-.289.8336-.154 1.6698.306 2.3757l1.257-.8188 1.257-.8187c-.009-.0135.015.0188.025.0904.01.0745-.003.1317-.01.1527zm.146 1.0662-1.257.8188.337.5164 1.257-.8188 1.256-.8187-.336-.5164zm.337.5164-1.257.8188.336.5164 1.257-.8188 1.257-.8187-.337-.5164zm.336.5164-1.257.8188c.041.0625.055.1017.06.1184.004.0146.004.0216.004.0278l1.497.0903 1.497.0902c.044-.7245-.17-1.3904-.544-1.9642zm.304 1.0553-1.497-.0903-.033.5389 1.497.0903 1.498.0902.032-.5389zm-.033.5389-1.497-.0903-.032.5389 1.497.0902 1.497.0903.033-.5389zm-.032.5388-1.497-.0902c-.019.3173-.052.6325-.097.9459l1.484.2159 1.484.216c.058-.397.099-.7961.123-1.1973zm-.11 1.0716-1.484-.2159-.078.5327 1.484.2159 1.485.216.077-.5327zm-.078.5327-1.484-.2159-.077.5327 1.484.2159 1.484.216.078-.5327zm-.077.5327-1.484-.2159c-.003.0185-.014.0841-.124.2063l1.115 1.0038 1.114 1.0039c.445-.4931.763-1.0904.863-1.7821zm-.493.9942-1.115-1.0038-.415.4615 1.114 1.0038 1.115 1.0039.415-.4615zm-.416.4615-1.114-1.0038-.416.4615 1.114 1.0039 1.115 1.0038.416-.4615zm-.416.4616-1.114-1.0039c-.298.3307-.531.7472-.617 1.243-.086.4924-.008.9578.148 1.3619l1.399-.5405 1.399-.5405c.002.0047.033.0937.009.2326-.024.1423-.088.2282-.109.2512zm-.184 1.0605-1.399.5405.231.5991 1.4-.5406 1.399-.5405-.232-.599zm.232.599-1.4.5406.232.599 1.399-.5405 1.399-.5406-.231-.599zm.231.5991-1.399.5405c.009.0252-.016-.0289-.005-.1374.013-.1182.06-.2123.1-.2644l1.193.9098 1.192.9097c.593-.7771.63-1.6915.318-2.4988zm-.111 1.0485-1.193-.9098-.343.4494 1.193.9098 1.192.9098.343-.4495zm-.343.4494-1.193-.9098-.343.4494 1.193.9098 1.192.9098.343-.4494zm-.343.4494-1.193-.9098c-.301.395-.55.8187-.737 1.2709l1.385.5744 1.386.5744c.081-.1958.196-.3958.351-.6001zm-.545.9355-1.385-.5744-.202.486 1.386.5744 1.386.5744.201-.486zm-.201.486-1.386-.5744-.201.486 1.385.5744 1.386.5745.202-.4861zm-.202.486-1.385-.5744c-.045.1075-.116.2151-.238.3264l1.009 1.1098 1.009 1.1098c.428-.3897.767-.8567.991-1.3971zm-.614.8618-1.009-1.1098-.414.3758 1.009 1.1098 1.01 1.1098.413-.3758zm-.414.3758-1.009-1.1098-.413.3758 1.009 1.1098 1.009 1.1098.414-.3758zm-.413.3758-1.009-1.1098c-.438.3985-.779.8816-.991 1.445l1.404.5281 1.403.5282c.033-.0868.09-.1793.202-.2817zm-.596.8633-1.404-.5281-.184.4876 1.404.5281 1.404.5282.183-.4876zm-.184.4876-1.404-.5281-.183.4876 1.404.5281 1.404.5281.183-.4875zm-.183.4876-1.404-.5281c-.19.5045-.281 1.0404-.3 1.5877l1.499.0508 1.499.0507c.01-.283.055-.4874.11-.633zm-.205 1.1104-1.499-.0508-.021.6228 1.499.0507 1.499.0507.021-.6227zm-.021.6227-1.499-.0507-.021.6228 1.499.0507 1.499.0507.021-.6228zm-.021.6228-1.499-.0507c-.001.026-.004-.015.033-.0867.04-.077.094-.1302.132-.1563l.852 1.2346.852 1.2346c.746-.5151 1.101-1.2963 1.129-2.1248zm-.482.9409-.852-1.2346-.461.3181.852 1.2346.852 1.2346.461-.3181zm-.461.3181-.852-1.2346-.461.3181.852 1.2346.852 1.2346.461-.3181zm-.461.3181-.852-1.2346c-.418.2887-.79.628-1.108 1.0196l1.165.9448 1.165.9448c.128-.1572.285-.3044.482-.44zm-.795.7298-1.165-.9448-.334.4117 1.165.9448 1.165.9447.334-.4116zm-.334.4117-1.165-.9448-.334.4116 1.165.9448 1.166.9448.333-.4117zm-.334.4116-1.165-.9448c-.158.1952-.334.3719-.529.5314l.95 1.161.95 1.161c.352-.2885.673-.6101.96-.9638zm-.744.7476-.95-1.161-.41.3359.949 1.161.95 1.161.411-.3359zm-.411.3359-.949-1.161-.411.336.95 1.161.949 1.161.411-.336zm-.41.336-.95-1.161c-.227.1858-.464.3569-.711.5135l.803 1.2669.803 1.2669c.349-.2214.684-.4632 1.004-.7253zm-.858.6194-.803-1.2669-.447.2834.803 1.2669.803 1.267.447-.2835zm-.447.2834-.803-1.2669-.448.2835.804 1.2669.803 1.2669.447-.2834zm-.447.2835-.804-1.2669c-.331.21-.652.4316-.962.6651l.901 1.1991.901 1.1992c.246-.1851.502-.3616.767-.5296zm-.865.5973-.901-1.1991-.418.3139.901 1.1991.901 1.1992.418-.3139zm-.418.3139-.901-1.1991-.418.3138.901 1.1992.901 1.1991.418-.3138zm-.418.3139-.901-1.1992c-.349.2623-.676.5558-.981.8786l1.091 1.0303 1.09 1.0302c.193-.2049.394-.3845.602-.5408zm-.791.7097-1.091-1.0303-.374.3959 1.091 1.0302 1.09 1.0303.374-.3959zm-.374.3958-1.091-1.0302-.374.3958 1.091 1.0302 1.09 1.0303.374-.3958zm-.374.3958-1.091-1.0302c-.184.1953-.383.3692-.597.523l.875 1.2179.876 1.218c.37-.2661.713-.566 1.027-.8984zm-.813.7107-.875-1.2179-.438.3148.875 1.218.876 1.2179.438-.3148zm-.438.3149-.875-1.218-.438.3149.875 1.218.876 1.2179.438-.3149zm-.438.3149-.875-1.218c-.03.0216-.07.0439-.17.0461l.033 1.4997.034 1.4996c.665-.015 1.3-.2113 1.854-.6095zm-1.012.3278-.033-1.4997-.574.013.033 1.4996.034 1.4996.574-.0129zm-.574.0129-.033-1.4996-.574.0129.033 1.4996.034 1.4997.574-.013zm-.574.0129-.033-1.4996c-.629.0142-1.236.1791-1.783.5152l.786 1.278.785 1.278c.062-.038.143-.0689.279-.0719zm-1.03.2936-.786-1.278-.456.2806.785 1.2781.785 1.278.457-.2807zm-.457.2807-.785-1.2781-.457.2807.785 1.278.785 1.278.457-.2806zm-.457.2806-.785-1.278c-.211.1297-.431.233-.659.3113l.485 1.4192.486 1.4192c.441-.1508.861-.3492 1.258-.5937zm-.959.4525-.485-1.4192-.503.1719.486 1.4192.486 1.4191.502-.1718zm-.502.1719-.486-1.4192-.502.1718.486 1.4192.486 1.4192.502-.1719zm-.502.1718-.486-1.4192c-.203.0697-.413.1106-.632.1227l.083 1.4977.082 1.4977c.492-.027.973-.1203 1.439-.2797zm-1.035.2012-.083-1.4977-.533.0293.082 1.4978.083 1.4977.533-.0294zm-.534.0294-.082-1.4978-.534.0294.083 1.4977.082 1.4978.534-.0294zm-.533.0293-.083-1.4977c-.278.0153-.557.0092-.836-.0185l-.148 1.4927-.148 1.4927c.432.0428.865.0524 1.297.0286zm-1.067-.0235.148-1.4927-.534-.0528-.148 1.4927-.147 1.4927.533.0528zm-.534-.0528.148-1.4927-.533-.0528-.148 1.4927-.148 1.4927.534.0528zm-.533-.0528.148-1.4927c-.402-.0398-.8-.0605-1.194-.0616l-.004 1.5-.004 1.5c.294.0008.596.0163.906.047zm-1.05-.0543.004-1.5-.516-.0014-.004 1.5-.004 1.5.516.0014zm-.516-.0014.004-1.5-.516-.0014-.004 1.5-.004 1.5.516.0014zm-.516-.0014.004-1.5c-.407-.0011-.815.0235-1.222.0733l.182 1.4889.182 1.4889c.286-.0349.569-.0519.85-.0511zm-1.036.0622-.182-1.4889-.52.0636.182 1.4889.182 1.4889.52-.0636zm-.52.0636-.182-1.4889-.52.0636.182 1.4889.182 1.4889.52-.0636zm-.52.0636-.182-1.4889c-.417.051-.832.1317-1.246.241l.383 1.4502.384 1.4503c.286-.0757.567-.1299.843-.1637zm-1.045.2023-.383-1.4502-.525.1387.383 1.4503.384 1.4502.525-.1387zm-.525.1388-.383-1.4503-.525.1388.383 1.4502.384 1.4502.525-.1387zm-.525.1387-.383-1.4502c-.039.0103-.071.0134-.14-.0124l-.527 1.4046-.526 1.4046c.631.2365 1.299.2783 1.96.1036zm-1.05-.058.527-1.4046-.525-.1968-.527 1.4046-.526 1.4046.525.1968zm-.525-.1968.527-1.4046-.525-.1968-.527 1.4046-.526 1.4046.525.1968zm-.525-.1968.527-1.4046c-.554-.2073-1.136-.2914-1.731-.2298l.154 1.492.155 1.4921c.105-.0109.222 0 .369.0549zm-1.05-.1424-.154-1.492-.525.0544.154 1.492.155 1.492.525-.0543zm-.525.0544-.154-1.492-.525.0543.154 1.492.155 1.4921.525-.0544zm-.525.0543-.154-1.492c-.246.0254-.49.025-.736-.0013l-.16 1.4915-.159 1.4915c.454.0486.909.0494 1.364.0024zm-1.05-.0018.16-1.4915-.525-.0561-.16 1.4915-.159 1.4914.525.0562zm-.525-.0561.16-1.4915-.525-.0562-.16 1.4915-.159 1.4915.525.0561zm-.525-.0562.16-1.4915c-.709-.0758-1.373.1007-1.955.4344l.745 1.3016.746 1.3016c.064-.0364.103-.0483.12-.0522.014-.0034.02-.0029.025-.0024zm-1.05.2445-.745-1.3016-.525.3007.745 1.3016.746 1.3017.525-.3008zm-.525.3007-.745-1.3016-.525.3007.745 1.3017.746 1.3016.525-.3007zm-.525.3008-.745-1.3017c.036-.0208.144-.0677.299-.0597.149.0078.233.0615.238.0645l-.842 1.242-.841 1.2419c.355.2401.789.4214 1.288.4475.504.0264.962-.1116 1.349-.3329zm-1.05-.0549.842-1.242-.525-.3556-.842 1.242-.841 1.2419.525.3556zm-.525-.3556.842-1.242-.525-.3556-.842 1.242-.841 1.2419.525.3556zm-.525-.3556.842-1.242c-.67-.4537-1.499-.6488-2.359-.367l.467 1.4254.468 1.4255c-.022.0069-.053.0142-.091.0171-.038.003-.076.0008-.11-.0051-.069-.0122-.09-.0339-.058-.012zm-1.05-.1836-.467-1.4254-.525.1721.467 1.4254.468 1.4254.525-.172zm-.525.1721-.467-1.4254-.525.1721.467 1.4254.468 1.4254.525-.1721zm-.525.1721-.467-1.4254c-.119.0392-.215.0426-.309.0251l-.274 1.4748-.274 1.4748c.606.1126 1.211.0663 1.792-.1239zm-1.05.0745.274-1.4748-.525-.0975-.274 1.4748-.274 1.4748.525.0975zm-.525-.0975.274-1.4748-.525-.0975-.274 1.4748-.274 1.4747.525.0976zm-.525-.0975.274-1.4748c-.679-.1263-1.343-.0234-1.95.2556l.626 1.3629.627 1.363c.093-.0427.129-.0357.149-.032zm-1.05.1437-.626-1.3629-.525.2412.626 1.363.627 1.363.525-.2413zm-.525.2413-.626-1.363-.525.2413.626 1.363.627 1.3629.525-.2412zm-.525.2413-.626-1.363c.01-.0048.06-.0234.134-.0218.034.0008.063.0056.086.0115.022.0058.032.0112.031.0104l-.675 1.34-.674 1.3399c.749.377 1.578.401 2.351.0459zm-1.05-.0229.675-1.34-.525-.2641-.675 1.3399-.674 1.3399.525.2642zm-.525-.2642.675-1.3399-.525-.2642-.675 1.3399-.674 1.34.525.2641zm-.525-.2642.675-1.3399c-.697-.3504-1.474-.4199-2.234-.1453l.509 1.4107.51 1.4108c-.003.001-.014.0046-.032.0072s-.038.0035-.059.0021c-.044-.0032-.061-.0149-.043-.0056zm-1.05-.0745-.509-1.4107-.525.1896.509 1.4108.51 1.4108.525-.1897zm-.525.1897-.509-1.4108-.525.1897.509 1.4107.51 1.4108.525-.1896zm-.525.1896-.509-1.4107c-.002.0007.003-.0014.015-.0032.012-.0019.026-.0028.041-.0021s.027.0029.033.0045c.006.0015.004.0017-.006-.003l-.624 1.3642-.623 1.3642c.693.3171 1.45.3618 2.183.0969zm-1.05-.0503.624-1.3642-.525-.24-.624 1.3642-.623 1.3642.525.24zm-.525-.24.624-1.3642-.525-.24-.624 1.3642-.623 1.3642.525.24zm-.525-.24.624-1.3642c-.915-.4185-1.839-.2296-2.559.2979l.885 1.2105.886 1.2104c.02-.0141-.035.0308-.157.0475-.132.0181-.243-.0106-.302-.0379zm-1.05.1442-.885-1.2105-.525.3842.885 1.2105.886 1.2104.525-.3842zm-.525.3842-.885-1.2105-.525.3842.885 1.2105.886 1.2104.525-.3842zm-.525.3842-.885-1.2105c-.01.007.062-.048.208-.0628.155-.0159.274.0259.327.0538l-.7 1.3267-.699 1.3268c.402.2125.872.3287 1.377.2771.495-.0506.918-.2516 1.258-.5007zm-1.05.1072.7-1.3267-.525-.2769-.7 1.3267-.699 1.3268.525.2769zm-.525-.2769.7-1.3267-.525-.2769-.7 1.3267-.699 1.3267.525.277zm-.525-.2769.7-1.3267c-.697-.3677-1.485-.4511-2.26-.1709l.51 1.4106.511 1.4105c-.006.002-.02.0064-.041.0093-.022.003-.045.0038-.069.0019-.05-.0042-.069-.0179-.05-.008zm-1.05-.087-.51-1.4106-.525.1898.51 1.4106.511 1.4106.525-.1899zm-.525.1898-.51-1.4106-.525.1899.51 1.4106.511 1.4106.525-.1899zm-.525.1899-.51-1.4106c-.004.0015-.001.0001.008-.0014s.021-.0024.034-.0019.023.0022.028.0034c.004.0011.002.001-.009-.0035l-.601 1.3743-.601 1.3743c.692.3025 1.44.337 2.162.076zm-1.05-.0397.601-1.3743-.525-.2296-.601 1.3743-.601 1.3743.525.2296zm-.525-.2296.601-1.3743-.525-.2296-.601 1.3743-.601 1.3743.525.2296zm-.525-.2296.601-1.3743c-.554-.2425-1.148-.3579-1.764-.3112l.113 1.4957.114 1.4957c.084-.0064.19.0047.335.0684zm-1.05-.1898-.113-1.4957-.525.0399.113 1.4957.114 1.4957.525-.0399zm-.525.0399-.113-1.4957-.525.0398.113 1.4957.114 1.4957.525-.0398zm-.525.0398-.113-1.4957c-.499.0379-.988.1494-1.461.3261l.524 1.4053.525 1.4054c.226-.0845.438-.1302.639-.1454zm-1.05.2357-.524-1.4053-.525.1959.524 1.4054.525 1.4053.525-.1959zm-.525.196-.524-1.4054-.525.196.524 1.4053.525 1.4053.525-.1959zm-.525.1959-.524-1.4053c-.069.0258-.102.0228-.142.0123l-.384 1.4502-.383 1.4502c.66.1744 1.327.1333 1.958-.1021zm-1.05.0572.384-1.4502-.525-.1388-.384 1.4503-.383 1.4502.525.1387zm-.525-.1387.384-1.4503-.525-.1387-.384 1.4503-.383 1.4502.525.1387zm-.525-.1387.384-1.4503c-.376-.0993-.753-.188-1.13-.2659l-.304 1.4689-.304 1.4689c.324.0668.647.143.971.2286zm-1.05-.2473.304-1.4689-.525-.1086-.304 1.4689-.304 1.4689.525.1086zm-.525-.1086.304-1.4689-.525-.1087-.304 1.4689-.304 1.4689.525.1087zm-.525-.1087.304-1.4689c-.414-.0857-.831-.1435-1.249-.1728l-.105 1.4963-.105 1.4963c.282.0198.566.059.851.118zm-1.05-.1454.105-1.4963-.525-.0369-.105 1.4964-.105 1.4963.525.0368zm-.525-.0368.105-1.4964-.525-.0368-.105 1.4963-.105 1.4963.525.0369zm-.525-.0369.105-1.4963c-.518-.0364-1.033.0145-1.536.1471l.381 1.4506.382 1.4506c.197-.0517.382-.0684.563-.0557zm-1.05.1014-.381-1.4506-.525.1382.381 1.4506.382 1.4506.525-.1382zm-.525.1382-.381-1.4506-.525.1382.381 1.4506.382 1.4505.525-.1381zm-.525.1382-.381-1.4506c-.367.0964-.733.1994-1.099.3089l.43 1.437.431 1.437c.334-.1.668-.1939 1.001-.2818zm-1.05.2953-.43-1.437-.525.1572.43 1.437.431 1.437.525-.1572zm-.525.1572-.43-1.437-.525.1572.43 1.437.431 1.437.525-.1572zm-.525.1572-.43-1.437c-.259.0777-.513.127-.761.1505l.141 1.4933.142 1.4934c.451-.0428.898-.1314 1.339-.2632zm-1.05.2068-.141-1.4933-.525.0497.141 1.4933.142 1.4933.525-.0496zm-.525.0497-.141-1.4933-.525.0497.141 1.4933.142 1.4933.525-.0497zm-.525.0497-.141-1.4933c-.335.0317-.67.0583-1.005.0798l.096 1.4969.097 1.4969c.365-.0234.73-.0524 1.095-.087zm-1.05.0834-.096-1.4969-.5248.0337.0962 1.497.0961 1.4969.5255-.0338zm-.5246.0338-.0962-1.497-.525.0338.0962 1.4969.0961 1.4969.525-.0337zm-.525.0337-.0962-1.4969c-.2063.0132-.4151-.0025-.6305-.05l-.3233 1.4647-.3234 1.4648c.4846.1069.9758.146 1.4695.1143zm-1.05-.0822.3233-1.4647-.525-.1159-.3233 1.4647-.3234 1.4648.525.1159zm-.525-.1159.3233-1.4647-.525-.1159-.3233 1.4647-.3234 1.4648.525.1159zm-.525-.1159.3233-1.4647c-.517-.1141-1.0418-.1386-1.5668-.0704l.1935 1.4875.1934 1.4875c.175-.0228.3502-.0155.5332.0249zm-1.05-.0476-.1935-1.4875-.525.0683.1935 1.4875.1934 1.4875.525-.0683zm-.525.0683-.1935-1.4875-.525.0683.1935 1.4875.1934 1.4874.525-.0682zm-.525.0683-.1935-1.4875c-.2173.0282-.4331.0274-.6509-.0028l-.2056 1.4859-.2057 1.4858c.4822.0667.9664.0688 1.4491.006zm-1.05-.0044.2056-1.4859-.525-.0726-.2056 1.4858-.2057 1.4858.525.0727zm-.525-.0727.2056-1.4858-.525-.0727-.2056 1.4858-.2057 1.4859.525.0726zm-.525-.0727.2056-1.4858c-.3627-.0502-.7255-.0957-1.0884-.1364l-.1672 1.4907-.1673 1.4906c.3371.0378.6743.0801 1.0116.1268zm-1.05-.1315.1672-1.4907-.525-.0589-.1672 1.4907-.1673 1.4906.525.0589zm-.525-.0589.1672-1.4907-.525-.0589-.1672 1.4906-.1673 1.4907.525.0589zm-.525-.059.1672-1.4906c-.2691-.0302-.5414-.0828-.8176-.1592l-.3996 1.4458-.3997 1.4458c.4238.1172.8515.2005 1.2824.2489zm-1.05-.204.3996-1.4458-.525-.1451-.3996 1.4458-.3997 1.4458.525.1451zm-.525-.1451.3996-1.4458-.525-.1451-.3996 1.4458-.3997 1.4458.525.1451zm-.525-.1451.3996-1.4458c-.7757-.2144-1.5328-.0786-2.188.2918l.7384 1.3057.7383 1.3057c.035-.0198.0338-.0122.0012-.0075-.0153.0022-.0328.0031-.0508.0019-.0178-.0012-.031-.004-.0384-.006zm-1.05.1517-.7384-1.3057-.525.2969.7384 1.3057.7383 1.3057.525-.2969zm-.525.2969-.7384-1.3057-.525.2968.7384 1.3058.7383 1.3057.525-.2969zm-.525.2969-.7384-1.3058c-.1525.0863-.2416.0949-.2869.0942l-.0247 1.4998-.0248 1.4997c.6548.0109 1.2657-.1727 1.8131-.4822zm-1.05.2882.0247-1.4998-.525-.0087-.0247 1.4998-.0248 1.4998.525.0086zm-.525-.0087.0247-1.4998-.525-.0087-.0247 1.4998-.0248 1.4998.525.0087zm-.525-.0087.0247-1.4998c-.2599-.0043-.5218-.0318-.7866-.0837l-.2881 1.4721-.2882 1.4721c.4352.0851.8733.1319 1.3134.1391zm-1.05-.1114.2881-1.4721-.525-.1027-.2881 1.472-.2882 1.4721.525.1028zm-.525-.1028.2881-1.472-.525-.1028-.2881 1.4721-.2882 1.472.525.1028zm-.525-.1027.2881-1.4721c-.3655-.0716-.7311-.1371-1.0969-.1967l-.2412 1.4804-.2413 1.4805c.3343.0545.6686.1144 1.0031.1799zm-1.05-.1884.2412-1.4804-.525-.0856-.2412 1.4805-.2413 1.4805.525.0855zm-.525-.0855.2412-1.4805-.525-.0855-.2412 1.4805-.2413 1.4804.525.0856zm-.525-.0855.2412-1.4805c-.483-.0787-.9693-.0918-1.4552-.0384l.164 1.4911.1639 1.491c.2141-.0236.4278-.0181.6448.0172zm-1.05-.0278-.164-1.4911-.525.0578.164 1.491.1639 1.491.525-.0577zm-.525.0577-.164-1.491-.525.0577.164 1.491.1639 1.491.525-.0577zm-.525.0577-.164-1.491c-.2143.0235-.4283.0181-.6455-.0172l-.2405 1.4806-.2406 1.4806c.4828.0784.9689.0914 1.4545.038zm-1.05-.0276.2405-1.4806-.525-.0853-.2405 1.4806-.2406 1.4806.525.0853zm-.525-.0853.2405-1.4806-.525-.0852-.2405 1.4805-.2406 1.4806.525.0853zm-.525-.0853.2405-1.4805c-.3974-.0646-.7957-.1097-1.1947-.1353l-.0958 1.4969-.0959 1.497c.301.0192.6027.0534.9053.1025zm-1.05-.1189.0958-1.4969-.525-.0336-.0958 1.4969-.0959 1.497.525.0336zm-.525-.0336.0958-1.4969-.525-.0336-.0958 1.4969-.0959 1.497.525.0336zm-.525-.0336.0958-1.4969c-.5119-.0328-1.0197.017-1.5177.1445l.3719 1.4531.3718 1.4532c.202-.0517.3943-.069.5823-.0569zm-1.05.1007-.3719-1.4531-.5249.1343.3718 1.4532.3718 1.4532.525-.1344zm-.525.1344-.3718-1.4532-.525.1343.3718 1.4532.3718 1.4532.525-.1343zm-.525.1343-.3718-1.4532c-.351.0898-.702.18-1.053.2705l.3748 1.4525.3747 1.4524c.349-.09.698-.1797 1.0471-.269zm-1.05.2698-.3748-1.4525-.525.1355.3748 1.4524.3747 1.4525.525-.1355zm-.525.1354-.3748-1.4524-.525.1354.3748 1.4525.3747 1.4524.525-.1354zm-.525.1355-.3748-1.4525c-.2394.0618-.472.0931-.7002.0969l.025 1.4998.0249 1.4998c.4719-.0079.9392-.0728 1.3998-.1916zm-1.05.1442-.025-1.4998-.525.0087.025 1.4998.0249 1.4998.525-.0087zm-.525.0087-.025-1.4998-.525.0087.025 1.4998.0249 1.4998.525-.0087zm-.525.0087-.025-1.4998c-.2131.0036-.4307-.0214-.6561-.0786l-.3689 1.454-.3689 1.4539c.4746.1204.9569.1784 1.4438.1703zm-1.05-.1244.3689-1.454-.525-.1332-.3689 1.454-.3689 1.4539.525.1332zm-.525-.1332.3689-1.454-.525-.1332-.3689 1.4539-.369 1.454.5251.1332zm-.525-.1333.3689-1.4539c-.4588-.1164-.924-.18-1.3935-.188l-.0254 1.4998-.0255 1.4998c.2305.0039.4653.0351.7065.0963zm-1.05-.1421.0254-1.4998-.5249-.0089-.0255 1.4998-.0255 1.4998.525.0089zm-.525-.0089.0255-1.4998-.5251-.0089-.0254 1.4998-.0255 1.4998.525.0089zm-.525-.0089.0254-1.4998c-.4586-.0078-.9151.034-1.3676.1239l.2922 1.4712.2922 1.4713c.2474-.0492.4909-.0709.7323-.0668zm-1.05.0953-.2922-1.4712-.525.1042.2922 1.4713.2922 1.4713.525-.1043zm-.525.1043-.2922-1.4713-.525.1043.2922 1.4713.2922 1.4712.525-.1042zm-.525.1043-.2922-1.4713c-.0035.0007-.004.0005-.0025.0005s.002.0001.0004-.0001c-.0018-.0003-.0255-.004-.0742-.0289l-.6815 1.3363-.6815 1.3362c.6179.3152 1.3093.4404 2.0237.2985zm-1.05-.1635.6815-1.3363-.525-.2677-.6815 1.3362-.6816 1.3363.5251.2677zm-.525-.2678.6815-1.3362-.525-.2678-.6815 1.3362-.6816 1.3363.525.2678zm-.525-.2678.6815-1.3362c-.7133-.3638-1.5109-.4236-2.2806-.1209l.5491 1.3959.549 1.3959c-.0123.0048-.0539.017-.1114.0136-.0557-.0032-.0817-.0184-.0692-.012zm-1.05-.0612-.5491-1.3959-.525.2065.5491 1.3959.549 1.3959.525-.2065zm-.525.2065-.5491-1.3959-.525.2065.5491 1.3959.549 1.3959.525-.2065zm-.525.2065-.5491-1.3959c-.0057.0022-.0038.0009.0049-.0007.0089-.0018.0213-.0031.0356-.003.0143.0002.026.0018.0337.0035.0074.0016.0077.0024.0001-.0008l-.5752 1.3854-.5753 1.3853c.7062.2932 1.4593.3033 2.1743.0221zm-1.05-.0115.5752-1.3854-.525-.218-.5752 1.3854-.5753 1.3853.525.218zm-.525-.218.5752-1.3854-.525-.218-.5752 1.3854-.5753 1.3853.525.218zm-.525-.218.5752-1.3854c-.5444-.226-1.1229-.3342-1.7198-.2965l.0946 1.497.0946 1.4971c.103-.0066.2245.0085.3801.0731zm-1.05-.1849-.0946-1.497-.525.0332.0946 1.497.0946 1.497.525-.0331zm-.525.0332-.0946-1.497-.525.0332.0946 1.497.0946 1.497.525-.0332zm-.525.0332-.0946-1.497c-.5046.0319-.9978.1407-1.4758.3175l.5204 1.4068.5203 1.4069c.222-.0821.4289-.1248.6243-.1372zm-1.05.2273-.5204-1.4068-.525.1942.5204 1.4068.5203 1.4069.525-.1942zm-.525.1942-.5204-1.4068-.525.1942.5204 1.4068.5203 1.4069.525-.1942zm-.525.1942-.5204-1.4068c-.1935.0715-.3664.1001-.526.0997l-.0036 1.5-.0037 1.5c.5404.0013 1.0675-.0987 1.574-.286zm-1.05.1929.0036-1.5-.525-.0012-.0036 1.5-.0037 1.5.525.0012zm-.525-.0012.0036-1.5-.525-.0013-.0036 1.5-.0037 1.5.525.0013zm-.525-.0013.0036-1.5c-.3135-.0008-.6271-.013-.9409-.0366l-.1127 1.4957-.1128 1.4958c.3862.0291.7726.0441 1.1591.0451zm-1.05-.0409.1127-1.4957-.525-.0396-.1127 1.4958-.1128 1.4957.525.0396zm-.525-.0395.1127-1.4958-.525-.0396-.1127 1.4958-.1128 1.4958.525.0395zm-.525-.0396.1127-1.4958c-.1718-.0129-.3608-.057-.5719-.1475l-.5908 1.3787-.5909 1.3787c.4889.2096 1 .3418 1.5281.3817zm-1.05-.2646.5908-1.3787-.525-.225-.5908 1.3787-.5909 1.3787.525.225zm-.525-.225.5908-1.3787-.5249-.225-.5909 1.3787-.5909 1.3787.525.225zm-.525-.225.5909-1.3787c-.5014-.2149-1.0281-.3439-1.5733-.3685l-.0676 1.4985-.0676 1.4985c.1547.007.328.0438.5267.1289zm-1.05-.2487.0676-1.4985-.525-.0236-.0676 1.4984-.0676 1.4985.525.0237zm-.525-.0237.0676-1.4984-.525-.0237-.0676 1.4985-.0676 1.4984.525.0237zm-.525-.0236.0676-1.4985c-.6108-.0276-1.1968.1017-1.7417.3509l.6241 1.3641.624 1.364c.1551-.071.2691-.0861.3584-.0821zm-1.05.2165-.6241-1.3641-.525.2402.6241 1.364.624 1.3641.525-.2402zm-.525.2401-.6241-1.364-.525.2402.6241 1.364.624 1.3641.525-.2402zm-.525.2402-.6241-1.364c-.2569.1175-.5017.1979-.7355.2473l.3096 1.4677.3096 1.4677c.4661-.0984.9213-.2519 1.3644-.4546zm-1.05.351-.3096-1.4677-.525.1107.3096 1.4677.3096 1.4677.525-.1107zm-.525.1107-.3096-1.4677-.525.1108.3096 1.4677.3096 1.4677.525-.1108zm-.525.1108-.3096-1.4677c-.0716.0151-.1432.0143-.2444-.0212l-.496 1.4157-.496 1.4156c.5987.2098 1.2272.2578 1.8556.1253zm-1.05-.0732.496-1.4157-.525-.1839-.496 1.4156-.496 1.4156.525.184zm-.525-.184.496-1.4156-.525-.184-.496 1.4157-.496 1.4156.525.1839zm-.525-.1839.496-1.4157c-.6813-.2387-1.3903-.2309-2.0654.0182l.5194 1.4073.5193 1.4072c.013-.0048.0201-.0063.022-.0067.0017-.0003.0006 0-.0023.0001-.003 0-.0045-.0003-.0037-.0002.001.0002.007.0013.0187.0054zm-1.05.0098-.5194-1.4073-.525.1938.5194 1.4072.5193 1.4072.525-.1937zm-.525.1937-.5194-1.4072-.525.1937.5194 1.4073.5193 1.4072.525-.1938zm-.525.1938-.5194-1.4073c.0078-.0028.0246-.0081.0493-.0115.025-.0035.0521-.0043.079-.0019.0572.0051.0805.0213.0622.0113l-.7211 1.3152-.7212 1.3153c.7005.3841 1.502.4771 2.2905.1861zm-1.05-.0942.7211-1.3152-.525-.2879-.7211 1.3153-.7212 1.3152.525.2879zm-.525-.2878.7211-1.3153-.525-.2878-.7211 1.3152-.7212 1.3153.525.2878zm-.525-.2879.7211-1.3152c-.5581-.3061-1.1827-.4785-1.8492-.4414l.0833 1.4976.0832 1.4977c.0266-.0014.0985-.0012.2404.0766zm-1.0448-.259-.0833-1.4976-.5198.0289.0833 1.4976.0832 1.4977.5198-.0289zm-.5198.0289-.0833-1.4976-.5198.0289.0833 1.4976.0833 1.4977.5197-.0289zm-.5198.0289-.0833-1.4976c-.4385.0243-.8777.0892-1.3166.1915l.3405 1.4608.3405 1.4608c.2806-.0654.5476-.1036.8022-.1178zm-1.0594.1547-.3405-1.4608-.5396.1257.3405 1.4609.3405 1.4608.5396-.1258zm-.5396.1258-.3405-1.4609-.5396.1258.3405 1.4608.3405 1.4609.5396-.1258zm-.5396.1257-.3405-1.4608c-.1934.0451-.3698.0528-.5376.0315l-.1892 1.488-.1893 1.488c.5359.0682 1.0711.0368 1.5971-.0858zm-1.0673.0587.1892-1.488-.5277-.0671-.1893 1.488-.1892 1.488.5277.0671zm-.5278-.0671.1893-1.488-.5278-.0672-.1892 1.4881-.1892 1.488.5277.0671zm-.5277-.0671.1892-1.4881c-.1295-.0164-.2589-.0598-.3987-.1464l-.7899 1.2752-.7898 1.2752c.4891.3029 1.0259.4991 1.6.5721zm-.9994-.3593.7899-1.2752-.4717-.2921-.7898 1.2752-.7898 1.2752.4716.2921zm-.4716-.2921.7898-1.2752-.4716-.2921-.7898 1.2752-.7899 1.2752.4717.2921zm-.4716-.2921.7898-1.2752c-.3409-.2112-.6815-.4074-1.0217-.5882l-.7039 1.3246-.704 1.3245c.2788.1482.5621.3112.8499.4895zm-.9358-.5388.7039-1.3246-.4642-.2467-.7039 1.3246-.704 1.3246.4642.2466zm-.4642-.2467.7039-1.3246-.4642-.2467-.7039 1.3246-.7039 1.3246.4641.2467zm-.4642-.2467.7039-1.3246c-.4995-.2654-1.0378-.4165-1.5994-.4584l-.1114 1.4959-.1113 1.4959c.162.012.2948.0523.4143.1158zm-1.0069-.2871.1114-1.4959-.5427-.0403-.1113 1.4958-.1114 1.4959.5427.0404zm-.5426-.0404.1113-1.4958-.5427-.0404-.1113 1.4958-.1114 1.4959.5427.0404zm-.5427-.0404.1113-1.4958c-.3408-.0254-.6877-.0584-1.0407-.0992l-.172 1.4901-.1719 1.4902c.3919.0452.7793.0821 1.1619.1106zm-1.1014-.1049.172-1.4901-.5587-.0644-.172 1.4901-.1719 1.4901.5587.0645zm-.5587-.0644.172-1.4901-.5587-.0645-.172 1.4901-.1719 1.4901.5587.0645zm-.5587-.0645.172-1.4901c-.1623-.0187-.2868-.0651-.3939-.1318l-.7931 1.2731-.7932 1.2732c.5014.3123 1.0536.4985 1.6363.5657zm-1.015-.3488.7931-1.2731-.4563-.2843-.7932 1.2731-.7931 1.2732.4563.2843zm-.4564-.2843.7932-1.2731-.4563-.2843-.7932 1.2731-.7932 1.2732.4564.2843zm-.4563-.2843.7932-1.2731c-.3221-.2007-.6487-.3947-.9797-.5822l-.7391 1.3053-.7391 1.3053c.2947.1668.5852.3395.8715.5179zm-.9256-.55.7391-1.3053-.4693-.2657-.7391 1.3053-.7391 1.3052.4693.2658zm-.4693-.2657.7391-1.3053-.4693-.2657-.7391 1.3052-.7391 1.3053.4693.2657zm-.4693-.2658.7391-1.3052c-.1497-.0848-.2808-.1941-.3981-.3369l-1.1588.9525-1.1588.9525c.3473.4224.7614.7728 1.2375 1.0424zm-.8178-.6896 1.1588-.9525-.3485-.424-1.1588.9525-1.1587.9525.3484.424zm-.3485-.424 1.1588-.9525-.3485-.4239-1.1587.9525-1.1588.9525.3485.4239zm-.3484-.4239 1.1587-.9525c-.3182-.3872-.6831-.7253-1.0935-1.0099l-.8548 1.2326-.8548 1.2326c.1778.1233.3392.2716.4856.4497zm-.7896-.7298.8548-1.2326-.4411-.3059-.8548 1.2326-.8548 1.2326.4411.3059zm-.4411-.3059.8548-1.2326-.4411-.3059-.8548 1.2326-.85479 1.2326.44109.3059zm-.4411-.3059.8548-1.2326c.0092.0064.0208.0159.0325.0283.0118.0124.0204.0241.0259.033.0115.0186.0011.0106-.0106-.0465l-1.4692.3025-1.46918.3025c.1481.7193.51999 1.3871 1.18099 1.8454zm-.5666-.9153 1.4692-.3025-.1255-.6094-1.4692.3025-1.46917.3025.12549.6094zm-.1255-.6094 1.4692-.3025-.1255-.6094-1.46918.3025-1.46917.3025.12548.6094zm-.12548-.6094 1.46918-.3025c-.1817-.8824-.7433-1.5884-1.62026-1.9207l-.53149 1.4027-.53149 1.4027c-.02755-.0104-.10211-.0481-.17246-.1327-.06831-.0821-.08302-.1487-.08265-.147zm-.68257-.8205.53149-1.4027-.55708-.211-.53149 1.4026-.5315 1.4027.55709.2111zm-.55708-.2111.53149-1.4026-.55709-.2111-.53149 1.4026-.53149 1.4027.55708.2111zm-.55709-.2111.53149-1.4026c-.02094-.008-.03115-.0137-.03339-.015-.00202-.0012.00249.0013.01073.0085.0084.0073.01764.0169.02624.0281.00855.0112.01379.0205.01634.0256l-1.34569.6627-1.34568.6627c.34493.7004.92397 1.1734 1.60847 1.4327zm-.79428-.6927 1.34569-.6627-.23719-.4816-1.34569.6626-1.34568.6627.23719.4817zm-.23719-.4817 1.34569-.6626-.23719-.4817-1.34569.6627-1.34568.6626.23719.4817zm-.23719-.4816 1.34569-.6627c-.09546-.1938-.16667-.4063-.21085-.6427l-1.47447.2755-1.47448.2755c.09242.4946.24763.9687.46843 1.417zm-.33963-1.0299 1.47447-.2755-.10244-.5482-1.47448.2755-1.47447.2755.10244.5482zm-.10245-.5482 1.47448-.2755-.10245-.5483-1.47447.2756-1.47448.2755.10245.5482zm-.10244-.5482 1.47447-.2756c-.13256-.7093-.49208-1.3213-1.04662-1.7827l-.95933 1.1531-.95934 1.1532c.01002.0083.01436.0132.01519.0142.00074.0008-.00034-.0003-.00197-.0031-.00162-.0028-.00215-.0043-.00179-.0034.0004.0011.00255.0072.00491.0198zm-.53148-.9052.95933-1.1531-.42904-.3569-.95933 1.1531-.95933 1.1531.42903.357zm-.42904-.3569.95933-1.1531-.42903-.3569-.95933 1.1531-.95934 1.1531.42904.3569zm-.42903-.3569.95933-1.1531c-.26051-.2168-.51875-.4462-.77466-.6887l-1.03155 1.089-1.03155 1.089c.30121.2854.60756.5577.91909.8169zm-.84688-.7528 1.03155-1.089-.41785-.3958-1.03155 1.089-1.03155 1.089.41785.3958zm-.41785-.3958 1.03155-1.089-.41784-.3958-1.03155 1.089-1.03155 1.089.41784.3958zm-.41784-.3958 1.03155-1.089c-.00553-.0052.01486.0135.03354.0569.0085.0198.01385.0383.0168.0535.0029.0148.00267.0221.00268.0196l-1.49998-.0064-1.49999-.0064c-.00341.7987.30814 1.5155.88385 2.0608zm-.41541-.9654 1.49998.0064.00244-.5697-1.49999-.0064-1.49999-.0064-.00243.5697zm.00243-.5697 1.49999.0064.00243-.5697-1.49999-.0064-1.49998-.0064-.00244.5697zm.00243-.5697 1.49999.0064c.00253-.5933-.11927-1.1712-.37963-1.7112l-1.35116.6514-1.35116.6515c.05062.1049.08269.2293.08198.3955zm-.2308-1.0534 1.35116-.6514-.23324-.4838-1.35116.6515-1.351161.6514.233241.4838zm-.23324-.4837 1.35116-.6515-.23324-.4837-1.35116.6514-1.35116.6514.233239.4838zm-.23324-.4838 1.35116-.6514c-.02892-.06-.04319-.121-.03236-.2187l-1.49087-.1653-1.490856-.1653c-.070739.6378.029703 1.2671.311766 1.8521zm-.17207-1.0354 1.49087.1653.06117-.5516-1.49086-.1653-1.490862-.1654-.061174.5517zm.06118-.5516 1.49086.1653.06117-.5516-1.49086-.1654-1.490858-.1653-.061174.5516zm.06117-.5517 1.49086.1654c.04989-.4499.06176-.8957.03255-1.3358l-1.4967.0994-1.496712.0993c.016755.2525.01082.5208-.020856.8064zm.02671-1.071 1.4967-.0994-.03447-.5194-1.49671.0993-1.496704.0994.034472.5194zm-.03448-.5195 1.49671-.0993-.03447-.5194-1.49671.0993-1.496705.0993.034471.5195zm-.03447-.5194 1.49671-.0993c-.02874-.4331-.09489-.8622-.19773-1.2862l-1.45775.3534-1.457759.3535c.062904.2594.102603.5184.119824.7779zm-.15877-1.0321 1.45775-.3534-.1243-.5127-1.45776.3535-1.457753.3535.124304.5126zm-.12431-.5126 1.45776-.3535-.12431-.5126-1.45775.3535-1.457758.3535.124305.5126zm-.1243-.5126 1.45775-.3535c-.01693-.0698-.01801-.1381.01177-.234l-1.43257-.4447-1.432577-.4446c-.185228.5967-.21094109 1.2166-.062131 1.8303zm.03695-1.0322 1.43257.4447.16126-.5195-1.43257-.4447-1.43258-.4446-.161257.5195zm.16126-.5195 1.43257.4447.16126-.5195-1.43258-.4447-1.432574-.4447-.161256.5196zm.16125-.5195 1.43258.4447c.19782-.6374.19627-1.2929.00498-1.9273l-1.43612.4331-1.43612.4331c.021798.0723.019288.1164.002106.1717zm.00144-1.0495 1.43612-.4331-.15982-.5299-1.43612.4331-1.436118.433.159818.53zm-.15982-.5299 1.43612-.4331-.15981-.53-1.43612.4331-1.436125.4331.159817.5299zm-.15981-.53 1.43612-.4331c-.0637-.2112-.09072-.4111-.08762-.6047l-1.49981-.024-1.49980611-.024c-.00825274.5155.06559741 1.0235.21499111 1.5189zm-.15131-1.0618 1.49981.024.00851-.5318-1.4998-.024-1.49981218-.024-.00851393.5318zm.00852-.5318 1.4998.024.00852-.5318-1.49981-.024-1.4998083-.024-.00851388.5318zm.00851-.5318 1.49981.024c.0033-.2063.03621-.4046.09932-.5999l-1.42733-.4613-1.427325-.4612c-.154608.4785-.2362334.9715-.2442833 1.4744zm.1718-1.0372 1.42733.4613.16329-.5054-1.42733-.4612-1.427324-.4612-.163291.5053zm.16329-.5053 1.42733.4612.16329-.5053-1.42732-.4612-1.427334-.4613-.16329.5054zm.1633-.5053 1.42732.4612c.11753-.3637.22433-.7292.32035-1.0965l-1.45123-.3794-1.451233-.3794c-.081515.3119-.172345.6228-.272541.9328zm.29644-1.0147 1.45123.3794.13315-.5093-1.45123-.3794-1.451231-.3794-.133152.5093zm.13315-.5093 1.45123.3794.13315-.5094-1.45123-.3794-1.45123-.3793-.133151.5093zm.13315-.5094 1.45123.3794c.07816-.2989.16874-.5943.2718-.8861l-1.41439-.4995-1.41438-.4995c-.13093.3707-.24611.7462-.34549 1.1264zm.30864-1.0062 1.41439.4995.17549-.4969-1.41438-.4995-1.41439-.4995-.17549.4969zm.1755-.4969 1.41438.4995.17549-.4969-1.41438-.4995-1.41438-.4995-.1755.4969zm.17549-.4969 1.41438.4995c.1062-.3007.22203-.5976.34753-.8909l-1.37905-.5901-1.37906-.5901c-.15099.3529-.29039.7103-.41818 1.0721zm.38286-.9815 1.37905.5901.20737-.4846-1.37905-.5901-1.37906-.5901-.20737.4846zm.20737-.4846 1.37905.5901.20737-.4847-1.37906-.59-1.37905-.5901-.20737.4846zm.20736-.4846 1.37906.59c.14865-.3474.28889-.7005.42076-1.0593l-1.40795-.5174-1.40794-.5174c-.11414.3106-.23514.6152-.36298.914zm.39187-.9867 1.40795.5174.1845-.5021-1.40794-.5174-1.40794-.5174-.18451.5021zm.18451-.5021 1.40794.5174.1845-.5021-1.40794-.5174-1.40794-.5174-.1845.5021zm.1845-.5021 1.40794.5174c.0978-.2661.21424-.5232.34953-.7718l-1.31753-.717-1.31753-.717c-.20529.3772-.38214.7677-.53035 1.171zm.43994-.9714 1.31753.717.25544-.4694-1.31753-.717-1.31753-.717-.25544.4694zm.25544-.4694 1.31753.717.25543-.4693-1.31752-.717-1.31753-.7171-.25544.4694zm.25544-.4693 1.31752.717c.01058-.0195.03477-.0619.14477-.1179l-.68117-1.3364-.68117-1.3365c-.59091.3012-1.08748.7504-1.41748 1.3567zm.78112-.7373.68117 1.3364.52569-.268-.68117-1.3364-.68118-1.3364-.52568.2679zm.52569-.268.68117 1.3364.52568-.2679-.68117-1.3364-.68117-1.3364-.52569.2679zm.52568-.2679.68117 1.3364c.46735-.2382.89475-.5334 1.26368-.8953l-1.05036-1.0708-1.05036-1.0709c-.1228.1205-.29173.2451-.5253.3642zm.89449-.6297 1.05036 1.0708.3688-.3617-1.05036-1.0709-1.05035-1.0708-.36881.3617zm.3688-.3618 1.05036 1.0709.36881-.3617-1.05036-1.0709-1.05036-1.0709-.3688.3618zm.36881-.3617 1.05036 1.0709c.4864-.4771.7744-1.0704.9165-1.6961l-1.46268-.3324-1.46272-.3323c-.03832.1687-.08648.2138-.09182.219zm.50418-.9576 1.46268.3324.1354-.5958-1.4627-.3324-1.46272-.3323-.13538.5958zm.13538-.5958 1.4627.3324.1354-.5959-1.46273-.3323-1.46271-.3324-.13538.5959zm.13537-.5958 1.46273.3323c.0365-.1607.0864-.2201.1118-.2455l-1.06-1.0613-1.06001-1.06133c-.48008.4795-.77326 1.06983-.91723 1.70343zm.51453-.9745 1.06 1.0613.3792-.3787-1.0601-1.0613-1.05996-1.06131-.37915.37868zm.3791-.3787 1.0601 1.0613.3791-.3787-1.06-1.06128-1.06-1.06131-.37916.37868zm.3792-.37868 1.06 1.06128c-.0104.0104-.0231.0209-.0372.03s-.0253.0143-.0312.0166c-.0118.0046.0104-.0069.0859-.0094l-.0509-1.49915-.0509-1.49914c-.7275.02472-1.4602.26368-2.0357.8385zm1.0266-.40067.0509 1.49915.6475-.022-.0509-1.49915-.051-1.49913-.6474.02199zm.6475-.022.0509 1.49915.6475-.022-.051-1.49914-.0509-1.49914-.6475.022zm.6474-.02199.051 1.49914c.6397-.0217 1.2923-.1797 1.864-.57082l-.847-1.238-.8469-1.23801c.0109-.00751-.0485.04096-.272.04855zm1.068-.30968.847 1.238.4205-.28768-.847-1.238-.8469-1.23801-.4205.28768zm.4205-.28768.847 1.238.4205-.28768-.847-1.238-.8469-1.23801-.4205.28768zm.4205-.28768.847 1.238c.3417-.23376.6671-.4936.9764-.77833l-1.0159-1.1036-1.0159-1.1036c-.2067.19027-.4196.35971-.6385.50952zm.8075-.64393 1.0159 1.1036.387-.35624-1.0159-1.10361-1.0159-1.1036-.387.35625zm.387-.35625 1.0159 1.10361.387-.35625-1.0159-1.1036-1.0159-1.10361-.387.35625zm.387-.35624 1.0159 1.1036c.1908-.17563.3941-.33079.6104-.46648l-.7969-1.27078-.797-1.27079c-.3734.2342-.7231.50148-1.0483.80084zm.8294-.63366.7969 1.27078.4424-.27741-.797-1.27078-.7969-1.27079-.4424.27741zm.4423-.27741.797 1.27078.4423-.27741-.7969-1.27079-.7969-1.27078-.4424.27741zm.4424-.27742.7969 1.27079c.3866-.24242.7497-.52824 1.0904-.85189l-1.033-1.08757-1.0331-1.08757c-.2085.19803-.4149.35799-.6181.48546zm.8543-.66867 1.033 1.08757.4119-.39127-1.033-1.08757-1.0331-1.08757-.4119.39127zm.4119-.39127 1.033 1.08757.4119-.39126-1.033-1.08757-1.0331-1.08757-.4119.39126zm.4119-.39126 1.033 1.08757c.0838-.07953.147-.10539.207-.1177l-.3021-1.46927-.3021-1.46927c-.6414.13187-1.2034.43894-1.6689.8811zm.9379-.4994.3021 1.46927.5259-.10814-.3021-1.46927-.3021-1.46927-.5259.10814zm.5259-.10814.3021 1.46927.526-.10814-.3021-1.46927-.3021-1.46926-.526.10813zm.526-.10814.3021 1.46927c.37-.07608.7369-.15914 1.1006-.24921l-.3605-1.45602-.3606-1.45603c-.3246.08037-.6525.15462-.9837.22273zm1.0422-.23596.3605 1.45602.5162-.12783-.3605-1.45602-.3606-1.45603-.5162.12783zm.5162-.12783.3605 1.45602.5162-.12783-.3605-1.45602-.3606-1.45603-.5162.12783zm.5162-.12783.3605 1.45602c.0057-.00141.0524-.01708.1857.03398l.5367-1.4007.5367-1.40069c-.6223-.23846-1.2976-.31366-1.9802-.14464zm1.0829.0893-.5367 1.4007.5667.21713.5367-1.40069.5367-1.40069-.5667-.21714zm.5667.21714-.5367 1.40069.5666.21714.5367-1.40069.5368-1.4007-.5667-.21713zm.5666.21714-.5367 1.40069c.6095.23354 1.2763.31732 1.954.15557l-.3483-1.45901-.3482-1.45902c-.0029.00068-.0119.00286-.0343.00082-.0243-.00222-.073-.01035-.1497-.03975zm1.069.09725.3483 1.45901.5023-.11988-.3483-1.45902-.3482-1.45902-.5023.11989zm.5023-.11989.3483 1.45902.5023-.11989-.3483-1.45902-.3482-1.45902-.5023.11989zm.5023-.11989.3483 1.45902c.3926-.09371.7854-.2121 1.1783-.35397l-.5095-1.41082-.5095-1.41083c-.2935.10598-.5787.19144-.8558.25758zm1.0171-.30577.5095 1.41082.5147-.18588-.5095-1.41082-.5095-1.41083-.5147.18588zm.5147-.18588.5095 1.41082.5147-.18588-.5094-1.41083-.5095-1.41082-.5148.18588zm.5148-.18589.5094 1.41083c.1684-.0608.2784-.09894.3403-.11903.0365-.01188.0298-.00875.0008-.00142-.0025.00061-.0773.02057-.1798.0318-.03.0033-.1985.02365-.4107-.01271-.1009-.01729-.3539-.06948-.6167-.2571-.3231-.23068-.6044-.63394-.6265-1.15649l1.4987-.06335 1.4986-.06336c-.0221-.52331-.3038-.92721-.6276-1.15839-.2635-.188116-.5175-.240676-.6198-.258203-.2149-.03683-.3874-.016416-.4229-.012524-.1133.012422-.2043.03569-.2283.041752-.0721.018218-.1434.040743-.1928.056782-.11.035736-.2574.087468-.4322.150593zm.5155-.16747-1.4987.06335.0008.0184 1.4987-.06335 1.4986-.06335-.0008-.01841zm.0008.0184-1.4987.06335.0008.01841 1.4986-.06335 1.4987-.06335-.0008-.01841zm.0007.01841-1.4986.06335c.0221.52238.3005.90717.5825 1.12492.2373.18324.4683.24787.5665.27155.2038.04917.3704.04263.4083.04136.1134-.0038.2054-.01995.2307-.02433.074-.01282.1472-.03005.1978-.04241.1128-.02749.2637-.06812.4421-.11794l-.4035-1.44472-.4035-1.444713c-.1716.047922-.2833.077543-.3458.092786-.037.009017-.0295.00628.0005.001072.0033-.00057.0788-.014631.1812-.018061.0323-.001084.1948-.007869.3958.040626.0967.02334.3267.087529.5633.27021.2813.2172.5593.60133.5814 1.12295zm.5258-.12822.4035 1.44472.525-.14663-.4035-1.44471-.4035-1.444716-.525.146623z" fill="#0d0a00"/><path d="m48.3848 38.5294c-3.69 0-6.444-3.096-6.444-6.552 0-4.05 2.844-6.57 6.066-6.57 3.042 0 5.184 1.656 5.184 3.312 0 .756-.486 1.242-1.206 1.242-1.998 0-2.214-3.456-4.662-3.456-1.584 0-2.718 1.602-2.718 3.726 0 3.636 2.034 6.48 4.392 6.48.684 0 1.242-.162 1.62-.36v-2.646c0-.81-1.08-.936-1.08-1.368v-.072c0-.198.198-.324.45-.324l3.69.018c.252 0 .414.126.414.306v.072c0 .45-.936.558-.936 1.386v2.304c0 .468-.126.774-.648 1.188-.846.684-2.322 1.314-4.122 1.314zm10.8478 0c-2.52 0-4.356-1.8-4.356-4.572 0-2.61 1.998-4.428 4.356-4.428 2.34 0 3.402 1.368 3.402 2.556 0 .612-.324.972-.81 1.188l-3.978 1.818c.468.99 1.296 1.566 2.358 1.566.954 0 1.71-.486 2.052-1.044.234-.27.648-.18.63.198-.108 1.044-1.332 2.718-3.654 2.718zm-1.872-5.814c0 .558.054 1.08.18 1.548l2.34-1.17c.306-.162.468-.468.468-.846 0-.648-.486-1.926-1.458-1.926-.936 0-1.53 1.026-1.53 2.394zm10.029 5.814c-1.638 0-2.736-1.062-2.736-3.114v-4.662h-.846c-.216 0-.36-.144-.36-.36v-.324c0-.216.126-.36.36-.36h.45c1.008 0 1.728-.72 1.908-1.782.054-.27.216-.432.432-.432h.342c.252 0 .414.162.414.432v1.782h2.07c.198 0 .36.162.36.36v.324c0 .216-.162.36-.36.36h-2.07v4.698c0 .72.396 1.152.936 1.152.72 0 1.08-.396 1.224-.81.198-.306.63-.234.63.108 0 1.296-.972 2.628-2.754 2.628zm7.5563-.18c-.252 0-.396-.126-.396-.306v-.072c0-.45.684-.594.684-1.368v-4.068c0-.792-.684-.99-.684-1.386v-.054c0-.162.144-.252.36-.378l2.268-1.116c.45-.216.72.036.72.342v6.66c0 .774.774.918.774 1.368v.072c0 .18-.162.306-.414.306zm-.144-11.502c0-.9.72-1.566 1.782-1.566s1.746.666 1.746 1.566c0 .918-.684 1.584-1.746 1.584s-1.782-.666-1.782-1.584zm11.3956 11.52c-.252 0-.414-.126-.414-.306v-.072c0-.45.702-.594.648-1.386l-.18-3.33c-.09-1.926-.612-2.718-1.566-2.718-.972 0-1.53.81-1.53 1.98v4.086c0 .774.774.918.774 1.368v.072c0 .18-.162.306-.414.306h-3.348c-.252 0-.396-.126-.396-.306v-.072c0-.45.756-.594.756-1.368v-4.194c0-.81-.882-.882-.882-1.332v-.072c0-.18.144-.27.378-.378l2.124-1.044c.414-.216.63.036.63.378v.99c.504-.9 1.458-1.44 2.646-1.44 1.638 0 3.24.972 3.438 3.834l.216 3.24c.054.792.648.936.648 1.386v.072c0 .18-.162.306-.414.306zm11.6725.162c-1.638 0-2.736-1.062-2.736-3.114v-4.662h-.846c-.216 0-.36-.144-.36-.36v-.324c0-.216.126-.36.36-.36h.45c1.008 0 1.728-.72 1.908-1.782.054-.27.216-.432.432-.432h.342c.252 0 .414.162.414.432v1.782h2.07c.198 0 .36.162.36.36v.324c0 .216-.162.36-.36.36h-2.07v4.698c0 .72.396 1.152.936 1.152.72 0 1.08-.396 1.224-.81.198-.306.63-.234.63.108 0 1.296-.972 2.628-2.754 2.628zm8.134 0c-2.916 0-4.932-2.052-4.932-4.554 0-2.61 2.142-4.446 4.662-4.446 2.772 0 4.842 1.98 4.842 4.536s-1.962 4.464-4.572 4.464zm-2.286-5.58c0 1.836.972 4.788 2.61 4.788.972 0 1.548-.954 1.548-2.61 0-1.962-.972-4.806-2.52-4.806-1.062 0-1.638.918-1.638 2.628zm11.719 5.58c-1.854 0-3.348-1.278-3.348-3.744v-3.042c0-.792-.702-.972-.702-1.368v-.054c0-.18.144-.342.378-.378l2.268-.342c.468-.054.738.018.738.324l-.054 5.13c0 1.674.504 2.448 1.494 2.448.864 0 1.548-.828 1.548-2.106v-3.654c0-.792-.72-.972-.72-1.368v-.054c0-.18.144-.342.36-.378l2.304-.342c.468-.054.684.018.684.324v6.588c0 1.422.864.756.864 1.422 0 .414-.594.522-1.602.522-1.026 0-1.548-.288-1.602-1.17-.486.792-1.368 1.242-2.61 1.242zm11.302 0c-2.736 0-4.662-2.088-4.662-4.518 0-2.772 2.106-4.464 4.554-4.482 2.07-.018 3.726 1.116 3.726 2.52 0 .468-.306.936-1.116.9-1.566-.09-1.458-2.646-3.024-2.628-1.008 0-1.656 1.062-1.656 2.394 0 2.394 1.206 3.96 3.06 3.96 1.098 0 1.782-.612 2.16-1.26.198-.288.666-.216.63.18-.126 1.476-1.332 2.934-3.672 2.934zm10.922-.18c-.234 0-.396-.108-.396-.306v-.072c0-.45.684-.594.648-1.368l-.18-3.456c-.09-1.8-.612-2.592-1.566-2.592-.972 0-1.53.81-1.53 1.98v4.086c0 .756.774.9.774 1.35v.072c0 .18-.18.306-.432.306h-3.33c-.252 0-.414-.126-.414-.306v-.072c0-.45.756-.594.756-1.35v-8.964c0-.792-.81-.864-.81-1.296v-.054c0-.198.144-.342.36-.45l2.376-1.044c.396-.18.648-.036.648.324l-.018 5.4c.54-.648 1.35-1.008 2.358-1.008 1.638 0 3.222.972 3.402 3.69l.234 3.366c.072.792.648.936.648 1.386v.072c0 .198-.162.306-.396.306z" fill="#fff"/></svg>