<svg fill="none" height="44" viewBox="0 0 166 44" width="166" xmlns="http://www.w3.org/2000/svg"><path d="m1.44004 43.2002c-.900001 0-1.44000087-.42-1.44000087-1.14v-.24c0-1.68 2.40000087-2.4 2.40000087-5.16v-29.52001c0-2.76-2.40000087-3.48-2.40000087-5.16v-.24c0-.72.53999987-1.139997 1.44000087-1.139997h13.19996c.84 0 1.44.419997 1.44 1.139997v.24c0 1.68-2.7 2.4-2.7 5.16v27.96001c0 1.98.84 3.9 2.94 3.9h6.18c5.1 0 6-8.52 8.88-8.52h.84c.9 0 1.38.6 1.2 1.5l-1.56 9.3c-.24 1.32-.78 1.92-2.1 1.92zm54.23346.6c-11.4 0-21.24-8.82-21.24-21.66 0-13.14001 8.52-22.1400064 21.18-22.1400064 11.52 0 21.18 9.3000064 21.18 22.2000064 0 13.02-9.42 21.6-21.12 21.6zm-10.68-30.54c0 11.4 6.6 26.04 13.8 26.04 4.38 0 6.84-3.3 6.84-8.58 0-10.26-6.72-26.22001-13.92-26.22001-4.26 0-6.72 3.18-6.72 8.76001zm56.7455 30.54c-12.8996 0-21.7196-10.56-21.7196-21.84 0-13.68001 10.02-21.9000072 20.2196-21.9000072 10.2 0 17.64 4.9799972 17.64 11.1000072 0 2.94-1.92 4.86-4.8 4.86-7.68 0-8.7-11.7-15.5396-11.7-4.2 0-7.02 4.44-7.02 10.5 0 11.88 6.18 21.6 13.6796 21.6 1.44 0 2.58-.24 3.36-.6v-7.86c0-2.82-3.36-3.48-3.36-5.16v-.24c0-.72.72-1.2 1.62-1.2l13.38.06c.84 0 1.44.48 1.44 1.2v.24c0 1.68-2.94 2.34-2.94 5.16v6.96c0 1.74-.48 2.88-2.52 4.5-2.64 2.1-7.32 4.32-13.44 4.32zm42.645 0c-11.4 0-21.24-8.82-21.24-21.66 0-13.14001 8.52-22.1400064 21.18-22.1400064 11.52 0 21.18 9.3000064 21.18 22.2000064 0 13.02-9.42 21.6-21.12 21.6zm-10.68-30.54c0 11.4 6.6 26.04 13.8 26.04 4.38 0 6.84-3.3 6.84-8.58 0-10.26-6.72-26.22001-13.92-26.22001-4.26 0-6.72 3.18-6.72 8.76001z" fill="#fff"/></svg>