<svg width="325" height="242" viewBox="0 0 325 242" fill="none" xmlns="http://www.w3.org/2000/svg">
<g opacity="0.7">
<rect y="113" width="3" height="16" rx="1.5" fill="#FF2E84"/>
</g>
<g opacity="0.7">
<rect x="9" y="109" width="3" height="24" rx="1.5" fill="#FF2E84"/>
</g>
<g opacity="0.7">
<rect x="17" y="105" width="3" height="32" rx="1.5" fill="#FF2E84"/>
</g>
<g opacity="0.7">
<rect x="27" y="104" width="3" height="34" rx="1.5" fill="#FF2E84"/>
</g>
<g opacity="0.7">
<rect x="35" y="100" width="3" height="42" rx="1.5" fill="#FF2E84"/>
</g>
<g opacity="0.7">
<rect x="43" y="99" width="3" height="44" rx="1.5" fill="#FF2E84"/>
</g>
<g opacity="0.7">
<rect x="52" y="96" width="3" height="50" rx="1.5" fill="#FF2E84"/>
</g>
<g opacity="0.7">
<rect x="61" y="94" width="3" height="54" rx="1.5" fill="#FF2E84"/>
</g>
<g opacity="0.7">
<rect x="70" y="92" width="3" height="58" rx="1.5" fill="#FF2E84"/>
</g>
<g opacity="0.7">
<rect x="78" y="98" width="3" height="46" rx="1.5" fill="#FF2E84"/>
</g>
<g opacity="0.7">
<rect x="88" y="90" width="3" height="62" rx="1.5" fill="#FF2E84"/>
</g>
<g opacity="0.7">
<rect x="96" y="85" width="3" height="72" rx="1.5" fill="#FF2E84"/>
</g>
<g opacity="0.7">
<rect x="104" y="80" width="3" height="82" rx="1.5" fill="#FF2E84"/>
</g>
<g opacity="0.7">
<rect x="113" y="74" width="3" height="94" rx="1.5" fill="#FF2E84"/>
</g>
<g opacity="0.7">
<rect x="122" y="68" width="3" height="106" rx="1.5" fill="#FF2E84"/>
</g>
<g opacity="0.7">
<rect x="131" y="63" width="3" height="118" rx="1.5" fill="#FF2E84"/>
</g>
<g opacity="0.7">
<rect x="139" y="41" width="3" height="160" rx="1.5" fill="#FF2E84"/>
</g>
<g opacity="0.7">
<rect x="148" y="20" width="3" height="202" rx="1.5" fill="#FF2E84"/>
</g>
<g opacity="0.7">
<rect x="157" width="3" height="242" rx="1.5" fill="#FF2E84"/>
</g>
<g opacity="0.7">
<rect x="165" width="3" height="242" rx="1.5" fill="#FF2E84"/>
</g>
<g opacity="0.7">
<rect x="174" y="20" width="3" height="202" rx="1.5" fill="#FF2E84"/>
</g>
<g opacity="0.7">
<rect x="183" y="41" width="3" height="160" rx="1.5" fill="#FF2E84"/>
</g>
<g opacity="0.7">
<rect x="191" y="59" width="3" height="124" rx="1.5" fill="#FF2E84"/>
</g>
<g opacity="0.7">
<rect x="200" y="67" width="3" height="108" rx="1.5" fill="#FF2E84"/>
</g>
<g opacity="0.7">
<rect x="209" y="72" width="3" height="98" rx="1.5" fill="#FF2E84"/>
</g>
<g opacity="0.7">
<rect x="218" y="79" width="3" height="84" rx="1.5" fill="#FF2E84"/>
</g>
<g opacity="0.7">
<rect x="226" y="83" width="3" height="76" rx="1.5" fill="#FF2E84"/>
</g>
<g opacity="0.7">
<rect x="235" y="90" width="3" height="62" rx="1.5" fill="#FF2E84"/>
</g>
<g opacity="0.7">
<rect x="244" y="98" width="3" height="46" rx="1.5" fill="#FF2E84"/>
</g>
<g opacity="0.7">
<rect x="252" y="92" width="3" height="58" rx="1.5" fill="#FF2E84"/>
</g>
<g opacity="0.7">
<rect x="261" y="94" width="3" height="54" rx="1.5" fill="#FF2E84"/>
</g>
<g opacity="0.7">
<rect x="270" y="98" width="3" height="46" rx="1.5" fill="#FF2E84"/>
</g>
<g opacity="0.7">
<rect x="279" y="100" width="3" height="42" rx="1.5" fill="#FF2E84"/>
</g>
<g opacity="0.7">
<rect x="287" y="102" width="3" height="38" rx="1.5" fill="#FF2E84"/>
</g>
<g opacity="0.7">
<rect x="295" y="105" width="3" height="32" rx="1.5" fill="#FF2E84"/>
</g>
<g opacity="0.7">
<rect x="305" y="109" width="3" height="24" rx="1.5" fill="#FF2E84"/>
</g>
<g opacity="0.7">
<rect x="313" y="111" width="3" height="20" rx="1.5" fill="#FF2E84"/>
</g>
<g opacity="0.7">
<rect x="322" y="114" width="3" height="14" rx="1.5" fill="#FF2E84"/>
</g>
</svg>
