<?xml version="1.0" encoding="UTF-8" standalone="no"?>
<!DOCTYPE svg PUBLIC "-//W3C//DTD SVG 1.1//EN" "http://www.w3.org/Graphics/SVG/1.1/DTD/svg11.dtd">
<svg width="100%" height="100%" viewBox="0 0 1145 306" version="1.1" xmlns="http://www.w3.org/2000/svg" xmlns:xlink="http://www.w3.org/1999/xlink" xml:space="preserve" xmlns:serif="http://www.serif.com/" style="fill-rule:evenodd;clip-rule:evenodd;stroke-linecap:round;stroke-linejoin:round;">
    <path d="M1043,99C1043,71.386 1065.39,49 1093,49C1120.61,49 1143,71.386 1143,99C1143,126.614 1120.61,149 1093,149C1065.39,149 1043,126.614 1043,99Z" style="fill:rgb(167,244,157);fill-rule:nonzero;"/>
    <path d="M1043.51,102.04L1042.26,102.029L1043.51,102.04ZM1043.29,102.933L1042.16,102.396L1043.29,102.933ZM1042.85,103.85L1043.98,104.386L1042.85,103.85ZM1042.73,104.743L1041.51,105.013L1042.73,104.743ZM1042.92,105.611L1044.14,105.341L1042.92,105.611ZM1043.36,106.433L1042.44,107.27L1043.36,106.433ZM1044.06,107.207L1044.99,106.371L1044.06,107.207ZM1044.23,108.074L1043.06,107.633L1044.23,108.074ZM1044.05,108.553L1042.88,108.112L1044.05,108.553ZM1043.87,109.032L1045.04,109.473L1043.87,109.032ZM1043.73,109.954L1042.49,110.085L1043.73,109.954ZM1043.83,110.84L1045.07,110.709L1043.83,110.84ZM1044.01,111.707L1045.2,111.34L1044.01,111.707ZM1044.14,112.13L1042.94,112.497L1044.14,112.13ZM1044.51,113.404L1043.31,113.741L1044.51,113.404ZM1044.75,114.257L1045.96,113.921L1044.75,114.257ZM1045.07,115.082L1043.95,115.637L1045.07,115.082ZM1045.46,115.88L1046.58,115.325L1045.46,115.88ZM1045.96,116.635L1046.92,115.834L1045.96,116.635ZM1046.55,117.346L1045.59,118.146L1046.55,117.346ZM1046.81,118.197L1045.56,118.094L1046.81,118.197ZM1046.77,118.693L1045.52,118.589L1046.77,118.693ZM1046.72,119.188L1047.97,119.292L1046.72,119.188ZM1046.98,120.032L1046.03,120.845L1046.98,120.032ZM1048.01,121.504L1046.81,121.867L1048.01,121.504ZM1048.14,121.933L1049.33,121.57L1048.14,121.933ZM1048.27,122.362L1049.46,121.999L1048.27,122.362ZM1048.82,123.056L1048.15,124.114L1048.82,123.056ZM1049.24,123.322L1049.91,122.265L1049.24,123.322ZM1049.66,123.588L1049,124.646L1049.66,123.588ZM1050.32,124.223L1051.38,123.561L1050.32,124.223ZM1050.55,124.591L1049.48,125.252L1050.55,124.591ZM1050.77,124.959L1051.84,124.297L1050.77,124.959ZM1051.01,125.849L1049.76,125.853L1051.01,125.849ZM1051.01,126.895L1052.26,126.89L1051.01,126.895ZM1051.53,127.587L1051.14,128.775L1051.53,127.587ZM1052.05,127.757L1052.44,126.568L1052.05,127.757ZM1052.57,127.926L1052.18,129.114L1052.57,127.926ZM1053.26,128.516L1054.42,128.058L1053.26,128.516ZM1053.59,129.355L1052.42,129.813L1053.59,129.355ZM1053.94,130.183L1052.81,130.715L1053.94,130.183ZM1054.33,131L1055.46,130.468L1054.33,131ZM1054.75,131.792L1053.68,132.441L1054.75,131.792ZM1055.22,132.559L1056.29,131.91L1055.22,132.559ZM1055.96,133.068L1055.65,134.281L1055.96,133.068ZM1056.97,133.322L1057.27,132.109L1056.97,133.322ZM1057.61,133.928L1056.41,134.277L1057.61,133.928ZM1057.89,134.887L1059.09,134.537L1057.89,134.887ZM1058.43,135.577L1059.01,134.469L1058.43,135.577ZM1059.24,135.998L1058.66,137.107L1059.24,135.998ZM1060,136.466L1059.27,137.479L1060,136.466ZM1060.36,136.724L1061.09,135.711L1060.36,136.724ZM1060.71,136.981L1061.44,135.969L1060.71,136.981ZM1061.42,137.494L1060.68,138.506L1061.42,137.494ZM1062.12,138.005L1062.86,136.993L1062.12,138.005ZM1062.76,138.611L1061.79,139.399L1062.76,138.611ZM1063.33,139.31L1064.3,138.522L1063.33,139.31ZM1063.97,139.921L1063.23,140.927L1063.97,139.921ZM1064.67,140.442L1065.42,139.436L1064.67,140.442ZM1065.47,140.831L1065.82,139.631L1065.47,140.831ZM1066.34,141.087L1065.99,142.286L1066.34,141.087ZM1067.12,141.5L1067.92,140.545L1067.12,141.5ZM1067.79,142.07L1066.98,143.025L1067.79,142.07ZM1068.48,142.624L1067.72,143.618L1068.48,142.624ZM1069.19,143.161L1069.94,142.167L1069.19,143.161ZM1070.01,143.475L1070.13,142.231L1070.01,143.475ZM1070.94,143.566L1070.82,144.81L1070.94,143.566ZM1071.77,143.854L1072.46,142.814L1071.77,143.854ZM1072.14,144.098L1071.44,145.139L1072.14,144.098ZM1072.5,144.342L1071.81,145.382L1072.5,144.342ZM1073.32,144.625L1073.21,145.87L1073.32,144.625ZM1074.23,144.705L1074.12,145.95L1074.23,144.705ZM1075.07,144.934L1075.62,143.809L1075.07,144.934ZM1075.46,145.123L1074.92,146.248L1075.46,145.123ZM1075.85,145.312L1075.31,146.437L1075.85,145.312ZM1076.63,145.724L1075.99,146.803L1076.63,145.724ZM1077.39,146.172L1078.02,145.093L1077.39,146.172ZM1078.15,146.646L1078.84,145.601L1078.15,146.646ZM1078.54,146.896L1077.85,147.941L1078.54,146.896ZM1078.92,147.146L1078.23,148.191L1078.92,147.146ZM1079.75,147.394L1079.75,146.144L1079.75,147.394ZM1080.21,147.392L1080.21,148.642L1080.21,147.392ZM1080.66,147.39L1080.65,146.14L1080.66,147.39ZM1081.52,147.568L1081.02,148.711L1081.52,147.568ZM1081.93,147.748L1082.43,146.604L1081.93,147.748ZM1082.34,147.928L1082.84,146.784L1082.34,147.928ZM1083.16,148.306L1083.7,147.181L1083.16,148.306ZM1083.57,148.505L1083.02,149.63L1083.57,148.505ZM1084.85,148.805L1084.59,147.582L1084.85,148.805ZM1085.77,148.611L1086.03,149.834L1085.77,148.611ZM1086.65,148.663L1086.24,149.843L1086.65,148.663ZM1087.08,148.811L1086.67,149.991L1087.08,148.811ZM1087.5,148.96L1087.92,147.78L1087.5,148.96ZM1088.37,149.157L1088.23,150.399L1088.37,149.157ZM1088.8,149.206L1088.94,147.964L1088.8,149.206ZM1089.24,149.255L1089.1,150.498L1089.24,149.255ZM1090.13,149.091L1089.59,147.963L1090.13,149.091ZM1090.57,148.877L1091.11,150.005L1090.57,148.877ZM1091.02,148.664L1091.56,149.792L1091.02,148.664ZM1091.91,148.773L1092.65,147.769L1091.91,148.773ZM1092.34,149.096L1093.09,148.092L1092.34,149.096ZM1092.78,149.419L1092.03,150.423L1092.78,149.419ZM1093.65,149.468L1092.98,148.411L1093.65,149.468ZM1094.51,148.919L1093.85,147.862L1094.51,148.919ZM1095.37,148.53L1095.05,147.323L1095.37,148.53ZM1095.8,148.416L1096.12,149.624L1095.8,148.416ZM1096.23,148.302L1096.55,149.509L1096.23,148.302ZM1097.12,148.421L1097.68,147.308L1097.12,148.421ZM1097.58,148.655L1097.01,149.769L1097.58,148.655ZM1098.03,148.889L1097.47,150.003L1098.03,148.889ZM1098.89,148.786L1099.7,149.739L1098.89,148.786ZM1099.69,148.111L1098.88,147.158L1099.69,148.111ZM1100.56,147.991L1101.08,146.853L1100.56,147.991ZM1101.04,148.208L1100.52,149.346L1101.04,148.208ZM1101.51,148.425L1101,149.563L1101.51,148.425ZM1102.41,148.501L1102.81,149.686L1102.41,148.501ZM1103.25,148.219L1102.86,147.034L1103.25,148.219ZM1104.12,148.04L1104.01,146.794L1104.12,148.04ZM1104.56,148.002L1104.46,146.756L1104.56,148.002ZM1105,147.964L1105.11,149.21L1105,147.964ZM1105.82,147.62L1106.62,148.584L1105.82,147.62ZM1106.19,147.314L1105.39,146.35L1106.19,147.314ZM1106.56,147.007L1107.36,147.971L1106.56,147.007ZM1107.38,146.682L1107.33,145.433L1107.38,146.682ZM1108.29,146.645L1108.34,147.894L1108.29,146.645ZM1109.14,146.448L1108.63,145.306L1109.14,146.448ZM1109.94,146.09L1110.45,147.232L1109.94,146.09ZM1110.74,145.718L1111.29,146.839L1110.74,145.718ZM1111.52,145.331L1110.97,144.209L1111.52,145.331ZM1112.27,144.848L1113.06,145.81L1112.27,144.848ZM1112.61,144.559L1113.41,145.521L1112.61,144.559ZM1112.96,144.27L1112.16,143.308L1112.96,144.27ZM1113.75,143.889L1113.49,142.666L1113.75,143.889ZM1114.18,143.798L1114.44,145.021L1114.18,143.798ZM1114.62,143.706L1114.36,142.483L1114.62,143.706ZM1115.43,143.398L1116.05,144.483L1115.43,143.398ZM1115.81,143.182L1115.19,142.097L1115.81,143.182ZM1116.19,142.966L1116.81,144.051L1116.19,142.966ZM1116.91,142.484L1117.67,143.478L1116.91,142.484ZM1117.26,142.218L1116.5,141.224L1117.26,142.218ZM1117.61,141.952L1118.37,142.946L1117.61,141.952ZM1119.54,141.759L1119.48,143.008L1119.54,141.759ZM1121.04,140.855L1120.18,139.95L1121.04,140.855ZM1121.68,140.227L1122.57,141.103L1121.68,140.227ZM1122.31,139.591L1121.41,138.715L1122.31,139.591ZM1122.98,139.03L1122.29,137.989L1122.98,139.03ZM1123.71,138.545L1124.41,139.587L1123.71,138.545ZM1124.37,137.966L1125.32,138.783L1124.37,137.966ZM1124.66,137.631L1125.61,138.448L1124.66,137.631ZM1124.95,137.295L1124,136.478L1124.95,137.295ZM1125.98,135.833L1124.94,135.145L1125.98,135.833ZM1126.74,135.358L1126.49,134.131L1126.74,135.358ZM1127.75,135.159L1127.51,133.932L1127.75,135.159ZM1128.38,134.568L1127.17,134.262L1128.38,134.568ZM1128.5,134.077L1127.29,133.77L1128.5,134.077ZM1128.63,133.585L1129.84,133.892L1128.63,133.585ZM1129.26,132.966L1129.56,134.177L1129.26,132.966ZM1130.27,132.709L1129.96,131.497L1130.27,132.709ZM1130.83,132.053L1129.59,131.921L1130.83,132.053ZM1130.94,130.997L1132.19,131.129L1130.94,130.997ZM1131.29,130.146L1132.22,130.977L1131.29,130.146ZM1131.86,129.499L1130.93,128.668L1131.86,129.499ZM1132.57,128.943L1133.18,130.034L1132.57,128.943ZM1132.98,128.71L1133.59,129.8L1132.98,128.71ZM1133.4,128.477L1132.79,127.386L1133.4,128.477ZM1134.37,127.558L1133.4,126.77L1134.37,127.558ZM1134.65,127.216L1135.62,128.003L1134.65,127.216ZM1135.17,126.505L1136.22,127.191L1135.17,126.505ZM1135.65,125.768L1134.61,125.082L1135.65,125.768ZM1135.95,124.923L1137.19,125.057L1135.95,124.923ZM1136,124.445L1134.76,124.311L1136,124.445ZM1136.05,123.967L1137.29,124.102L1136.05,123.967ZM1136.32,123.112L1137.4,123.728L1136.32,123.112ZM1136.74,122.357L1135.66,121.741L1136.74,122.357ZM1137.25,121.638L1136.3,120.828L1137.25,121.638ZM1137.54,121.296L1138.49,122.105L1137.54,121.296ZM1137.83,120.954L1136.88,120.144L1137.83,120.954ZM1138.19,120.164L1136.95,119.977L1138.19,120.164ZM1138.26,119.716L1139.49,119.903L1138.26,119.716ZM1138.32,119.268L1139.56,119.455L1138.32,119.268ZM1138.75,118.497L1139.59,119.426L1138.75,118.497ZM1139.11,118.173L1139.95,119.102L1139.11,118.173ZM1139.47,117.85L1138.63,116.921L1139.47,117.85ZM1139.73,117.025L1138.51,117.255L1139.73,117.025ZM1139.55,116.024L1140.78,115.794L1139.55,116.024ZM1139.6,115.118L1140.78,115.553L1139.6,115.118ZM1139.91,114.308L1138.73,113.873L1139.91,114.308ZM1140.2,113.495L1139.02,113.084L1140.2,113.495ZM1140.48,112.679L1141.66,113.09L1140.48,112.679ZM1141,111.917L1140.15,111.005L1141,111.917ZM1141.38,111.563L1142.23,112.474L1141.38,111.563ZM1141.76,111.209L1140.9,110.297L1141.76,111.209ZM1141.93,110.362L1143.08,109.883L1141.93,110.362ZM1141.79,108.086L1140.71,107.453L1141.79,108.086ZM1142.02,107.689L1143.1,108.322L1142.02,107.689ZM1142.32,106.859L1143.56,107.059L1142.32,106.859ZM1142.46,105.997L1141.23,105.798L1142.46,105.997ZM1142.75,105.147L1143.86,105.733L1142.75,105.147ZM1142.98,104.729L1144.08,105.315L1142.98,104.729ZM1143.2,104.311L1142.09,103.725L1143.2,104.311ZM1143.38,103.447L1144.63,103.348L1143.38,103.447ZM1143.35,103.001L1142.1,103.099L1143.35,103.001ZM1143.02,101.662L1141.94,102.283L1143.02,101.662ZM1142.51,100.767L1143.6,100.147L1142.51,100.767ZM1142.4,99.886L1143.59,100.281L1142.4,99.886ZM1142.54,99.453L1141.36,99.058L1142.54,99.453ZM1142.69,99.019L1143.87,99.414L1142.69,99.019ZM1142.8,98.15L1144.05,98.056L1142.8,98.15ZM1142.73,97.28L1143.98,97.186L1142.73,97.28ZM1142.73,95.532L1141.48,95.5L1142.73,95.532ZM1142.76,94.653L1141.51,94.602L1142.76,94.653ZM1142.78,94.212L1141.53,94.161L1142.78,94.212ZM1142.8,93.771L1144.05,93.822L1142.8,93.771ZM1142.75,92.896L1143.99,92.718L1142.75,92.896ZM1142.69,92.462L1143.93,92.284L1142.69,92.462ZM1142.63,92.028L1141.39,92.207L1142.63,92.028ZM1142.38,91.182L1143.53,90.674L1142.38,91.182ZM1142.02,90.357L1143.16,89.849L1142.02,90.357ZM1141.69,89.532L1142.87,89.12L1141.69,89.532ZM1141.54,89.119L1140.36,89.531L1141.54,89.119ZM1141.4,88.706L1142.58,88.294L1141.4,88.706ZM1141.34,87.827L1142.57,88.036L1141.34,87.827ZM1141.41,87.36L1142.65,87.569L1141.41,87.36ZM1141.49,86.894L1140.26,86.685L1141.49,86.894ZM1141.37,86.029L1142.48,85.462L1141.37,86.029ZM1140.96,85.233L1139.85,85.801L1140.96,85.233ZM1140.61,84.427L1139.44,84.863L1140.61,84.427ZM1140.3,83.61L1141.48,83.173L1140.3,83.61ZM1140.07,82.767L1138.84,82.997L1140.07,82.767ZM1139.91,81.9L1141.14,81.669L1139.91,81.9ZM1139.76,81.019L1138.53,81.194L1139.76,81.019ZM1139.64,80.124L1138.4,80.3L1139.64,80.124ZM1139.43,79.26L1138.25,79.678L1139.43,79.26ZM1139.28,78.842L1140.45,78.424L1139.28,78.842ZM1139.13,78.425L1140.31,78.007L1139.13,78.425ZM1138.75,77.631L1139.81,76.97L1138.75,77.631ZM1138.28,76.878L1137.21,77.539L1138.28,76.878ZM1137.73,76.166L1138.66,75.324L1137.73,76.166ZM1137.43,75.831L1136.51,76.674L1137.43,75.831ZM1137.12,75.496L1138.05,74.654L1137.12,75.496ZM1136.74,74.698L1137.98,74.5L1136.74,74.698ZM1136.6,73.772L1135.36,73.971L1136.6,73.772ZM1136.25,72.957L1135.26,73.718L1136.25,72.957ZM1135.71,72.253L1134.72,73.013L1135.71,72.253ZM1135.24,71.507L1134.13,72.086L1135.24,71.507ZM1134.82,70.72L1135.93,70.142L1134.82,70.72ZM1134.16,70.117L1134.68,68.981L1134.16,70.117ZM1133.24,69.697L1133.76,68.561L1133.24,69.697ZM1132.75,68.959L1131.5,69.037L1132.75,68.959ZM1132.69,67.902L1133.93,67.824L1132.69,67.902ZM1132.26,67.125L1131.59,68.181L1132.26,67.125ZM1131.48,66.628L1132.15,65.573L1131.48,66.628ZM1130.85,65.997L1131.92,65.35L1130.85,65.997ZM1130.39,65.23L1129.32,65.877L1130.39,65.23ZM1129.71,64.669L1130.18,63.508L1129.71,64.669ZM1128.82,64.311L1128.35,65.472L1128.82,64.311ZM1128.21,63.669L1127.03,64.074L1128.21,63.669ZM1127.89,62.741L1129.07,62.335L1127.89,62.741ZM1127.3,62.097L1127.78,60.943L1127.3,62.097ZM1126.44,61.737L1125.96,62.891L1126.44,61.737ZM1125.8,61.12L1126.93,60.588L1125.8,61.12ZM1125.6,60.682L1126.73,60.151L1125.6,60.682ZM1125.39,60.244L1124.26,60.775L1125.39,60.244ZM1124.64,59.785L1124.69,58.536L1124.64,59.785ZM1123.56,59.742L1123.51,60.991L1123.56,59.742ZM1122.8,59.275L1123.93,58.733L1122.8,59.275ZM1122.38,58.386L1121.25,58.928L1122.38,58.386ZM1121.71,57.824L1122.02,56.614L1121.71,57.824ZM1120.81,57.589L1120.49,58.799L1120.81,57.589ZM1120.09,57.076L1119.05,57.775L1120.09,57.076ZM1119.56,56.282L1120.59,55.583L1119.56,56.282ZM1118.89,55.691L1119.44,54.569L1118.89,55.691ZM1118.1,55.302L1117.55,56.424L1118.1,55.302ZM1117.24,55.042L1117.06,56.28L1117.24,55.042ZM1116.77,54.977L1116.6,56.215L1116.77,54.977ZM1116.31,54.913L1116.48,53.675L1116.31,54.913ZM1115.51,54.55L1116.33,53.61L1115.51,54.55ZM1114.83,53.954L1114,54.895L1114.83,53.954ZM1114.12,53.392L1114.86,52.381L1114.12,53.392ZM1113.4,52.864L1112.66,53.875L1113.4,52.864ZM1112.64,52.402L1113.19,51.282L1112.64,52.402ZM1112.24,52.206L1112.79,51.085L1112.24,52.206ZM1111.84,52.009L1111.29,53.129L1111.84,52.009ZM1110.08,51.676L1110.21,50.432L1110.08,51.676ZM1109.17,51.617L1109.21,50.367L1109.17,51.617ZM1108.26,51.591L1108.22,52.84L1108.26,51.591ZM1107.38,51.495L1107.14,52.723L1107.38,51.495ZM1105.67,51.17L1105.44,52.399L1105.67,51.17ZM1105.24,51.09L1105.01,52.319L1105.24,51.09ZM1104.81,51.011L1105.04,49.782L1104.81,51.011ZM1103.18,50.371L1102.65,51.506L1103.18,50.371ZM1102.34,50.164L1102.4,48.915L1102.34,50.164ZM1101.46,50.121L1101.4,51.369L1101.46,50.121ZM1099.76,49.733L1100.11,48.532L1099.76,49.733ZM1098.91,49.514L1099.18,48.295L1098.91,49.514ZM1098.48,49.418L1098.21,50.638L1098.48,49.418ZM1098.05,49.322L1097.78,50.542L1098.05,49.322ZM1097.19,49.073L1096.77,50.25L1097.19,49.073ZM1096.33,48.766L1096.75,47.589L1096.33,48.766ZM1095.46,48.843L1094.89,47.732L1095.46,48.843ZM1094.57,49.303L1095.14,50.414L1094.57,49.303ZM1093.69,49.524L1093.66,50.773L1093.69,49.524ZM1091.95,49.423L1092.15,48.19L1091.95,49.423ZM1091.07,49.277L1091.28,48.044L1091.07,49.277ZM1089.31,49.075L1089.19,50.319L1089.31,49.075ZM1088.44,49.123L1088.18,47.9L1088.44,49.123ZM1087.58,49.305L1087.83,50.528L1087.58,49.305ZM1085.82,49.36L1085.78,50.609L1085.82,49.36ZM1084.93,49.394L1085.06,50.637L1084.93,49.394ZM1084.06,49.487L1083.92,48.244L1084.06,49.487ZM1083.21,49.731L1083.76,50.855L1083.21,49.731ZM1082.4,50.128L1081.85,49.005L1082.4,50.128ZM1081.59,50.539L1081,49.438L1081.59,50.539ZM1080.8,50.964L1081.4,52.065L1080.8,50.964ZM1079.99,51.301L1079.64,50.104L1079.99,51.301ZM1079.58,51.425L1079.94,52.623L1079.58,51.425ZM1079.17,51.549L1078.81,50.352L1079.17,51.549ZM1078.3,51.7L1078.23,50.453L1078.3,51.7ZM1077.86,51.727L1077.93,52.975L1077.86,51.727ZM1077.41,51.754L1077.33,50.506L1077.41,51.754ZM1076.55,51.921L1076.15,50.738L1076.55,51.921ZM1076.13,52.061L1076.54,53.245L1076.13,52.061ZM1075.72,52.202L1076.12,53.385L1075.72,52.202ZM1074.19,53.069L1074.88,54.116L1074.19,53.069ZM1073.33,53.283L1073.26,54.531L1073.33,53.283ZM1072.84,53.256L1072.91,52.008L1072.84,53.256ZM1072.35,53.228L1072.28,54.476L1072.35,53.228ZM1071.54,53.546L1072.46,54.395L1071.54,53.546ZM1070.9,54.238L1069.98,53.389L1070.9,54.238ZM1070.11,54.628L1070.23,55.872L1070.11,54.628ZM1069.64,54.672L1069.52,53.427L1069.64,54.672ZM1069.17,54.716L1069.28,55.96L1069.17,54.716ZM1068.32,55.003L1069.01,56.046L1068.32,55.003ZM1067.59,55.49L1066.9,54.447L1067.59,55.49ZM1066.93,56.102L1067.92,56.869L1066.93,56.102ZM1066.36,56.839L1065.37,56.072L1066.36,56.839ZM1065.71,57.449L1065.02,56.409L1065.71,57.449ZM1064.99,57.932L1065.68,58.972L1064.99,57.932ZM1064.25,58.401L1063.6,57.336L1064.25,58.401ZM1063.88,58.63L1064.53,59.695L1063.88,58.63ZM1063.51,58.858L1062.85,57.793L1063.51,58.858ZM1062.67,59.208L1062.99,60.417L1062.67,59.208ZM1062.21,59.33L1061.89,58.121L1062.21,59.33ZM1061.75,59.451L1061.43,58.243L1061.75,59.451ZM1060.93,59.842L1061.69,60.836L1060.93,59.842ZM1060.23,60.379L1059.47,59.385L1060.23,60.379ZM1059.68,61.09L1058.54,60.588L1059.68,61.09ZM1059.29,61.975L1060.44,62.478L1059.29,61.975ZM1058.85,62.786L1057.81,62.083L1058.85,62.786ZM1058.6,63.153L1057.56,62.451L1058.6,63.153ZM1058.35,63.521L1059.38,64.223L1058.35,63.521ZM1057.69,64.095L1058.24,65.214L1057.69,64.095ZM1057.27,64.3L1056.72,63.181L1057.27,64.3ZM1056.86,64.506L1057.42,65.625L1056.86,64.506ZM1056.27,65.143L1057.43,65.609L1056.27,65.143ZM1055.93,66.006L1054.77,65.541L1055.93,66.006ZM1055.29,66.616L1055.74,67.783L1055.29,66.616ZM1054.36,66.975L1053.91,65.808L1054.36,66.975ZM1053.65,67.522L1052.61,66.831L1053.65,67.522ZM1053.16,68.259L1054.2,68.95L1053.16,68.259ZM1052.5,69.947L1051.3,69.569L1052.5,69.947ZM1052.13,70.756L1053.19,71.417L1052.13,70.756ZM1051.67,71.495L1050.61,70.834L1051.67,71.495ZM1051.08,72.156L1050.29,71.191L1051.08,72.156ZM1050.37,72.742L1051.16,73.707L1050.37,72.742ZM1049.72,73.375L1048.77,72.565L1049.72,73.375ZM1049.14,74.057L1050.1,74.867L1049.14,74.057ZM1048.59,75.752L1047.36,75.512L1048.59,75.752ZM1048.45,76.661L1047.2,76.514L1048.45,76.661ZM1048.39,77.119L1047.15,76.972L1048.39,77.119ZM1048.34,77.577L1049.58,77.724L1048.34,77.577ZM1048.09,78.422L1049.21,78.98L1048.09,78.422ZM1047.7,79.197L1046.58,78.639L1047.7,79.197ZM1047.38,79.996L1046.19,79.613L1047.38,79.996ZM1047.24,80.408L1048.43,80.791L1047.24,80.408ZM1047.11,80.821L1045.92,80.438L1047.11,80.821ZM1046.73,81.605L1045.69,80.917L1046.73,81.605ZM1046.49,81.976L1045.45,81.288L1046.49,81.976ZM1046.24,82.348L1047.29,83.036L1046.24,82.348ZM1045.92,83.149L1044.69,82.91L1045.92,83.149ZM1045.75,84.009L1046.97,84.248L1045.75,84.009ZM1045.27,84.781L1046.1,85.721L1045.27,84.781ZM1044.88,85.125L1044.06,84.186L1044.88,85.125ZM1044.23,86.295L1043.02,86.61L1044.23,86.295ZM1044.48,87.262L1043.27,87.578L1044.48,87.262ZM1044.44,88.156L1043.28,87.682L1044.44,88.156ZM1044.1,88.977L1045.26,89.451L1044.1,88.977ZM1043.06,91.462L1044.27,91.17L1043.06,91.462ZM1043.28,92.382L1042.06,92.674L1043.28,92.382ZM1043.73,95.067L1042.6,94.539L1043.73,95.067ZM1043.53,95.489L1044.67,96.017L1043.53,95.489ZM1043.34,95.911L1042.21,95.382L1043.34,95.911ZM1043.26,97.207L1044.5,97.042L1043.26,97.207ZM1043.32,97.644L1042.08,97.81L1043.32,97.644ZM1043.23,98.311L1042.18,97.63L1043.23,98.311ZM1043.08,98.541L1044.12,99.222L1043.08,98.541ZM1043.26,99.868L1042.06,100.226L1042.19,100.66L1043.39,100.302L1044.59,99.944L1044.46,99.51L1043.26,99.868ZM1043.39,100.302L1042.19,100.66C1042.24,100.835 1042.27,101 1042.26,101.16L1044.76,101.182C1044.77,100.762 1044.71,100.348 1044.59,99.944L1043.39,100.302ZM1044.76,101.182L1042.26,101.16L1042.26,101.594L1044.76,101.616L1044.76,101.182ZM1044.76,101.616L1042.26,101.594L1042.26,102.029L1044.76,102.051L1044.76,101.616ZM1044.76,102.051L1042.26,102.029C1042.26,102.108 1042.24,102.227 1042.16,102.396L1043.29,102.933L1044.41,103.469C1044.62,103.027 1044.75,102.55 1044.76,102.051ZM1043.29,102.933L1042.16,102.396L1041.94,102.855L1043.07,103.391L1044.2,103.928L1044.41,103.469L1043.29,102.933ZM1043.07,103.391L1041.94,102.855L1041.72,103.313L1042.85,103.85L1043.98,104.386L1044.2,103.928L1043.07,103.391ZM1042.85,103.85L1041.72,103.313C1041.47,103.833 1041.37,104.414 1041.51,105.013L1043.95,104.473C1043.95,104.472 1043.95,104.473 1043.95,104.474C1043.95,104.476 1043.95,104.475 1043.95,104.471C1043.95,104.465 1043.95,104.438 1043.98,104.386L1042.85,103.85ZM1043.95,104.473L1041.51,105.013L1041.6,105.447L1044.04,104.907L1043.95,104.473ZM1044.04,104.907L1041.6,105.447L1041.7,105.881L1044.14,105.341L1044.04,104.907ZM1044.14,105.341L1041.7,105.881C1041.82,106.416 1042.08,106.879 1042.44,107.27L1043.36,106.433L1044.29,105.597C1044.18,105.471 1044.15,105.387 1044.14,105.341ZM1043.36,106.433L1042.44,107.27L1042.78,107.657L1043.71,106.82L1044.64,105.984L1044.29,105.597L1043.36,106.433ZM1043.71,106.82L1042.78,107.657L1043.13,108.044L1044.06,107.207L1044.99,106.371L1044.64,105.984L1043.71,106.82ZM1044.06,107.207L1043.13,108.044C1043.13,108.035 1043.07,107.972 1043.05,107.856C1043.03,107.738 1043.05,107.654 1043.06,107.633L1045.4,108.515C1045.53,108.174 1045.58,107.786 1045.51,107.38C1045.43,106.975 1045.23,106.638 1044.99,106.371L1044.06,107.207ZM1045.4,108.515L1043.06,107.633L1042.88,108.112L1045.22,108.994L1045.4,108.515ZM1045.22,108.994L1042.88,108.112L1042.7,108.591L1045.04,109.473L1045.22,108.994ZM1045.04,109.473L1042.7,108.591C1042.52,109.066 1042.44,109.569 1042.49,110.085L1043.73,109.954L1044.98,109.823C1044.97,109.749 1044.98,109.638 1045.04,109.473ZM1043.73,109.954L1042.49,110.085L1042.54,110.528L1045.02,110.266L1044.98,109.823L1043.73,109.954ZM1045.02,110.266L1042.54,110.528L1042.59,110.971L1045.07,110.709L1045.02,110.266ZM1045.07,110.709L1042.59,110.971C1042.62,111.346 1042.7,111.714 1042.81,112.074L1044.01,111.707L1045.2,111.34C1045.14,111.135 1045.09,110.925 1045.07,110.709ZM1044.01,111.707L1042.81,112.074L1042.94,112.497L1044.14,112.13L1045.33,111.764L1045.2,111.34L1044.01,111.707ZM1044.14,112.13L1042.94,112.497L1043.07,112.921L1044.27,112.554L1045.46,112.187L1045.33,111.764L1044.14,112.13ZM1044.27,112.554L1043.07,112.921C1043.15,113.193 1043.23,113.467 1043.31,113.741L1044.51,113.404L1045.72,113.068C1045.64,112.773 1045.55,112.48 1045.46,112.187L1044.27,112.554ZM1044.51,113.404L1043.31,113.741L1043.43,114.167L1044.63,113.831L1045.84,113.494L1045.72,113.068L1044.51,113.404ZM1044.63,113.831L1043.43,114.167L1043.55,114.593L1044.75,114.257L1045.96,113.921L1045.84,113.494L1044.63,113.831ZM1044.75,114.257L1043.55,114.593C1043.65,114.953 1043.78,115.301 1043.95,115.637L1046.19,114.527C1046.09,114.331 1046.01,114.129 1045.96,113.921L1044.75,114.257ZM1046.19,114.527L1043.95,115.637L1044.15,116.036L1046.39,114.926L1046.19,114.527ZM1046.39,114.926L1044.15,116.036L1044.34,116.435L1046.58,115.325L1046.39,114.926ZM1046.58,115.325L1044.34,116.435C1044.52,116.792 1044.74,117.126 1045,117.435L1045.96,116.635L1046.92,115.834C1046.78,115.669 1046.67,115.5 1046.58,115.325ZM1045.96,116.635L1045,117.435L1045.29,117.791L1046.25,116.99L1047.22,116.19L1046.92,115.834L1045.96,116.635ZM1046.25,116.99L1045.29,117.791L1045.59,118.146L1047.51,116.546L1047.22,116.19L1046.25,116.99ZM1047.51,116.546L1045.59,118.146C1045.59,118.145 1045.59,118.139 1045.58,118.129C1045.57,118.119 1045.57,118.107 1045.57,118.096C1045.56,118.085 1045.56,118.077 1045.56,118.075C1045.56,118.073 1045.56,118.079 1045.56,118.094L1046.81,118.197L1048.05,118.301C1048.1,117.67 1047.94,117.055 1047.51,116.546ZM1046.81,118.197L1045.56,118.094L1045.52,118.589L1046.77,118.693L1048.01,118.797L1048.05,118.301L1046.81,118.197ZM1046.77,118.693L1045.52,118.589L1045.48,119.085L1046.72,119.188L1047.97,119.292L1048.01,118.797L1046.77,118.693ZM1046.72,119.188L1045.48,119.085C1045.43,119.717 1045.6,120.337 1046.03,120.845L1046.98,120.032L1047.93,119.218C1047.93,119.222 1047.94,119.23 1047.95,119.243C1047.95,119.255 1047.96,119.269 1047.96,119.283C1047.97,119.312 1047.97,119.32 1047.97,119.292L1046.72,119.188ZM1046.98,120.032L1046.03,120.845L1046.33,121.193L1047.28,120.38L1048.23,119.566L1047.93,119.218L1046.98,120.032ZM1047.28,120.38L1046.33,121.193L1046.63,121.541L1047.58,120.728L1048.53,119.914L1048.23,119.566L1047.28,120.38ZM1047.58,120.728L1046.63,121.541C1046.72,121.644 1046.77,121.751 1046.81,121.867L1048.01,121.504L1049.2,121.141C1049.06,120.686 1048.84,120.274 1048.53,119.914L1047.58,120.728ZM1048.01,121.504L1046.81,121.867L1046.94,122.296L1048.14,121.933L1049.33,121.57L1049.2,121.141L1048.01,121.504ZM1048.14,121.933L1046.94,122.296L1047.07,122.724L1048.27,122.362L1049.46,121.999L1049.33,121.57L1048.14,121.933ZM1048.27,122.362L1047.07,122.724C1047.25,123.332 1047.65,123.796 1048.15,124.114L1048.82,123.056L1049.48,121.998C1049.47,121.987 1049.46,121.978 1049.45,121.974C1049.45,121.969 1049.44,121.968 1049.45,121.971C1049.45,121.974 1049.45,121.979 1049.46,121.986L1049.46,121.999L1048.27,122.362ZM1048.82,123.056L1048.15,124.114L1048.58,124.38L1049.24,123.322L1049.91,122.265L1049.48,121.998L1048.82,123.056ZM1049.24,123.322L1048.58,124.38L1049,124.646L1049.66,123.588L1050.33,122.531L1049.91,122.265L1049.24,123.322ZM1049.66,123.588L1049,124.646C1049.14,124.738 1049.22,124.821 1049.26,124.884L1050.32,124.223L1051.38,123.561C1051.11,123.133 1050.75,122.793 1050.33,122.531L1049.66,123.588ZM1050.32,124.223L1049.26,124.884L1049.48,125.252L1050.55,124.591L1051.61,123.929L1051.38,123.561L1050.32,124.223ZM1050.55,124.591L1049.48,125.252L1049.71,125.62L1050.77,124.959L1051.84,124.297L1051.61,123.929L1050.55,124.591ZM1050.77,124.959L1049.71,125.62C1049.72,125.631 1049.76,125.69 1049.76,125.853L1052.26,125.845C1052.25,125.312 1052.13,124.777 1051.84,124.297L1050.77,124.959ZM1052.26,125.845L1049.76,125.853L1049.76,126.376L1052.26,126.368L1052.26,125.845ZM1052.26,126.368L1049.76,126.376L1049.76,126.899L1051.01,126.895L1052.26,126.89L1052.26,126.368ZM1051.01,126.895L1049.76,126.899C1049.76,127.286 1049.86,127.709 1050.14,128.081C1050.42,128.449 1050.79,128.66 1051.14,128.775L1051.92,126.399C1051.93,126.401 1052.04,126.44 1052.14,126.577C1052.25,126.719 1052.26,126.852 1052.26,126.89L1051.01,126.895ZM1051.92,126.399L1051.14,128.775L1051.66,128.945L1052.05,127.757L1052.44,126.568L1051.92,126.399ZM1052.05,127.757L1051.66,128.945L1052.18,129.114L1052.96,126.738L1052.44,126.568L1052.05,127.757ZM1052.96,126.738L1052.18,129.114C1052.23,129.13 1052.22,129.135 1052.19,129.106C1052.17,129.091 1052.15,129.071 1052.13,129.045C1052.11,129.02 1052.1,128.995 1052.09,128.973L1053.26,128.516L1054.42,128.058C1054.14,127.357 1053.58,126.94 1052.96,126.738ZM1053.26,128.516L1052.09,128.973L1052.26,129.393L1053.42,128.935L1054.58,128.478L1054.42,128.058L1053.26,128.516ZM1053.42,128.935L1052.26,129.393L1052.42,129.813L1053.59,129.355L1054.75,128.897L1054.58,128.478L1053.42,128.935ZM1053.59,129.355L1052.42,129.813C1052.54,130.118 1052.67,130.419 1052.81,130.715L1055.07,129.651C1054.96,129.403 1054.85,129.152 1054.75,128.897L1053.59,129.355ZM1055.07,129.651L1052.81,130.715L1053,131.124L1054.14,130.592L1055.27,130.06L1055.07,129.651ZM1054.14,130.592L1053,131.124L1053.2,131.533L1054.33,131L1055.46,130.468L1055.27,130.06L1054.14,130.592ZM1054.33,131L1053.2,131.533C1053.34,131.845 1053.51,132.147 1053.68,132.441L1054.75,131.792L1055.82,131.144C1055.69,130.926 1055.57,130.701 1055.46,130.468L1054.33,131ZM1054.75,131.792L1053.68,132.441L1053.92,132.824L1054.98,132.175L1056.05,131.527L1055.82,131.144L1054.75,131.792ZM1054.98,132.175L1053.92,132.824L1054.15,133.207L1055.22,132.559L1056.29,131.91L1056.05,131.527L1054.98,132.175ZM1055.22,132.559L1054.15,133.207C1054.5,133.79 1055.05,134.13 1055.65,134.281L1055.96,133.068L1056.26,131.856C1056.21,131.844 1056.21,131.836 1056.23,131.849C1056.24,131.855 1056.25,131.865 1056.26,131.877C1056.27,131.889 1056.28,131.901 1056.29,131.91L1055.22,132.559ZM1055.96,133.068L1055.65,134.281L1056.16,134.408L1056.46,133.195L1056.76,131.983L1056.26,131.856L1055.96,133.068ZM1056.46,133.195L1056.16,134.408L1056.66,134.534L1056.97,133.322L1057.27,132.109L1056.76,131.983L1056.46,133.195ZM1056.97,133.322L1056.66,134.534C1056.66,134.534 1056.65,134.53 1056.62,134.517C1056.59,134.502 1056.56,134.48 1056.52,134.448C1056.45,134.377 1056.42,134.304 1056.41,134.277L1057.61,133.928L1058.81,133.578C1058.59,132.81 1058.01,132.296 1057.27,132.109L1056.97,133.322ZM1057.61,133.928L1056.41,134.277L1056.55,134.757L1057.75,134.407L1058.95,134.058L1058.81,133.578L1057.61,133.928ZM1057.75,134.407L1056.55,134.757L1056.69,135.236L1057.89,134.887L1059.09,134.537L1058.95,134.058L1057.75,134.407ZM1057.89,134.887L1056.69,135.236C1056.87,135.848 1057.25,136.371 1057.86,136.685L1058.43,135.577L1059.01,134.469C1059.02,134.472 1059.03,134.479 1059.04,134.489C1059.06,134.5 1059.07,134.513 1059.08,134.526C1059.1,134.552 1059.1,134.564 1059.09,134.537L1057.89,134.887ZM1058.43,135.577L1057.86,136.685L1058.26,136.896L1059.42,134.68L1059.01,134.469L1058.43,135.577ZM1059.42,134.68L1058.26,136.896L1058.66,137.107L1059.24,135.998L1059.82,134.89L1059.42,134.68ZM1059.24,135.998L1058.66,137.107C1058.88,137.22 1059.08,137.344 1059.27,137.479L1060,136.466L1060.73,135.454C1060.45,135.246 1060.14,135.058 1059.82,134.89L1059.24,135.998ZM1060,136.466L1059.27,137.479L1059.62,137.736L1060.36,136.724L1061.09,135.711L1060.73,135.454L1060,136.466ZM1060.36,136.724L1059.62,137.736L1059.98,137.993L1061.44,135.969L1061.09,135.711L1060.36,136.724ZM1061.44,135.969L1059.98,137.993C1060.21,138.164 1060.45,138.335 1060.68,138.506L1061.42,137.494L1062.15,136.481C1061.92,136.311 1061.68,136.14 1061.44,135.969ZM1061.42,137.494L1060.68,138.506L1061.04,138.762L1061.77,137.749L1062.5,136.737L1062.15,136.481L1061.42,137.494ZM1061.77,137.749L1061.04,138.762L1061.39,139.018L1062.12,138.005L1062.86,136.993L1062.5,136.737L1061.77,137.749ZM1062.12,138.005L1061.39,139.018C1061.54,139.122 1061.67,139.248 1061.79,139.399L1063.73,137.823C1063.48,137.508 1063.18,137.23 1062.86,136.993L1062.12,138.005ZM1063.73,137.823L1061.79,139.399L1062.08,139.748L1063.05,138.96L1064.02,138.173L1063.73,137.823ZM1063.05,138.96L1062.08,139.748L1062.36,140.098L1064.3,138.522L1064.02,138.173L1063.05,138.96ZM1064.3,138.522L1062.36,140.098C1062.61,140.411 1062.9,140.689 1063.23,140.927L1063.97,139.921L1064.71,138.914C1064.56,138.805 1064.42,138.675 1064.3,138.522ZM1063.97,139.921L1063.23,140.927L1063.58,141.187L1065.06,139.175L1064.71,138.914L1063.97,139.921ZM1065.06,139.175L1063.58,141.187L1063.93,141.448L1064.67,140.442L1065.42,139.436L1065.06,139.175ZM1064.67,140.442L1063.93,141.448C1064.29,141.712 1064.69,141.905 1065.11,142.03L1065.47,140.831L1065.82,139.631C1065.66,139.585 1065.53,139.519 1065.42,139.436L1064.67,140.442ZM1065.47,140.831L1065.11,142.03L1065.55,142.158L1065.9,140.959L1066.25,139.759L1065.82,139.631L1065.47,140.831ZM1065.9,140.959L1065.55,142.158L1065.99,142.286L1066.34,141.087L1066.69,139.887L1066.25,139.759L1065.9,140.959ZM1066.34,141.087L1065.99,142.286C1066.12,142.324 1066.22,142.381 1066.31,142.455L1067.12,141.5L1067.92,140.545C1067.56,140.239 1067.15,140.02 1066.69,139.887L1066.34,141.087ZM1067.12,141.5L1066.31,142.455L1066.65,142.74L1067.45,141.785L1068.26,140.83L1067.92,140.545L1067.12,141.5ZM1067.45,141.785L1066.65,142.74L1066.98,143.025L1068.6,141.115L1068.26,140.83L1067.45,141.785ZM1068.6,141.115L1066.98,143.025C1067.23,143.228 1067.47,143.426 1067.72,143.618L1069.24,141.63C1069.02,141.463 1068.81,141.291 1068.6,141.115ZM1069.24,141.63L1067.72,143.618L1068.08,143.886L1068.83,142.892L1069.59,141.898L1069.24,141.63ZM1068.83,142.892L1068.08,143.886L1068.43,144.155L1069.19,143.161L1069.94,142.167L1069.59,141.898L1068.83,142.892ZM1069.19,143.161L1068.43,144.155C1068.86,144.484 1069.36,144.668 1069.88,144.719L1070.01,143.475L1070.13,142.231C1070.03,142.222 1069.98,142.197 1069.94,142.167L1069.19,143.161ZM1070.01,143.475L1069.88,144.719L1070.35,144.765L1070.47,143.52L1070.59,142.276L1070.13,142.231L1070.01,143.475ZM1070.47,143.52L1070.35,144.765L1070.82,144.81L1070.94,143.566L1071.06,142.321L1070.59,142.276L1070.47,143.52ZM1070.94,143.566L1070.82,144.81C1070.94,144.821 1071.02,144.854 1071.08,144.895L1071.77,143.854L1072.46,142.814C1072.04,142.53 1071.56,142.37 1071.06,142.321L1070.94,143.566ZM1071.77,143.854L1071.08,144.895L1071.44,145.139L1072.14,144.098L1072.83,143.057L1072.46,142.814L1071.77,143.854ZM1072.14,144.098L1071.44,145.139L1071.81,145.382L1072.5,144.342L1073.2,143.301L1072.83,143.057L1072.14,144.098ZM1072.5,144.342L1071.81,145.382C1072.24,145.665 1072.71,145.826 1073.21,145.87L1073.43,143.38C1073.33,143.371 1073.26,143.343 1073.2,143.301L1072.5,144.342ZM1073.43,143.38L1073.21,145.87L1073.67,145.91L1073.89,143.42L1073.43,143.38ZM1073.89,143.42L1073.67,145.91L1074.12,145.95L1074.34,143.46L1073.89,143.42ZM1074.34,143.46L1074.12,145.95C1074.28,145.964 1074.41,146.002 1074.53,146.059L1075.07,144.934L1075.62,143.809C1075.21,143.613 1074.79,143.499 1074.34,143.46ZM1075.07,144.934L1074.53,146.059L1074.92,146.248L1075.46,145.123L1076.01,143.997L1075.62,143.809L1075.07,144.934ZM1075.46,145.123L1074.92,146.248L1075.31,146.437L1075.85,145.312L1076.4,144.186L1076.01,143.997L1075.46,145.123ZM1075.85,145.312L1075.31,146.437C1075.54,146.548 1075.77,146.67 1075.99,146.803L1076.63,145.724L1077.26,144.645C1076.98,144.48 1076.69,144.327 1076.4,144.186L1075.85,145.312ZM1076.63,145.724L1075.99,146.803L1076.38,147.026L1077.01,145.948L1077.64,144.869L1077.26,144.645L1076.63,145.724ZM1077.01,145.948L1076.38,147.026L1076.76,147.25L1077.39,146.172L1078.02,145.093L1077.64,144.869L1077.01,145.948ZM1077.39,146.172L1076.76,147.25C1076.99,147.388 1077.23,147.535 1077.47,147.691L1078.15,146.646L1078.84,145.601C1078.57,145.422 1078.3,145.253 1078.02,145.093L1077.39,146.172ZM1078.15,146.646L1077.47,147.691L1077.85,147.941L1078.54,146.896L1079.22,145.851L1078.84,145.601L1078.15,146.646ZM1078.54,146.896L1077.85,147.941L1078.23,148.191L1078.92,147.146L1079.6,146.101L1079.22,145.851L1078.54,146.896ZM1078.92,147.146L1078.23,148.191C1078.69,148.492 1079.21,148.647 1079.76,148.644L1079.75,147.394L1079.75,146.144C1079.69,146.145 1079.65,146.134 1079.6,146.101L1078.92,147.146ZM1079.75,147.394L1079.76,148.644L1080.21,148.642L1080.21,147.392L1080.2,146.142L1079.75,146.144L1079.75,147.394ZM1080.21,147.392L1080.21,148.642L1080.67,148.64L1080.65,146.14L1080.2,146.142L1080.21,147.392ZM1080.65,146.14L1080.67,148.64C1080.8,148.639 1080.91,148.664 1081.02,148.711L1081.52,147.568L1082.03,146.424C1081.59,146.232 1081.13,146.138 1080.65,146.14ZM1081.52,147.568L1081.02,148.711L1081.42,148.891L1081.93,147.748L1082.43,146.604L1082.03,146.424L1081.52,147.568ZM1081.93,147.748L1081.42,148.891L1081.83,149.071L1082.34,147.928L1082.84,146.784L1082.43,146.604L1081.93,147.748ZM1082.34,147.928L1081.83,149.071C1082.09,149.185 1082.35,149.306 1082.61,149.432L1083.16,148.306L1083.7,147.181C1083.41,147.042 1083.13,146.91 1082.84,146.784L1082.34,147.928ZM1083.16,148.306L1082.61,149.432L1083.02,149.63L1083.57,148.505L1084.11,147.379L1083.7,147.181L1083.16,148.306ZM1083.57,148.505L1083.02,149.63L1083.43,149.829L1083.98,148.703L1084.52,147.578L1084.11,147.379L1083.57,148.505ZM1083.98,148.703L1083.43,149.829C1083.96,150.085 1084.54,150.148 1085.11,150.028L1084.59,147.582C1084.56,147.588 1084.55,147.586 1084.55,147.586C1084.54,147.586 1084.54,147.586 1084.54,147.585C1084.54,147.584 1084.53,147.582 1084.52,147.578L1083.98,148.703ZM1084.59,147.582L1085.11,150.028L1085.57,149.931L1085.05,147.485L1084.59,147.582ZM1085.05,147.485L1085.57,149.931L1086.03,149.834L1085.51,147.388L1085.05,147.485ZM1085.51,147.388L1086.03,149.834C1086.12,149.815 1086.18,149.823 1086.24,149.843L1086.65,148.663L1087.07,147.483C1086.56,147.305 1086.03,147.279 1085.51,147.388ZM1086.65,148.663L1086.24,149.843L1086.67,149.991L1087.49,147.631L1087.07,147.483L1086.65,148.663ZM1087.49,147.631L1086.67,149.991L1087.09,150.14L1087.5,148.96L1087.92,147.78L1087.49,147.631ZM1087.5,148.96L1087.09,150.14C1087.46,150.269 1087.84,150.356 1088.23,150.399L1088.51,147.915C1088.31,147.893 1088.11,147.848 1087.92,147.78L1087.5,148.96ZM1088.51,147.915L1088.23,150.399L1088.67,150.448L1088.8,149.206L1088.94,147.964L1088.51,147.915ZM1088.8,149.206L1088.67,150.448L1089.1,150.498L1089.24,149.255L1089.38,148.013L1088.94,147.964L1088.8,149.206ZM1089.24,149.255L1089.1,150.498C1089.65,150.559 1090.18,150.449 1090.67,150.219L1089.59,147.963C1089.47,148.017 1089.41,148.017 1089.38,148.013L1089.24,149.255ZM1089.59,147.963L1090.67,150.219L1091.11,150.005L1090.57,148.877L1090.04,147.749L1089.59,147.963ZM1090.57,148.877L1091.11,150.005L1091.56,149.792L1090.48,147.536L1090.04,147.749L1090.57,148.877ZM1090.48,147.536L1091.56,149.792C1091.52,149.811 1091.43,149.839 1091.31,149.825C1091.2,149.811 1091.15,149.77 1091.16,149.777L1091.91,148.773L1092.65,147.769C1092.37,147.561 1092.02,147.394 1091.62,147.344C1091.21,147.293 1090.82,147.374 1090.48,147.536ZM1091.91,148.773L1091.16,149.777L1091.6,150.1L1092.34,149.096L1093.09,148.092L1092.65,147.769L1091.91,148.773ZM1092.34,149.096L1091.6,150.1L1092.03,150.423L1092.78,149.419L1093.52,148.415L1093.09,148.092L1092.34,149.096ZM1092.78,149.419L1092.03,150.423C1092.32,150.641 1092.7,150.816 1093.14,150.841C1093.59,150.866 1093.99,150.729 1094.31,150.524L1093.65,149.468L1092.98,148.411C1093.01,148.389 1093.12,148.336 1093.28,148.345C1093.43,148.353 1093.52,148.413 1093.52,148.415L1092.78,149.419ZM1093.65,149.468L1094.31,150.524L1094.75,150.25L1094.08,149.193L1093.41,148.137L1092.98,148.411L1093.65,149.468ZM1094.08,149.193L1094.75,150.25L1095.18,149.975L1094.51,148.919L1093.85,147.862L1093.41,148.137L1094.08,149.193ZM1094.51,148.919L1095.18,149.975C1095.38,149.849 1095.55,149.777 1095.7,149.738L1095.37,148.53L1095.05,147.323C1094.63,147.436 1094.22,147.622 1093.85,147.862L1094.51,148.919ZM1095.37,148.53L1095.7,149.738L1096.12,149.624L1095.48,147.208L1095.05,147.323L1095.37,148.53ZM1095.48,147.208L1096.12,149.624L1096.55,149.509L1096.23,148.302L1095.91,147.094L1095.48,147.208ZM1096.23,148.302L1096.55,149.509C1096.55,149.511 1096.54,149.513 1096.52,149.514C1096.51,149.515 1096.5,149.514 1096.5,149.513C1096.49,149.512 1096.5,149.512 1096.55,149.535L1097.12,148.421L1097.68,147.308C1097.15,147.036 1096.54,146.925 1095.91,147.094L1096.23,148.302ZM1097.12,148.421L1096.55,149.535L1097.01,149.769L1097.58,148.655L1098.14,147.541L1097.68,147.308L1097.12,148.421ZM1097.58,148.655L1097.01,149.769L1097.47,150.003L1098.03,148.889L1098.6,147.775L1098.14,147.541L1097.58,148.655ZM1098.03,148.889L1097.47,150.003C1097.8,150.171 1098.19,150.274 1098.63,150.221C1099.06,150.169 1099.42,149.976 1099.7,149.739L1098.08,147.833C1098.1,147.82 1098.18,147.757 1098.33,147.739C1098.48,147.721 1098.58,147.763 1098.6,147.775L1098.03,148.889ZM1098.08,147.833L1099.7,149.739L1100.1,149.401L1099.29,148.448L1098.48,147.496L1098.08,147.833ZM1099.29,148.448L1100.1,149.401L1100.49,149.064L1099.69,148.111L1098.88,147.158L1098.48,147.496L1099.29,148.448ZM1099.69,148.111L1100.49,149.064C1100.48,149.078 1100.4,149.133 1100.27,149.151C1100.14,149.169 1100.06,149.136 1100.04,149.129L1101.08,146.853C1100.74,146.702 1100.35,146.616 1099.93,146.674C1099.51,146.732 1099.16,146.92 1098.88,147.158L1099.69,148.111ZM1101.08,146.853L1100.04,149.129L1100.52,149.346L1101.04,148.208L1101.55,147.07L1101.08,146.853ZM1101.04,148.208L1100.52,149.346L1101,149.563L1101.51,148.425L1102.03,147.288L1101.55,147.07L1101.04,148.208ZM1101.51,148.425L1101,149.563C1101.55,149.814 1102.18,149.899 1102.81,149.686L1102.01,147.316C1102.02,147.313 1102.04,147.31 1102.05,147.308C1102.06,147.307 1102.08,147.307 1102.08,147.307C1102.1,147.309 1102.08,147.31 1102.03,147.288L1101.51,148.425ZM1102.01,147.316L1102.81,149.686L1103.23,149.545L1102.83,148.36L1102.44,147.175L1102.01,147.316ZM1102.83,148.36L1103.23,149.545L1103.65,149.404L1103.25,148.219L1102.86,147.034L1102.44,147.175L1102.83,148.36ZM1103.25,148.219L1103.65,149.404C1103.84,149.341 1104.03,149.302 1104.22,149.285L1104.12,148.04L1104.01,146.794C1103.62,146.828 1103.23,146.908 1102.86,147.034L1103.25,148.219ZM1104.12,148.04L1104.22,149.285L1104.67,149.247L1104.56,148.002L1104.46,146.756L1104.01,146.794L1104.12,148.04ZM1104.56,148.002L1104.67,149.247L1105.11,149.21L1105,147.964L1104.9,146.719L1104.46,146.756L1104.56,148.002ZM1105,147.964L1105.11,149.21C1105.68,149.161 1106.19,148.936 1106.62,148.584L1105.02,146.656C1104.96,146.712 1104.92,146.717 1104.9,146.719L1105,147.964ZM1105.02,146.656L1106.62,148.584L1106.99,148.278L1105.39,146.35L1105.02,146.656ZM1105.39,146.35L1106.99,148.278L1107.36,147.971L1106.56,147.007L1105.77,146.043L1105.39,146.35ZM1106.56,147.007L1107.36,147.971C1107.39,147.945 1107.41,147.937 1107.41,147.935C1107.42,147.934 1107.42,147.932 1107.44,147.931L1107.38,146.682L1107.33,145.433C1106.74,145.458 1106.21,145.678 1105.77,146.043L1106.56,147.007ZM1107.38,146.682L1107.44,147.931L1107.89,147.913L1107.84,146.664L1107.78,145.415L1107.33,145.433L1107.38,146.682ZM1107.84,146.664L1107.89,147.913L1108.34,147.894L1108.24,145.396L1107.78,145.415L1107.84,146.664ZM1108.24,145.396L1108.34,147.894C1108.79,147.875 1109.23,147.775 1109.65,147.589L1109.14,146.448L1108.63,145.306C1108.51,145.359 1108.38,145.39 1108.24,145.396ZM1109.14,146.448L1109.65,147.589L1110.05,147.41L1109.54,146.269L1109.03,145.127L1108.63,145.306L1109.14,146.448ZM1109.54,146.269L1110.05,147.41L1110.45,147.232L1109.43,144.948L1109.03,145.127L1109.54,146.269ZM1109.43,144.948L1110.45,147.232C1110.73,147.106 1111.01,146.975 1111.29,146.839L1110.74,145.718L1110.19,144.596C1109.94,144.718 1109.69,144.835 1109.43,144.948ZM1110.74,145.718L1111.29,146.839L1111.68,146.646L1110.58,144.402L1110.19,144.596L1110.74,145.718ZM1110.58,144.402L1111.68,146.646L1112.08,146.453L1111.52,145.331L1110.97,144.209L1110.58,144.402ZM1111.52,145.331L1112.08,146.453C1112.43,146.279 1112.76,146.063 1113.06,145.81L1112.27,144.848L1111.47,143.887C1111.31,144.018 1111.14,144.125 1110.97,144.209L1111.52,145.331ZM1112.27,144.848L1113.06,145.81L1113.41,145.521L1112.61,144.559L1111.82,143.598L1111.47,143.887L1112.27,144.848ZM1112.61,144.559L1113.41,145.521L1113.76,145.232L1112.16,143.308L1111.82,143.598L1112.61,144.559ZM1112.16,143.308L1113.76,145.232C1113.84,145.167 1113.92,145.131 1114,145.113L1113.75,143.889L1113.49,142.666C1113,142.77 1112.55,142.988 1112.16,143.308ZM1113.75,143.889L1114,145.113L1114.44,145.021L1114.18,143.798L1113.93,142.574L1113.49,142.666L1113.75,143.889ZM1114.18,143.798L1114.44,145.021L1114.88,144.929L1114.36,142.483L1113.93,142.574L1114.18,143.798ZM1114.36,142.483L1114.88,144.929C1115.29,144.842 1115.69,144.693 1116.05,144.483L1114.81,142.313C1114.68,142.391 1114.53,142.448 1114.36,142.483ZM1114.81,142.313L1116.05,144.483L1116.43,144.267L1115.19,142.097L1114.81,142.313ZM1115.19,142.097L1116.43,144.267L1116.81,144.051L1115.57,141.881L1115.19,142.097ZM1115.57,141.881L1116.81,144.051C1117.11,143.879 1117.4,143.688 1117.67,143.478L1116.91,142.484L1116.16,141.49C1115.97,141.634 1115.77,141.764 1115.57,141.881ZM1116.91,142.484L1117.67,143.478L1118.02,143.212L1116.5,141.224L1116.16,141.49L1116.91,142.484ZM1116.5,141.224L1118.02,143.212L1118.37,142.946L1117.61,141.952L1116.85,140.959L1116.5,141.224ZM1117.61,141.952L1118.37,142.946C1118.36,142.951 1118.36,142.956 1118.35,142.959C1118.34,142.963 1118.34,142.964 1118.34,142.964C1118.34,142.964 1118.36,142.957 1118.43,142.96L1118.49,141.711L1118.54,140.462C1117.96,140.435 1117.36,140.569 1116.85,140.959L1117.61,141.952ZM1118.49,141.711L1118.43,142.96L1118.96,142.984L1119.01,141.735L1119.07,140.486L1118.54,140.462L1118.49,141.711ZM1119.01,141.735L1118.96,142.984L1119.48,143.008L1119.54,141.759L1119.6,140.511L1119.07,140.486L1119.01,141.735ZM1119.54,141.759L1119.48,143.008C1120.11,143.037 1120.75,142.862 1121.26,142.379L1120.39,141.474L1119.53,140.569C1119.54,140.559 1119.56,140.548 1119.57,140.537C1119.59,140.526 1119.61,140.519 1119.62,140.515C1119.65,140.506 1119.65,140.513 1119.6,140.511L1119.54,141.759ZM1120.39,141.474L1121.26,142.379L1121.58,142.069L1120.72,141.164L1119.86,140.26L1119.53,140.569L1120.39,141.474ZM1120.72,141.164L1121.58,142.069L1121.91,141.76L1121.04,140.855L1120.18,139.95L1119.86,140.26L1120.72,141.164ZM1121.04,140.855L1121.91,141.76C1122.13,141.544 1122.35,141.325 1122.57,141.103L1120.79,139.351C1120.59,139.554 1120.39,139.753 1120.18,139.95L1121.04,140.855ZM1120.79,139.351L1122.57,141.103L1122.88,140.785L1121.1,139.033L1120.79,139.351ZM1121.1,139.033L1122.88,140.785L1123.2,140.467L1122.31,139.591L1121.41,138.715L1121.1,139.033ZM1122.31,139.591L1123.2,140.467C1123.35,140.316 1123.5,140.185 1123.67,140.072L1122.98,139.03L1122.29,137.989C1121.97,138.199 1121.68,138.442 1121.41,138.715L1122.31,139.591ZM1122.98,139.03L1123.67,140.072L1124.04,139.829L1123.35,138.788L1122.66,137.746L1122.29,137.989L1122.98,139.03ZM1123.35,138.788L1124.04,139.829L1124.41,139.587L1123.71,138.545L1123.02,137.503L1122.66,137.746L1123.35,138.788ZM1123.71,138.545L1124.41,139.587C1124.75,139.361 1125.05,139.092 1125.32,138.783L1124.37,137.966L1123.42,137.15C1123.3,137.288 1123.17,137.405 1123.02,137.503L1123.71,138.545ZM1124.37,137.966L1125.32,138.783L1125.61,138.448L1123.71,136.814L1123.42,137.15L1124.37,137.966ZM1123.71,136.814L1125.61,138.448L1125.9,138.112L1124,136.478L1123.71,136.814ZM1124,136.478L1125.9,138.112C1126.13,137.846 1126.34,137.566 1126.53,137.271L1125.49,136.584L1124.44,135.896C1124.31,136.102 1124.16,136.296 1124,136.478ZM1125.49,136.584L1126.53,137.271L1126.78,136.896L1125.73,136.208L1124.69,135.521L1124.44,135.896L1125.49,136.584ZM1125.73,136.208L1126.78,136.896L1127.03,136.52L1125.98,135.833L1124.94,135.145L1124.69,135.521L1125.73,136.208ZM1125.98,135.833L1127.03,136.52C1127.02,136.53 1127.01,136.542 1127,136.554C1126.98,136.567 1126.97,136.577 1126.96,136.584C1126.94,136.599 1126.94,136.592 1126.98,136.584L1126.74,135.358L1126.49,134.131C1125.88,134.252 1125.31,134.573 1124.94,135.145L1125.98,135.833ZM1126.74,135.358L1126.98,136.584L1127.48,136.485L1127.24,135.258L1127,134.032L1126.49,134.131L1126.74,135.358ZM1127.24,135.258L1127.48,136.485L1127.99,136.385L1127.75,135.159L1127.51,133.932L1127,134.032L1127.24,135.258ZM1127.75,135.159L1127.99,136.385C1128.34,136.316 1128.71,136.161 1129.01,135.873C1129.32,135.585 1129.5,135.229 1129.59,134.874L1127.17,134.262C1127.17,134.234 1127.21,134.141 1127.3,134.049C1127.4,133.959 1127.49,133.935 1127.51,133.932L1127.75,135.159ZM1127.17,134.262L1129.59,134.874L1129.71,134.383L1128.5,134.077L1127.29,133.77L1127.17,134.262ZM1128.5,134.077L1129.71,134.383L1129.84,133.892L1128.63,133.585L1127.41,133.279L1127.29,133.77L1128.5,134.077ZM1128.63,133.585L1129.84,133.892C1129.83,133.917 1129.8,133.996 1129.72,134.076C1129.64,134.154 1129.57,134.176 1129.56,134.177L1129.26,132.966L1128.95,131.754C1128.61,131.841 1128.26,132.009 1127.97,132.293C1127.68,132.58 1127.5,132.926 1127.41,133.279L1128.63,133.585ZM1129.26,132.966L1129.56,134.177L1130.07,134.049L1129.76,132.837L1129.46,131.626L1128.95,131.754L1129.26,132.966ZM1129.76,132.837L1130.07,134.049L1130.58,133.921L1129.96,131.497L1129.46,131.626L1129.76,132.837ZM1129.96,131.497L1130.58,133.921C1130.94,133.828 1131.32,133.637 1131.61,133.294C1131.9,132.952 1132.03,132.554 1132.07,132.185L1129.59,131.921C1129.59,131.903 1129.61,131.791 1129.71,131.668C1129.82,131.543 1129.93,131.505 1129.96,131.497ZM1129.59,131.921L1132.07,132.185L1132.13,131.657L1130.89,131.525L1129.64,131.393L1129.59,131.921ZM1130.89,131.525L1132.13,131.657L1132.19,131.129L1130.94,130.997L1129.7,130.865L1129.64,131.393L1130.89,131.525ZM1130.94,130.997L1132.19,131.129C1132.19,131.05 1132.21,131.007 1132.22,130.988C1132.22,130.971 1132.23,130.971 1132.22,130.977L1131.29,130.146L1130.35,129.314C1129.95,129.765 1129.76,130.313 1129.7,130.865L1130.94,130.997ZM1131.29,130.146L1132.22,130.977L1132.51,130.654L1131.57,129.823L1130.64,128.991L1130.35,129.314L1131.29,130.146ZM1131.57,129.823L1132.51,130.654L1132.8,130.331L1131.86,129.499L1130.93,128.668L1130.64,128.991L1131.57,129.823ZM1131.86,129.499L1132.8,130.331C1132.89,130.229 1133.01,130.128 1133.18,130.034L1131.96,127.852C1131.57,128.069 1131.22,128.339 1130.93,128.668L1131.86,129.499ZM1131.96,127.852L1133.18,130.034L1133.59,129.8L1132.98,128.71L1132.37,127.619L1131.96,127.852ZM1132.98,128.71L1133.59,129.8L1134.01,129.567L1133.4,128.477L1132.79,127.386L1132.37,127.619L1132.98,128.71ZM1133.4,128.477L1134.01,129.567C1134.41,129.341 1134.77,129.049 1135.07,128.689L1134.09,127.901L1133.12,127.113C1133.05,127.209 1132.94,127.301 1132.79,127.386L1133.4,128.477ZM1134.09,127.901L1135.07,128.689L1135.34,128.346L1133.4,126.77L1133.12,127.113L1134.09,127.901ZM1133.4,126.77L1135.34,128.346L1135.62,128.003L1134.65,127.216L1133.68,126.428L1133.4,126.77ZM1134.65,127.216L1135.62,128.003C1135.83,127.743 1136.03,127.472 1136.22,127.191L1135.17,126.505L1134.13,125.818C1133.99,126.029 1133.84,126.232 1133.68,126.428L1134.65,127.216ZM1135.17,126.505L1136.22,127.191L1136.46,126.823L1135.41,126.137L1134.37,125.45L1134.13,125.818L1135.17,126.505ZM1135.41,126.137L1136.46,126.823L1136.7,126.455L1135.65,125.768L1134.61,125.082L1134.37,125.45L1135.41,126.137ZM1135.65,125.768L1136.7,126.455C1136.98,126.029 1137.14,125.554 1137.19,125.057L1135.95,124.923L1134.71,124.788C1134.69,124.928 1134.65,125.017 1134.61,125.082L1135.65,125.768ZM1135.95,124.923L1137.19,125.057L1137.24,124.579L1134.76,124.311L1134.71,124.788L1135.95,124.923ZM1134.76,124.311L1137.24,124.579L1137.29,124.102L1136.05,123.967L1134.81,123.833L1134.76,124.311ZM1136.05,123.967L1137.29,124.102C1137.31,123.934 1137.35,123.816 1137.4,123.728L1136.32,123.112L1135.23,122.496C1134.99,122.912 1134.86,123.364 1134.81,123.833L1136.05,123.967ZM1136.32,123.112L1137.4,123.728L1137.62,123.351L1135.44,122.119L1135.23,122.496L1136.32,123.112ZM1135.44,122.119L1137.62,123.351L1137.83,122.973L1136.74,122.357L1135.66,121.741L1135.44,122.119ZM1136.74,122.357L1137.83,122.973C1137.93,122.792 1138.06,122.617 1138.2,122.447L1137.25,121.638L1136.3,120.828C1136.05,121.114 1135.84,121.419 1135.66,121.741L1136.74,122.357ZM1137.25,121.638L1138.2,122.447L1138.49,122.105L1137.54,121.296L1136.59,120.486L1136.3,120.828L1137.25,121.638ZM1137.54,121.296L1138.49,122.105L1138.78,121.763L1137.83,120.954L1136.88,120.144L1136.59,120.486L1137.54,121.296ZM1137.83,120.954L1138.78,121.763C1139.13,121.356 1139.34,120.877 1139.42,120.351L1138.19,120.164L1136.95,119.977C1136.94,120.048 1136.92,120.095 1136.88,120.144L1137.83,120.954ZM1138.19,120.164L1139.42,120.351L1139.49,119.903L1138.26,119.716L1137.02,119.529L1136.95,119.977L1138.19,120.164ZM1138.26,119.716L1139.49,119.903L1139.56,119.455L1138.32,119.268L1137.09,119.081L1137.02,119.529L1138.26,119.716ZM1138.32,119.268L1139.56,119.455C1139.56,119.451 1139.56,119.45 1139.56,119.452L1139.56,119.457C1139.56,119.458 1139.56,119.456 1139.56,119.452C1139.57,119.447 1139.57,119.438 1139.59,119.426L1137.91,117.568C1137.48,117.963 1137.18,118.477 1137.09,119.081L1138.32,119.268ZM1137.91,117.568L1139.59,119.426L1139.95,119.102L1139.11,118.173L1138.27,117.245L1137.91,117.568ZM1139.11,118.173L1139.95,119.102L1140.31,118.779L1138.63,116.921L1138.27,117.245L1139.11,118.173ZM1138.63,116.921L1140.31,118.779C1140.89,118.253 1141.1,117.53 1140.96,116.796L1139.73,117.025L1138.51,117.255C1138.51,117.255 1138.5,117.24 1138.5,117.211C1138.51,117.181 1138.51,117.142 1138.53,117.098C1138.56,117.003 1138.61,116.943 1138.63,116.921ZM1139.73,117.025L1140.96,116.796L1140.87,116.295L1139.64,116.524L1138.41,116.754L1138.51,117.255L1139.73,117.025ZM1139.64,116.524L1140.87,116.295L1140.78,115.794L1139.55,116.024L1138.32,116.253L1138.41,116.754L1139.64,116.524ZM1139.55,116.024L1140.78,115.794C1140.75,115.642 1140.77,115.575 1140.78,115.553L1139.6,115.118L1138.43,114.683C1138.24,115.201 1138.22,115.737 1138.32,116.253L1139.55,116.024ZM1139.6,115.118L1140.78,115.553L1140.93,115.148L1139.75,114.713L1138.58,114.278L1138.43,114.683L1139.6,115.118ZM1139.75,114.713L1140.93,115.148L1141.08,114.743L1139.91,114.308L1138.73,113.873L1138.58,114.278L1139.75,114.713ZM1139.91,114.308L1141.08,114.743C1141.18,114.465 1141.28,114.186 1141.38,113.906L1139.02,113.084C1138.93,113.348 1138.83,113.611 1138.73,113.873L1139.91,114.308ZM1139.02,113.084L1141.38,113.906L1141.52,113.498L1139.16,112.676L1139.02,113.084ZM1139.16,112.676L1141.52,113.498L1141.66,113.09L1140.48,112.679L1139.3,112.267L1139.16,112.676ZM1140.48,112.679L1141.66,113.09C1141.68,113.043 1141.72,112.953 1141.86,112.828L1141,111.917L1140.15,111.005C1139.78,111.352 1139.47,111.77 1139.3,112.267L1140.48,112.679ZM1141,111.917L1141.86,112.828L1142.23,112.474L1141.38,111.563L1140.52,110.651L1140.15,111.005L1141,111.917ZM1141.38,111.563L1142.23,112.474L1142.61,112.12L1141.76,111.209L1140.9,110.297L1140.52,110.651L1141.38,111.563ZM1141.76,111.209L1142.61,112.12C1142.89,111.861 1143.12,111.512 1143.21,111.07C1143.3,110.633 1143.23,110.224 1143.08,109.883L1141.93,110.362L1140.78,110.84C1140.77,110.828 1140.73,110.725 1140.76,110.569C1140.8,110.411 1140.88,110.32 1140.9,110.297L1141.76,111.209ZM1141.93,110.362L1143.08,109.883L1142.88,109.39L1141.73,109.868L1140.57,110.347L1140.78,110.84L1141.93,110.362ZM1141.73,109.868L1142.88,109.39L1142.68,108.897L1141.52,109.375L1140.37,109.853L1140.57,110.347L1141.73,109.868ZM1141.52,109.375L1142.68,108.897C1142.66,108.865 1142.68,108.886 1142.68,108.948C1142.68,108.978 1142.67,109.01 1142.66,109.043C1142.65,109.075 1142.64,109.101 1142.63,109.118L1140.47,107.85C1140.09,108.51 1140.11,109.227 1140.37,109.853L1141.52,109.375ZM1140.47,107.85L1142.63,109.118L1142.86,108.72L1141.79,108.086L1140.71,107.453L1140.47,107.85ZM1141.79,108.086L1142.86,108.72L1143.1,108.322L1142.02,107.689L1140.94,107.055L1140.71,107.453L1141.79,108.086ZM1142.02,107.689L1143.1,108.322C1143.33,107.931 1143.48,107.508 1143.56,107.059L1142.32,106.859L1141.09,106.66C1141.07,106.786 1141.02,106.916 1140.94,107.055L1142.02,107.689ZM1142.32,106.859L1143.56,107.059L1143.63,106.627L1142.39,106.428L1141.16,106.229L1141.09,106.66L1142.32,106.859ZM1142.39,106.428L1143.63,106.627L1143.7,106.196L1142.46,105.997L1141.23,105.798L1141.16,106.229L1142.39,106.428ZM1142.46,105.997L1143.7,106.196C1143.72,106.054 1143.77,105.901 1143.86,105.733L1142.75,105.147L1141.65,104.561C1141.44,104.951 1141.3,105.364 1141.23,105.798L1142.46,105.997ZM1142.75,105.147L1143.86,105.733L1144.08,105.315L1142.98,104.729L1141.87,104.143L1141.65,104.561L1142.75,105.147ZM1142.98,104.729L1144.08,105.315L1144.3,104.897L1143.2,104.311L1142.09,103.725L1141.87,104.143L1142.98,104.729ZM1143.2,104.311L1144.3,104.897C1144.55,104.421 1144.67,103.896 1144.63,103.348L1143.38,103.447L1142.14,103.545C1142.14,103.591 1142.14,103.643 1142.09,103.725L1143.2,104.311ZM1143.38,103.447L1144.63,103.348L1144.6,102.902L1143.35,103.001L1142.1,103.099L1142.14,103.545L1143.38,103.447ZM1143.35,103.001L1144.6,102.902L1144.56,102.456L1143.31,102.555L1142.07,102.654L1142.1,103.099L1143.35,103.001ZM1143.31,102.555L1144.56,102.456C1144.52,101.949 1144.36,101.475 1144.11,101.041L1143.02,101.662L1141.94,102.283C1142.03,102.445 1142.06,102.566 1142.07,102.654L1143.31,102.555ZM1143.02,101.662L1144.11,101.041L1143.85,100.594L1142.77,101.215L1141.68,101.835L1141.94,102.283L1143.02,101.662ZM1142.77,101.215L1143.85,100.594L1143.6,100.147L1142.51,100.767L1141.43,101.388L1141.68,101.835L1142.77,101.215ZM1142.51,100.767L1143.6,100.147C1143.58,100.118 1143.59,100.126 1143.6,100.167L1143.6,100.23C1143.59,100.252 1143.59,100.27 1143.59,100.281L1142.4,99.886L1141.21,99.492C1140.99,100.163 1141.1,100.825 1141.43,101.388L1142.51,100.767ZM1142.4,99.886L1143.59,100.281L1143.73,99.847L1142.54,99.453L1141.36,99.058L1141.21,99.492L1142.4,99.886ZM1142.54,99.453L1143.73,99.847L1143.87,99.414L1142.69,99.019L1141.5,98.624L1141.36,99.058L1142.54,99.453ZM1142.69,99.019L1143.87,99.414C1144.02,98.975 1144.08,98.519 1144.05,98.056L1141.55,98.245C1141.56,98.361 1141.55,98.485 1141.5,98.624L1142.69,99.019ZM1141.55,98.245L1144.05,98.056L1144.01,97.621L1142.77,97.715L1141.52,97.81L1141.55,98.245ZM1142.77,97.715L1144.01,97.621L1143.98,97.186L1142.73,97.28L1141.49,97.375L1141.52,97.81L1142.77,97.715ZM1142.73,97.28L1143.98,97.186C1143.96,96.938 1143.95,96.689 1143.96,96.439L1141.46,96.376C1141.45,96.709 1141.46,97.043 1141.49,97.375L1142.73,97.28ZM1141.46,96.376L1143.96,96.439L1143.97,96.001L1142.72,95.97L1141.47,95.938L1141.46,96.376ZM1142.72,95.97L1143.97,96.001L1143.98,95.564L1142.73,95.532L1141.48,95.5L1141.47,95.938L1142.72,95.97ZM1142.73,95.532L1143.98,95.564C1143.99,95.278 1144,94.992 1144.01,94.704L1141.51,94.602C1141.5,94.902 1141.49,95.202 1141.48,95.5L1142.73,95.532ZM1141.51,94.602L1144.01,94.704L1144.03,94.263L1142.78,94.212L1141.53,94.161L1141.51,94.602ZM1142.78,94.212L1144.03,94.263L1144.05,93.822L1141.55,93.72L1141.53,94.161L1142.78,94.212ZM1141.55,93.72L1144.05,93.822C1144.06,93.452 1144.04,93.084 1143.99,92.718L1142.75,92.896L1141.52,93.074C1141.55,93.287 1141.56,93.502 1141.55,93.72ZM1142.75,92.896L1143.99,92.718L1143.93,92.284L1141.45,92.641L1141.52,93.074L1142.75,92.896ZM1141.45,92.641L1143.93,92.284L1143.87,91.85L1141.39,92.207L1141.45,92.641ZM1141.39,92.207L1143.87,91.85C1143.81,91.444 1143.69,91.051 1143.53,90.674L1142.38,91.182L1141.24,91.691C1141.32,91.863 1141.37,92.035 1141.39,92.207ZM1142.38,91.182L1143.53,90.674L1143.34,90.261L1141.06,91.278L1141.24,91.691L1142.38,91.182ZM1141.06,91.278L1143.34,90.261L1143.16,89.849L1142.02,90.357L1140.87,90.866L1141.06,91.278ZM1142.02,90.357L1143.16,89.849C1143.05,89.605 1142.95,89.362 1142.87,89.12L1140.51,89.944C1140.62,90.253 1140.74,90.56 1140.87,90.866L1142.02,90.357ZM1140.51,89.944L1142.87,89.12L1142.72,88.707L1141.54,89.119L1140.36,89.531L1140.51,89.944ZM1141.54,89.119L1142.72,88.707L1142.58,88.294L1141.4,88.706L1140.22,89.118L1140.36,89.531L1141.54,89.119ZM1141.4,88.706L1142.58,88.294C1142.56,88.234 1142.55,88.156 1142.57,88.036L1141.34,87.827L1140.1,87.618C1140.02,88.119 1140.05,88.628 1140.22,89.118L1141.4,88.706ZM1141.34,87.827L1142.57,88.036L1142.65,87.569L1141.41,87.36L1140.18,87.151L1140.1,87.618L1141.34,87.827ZM1141.41,87.36L1142.65,87.569L1142.73,87.103L1141.49,86.894L1140.26,86.685L1140.18,87.151L1141.41,87.36ZM1141.49,86.894L1142.73,87.103C1142.82,86.544 1142.75,85.981 1142.48,85.462L1141.37,86.029L1140.26,86.597L1140.26,86.622C1140.27,86.627 1140.27,86.646 1140.26,86.685L1141.49,86.894ZM1141.37,86.029L1142.48,85.462L1142.28,85.064L1141.17,85.631L1140.05,86.199L1140.26,86.597L1141.37,86.029ZM1141.17,85.631L1142.28,85.064L1142.08,84.666L1140.96,85.233L1139.85,85.801L1140.05,86.199L1141.17,85.631ZM1140.96,85.233L1142.08,84.666C1141.96,84.442 1141.86,84.217 1141.78,83.991L1139.44,84.863C1139.56,85.181 1139.69,85.494 1139.85,85.801L1140.96,85.233ZM1139.44,84.863L1141.78,83.991L1141.63,83.582L1139.29,84.454L1139.44,84.863ZM1139.29,84.454L1141.63,83.582L1141.48,83.173L1140.3,83.61L1139.13,84.046L1139.29,84.454ZM1140.3,83.61L1141.48,83.173C1141.4,82.969 1141.34,82.757 1141.3,82.537L1140.07,82.767L1138.84,82.997C1138.91,83.356 1139.01,83.706 1139.13,84.046L1140.3,83.61ZM1140.07,82.767L1141.3,82.537L1141.22,82.103L1139.99,82.333L1138.76,82.564L1138.84,82.997L1140.07,82.767ZM1139.99,82.333L1141.22,82.103L1141.14,81.669L1139.91,81.9L1138.68,82.13L1138.76,82.564L1139.99,82.333ZM1139.91,81.9L1141.14,81.669C1141.09,81.399 1141.04,81.123 1141,80.843L1139.76,81.019L1138.53,81.194C1138.57,81.51 1138.62,81.822 1138.68,82.13L1139.91,81.9ZM1139.76,81.019L1141,80.843L1140.94,80.396L1138.46,80.747L1138.53,81.194L1139.76,81.019ZM1138.46,80.747L1140.94,80.396L1140.87,79.949L1139.64,80.124L1138.4,80.3L1138.46,80.747ZM1139.64,80.124L1140.87,79.949C1140.82,79.569 1140.73,79.2 1140.6,78.841L1139.43,79.26L1138.25,79.678C1138.32,79.876 1138.37,80.083 1138.4,80.3L1139.64,80.124ZM1139.43,79.26L1140.6,78.841L1140.45,78.424L1139.28,78.842L1138.1,79.261L1138.25,79.678L1139.43,79.26ZM1139.28,78.842L1140.45,78.424L1140.31,78.007L1139.13,78.425L1137.95,78.844L1138.1,79.261L1139.28,78.842ZM1139.13,78.425L1140.31,78.007C1140.18,77.643 1140.01,77.297 1139.81,76.97L1138.75,77.631L1137.68,78.293C1137.79,78.468 1137.88,78.651 1137.95,78.844L1139.13,78.425ZM1138.75,77.631L1139.81,76.97L1139.57,76.593L1138.51,77.254L1137.45,77.916L1137.68,78.293L1138.75,77.631ZM1138.51,77.254L1139.57,76.593L1139.34,76.216L1138.28,76.878L1137.21,77.539L1137.45,77.916L1138.51,77.254ZM1138.28,76.878L1139.34,76.216C1139.14,75.899 1138.91,75.602 1138.66,75.324L1137.73,76.166L1136.81,77.008C1136.97,77.177 1137.1,77.354 1137.21,77.539L1138.28,76.878ZM1137.73,76.166L1138.66,75.324L1138.35,74.989L1137.43,75.831L1136.51,76.674L1136.81,77.008L1137.73,76.166ZM1137.43,75.831L1138.35,74.989L1138.05,74.654L1137.12,75.496L1136.2,76.339L1136.51,76.674L1137.43,75.831ZM1137.12,75.496L1138.05,74.654C1138.01,74.617 1137.99,74.577 1137.98,74.5L1136.74,74.698L1135.51,74.897C1135.6,75.437 1135.83,75.929 1136.2,76.339L1137.12,75.496ZM1136.74,74.698L1137.98,74.5L1137.9,74.037L1136.67,74.235L1135.44,74.434L1135.51,74.897L1136.74,74.698ZM1136.67,74.235L1137.9,74.037L1137.83,73.574L1136.6,73.772L1135.36,73.971L1135.44,74.434L1136.67,74.235ZM1136.6,73.772L1137.83,73.574C1137.75,73.073 1137.56,72.605 1137.24,72.197L1135.26,73.718C1135.31,73.779 1135.34,73.855 1135.36,73.971L1136.6,73.772ZM1135.26,73.718L1137.24,72.197L1136.97,71.845L1134.99,73.365L1135.26,73.718ZM1134.99,73.365L1136.97,71.845L1136.7,71.492L1134.72,73.013L1134.99,73.365ZM1134.72,73.013L1136.7,71.492C1136.57,71.315 1136.45,71.127 1136.34,70.929L1135.24,71.507L1134.13,72.086C1134.3,72.412 1134.49,72.721 1134.72,73.013ZM1135.24,71.507L1136.34,70.929L1136.14,70.536L1135.03,71.114L1133.92,71.692L1134.13,72.086L1135.24,71.507ZM1135.03,71.114L1136.14,70.536L1135.93,70.142L1134.82,70.72L1133.72,71.299L1133.92,71.692L1135.03,71.114ZM1134.82,70.72L1135.93,70.142C1135.65,69.601 1135.2,69.22 1134.68,68.981L1133.64,71.254C1133.69,71.277 1133.71,71.294 1133.72,71.298C1133.72,71.3 1133.72,71.301 1133.72,71.3C1133.72,71.299 1133.72,71.298 1133.72,71.299L1134.82,70.72ZM1133.64,71.254L1134.68,68.981L1134.22,68.771L1133.18,71.044L1133.64,71.254ZM1133.18,71.044L1134.22,68.771L1133.76,68.561L1133.24,69.697L1132.72,70.834L1133.18,71.044ZM1133.24,69.697L1133.76,68.561C1133.79,68.574 1133.87,68.619 1133.93,68.715C1133.96,68.758 1133.98,68.8 1133.99,68.832C1134,68.864 1134,68.882 1134,68.881L1131.5,69.037C1131.53,69.39 1131.63,69.762 1131.85,70.1C1132.08,70.442 1132.39,70.68 1132.72,70.834L1133.24,69.697ZM1131.5,69.037L1134,68.881L1133.97,68.352L1131.47,68.508L1131.5,69.037ZM1131.47,68.508L1133.97,68.352L1133.93,67.824L1132.69,67.902L1131.44,67.98L1131.47,68.508ZM1132.69,67.902L1133.93,67.824C1133.89,67.137 1133.58,66.482 1132.93,66.07L1131.59,68.181C1131.55,68.156 1131.5,68.109 1131.47,68.043C1131.43,67.984 1131.44,67.952 1131.44,67.98L1132.69,67.902ZM1131.59,68.181L1132.93,66.07L1132.54,65.821L1131.2,67.932L1131.59,68.181ZM1131.2,67.932L1132.54,65.821L1132.15,65.573L1130.81,67.684L1131.2,67.932ZM1130.81,67.684L1132.15,65.573C1132.04,65.507 1131.98,65.434 1131.92,65.35L1129.78,66.643C1130.04,67.07 1130.39,67.418 1130.81,67.684ZM1129.78,66.643L1131.92,65.35L1131.69,64.967L1129.55,66.26L1129.78,66.643ZM1129.55,66.26L1131.69,64.967L1131.46,64.584L1129.32,65.877L1129.55,66.26ZM1129.32,65.877L1131.46,64.584C1131.16,64.077 1130.71,63.719 1130.18,63.508L1129.71,64.669L1129.25,65.83C1129.29,65.845 1129.31,65.858 1129.31,65.862C1129.31,65.864 1129.32,65.867 1129.32,65.877ZM1129.71,64.669L1130.18,63.508L1129.73,63.329L1129.26,64.49L1128.8,65.651L1129.25,65.83L1129.71,64.669ZM1129.26,64.49L1129.73,63.329L1129.28,63.15L1128.82,64.311L1128.35,65.472L1128.8,65.651L1129.26,64.49ZM1128.82,64.311L1129.28,63.15C1129.28,63.152 1129.32,63.167 1129.35,63.203C1129.38,63.239 1129.39,63.268 1129.39,63.263L1128.21,63.669L1127.03,64.074C1127.25,64.721 1127.71,65.215 1128.35,65.472L1128.82,64.311ZM1128.21,63.669L1129.39,63.263L1129.23,62.799L1128.05,63.205L1126.87,63.61L1127.03,64.074L1128.21,63.669ZM1128.05,63.205L1129.23,62.799L1129.07,62.335L1126.71,63.146L1126.87,63.61L1128.05,63.205ZM1126.71,63.146L1129.07,62.335C1128.86,61.707 1128.42,61.208 1127.78,60.943L1127.3,62.097L1126.82,63.25C1126.81,63.245 1126.78,63.228 1126.74,63.192C1126.71,63.158 1126.71,63.134 1126.71,63.146ZM1127.3,62.097L1127.78,60.943L1127.35,60.763L1126.87,61.917L1126.39,63.071L1126.82,63.25L1127.3,62.097ZM1126.87,61.917L1127.35,60.763L1126.92,60.583L1126.44,61.737L1125.96,62.891L1126.39,63.071L1126.87,61.917ZM1126.44,61.737L1126.92,60.583C1126.92,60.582 1126.92,60.581 1126.92,60.584C1126.92,60.587 1126.93,60.591 1126.94,60.596L1126.94,60.604C1126.94,60.605 1126.94,60.6 1126.93,60.588L1125.8,61.12L1124.67,61.651C1124.94,62.213 1125.37,62.647 1125.96,62.891L1126.44,61.737ZM1125.8,61.12L1126.93,60.588L1126.73,60.151L1124.47,61.213L1124.67,61.651L1125.8,61.12ZM1124.47,61.213L1126.73,60.151L1126.52,59.713L1124.26,60.775L1124.47,61.213ZM1124.26,60.775L1126.52,59.713C1126.36,59.37 1126.11,59.062 1125.76,58.845C1125.41,58.633 1125.04,58.55 1124.69,58.536L1124.59,61.034C1124.61,61.035 1124.54,61.035 1124.45,60.976C1124.34,60.912 1124.28,60.827 1124.26,60.775ZM1124.59,61.034L1124.69,58.536L1124.15,58.514L1124.05,61.012L1124.59,61.034ZM1124.05,61.012L1124.15,58.514L1123.61,58.493L1123.51,60.991L1124.05,61.012ZM1123.51,60.991L1123.61,58.493C1123.6,58.492 1123.66,58.493 1123.76,58.55C1123.86,58.612 1123.91,58.691 1123.93,58.733L1122.8,59.275L1121.68,59.818C1121.84,60.156 1122.09,60.462 1122.44,60.678C1122.79,60.891 1123.16,60.977 1123.51,60.991ZM1122.8,59.275L1123.93,58.733L1123.72,58.288L1121.46,59.373L1121.68,59.818L1122.8,59.275ZM1121.46,59.373L1123.72,58.288L1123.5,57.843L1122.38,58.386L1121.25,58.928L1121.46,59.373ZM1122.38,58.386L1123.5,57.843C1123.21,57.239 1122.7,56.791 1122.02,56.614L1121.4,59.033C1121.38,59.029 1121.34,59.013 1121.29,58.977C1121.25,58.943 1121.24,58.917 1121.25,58.928L1122.38,58.386ZM1121.4,59.033L1122.02,56.614L1121.57,56.497L1120.95,58.916L1121.4,59.033ZM1120.95,58.916L1121.57,56.497L1121.12,56.38L1120.81,57.589L1120.49,58.799L1120.95,58.916ZM1120.81,57.589L1121.12,56.38C1121.12,56.378 1121.12,56.377 1121.12,56.379C1121.12,56.38 1121.13,56.382 1121.13,56.386C1121.14,56.389 1121.14,56.391 1121.14,56.391C1121.14,56.391 1121.13,56.387 1121.13,56.377L1120.09,57.076L1119.05,57.775C1119.4,58.284 1119.89,58.642 1120.49,58.799L1120.81,57.589ZM1120.09,57.076L1121.13,56.377L1120.86,55.98L1119.82,56.679L1118.79,57.378L1119.05,57.775L1120.09,57.076ZM1119.82,56.679L1120.86,55.98L1120.59,55.583L1119.56,56.282L1118.52,56.982L1118.79,57.378L1119.82,56.679ZM1119.56,56.282L1120.59,55.583C1120.3,55.153 1119.92,54.803 1119.44,54.569L1118.89,55.691L1118.34,56.813C1118.39,56.839 1118.45,56.883 1118.52,56.982L1119.56,56.282ZM1118.89,55.691L1119.44,54.569L1119.04,54.374L1118.49,55.496L1117.94,56.619L1118.34,56.813L1118.89,55.691ZM1118.49,55.496L1119.04,54.374L1118.65,54.179L1118.1,55.302L1117.55,56.424L1117.94,56.619L1118.49,55.496ZM1118.1,55.302L1118.65,54.179C1118.26,53.988 1117.84,53.865 1117.41,53.804L1117.24,55.042L1117.06,56.28C1117.25,56.306 1117.41,56.356 1117.55,56.424L1118.1,55.302ZM1117.24,55.042L1117.41,53.804L1116.95,53.74L1116.77,54.977L1116.6,56.215L1117.06,56.28L1117.24,55.042ZM1116.77,54.977L1116.95,53.74L1116.48,53.675L1116.31,54.913L1116.14,56.151L1116.6,56.215L1116.77,54.977ZM1116.31,54.913L1116.48,53.675C1116.41,53.664 1116.37,53.642 1116.33,53.61L1114.69,55.49C1115.1,55.855 1115.6,56.075 1116.14,56.151L1116.31,54.913ZM1114.69,55.49L1116.33,53.61L1115.99,53.312L1114.35,55.193L1114.69,55.49ZM1114.35,55.193L1115.99,53.312L1115.65,53.014L1114.83,53.954L1114,54.895L1114.35,55.193ZM1114.83,53.954L1115.65,53.014C1115.4,52.791 1115.13,52.58 1114.86,52.381L1114.12,53.392L1113.39,54.404C1113.6,54.557 1113.81,54.721 1114,54.895L1114.83,53.954ZM1114.12,53.392L1114.86,52.381L1114.5,52.117L1113.76,53.128L1113.03,54.139L1113.39,54.404L1114.12,53.392ZM1113.76,53.128L1114.5,52.117L1114.13,51.852L1113.4,52.864L1112.66,53.875L1113.03,54.139L1113.76,53.128ZM1113.4,52.864L1114.13,51.852C1113.83,51.635 1113.52,51.445 1113.19,51.282L1112.64,52.402L1112.08,53.523C1112.28,53.622 1112.48,53.739 1112.66,53.875L1113.4,52.864ZM1112.64,52.402L1113.19,51.282L1112.79,51.085L1112.24,52.206L1111.68,53.326L1112.08,53.523L1112.64,52.402ZM1112.24,52.206L1112.79,51.085L1112.4,50.889L1111.84,52.009L1111.29,53.129L1111.68,53.326L1112.24,52.206ZM1111.84,52.009L1112.4,50.889C1111.99,50.689 1111.56,50.568 1111.11,50.523L1110.99,51.767L1110.86,53.01C1111.02,53.026 1111.16,53.066 1111.29,53.129L1111.84,52.009ZM1110.99,51.767L1111.11,50.523L1110.66,50.477L1110.54,51.721L1110.41,52.965L1110.86,53.01L1110.99,51.767ZM1110.54,51.721L1110.66,50.477L1110.21,50.432L1110.08,51.676L1109.96,52.919L1110.41,52.965L1110.54,51.721ZM1110.08,51.676L1110.21,50.432C1109.87,50.398 1109.54,50.377 1109.21,50.367L1109.17,51.617L1109.14,52.866C1109.41,52.874 1109.68,52.892 1109.96,52.919L1110.08,51.676ZM1109.17,51.617L1109.21,50.367L1108.75,50.354L1108.72,51.604L1108.68,52.853L1109.14,52.866L1109.17,51.617ZM1108.72,51.604L1108.75,50.354L1108.3,50.341L1108.26,51.591L1108.22,52.84L1108.68,52.853L1108.72,51.604ZM1108.26,51.591L1108.3,50.341C1108.06,50.334 1107.83,50.309 1107.61,50.268L1107.38,51.495L1107.14,52.723C1107.49,52.791 1107.86,52.829 1108.22,52.84L1108.26,51.591ZM1107.38,51.495L1107.61,50.268L1107.18,50.186L1106.95,51.413L1106.71,52.641L1107.14,52.723L1107.38,51.495ZM1106.95,51.413L1107.18,50.186L1106.76,50.104L1106.28,52.559L1106.71,52.641L1106.95,51.413ZM1106.28,52.559L1106.76,50.104C1106.47,50.049 1106.18,49.994 1105.9,49.941L1105.44,52.399C1105.72,52.451 1106,52.505 1106.28,52.559ZM1105.44,52.399L1105.9,49.941L1105.47,49.862L1105.01,52.319L1105.44,52.399ZM1105.01,52.319L1105.47,49.862L1105.04,49.782L1104.81,51.011L1104.59,52.24L1105.01,52.319ZM1104.81,51.011L1105.04,49.782C1104.86,49.749 1104.69,49.692 1104.51,49.61L1103.98,50.745L1103.46,51.879C1103.82,52.046 1104.2,52.167 1104.59,52.24L1104.81,51.011ZM1103.98,50.745L1104.51,49.61L1104.11,49.423L1103.58,50.558L1103.06,51.693L1103.46,51.879L1103.98,50.745ZM1103.58,50.558L1104.11,49.423L1103.7,49.237L1103.18,50.371L1102.65,51.506L1103.06,51.693L1103.58,50.558ZM1103.18,50.371L1103.7,49.237C1103.29,49.046 1102.85,48.937 1102.4,48.915L1102.28,51.412C1102.4,51.418 1102.53,51.448 1102.65,51.506L1103.18,50.371ZM1102.28,51.412L1102.4,48.915L1101.96,48.894L1101.84,51.391L1102.28,51.412ZM1101.84,51.391L1101.96,48.894L1101.52,48.872L1101.4,51.369L1101.84,51.391ZM1101.4,51.369L1101.52,48.872C1101.33,48.863 1101.14,48.831 1100.95,48.777L1100.6,49.977L1100.25,51.178C1100.63,51.286 1101.01,51.35 1101.4,51.369ZM1100.6,49.977L1100.95,48.777L1100.53,48.655L1100.18,49.855L1099.83,51.056L1100.25,51.178L1100.6,49.977ZM1100.18,49.855L1100.53,48.655L1100.11,48.532L1099.76,49.733L1099.41,50.933L1099.83,51.056L1100.18,49.855ZM1099.76,49.733L1100.11,48.532C1099.8,48.444 1099.49,48.365 1099.18,48.295L1098.91,49.514L1098.64,50.734C1098.9,50.793 1099.16,50.859 1099.41,50.933L1099.76,49.733ZM1098.91,49.514L1099.18,48.295L1098.75,48.199L1098.48,49.418L1098.21,50.638L1098.64,50.734L1098.91,49.514ZM1098.48,49.418L1098.75,48.199L1098.33,48.102L1098.05,49.322L1097.78,50.542L1098.21,50.638L1098.48,49.418ZM1098.05,49.322L1098.33,48.102C1098.09,48.05 1097.85,47.981 1097.61,47.895L1096.77,50.25C1097.11,50.368 1097.44,50.466 1097.78,50.542L1098.05,49.322ZM1096.77,50.25L1097.61,47.895L1097.18,47.742L1096.34,50.097L1096.77,50.25ZM1096.34,50.097L1097.18,47.742L1096.75,47.589L1096.33,48.766L1095.92,49.944L1096.34,50.097ZM1096.33,48.766L1096.75,47.589C1096.11,47.358 1095.46,47.438 1094.89,47.732L1095.46,48.843L1096.03,49.954C1096.06,49.941 1096.05,49.951 1096.01,49.954C1095.99,49.956 1095.97,49.955 1095.96,49.953C1095.94,49.95 1095.92,49.946 1095.92,49.944L1096.33,48.766ZM1095.46,48.843L1094.89,47.732L1094.44,47.962L1095.01,49.073L1095.59,50.184L1096.03,49.954L1095.46,48.843ZM1095.01,49.073L1094.44,47.962L1093.99,48.192L1094.57,49.303L1095.14,50.414L1095.59,50.184L1095.01,49.073ZM1094.57,49.303L1093.99,48.192C1093.85,48.265 1093.76,48.275 1093.71,48.274L1093.69,49.524L1093.66,50.773C1094.19,50.785 1094.69,50.648 1095.14,50.414L1094.57,49.303ZM1093.69,49.524L1093.71,48.274L1093.28,48.264L1093.22,50.764L1093.66,50.773L1093.69,49.524ZM1093.22,50.764L1093.28,48.264L1092.84,48.255L1092.82,49.505L1092.79,50.754L1093.22,50.764ZM1092.82,49.505L1092.84,48.255C1092.61,48.25 1092.38,48.228 1092.15,48.19L1091.95,49.423L1091.74,50.656C1092.09,50.714 1092.44,50.747 1092.79,50.754L1092.82,49.505ZM1091.95,49.423L1092.15,48.19L1091.71,48.117L1091.51,49.35L1091.3,50.583L1091.74,50.656L1091.95,49.423ZM1091.51,49.35L1091.71,48.117L1091.28,48.044L1091.07,49.277L1090.87,50.51L1091.3,50.583L1091.51,49.35ZM1091.07,49.277L1091.28,48.044C1090.96,47.991 1090.64,47.948 1090.32,47.917L1090.19,49.161L1090.07,50.405C1090.34,50.431 1090.6,50.466 1090.87,50.51L1091.07,49.277ZM1090.19,49.161L1090.32,47.917L1089.87,47.874L1089.63,50.362L1090.07,50.405L1090.19,49.161ZM1089.63,50.362L1089.87,47.874L1089.43,47.831L1089.31,49.075L1089.19,50.319L1089.63,50.362ZM1089.31,49.075L1089.43,47.831C1089.01,47.79 1088.59,47.812 1088.18,47.9L1088.7,50.346C1088.86,50.312 1089.02,50.302 1089.19,50.319L1089.31,49.075ZM1088.7,50.346L1088.18,47.9L1087.75,47.991L1088.27,50.437L1088.7,50.346ZM1088.27,50.437L1087.75,47.991L1087.32,48.082L1087.58,49.305L1087.83,50.528L1088.27,50.437ZM1087.58,49.305L1087.32,48.082C1087.13,48.122 1086.93,48.14 1086.74,48.134L1086.7,49.384L1086.67,50.633C1087.06,50.644 1087.45,50.609 1087.83,50.528L1087.58,49.305ZM1086.7,49.384L1086.74,48.134L1086.29,48.122L1086.26,49.372L1086.22,50.621L1086.67,50.633L1086.7,49.384ZM1086.26,49.372L1086.29,48.122L1085.85,48.11L1085.82,49.36L1085.78,50.609L1086.22,50.621L1086.26,49.372ZM1085.82,49.36L1085.85,48.11C1085.5,48.1 1085.15,48.114 1084.8,48.151L1084.93,49.394L1085.06,50.637C1085.3,50.612 1085.54,50.603 1085.78,50.609L1085.82,49.36ZM1084.93,49.394L1084.8,48.151L1084.36,48.197L1084.49,49.44L1084.63,50.683L1085.06,50.637L1084.93,49.394ZM1084.49,49.44L1084.36,48.197L1083.92,48.244L1084.06,49.487L1084.19,50.73L1084.63,50.683L1084.49,49.44ZM1084.06,49.487L1083.92,48.244C1083.48,48.29 1083.06,48.414 1082.66,48.608L1083.76,50.855C1083.9,50.785 1084.04,50.745 1084.19,50.73L1084.06,49.487ZM1083.76,50.855L1082.66,48.608L1082.25,48.806L1082.8,49.93L1083.35,51.053L1083.76,50.855ZM1082.8,49.93L1082.25,48.806L1081.85,49.005L1082.4,50.128L1082.94,51.252L1083.35,51.053L1082.8,49.93ZM1082.4,50.128L1081.85,49.005C1081.56,49.144 1081.28,49.289 1081,49.438L1081.59,50.539L1082.19,51.64C1082.44,51.506 1082.69,51.377 1082.94,51.252L1082.4,50.128ZM1081.59,50.539L1081,49.438L1080.61,49.651L1081.79,51.853L1082.19,51.64L1081.59,50.539ZM1081.79,51.853L1080.61,49.651L1080.21,49.863L1080.8,50.964L1081.4,52.065L1081.79,51.853ZM1080.8,50.964L1080.21,49.863C1080.02,49.967 1079.83,50.046 1079.64,50.104L1079.99,51.301L1080.35,52.498C1080.71,52.39 1081.06,52.245 1081.4,52.065L1080.8,50.964ZM1079.99,51.301L1079.64,50.104L1079.22,50.228L1079.58,51.425L1079.94,52.623L1080.35,52.498L1079.99,51.301ZM1079.58,51.425L1079.22,50.228L1078.81,50.352L1079.17,51.549L1079.52,52.747L1079.94,52.623L1079.58,51.425ZM1079.17,51.549L1078.81,50.352C1078.63,50.406 1078.43,50.44 1078.23,50.453L1078.3,51.7L1078.38,52.948C1078.77,52.925 1079.15,52.858 1079.52,52.747L1079.17,51.549ZM1078.3,51.7L1078.23,50.453L1077.78,50.479L1077.86,51.727L1077.93,52.975L1078.38,52.948L1078.3,51.7ZM1077.86,51.727L1077.78,50.479L1077.33,50.506L1077.41,51.754L1077.48,53.002L1077.93,52.975L1077.86,51.727ZM1077.41,51.754L1077.33,50.506C1076.93,50.53 1076.53,50.607 1076.15,50.738L1076.95,53.104C1077.12,53.048 1077.29,53.013 1077.48,53.002L1077.41,51.754ZM1076.95,53.104L1076.15,50.738L1075.73,50.878L1076.13,52.061L1076.54,53.245L1076.95,53.104ZM1076.13,52.061L1075.73,50.878L1075.32,51.019L1075.72,52.202L1076.12,53.385L1076.54,53.245L1076.13,52.061ZM1075.72,52.202L1075.32,51.019C1074.94,51.146 1074.59,51.32 1074.25,51.537L1074.94,52.585L1075.62,53.632C1075.78,53.526 1075.95,53.445 1076.12,53.385L1075.72,52.202ZM1074.94,52.585L1074.25,51.537L1073.88,51.779L1074.57,52.827L1075.25,53.874L1075.62,53.632L1074.94,52.585ZM1074.57,52.827L1073.88,51.779L1073.51,52.021L1074.19,53.069L1074.88,54.116L1075.25,53.874L1074.57,52.827ZM1074.19,53.069L1073.51,52.021C1073.5,52.026 1073.5,52.028 1073.49,52.03C1073.48,52.033 1073.45,52.038 1073.4,52.035L1073.26,54.531C1073.82,54.563 1074.38,54.438 1074.88,54.116L1074.19,53.069ZM1073.26,54.531L1073.4,52.035L1072.91,52.008L1072.84,53.256L1072.77,54.504L1073.26,54.531ZM1072.84,53.256L1072.91,52.008L1072.42,51.98L1072.35,53.228L1072.28,54.476L1072.77,54.504L1072.84,53.256ZM1072.35,53.228L1072.42,51.98C1071.74,51.942 1071.1,52.18 1070.62,52.698L1071.54,53.546L1072.46,54.395C1072.45,54.406 1072.42,54.436 1072.36,54.457C1072.31,54.478 1072.27,54.476 1072.28,54.476L1072.35,53.228ZM1071.54,53.546L1070.62,52.698L1070.3,53.044L1071.22,53.892L1072.14,54.741L1072.46,54.395L1071.54,53.546ZM1071.22,53.892L1070.3,53.044L1069.98,53.389L1070.9,54.238L1071.82,55.086L1072.14,54.741L1071.22,53.892ZM1070.9,54.238L1069.98,53.389C1069.98,53.395 1069.98,53.396 1069.98,53.395C1069.98,53.393 1069.99,53.39 1069.99,53.387C1070,53.384 1070,53.382 1070.01,53.382C1070.01,53.381 1070,53.382 1069.99,53.383L1070.11,54.628L1070.23,55.872C1070.85,55.815 1071.4,55.545 1071.82,55.086L1070.9,54.238ZM1070.11,54.628L1069.99,53.383L1069.52,53.427L1069.64,54.672L1069.75,55.916L1070.23,55.872L1070.11,54.628ZM1069.64,54.672L1069.52,53.427L1069.05,53.471L1069.17,54.716L1069.28,55.96L1069.75,55.916L1069.64,54.672ZM1069.17,54.716L1069.05,53.471C1068.55,53.518 1068.07,53.676 1067.64,53.96L1068.32,55.003L1069.01,56.046C1069.07,56.005 1069.16,55.972 1069.28,55.96L1069.17,54.716ZM1068.32,55.003L1067.64,53.96L1067.27,54.203L1067.96,55.247L1068.64,56.29L1069.01,56.046L1068.32,55.003ZM1067.96,55.247L1067.27,54.203L1066.9,54.447L1067.59,55.49L1068.28,56.533L1068.64,56.29L1067.96,55.247ZM1067.59,55.49L1066.9,54.447C1066.53,54.688 1066.21,54.987 1065.94,55.335L1067.92,56.869C1068.03,56.725 1068.15,56.616 1068.28,56.533L1067.59,55.49ZM1067.92,56.869L1065.94,55.335L1065.66,55.703L1066.64,56.471L1067.63,57.238L1067.92,56.869ZM1066.64,56.471L1065.66,55.703L1065.37,56.072L1066.36,56.839L1067.34,57.606L1067.63,57.238L1066.64,56.471ZM1066.36,56.839L1065.37,56.072C1065.26,56.219 1065.14,56.328 1065.02,56.409L1066.4,58.489C1066.76,58.248 1067.08,57.95 1067.34,57.606L1066.36,56.839ZM1066.4,58.489L1065.02,56.409L1064.65,56.651L1065.35,57.69L1066.04,58.73L1066.4,58.489ZM1065.35,57.69L1064.65,56.651L1064.29,56.892L1064.99,57.932L1065.68,58.972L1066.04,58.73L1065.35,57.69ZM1064.99,57.932L1064.29,56.892C1064.06,57.044 1063.83,57.192 1063.6,57.336L1064.25,58.401L1064.91,59.467C1065.17,59.307 1065.43,59.141 1065.68,58.972L1064.99,57.932ZM1064.25,58.401L1063.6,57.336L1063.23,57.564L1063.88,58.63L1064.53,59.695L1064.91,59.467L1064.25,58.401ZM1063.88,58.63L1063.23,57.564L1062.85,57.793L1063.51,58.858L1064.16,59.924L1064.53,59.695L1063.88,58.63ZM1063.51,58.858L1062.85,57.793C1062.72,57.875 1062.56,57.946 1062.35,57.999L1062.99,60.417C1063.41,60.308 1063.8,60.146 1064.16,59.924L1063.51,58.858ZM1062.99,60.417L1062.35,57.999L1061.89,58.121L1062.21,59.33L1062.53,60.539L1062.99,60.417ZM1062.21,59.33L1061.89,58.121L1061.43,58.243L1062.07,60.66L1062.53,60.539L1062.21,59.33ZM1062.07,60.66L1061.43,58.243C1060.98,58.362 1060.55,58.561 1060.18,58.847L1060.93,59.842L1061.69,60.836C1061.79,60.764 1061.91,60.703 1062.07,60.66ZM1060.93,59.842L1060.18,58.847L1059.82,59.116L1060.58,60.11L1061.34,61.105L1061.69,60.836L1060.93,59.842ZM1060.58,60.11L1059.82,59.116L1059.47,59.385L1060.23,60.379L1060.99,61.374L1061.34,61.105L1060.58,60.11ZM1060.23,60.379L1059.47,59.385C1059.05,59.704 1058.74,60.117 1058.54,60.588L1059.68,61.09L1060.83,61.593C1060.88,61.474 1060.93,61.413 1060.99,61.374L1060.23,60.379ZM1059.68,61.09L1058.54,60.588L1058.34,61.031L1059.49,61.533L1060.63,62.035L1060.83,61.593L1059.68,61.09ZM1059.49,61.533L1058.34,61.031L1058.15,61.473L1059.29,61.975L1060.44,62.478L1060.63,62.035L1059.49,61.533ZM1059.29,61.975L1058.15,61.473C1058.05,61.704 1057.93,61.907 1057.81,62.083L1058.85,62.786L1059.88,63.488C1060.1,63.175 1060.28,62.837 1060.44,62.478L1059.29,61.975ZM1058.85,62.786L1057.81,62.083L1057.56,62.451L1058.6,63.153L1059.63,63.856L1059.88,63.488L1058.85,62.786ZM1058.6,63.153L1057.56,62.451L1057.31,62.819L1058.35,63.521L1059.38,64.223L1059.63,63.856L1058.6,63.153ZM1058.35,63.521L1057.31,62.819C1057.27,62.879 1057.22,62.93 1057.13,62.975L1057.69,64.095L1058.24,65.214C1058.7,64.985 1059.09,64.653 1059.38,64.223L1058.35,63.521ZM1057.69,64.095L1057.13,62.975L1056.72,63.181L1057.27,64.3L1057.83,65.42L1058.24,65.214L1057.69,64.095ZM1057.27,64.3L1056.72,63.181L1056.3,63.387L1056.86,64.506L1057.42,65.625L1057.83,65.42L1057.27,64.3ZM1056.86,64.506L1056.3,63.387C1055.75,63.662 1055.34,64.108 1055.11,64.678L1056.27,65.143L1057.43,65.609C1057.43,65.601 1057.44,65.599 1057.43,65.602C1057.43,65.605 1057.43,65.609 1057.42,65.615C1057.42,65.621 1057.41,65.625 1057.41,65.627C1057.41,65.629 1057.41,65.629 1057.42,65.625L1056.86,64.506ZM1056.27,65.143L1055.11,64.678L1054.94,65.109L1056.1,65.575L1057.26,66.04L1057.43,65.609L1056.27,65.143ZM1056.1,65.575L1054.94,65.109L1054.77,65.541L1055.93,66.006L1057.09,66.471L1057.26,66.04L1056.1,65.575ZM1055.93,66.006L1054.77,65.541C1054.77,65.536 1054.77,65.525 1054.78,65.511C1054.79,65.497 1054.8,65.483 1054.82,65.471C1054.84,65.444 1054.86,65.442 1054.84,65.45L1055.74,67.783C1056.34,67.549 1056.83,67.106 1057.09,66.471L1055.93,66.006ZM1055.74,67.783L1054.84,65.45L1054.37,65.629L1055.27,67.962L1055.74,67.783ZM1055.27,67.962L1054.37,65.629L1053.91,65.808L1054.81,68.141L1055.27,67.962ZM1054.81,68.141L1053.91,65.808C1053.39,66.008 1052.93,66.342 1052.61,66.831L1054.69,68.213C1054.69,68.211 1054.71,68.18 1054.81,68.141ZM1054.69,68.213L1052.61,66.831L1052.36,67.199L1054.44,68.582L1054.69,68.213ZM1054.44,68.582L1052.36,67.199L1052.12,67.568L1054.2,68.95L1054.44,68.582ZM1054.2,68.95L1052.12,67.568C1051.89,67.914 1051.71,68.29 1051.58,68.69L1052.77,69.067L1053.97,69.445C1054.03,69.258 1054.1,69.094 1054.2,68.95ZM1052.77,69.067L1051.58,68.69L1051.44,69.13L1052.63,69.507L1053.83,69.885L1053.97,69.445L1052.77,69.067ZM1052.63,69.507L1051.44,69.13L1051.3,69.569L1052.5,69.947L1053.69,70.325L1053.83,69.885L1052.63,69.507ZM1052.5,69.947L1051.3,69.569C1051.24,69.769 1051.16,69.943 1051.06,70.095L1052.13,70.756L1053.19,71.417C1053.4,71.077 1053.56,70.712 1053.69,70.325L1052.5,69.947ZM1052.13,70.756L1051.06,70.095L1050.83,70.465L1051.9,71.125L1052.96,71.786L1053.19,71.417L1052.13,70.756ZM1051.9,71.125L1050.83,70.465L1050.61,70.834L1051.67,71.495L1052.73,72.156L1052.96,71.786L1051.9,71.125ZM1051.67,71.495L1050.61,70.834C1050.53,70.958 1050.42,71.077 1050.29,71.191L1051.08,72.156L1051.88,73.122C1052.21,72.845 1052.5,72.523 1052.73,72.156L1051.67,71.495ZM1051.08,72.156L1050.29,71.191L1049.93,71.484L1050.73,72.449L1051.52,73.414L1051.88,73.122L1051.08,72.156ZM1050.73,72.449L1049.93,71.484L1049.58,71.776L1051.16,73.707L1051.52,73.414L1050.73,72.449ZM1051.16,73.707L1049.58,71.776C1049.28,72.017 1049.01,72.28 1048.77,72.565L1049.72,73.375L1050.68,74.185C1050.82,74.016 1050.98,73.856 1051.16,73.707ZM1049.72,73.375L1048.77,72.565L1048.48,72.906L1049.43,73.716L1050.39,74.526L1050.68,74.185L1049.72,73.375ZM1049.43,73.716L1048.48,72.906L1048.19,73.247L1049.14,74.057L1050.1,74.867L1050.39,74.526L1049.43,73.716ZM1049.14,74.057L1048.19,73.247C1047.86,73.642 1047.64,74.104 1047.54,74.609L1048.77,74.849L1049.99,75.09C1050.01,74.993 1050.05,74.927 1050.1,74.867L1049.14,74.057ZM1048.77,74.849L1047.54,74.609L1047.45,75.061L1048.68,75.301L1049.9,75.541L1049.99,75.09L1048.77,74.849ZM1048.68,75.301L1047.45,75.061L1047.36,75.512L1048.59,75.752L1049.82,75.993L1049.9,75.541L1048.68,75.301ZM1048.59,75.752L1047.36,75.512C1047.3,75.844 1047.24,76.178 1047.2,76.514L1048.45,76.661L1049.69,76.809C1049.72,76.535 1049.76,76.263 1049.82,75.993L1048.59,75.752ZM1048.45,76.661L1047.2,76.514L1047.15,76.972L1049.63,77.267L1049.69,76.809L1048.45,76.661ZM1049.63,77.267L1047.15,76.972L1047.1,77.429L1049.58,77.724L1049.63,77.267ZM1049.58,77.724L1047.1,77.429C1047.08,77.601 1047.03,77.743 1046.97,77.864L1049.21,78.98C1049.4,78.585 1049.53,78.163 1049.58,77.724ZM1049.21,78.98L1046.97,77.864L1046.78,78.251L1047.9,78.809L1049.01,79.367L1049.21,78.98ZM1047.9,78.809L1046.78,78.251L1046.58,78.639L1048.82,79.754L1049.01,79.367L1047.9,78.809ZM1048.82,79.754L1046.58,78.639C1046.43,78.953 1046.29,79.279 1046.19,79.613L1048.57,80.379C1048.64,80.164 1048.72,79.956 1048.82,79.754ZM1048.57,80.379L1046.19,79.613L1046.05,80.026L1048.43,80.791L1048.57,80.379ZM1048.43,80.791L1046.05,80.026L1045.92,80.438L1048.3,81.203L1048.43,80.791ZM1048.3,81.203L1045.92,80.438C1045.87,80.602 1045.79,80.761 1045.69,80.917L1046.73,81.605L1047.78,82.293C1048,81.953 1048.18,81.589 1048.3,81.203ZM1046.73,81.605L1045.69,80.917L1045.45,81.288L1046.49,81.976L1047.53,82.664L1047.78,82.293L1046.73,81.605ZM1046.49,81.976L1045.45,81.288L1045.2,81.66L1046.24,82.348L1047.29,83.036L1047.53,82.664L1046.49,81.976ZM1046.24,82.348L1045.2,81.66C1044.95,82.042 1044.78,82.461 1044.69,82.91L1045.92,83.149L1047.14,83.388C1047.17,83.265 1047.21,83.15 1047.29,83.036L1046.24,82.348ZM1045.92,83.149L1044.69,82.91L1044.6,83.34L1045.83,83.579L1047.06,83.818L1047.14,83.388L1045.92,83.149ZM1045.83,83.579L1044.6,83.34L1044.52,83.77L1045.75,84.009L1046.97,84.248L1047.06,83.818L1045.83,83.579ZM1045.75,84.009L1044.52,83.77C1044.52,83.761 1044.53,83.757 1044.52,83.763C1044.52,83.771 1044.5,83.799 1044.45,83.842L1045.27,84.781L1046.1,85.721C1046.53,85.345 1046.86,84.854 1046.97,84.248L1045.75,84.009ZM1045.27,84.781L1044.45,83.842L1044.06,84.186L1044.88,85.125L1045.71,86.064L1046.1,85.721L1045.27,84.781ZM1044.88,85.125L1044.06,84.186L1043.67,84.529L1044.49,85.468L1045.32,86.407L1045.71,86.064L1044.88,85.125ZM1044.49,85.468L1043.67,84.529C1043.4,84.763 1043.17,85.073 1043.04,85.465C1042.91,85.861 1042.93,86.255 1043.02,86.61L1045.44,85.979C1045.45,86.012 1045.46,86.107 1045.42,86.227C1045.38,86.344 1045.32,86.402 1045.32,86.407L1044.49,85.468ZM1045.44,85.979L1043.02,86.61L1043.14,87.094L1044.35,86.779L1045.56,86.463L1045.44,85.979ZM1044.35,86.779L1043.14,87.094L1043.27,87.578L1045.69,86.947L1045.56,86.463L1044.35,86.779ZM1045.69,86.947L1043.27,87.578C1043.28,87.631 1043.28,87.66 1043.28,87.669L1043.28,87.682L1044.44,88.156L1045.59,88.631C1045.82,88.075 1045.83,87.496 1045.69,86.947ZM1044.44,88.156L1043.28,87.682L1043.11,88.092L1044.27,88.566L1045.43,89.041L1045.59,88.631L1044.44,88.156ZM1044.27,88.566L1043.11,88.092L1042.94,88.502L1044.1,88.977L1045.26,89.451L1045.43,89.041L1044.27,88.566ZM1044.1,88.977L1042.94,88.502C1042.86,88.71 1042.75,88.923 1042.62,89.139L1043.69,89.791L1044.75,90.442C1044.95,90.12 1045.12,89.79 1045.26,89.451L1044.1,88.977ZM1043.69,89.791L1042.62,89.139L1042.37,89.543L1043.44,90.194L1044.51,90.846L1044.75,90.442L1043.69,89.791ZM1043.44,90.194L1042.37,89.543L1042.13,89.947L1043.19,90.598L1044.26,91.25L1044.51,90.846L1043.44,90.194ZM1043.19,90.598L1042.13,89.947C1041.79,90.498 1041.69,91.125 1041.84,91.754L1043.06,91.462L1044.27,91.17C1044.27,91.165 1044.27,91.168 1044.27,91.176L1044.27,91.211C1044.27,91.225 1044.27,91.236 1044.26,91.244C1044.26,91.252 1044.26,91.254 1044.26,91.25L1043.19,90.598ZM1043.06,91.462L1041.84,91.754L1041.95,92.214L1043.17,91.922L1044.38,91.63L1044.27,91.17L1043.06,91.462ZM1043.17,91.922L1041.95,92.214L1042.06,92.674L1043.28,92.382L1044.49,92.09L1044.38,91.63L1043.17,91.922ZM1043.28,92.382L1042.06,92.674C1042.14,93.002 1042.23,93.328 1042.33,93.651L1043.52,93.293L1044.72,92.934C1044.64,92.656 1044.56,92.374 1044.49,92.09L1043.28,92.382ZM1043.52,93.293L1042.33,93.651L1042.46,94.102L1044.86,93.385L1044.72,92.934L1043.52,93.293ZM1044.86,93.385L1042.46,94.102L1042.6,94.553L1043.79,94.194L1044.99,93.836L1044.86,93.385ZM1043.79,94.194L1042.6,94.553C1042.6,94.562 1042.6,94.566 1042.6,94.564L1042.6,94.534C1042.6,94.531 1042.6,94.532 1042.6,94.539L1044.86,95.595C1045.13,95.033 1045.17,94.426 1044.99,93.836L1043.79,94.194ZM1044.86,95.595L1042.6,94.539L1042.4,94.961L1043.53,95.489L1044.67,96.017L1044.86,95.595ZM1043.53,95.489L1042.4,94.961L1042.21,95.382L1044.47,96.439L1044.67,96.017L1043.53,95.489ZM1044.47,96.439L1042.21,95.382C1041.98,95.867 1041.89,96.394 1041.96,96.935L1044.44,96.604C1044.43,96.563 1044.43,96.516 1044.47,96.439ZM1044.44,96.604L1041.96,96.935L1042.02,97.372L1043.26,97.207L1044.5,97.042L1044.44,96.604ZM1043.26,97.207L1042.02,97.372L1042.08,97.81L1044.56,97.479L1044.5,97.042L1043.26,97.207ZM1044.56,97.479L1042.08,97.81C1042.09,97.877 1042.08,97.889 1042.08,97.861C1042.09,97.83 1042.11,97.739 1042.18,97.63L1043.23,98.311L1044.27,98.993C1044.61,98.476 1044.61,97.897 1044.56,97.479ZM1043.23,98.311L1042.18,97.63L1042.03,97.859L1043.08,98.541L1044.12,99.222L1044.27,98.993L1043.23,98.311ZM1043.08,98.541L1042.03,97.859L1041.88,98.089L1042.93,98.77L1043.97,99.452L1044.12,99.222L1043.08,98.541ZM1042.93,98.77L1041.88,98.089C1041.82,98.172 1041.74,98.314 1041.67,98.47C1041.66,98.508 1041.55,98.758 1041.57,99.081C1041.59,99.274 1041.66,99.614 1041.96,99.9C1042.26,100.192 1042.62,100.25 1042.83,100.25L1042.83,97.75C1043.04,97.75 1043.39,97.806 1043.69,98.093C1043.98,98.374 1044.05,98.707 1044.06,98.89C1044.08,99.069 1044.05,99.207 1044.03,99.267C1044.02,99.337 1044,99.388 1043.99,99.415C1043.95,99.495 1043.93,99.522 1043.97,99.452L1042.93,98.77ZM1042.83,97.75L1042.83,100.25L1042.89,100.25L1042.89,97.75L1042.83,97.75ZM1042.89,97.75L1042.89,100.25L1042.94,100.25L1042.94,97.75L1042.89,97.75ZM1042.94,97.75L1042.94,100.25C1042.54,100.25 1042.26,100.055 1042.16,99.966C1042.04,99.868 1041.97,99.772 1041.94,99.732C1041.91,99.685 1041.89,99.647 1041.88,99.631C1041.87,99.612 1041.87,99.601 1041.87,99.599C1041.87,99.597 1041.87,99.611 1041.89,99.648C1041.9,99.683 1041.91,99.73 1041.93,99.792L1043.13,99.434L1044.33,99.076C1044.28,98.919 1044.23,98.757 1044.17,98.618C1044.14,98.556 1044.09,98.441 1044.01,98.322C1043.97,98.264 1043.89,98.155 1043.76,98.048C1043.64,97.949 1043.36,97.75 1042.94,97.75ZM1043.13,99.434L1041.93,99.792L1042.06,100.226L1043.26,99.868L1044.46,99.51L1044.33,99.076L1043.13,99.434Z" style="fill-rule:nonzero;"/>
    <path d="M1078.94,124L1078.94,120.792C1078.94,118.208 1078.35,115.657 1077.21,113.338L1076.48,111.857C1075.01,108.875 1074.25,105.597 1074.25,102.275L1074.25,89.475C1074.25,87.505 1075.83,85.905 1077.77,85.905C1079.71,85.905 1081.28,87.505 1081.28,89.475M1100.03,124L1100.03,120.803C1100.04,117.945 1103.02,116.49 1105.46,115.067C1108.25,113.44 1110.48,110.812 1111.52,107.652C1112.19,105.572 1110.32,103.765 1108.07,103.765C1105.83,103.765 1103.92,105.725 1102.3,107.227C1102.08,107.428 1101.85,107.61 1101.61,107.77C1098.44,109.793 1094.2,107.36 1094.2,103.765C1094.2,100.17 1098.44,97.737 1101.61,99.757C1102.4,100.173 1103.05,100.723 1103.57,101.295C1104.75,102.595 1106.31,103.765 1108.09,103.765C1110.37,103.765 1112.29,101.922 1111.61,99.802C1110.75,97.141 1109.06,94.823 1106.8,93.182C1104.53,91.541 1101.8,90.662 1099.01,90.672C1096.51,90.672 1095.34,91.377 1095.34,91.377L1100.7,78.867C1101.64,76.545 1099.96,74 1097.49,74C1096.17,74 1094.97,74.755 1094.38,75.95L1088.31,88.285M1088.31,88.285L1087.19,90.56M1088.31,88.285L1088.31,79.952C1088.31,77.98 1086.74,76.38 1084.8,76.38C1082.85,76.38 1081.28,77.98 1081.28,79.952L1081.28,97.81" style="fill:none;fill-rule:nonzero;stroke:black;stroke-width:2.5px;"/>
    <g>
        <path d="M102.809,80.914C115.539,81.222 128.549,80.606 140.722,84.971C141.447,85.229 142.245,84.854 142.508,84.126C142.764,83.399 142.39,82.599 141.665,82.336C129.208,77.87 115.902,78.429 102.876,78.116C102.105,78.093 101.464,78.709 101.447,79.481C101.425,80.254 102.038,80.892 102.809,80.914Z" style="fill:rgb(26,26,26);"/>
        <path d="M101.664,62.38C105.632,58.719 109.963,55.977 115.198,54.617C115.946,54.423 116.393,53.66 116.203,52.912C116.008,52.164 115.243,51.715 114.501,51.908C108.808,53.386 104.092,56.342 99.778,60.32C99.208,60.843 99.169,61.729 99.694,62.298C100.213,62.866 101.1,62.903 101.664,62.38Z" style="fill:rgb(26,26,26);"/>
        <path d="M90.625,22.41C92.445,16.156 96.028,11.263 101.52,7.73C102.167,7.313 102.357,6.447 101.938,5.797C101.525,5.147 100.66,4.958 100.013,5.375C93.935,9.287 89.961,14.701 87.946,21.626C87.729,22.366 88.158,23.144 88.895,23.36C89.637,23.577 90.413,23.151 90.625,22.41Z" style="fill:rgb(26,26,26);"/>
        <path d="M27.92,13.922C26.837,15.2 25.866,16.576 25.04,18.042C24.672,18.695 24.024,20.081 23.924,21.271C23.812,22.538 24.242,23.607 25.347,24.17C26.815,24.916 27.987,24.838 28.891,24.387C29.762,23.953 30.443,23.101 30.872,21.958C31.693,19.774 31.57,16.435 31.14,14.53C32.296,13.335 33.562,12.251 34.919,11.287C45.021,4.11 59.839,6.756 71.241,17.488C75.232,21.245 77.152,29.136 78.151,37.65C79.708,50.906 78.82,65.712 78.698,70.05C78.67,71.121 78.77,71.757 78.826,71.884C79.088,72.508 79.551,72.671 79.875,72.732C80.344,72.816 80.718,72.727 81.019,72.57C81.427,72.355 81.762,71.977 81.918,71.393C82.002,71.071 82.024,70.622 82.013,70.143C82.002,69.811 81.935,69.449 82.002,69.211C82.437,67.688 82.962,66.2 83.475,64.702C85.188,59.666 87.404,54.946 89.865,50.232C97.685,35.254 105.247,19.428 118.067,8.017C118.642,7.505 118.698,6.619 118.185,6.042C117.677,5.464 116.795,5.411 116.214,5.924C103.138,17.561 95.369,33.66 87.393,48.935C85.3,52.944 83.38,56.96 81.784,61.16C81.946,53.73 81.884,43.446 80.528,34.346C79.323,26.253 77.029,19.101 73.15,15.448C60.659,3.692 44.368,1.141 33.306,9.004C32.122,9.846 30.995,10.772 29.946,11.776C24.158,1.296 11.768,-2.904 0.818,2.108C0.114,2.429 -0.193,3.26 0.125,3.962C0.449,4.664 1.275,4.974 1.978,4.654C11.846,0.137 23.036,4.168 27.92,13.922ZM28.729,17.43C28.277,18.071 27.858,18.734 27.468,19.42C27.261,19.789 26.904,20.497 26.753,21.189C26.72,21.352 26.714,21.606 26.714,21.723C27.099,21.914 27.401,22.005 27.646,21.882C27.953,21.729 28.11,21.371 28.26,20.971C28.64,19.967 28.763,18.636 28.729,17.43Z" style="fill:rgb(26,26,26);"/>
    </g>
</svg>
