<svg fill="none" height="405" viewBox="0 0 702 405" width="702" xmlns="http://www.w3.org/2000/svg"><g fill="#93cbff"><path d="m2.3418 22.3435c0-11.0457 8.9543-19.99999 20-19.99999h657.0002c11.046 0 20 8.95429 20 19.99999v360.0005c0 11.045-8.955 20-20 20h-657.0002c-11.0457 0-20-8.955-20-20z"/><path d="m698.354 204.902c-.005-.013-.01-.033-.024-.058l-.316-.563-.305-.562c-.291-.525-.485-1.091-.551-1.688l-.07-.562-.059-.563c-.083-.761.128-1.477.504-2.086l.34-.562.352-.563c.046-.075.063-.125.07-.152.006-.025.012-.038.012-.047l-.047-.563-.059-.562c-.022-.249-.073-.507-.164-.774l-.187-.562-.2-.563c-.189-.556-.267-1.135-.222-1.722l.093-1.125c.035-.455.105-.91.211-1.36l.258-1.125c.01-.043.018-.09-.023-.187l-.235-.563-.246-.562c-.231-.541-.358-1.11-.363-1.699l-.012-.563v-.562c-.003-.429.015-.862.059-1.289l.117-1.125c.028-.271.029-.55 0-.821l-.117-1.125c-.064-.604.013-1.198.211-1.769l.187-.563.2-.562c.112-.326.207-.652.281-.973l.258-1.125v-.012c-.001-.003-.009-.029-.036-.082l-.585-1.125c-.272-.524-.449-1.088-.504-1.675l-.047-.563-.059-.562c-.065-.699.097-1.37.41-1.969l.586-1.125c.075-.145.075-.224.071-.27l-.118-1.125c-.032-.302-.087-.606-.164-.914l-.281-1.125c-.139-.557-.162-1.13-.082-1.699l.082-.562.07-.563c.062-.433.158-.872.27-1.301l.141-.562.152-.563c.082-.314.145-.627.187-.937l.071-.563.082-.562c.044-.328.068-.658.082-.985l.047-1.125c.011-.286.002-.579-.036-.867l-.082-.562-.07-.563c-.062-.468-.086-.947-.058-1.418l.07-1.125c.006-.108-.016-.238-.094-.41l-.258-.562-.246-.563c-.282-.621-.396-1.3-.281-1.992l.187-1.125c.029-.173.02-.346-.023-.527l-.129-.563-.141-.562c-.184-.765-.055-1.517.293-2.18l.293-.563.258-.515-.187-.469-.223-.563c-.23-.572-.33-1.183-.281-1.804l.047-.563.035-.562c.026-.323.043-.651.035-.973l-.012-.562-.023-.563c-.012-.498.045-.999.152-1.488l.117-.563.129-.562c.059-.269.083-.536.082-.797v-1.125c-.001-.37-.007-.743-.011-1.113l-.012-.563v-.562c-.002-.148-.037-.324-.129-.528l-.516-1.125c-.393-.876-.271-1.783.211-2.543l.352-.562.363-.563c.11-.173.117-.273.117-.316v-1.125c0-.083-.014-.214-.117-.398l-.633-1.125c-.313-.562-.498-1.181-.504-1.84l-.011-.563v-.562c-.004-.405.003-.815.023-1.219l.035-.563.024-.562c.022-.447.077-.893.164-1.336l.105-.563.117-.562c.088-.448.209-.896.364-1.336l.398-1.125v-.012c-.001-.005-.005-.019-.012-.035l-.468-1.125c-.189-.45-.341-.907-.446-1.371l-.257-1.125c-.122-.535-.144-1.084-.082-1.629l.117-1.125c.063-.558.232-1.095.48-1.605l.281-.563.27-.562c.012-.026.02-.048.023-.059v-.023l-.152-.563-.141-.5623c-.115-.4332-.209-.8748-.269-1.3125l-.082-.5625-.07-.5625c-.058-.4175-.097-.8353-.118-1.2539l-.035-.5625-.023-.5625c-.02-.4177-.017-.8362 0-1.254l.023-.5625.012-.5625c.01-.2556-.007-.5231-.059-.7851l-.105-.5625-.117-.5625c-.13-.6623-.061-1.3235.175-1.9453l.422-1.125c.074-.1943.101-.3609.094-.5156l-.047-1.125c-.02-.432-.018-.869.012-1.3008l.035-.5625.047-.5625c.025-.3632.042-.7268.059-1.0899l.046-1.125c.012-.2624.001-.5296-.046-.7968l-.106-.5625-.094-.5625c-.081-.4589-.129-.9199-.129-1.3829v-1.125c.001-.2284-.023-.4696-.093-.7148l-.328-1.125c-.186-.6432-.184-1.3015 0-1.9453l.152-.5625.164-.5625c.07-.2444.106-.4871.105-.7149v-.5625l-.011-.5625v-1.6875l-.012-.5625c-.002-.5185.07-1.0323.211-1.5351l.164-.5625.152-.5625c.071-.2498.105-.492.106-.7266v-.5625l.012-.5625c0-.2812-.031-.5698-.082-.8554l-.094-.5625-.106-.5625c-.058-.3207-.14-.6483-.234-.9727l-.328-1.125c-.221-.7656-.122-1.5309.222-2.2148l.563-1.125c.096-.1903.129-.3325.129-.4454v-1.125c0-.0703-.022-.1922-.129-.375l-.656-1.125c-.399-.6823-.548-1.4718-.317-2.2851l.153-.5625.164-.5625c.103-.3611.201-.7291.293-1.0899l.281-1.125c.06-.2381.09-.4662.082-.6914l-.047-1.125c-.008-.2025-.042-.4234-.129-.6562l-.222-.5625-.211-.5625c-.24-.6395-.286-1.3176-.129-1.9922l.257-1.125c.026-.1089.027-.2153-.011-.3398l-.352-1.125c-.139-.4471-.249-.9042-.316-1.3594l-.164-1.125c-.1-.6883.02-1.3552.304-1.9688l.516-1.125c.112-.2406.178-.4588.199-.6562l.117-1.125c.014-.1217.004-.2572-.058-.4219l-.223-.5625-.211-.5625c-.187-.4894-.31-.998-.363-1.5117l-.117-1.125c-.042-.4127-.072-.829-.082-1.2422l-.024-1.125c-.01-.4061-.004-.8127.012-1.2188l.012-.5625.023-.5625c.012-.2938 0-.582-.035-.8554l-.141-1.0781c-.045-.355-.091-.7146-.14-1.0665l-.071-.5273-.07-.5391c-.062-.4481-.087-.9054-.07-1.3711l.023-.5859.024-.5742c.004-.1265-.025-.2201-.071-.3047l-.269-.4922-.258-.4922c-.173-.32-.35-.6368-.527-.9492l-.27-.4805-.281-.4804c-.093-.1646-.21-.3149-.363-.4453l-.434-.3633-.422-.3633c-.636-.5398-.945-1.2701-1.031-2.01563l-.082-.67968-.047-.45703-.293-.10547-.562-.21094c-.711-.26867-1.273-.75833-1.653-1.40625l-.633-1.07813-.011-.01171-.551-.15235-.574-.15234c-.312-.08436-.628-.13886-.938-.17578l-.586-.07032-.574-.07031c-.589-.0697-1.152-.2626-1.664-.5625l-.492-.28125-.504-.29297c-.057-.03303-.094-.04224-.164-.03515l-1.149.11718c-.47.04776-.945.0484-1.406.01172l-.551-.04687-.55-.03516c-.417-.03329-.834-.0986-1.254-.17578l-.563-.09375-.562-.10547c-.224-.04114-.449-.05061-.668-.02344l-1.125.14063c-.399.05018-.808.08672-1.207.11719l-1.125.09375c-.421.03194-.845.04341-1.266.03515l-1.125-.02343c-.319-.00619-.641.00614-.961.03515l-.562.04688-.563.05859c-.383.03471-.766.06636-1.148.09375l-1.125.07031c-.468.03349-.94.03026-1.407-.02343l-.562-.07032-.563-.05859c-.339-.03902-.68-.06755-1.019-.08203l-3.375-.14063c-.323-.0132-.65-.00792-.973.01172l-1.125.07031c-.421.02546-.844.02658-1.265.01172l-.563-.02343-.562-.01172c-.272-.00948-.545.00098-.821.04687l-1.125.1875c-.508.08504-1.023.10229-1.535.04688l-1.125-.11719c-.257-.02792-.515-.03269-.773 0l-1.125.14062c-.44.05606-.883.08443-1.325.08204h-1.125c-.458-.00251-.916-.04939-1.371-.12891l-.562-.09375-.563-.10547c-.3-.05273-.604-.0744-.902-.08203l-.562-.01172-.563-.02344c-.444-.01095-.894-.04537-1.336-.11718l-1.125-.1875c-.173-.02801-.345-.01969-.527.02343l-.563.12891-.562.14062c-.558.13386-1.132.16496-1.699.08204l-1.125-.16407c-.156-.02262-.318-.01555-.493.03516l-1.125.32812c-.907.26134-1.757.00901-2.425-.48046l-.563-.41016-.328-.24609-.27.16406-.562.32812c-.559.32924-1.184.53484-1.852.55078l-1.125.02344c-.714.01589-1.379-.20356-1.957-.5625l-.562-.33984-.246-.15235-.293.22266-.563.43359c-.663.51049-1.527.79784-2.461.52735l-1.125-.32813c-.151-.04376-.286-.04918-.422-.02343l-.562.10546-.563.11719c-.471.09053-.953.13334-1.429.12891l-.563-.01172h-.562c-.578-.00612-1.141-.13332-1.676-.35156l-.563-.22266-.562-.23437c-.22-.08951-.417-.12375-.598-.12891l-.562-.02344-.563-.01172c-.134-.00383-.289.02201-.48.10547l-1.125.49219c-.717.31302-1.492.33998-2.238.07031l-1.125-.39844c-.171-.06137-.313-.07319-.446-.05859l-1.125.11719c-.62.06909-1.236-.00854-1.816-.22266l-.563-.21094-.422-.16406-.492.32813-.562.36328c-.551.35388-1.176.59216-1.852.63281l-.562.03516-.563.02343c-.801.04719-1.511-.23589-2.097-.66796l-.563-.41016-.504-.36328-.363.1289-.563.19922c-.387.13462-.783.26368-1.171.38672l-1.125.35156c-.69.21817-1.397.20591-2.075-.03515l-1.125-.39844c-.327-.11681-.661-.21437-.984-.29297l-.563-.14062-.48-.11719v.01172l-1.125.77344c-.387.26519-.873.45274-1.43.44531-.556-.00768-1.039-.21042-1.418-.48047l-1.125-.79688c-.037-.02631-.056-.05173-.07-.05859l-.504.09375-.562.09375c-.444.0723-.89.10913-1.336.11719l-1.125.02344c-.131.00234-.293.03095-.493.1289l-1.125.5625c-.731.35883-1.539.40534-2.32.10547l-.562-.21094-.563-.22265c-.149-.05747-.27-.0622-.375-.04688l-1.125.16406c-.421.06166-.843.10943-1.265.12891l-1.125.04688c-.664.03027-1.299-.12877-1.875-.42188l-.563-.28125-.48-.25781-.469.22265-.563.25782c-.579.26394-1.204.38462-1.851.33984l-1.125-.07031c-.271-.01897-.547-.01421-.821.02344l-.562.08203-.563.07031c-.44.06066-.881.09349-1.324.09375h-2.25l-.562.01172h-.563c-.615.00215-1.205-.14268-1.758-.39844l-.562-.25781-.563-.26953c-.017-.00787-.029-.01005-.035-.01172l-1.125.375c-.668.21671-1.367.22215-2.039.01172l-.562-.17578-.539-.17579-.012.01172-.563.29297-.562.28125c-.812.4185-1.702.41225-2.508-.01172l-1.125-.58593c-.157-.08273-.257-.08656-.316-.08204l-.563.03516-.562.04688c-.414.03166-.828.04958-1.243.04687h-.562l-.563-.01172c-.298-.002-.601.0266-.902.07031l-.562.08204-.563.07031c-.565.08199-1.132.06074-1.687-.07031l-.563-.12891-.562-.14063c-.059-.01338-.123-.01631-.223.02344l-.563.23438-.562.22265c-.723.2875-1.487.29111-2.215.01172l-.562-.22265-.563-.21094c-.088-.03409-.143-.03842-.199-.02344l-1.125.30469c-.53.14304-1.071.20061-1.617.16406l-1.125-.07031c-.123-.00805-.268.00751-.446.08203l-1.125.46875c-.905.3802-1.817.22245-2.554-.28125l-.563-.38672-.398-.28125-.328.17578-.563.28125c-.585.29182-1.228.44319-1.898.39844l-.563-.03516-.562-.04687c-.455-.03044-.911-.09726-1.36-.19922l-.562-.12891-.563-.11718c-.164-.0369-.318-.0458-.48-.01172l-1.125.23437c-.319.0671-.638.16262-.961.26953l-.563.1875-.562.17578c-.582.19241-1.194.25895-1.805.17579l-.562-.08204-.563-.07031c-.59-.08101-1.146-.28865-1.664-.58594l-.562-.32812-.563-.31641v-.01172l-.492.16407-.562.17578c-.649.20144-1.325.21935-1.981.03515l-.562-.16406-.563-.15234c-.102-.0288-.189-.02979-.293 0l-1.125.32812c-.666.19442-1.357.17717-2.016-.03515l-.562-.17578-.539-.1875-.012.01171-.562.29297-.563.28125c-.716.36066-1.514.44062-2.297.16407l-.562-.19922-.516-.1875-.551.28125-.562.28125c-.758.38628-1.603.43729-2.402.09375l-.563-.2461-.539-.22265-.527.22265-.563.2461c-.893.38388-1.798.23657-2.543-.25782l-1.125-.75c-.074-.04959-.118-.06748-.129-.07031l-.551.07031-.562.07032c-.174.02072-.377.07831-.609.19922l-1.125.58593c-.528.2748-1.095.4514-1.688.50391l-.562.04687-.563.0586c-.631.05567-1.249-.05679-1.828-.29297l-.563-.22266-.562-.23437c-.068-.02732-.094-.02209-.129-.01172l-1.125.32812c-.502.14921-1.016.23985-1.535.2461h-.563l-.562.01172c-.702.00792-1.35-.21123-1.922-.5625l-.562-.35157-.563-.33984c-.019-.01159-.036-.03001-.047-.03516l-.527.12891-.563.12891c-.335.07583-.67.16501-1.007.26953l-.563.17578-.562.16406c-.574.17796-1.172.24343-1.77.16406l-.563-.08203-.562-.07031c-.335-.04486-.674-.07539-1.008-.09375l-1.125-.07031c-.438-.02391-.877-.0731-1.312-.15235l-.563-.10546-.562-.09375c-.296-.05403-.599-.0887-.891-.09375l-1.125-.02344c-.194-.00275-.401.0319-.621.10547l-1.125.375c-.801.26687-1.602.16011-2.309-.22266l-.562-.30469-.34-.1875-.375.2461-.562.375c-.665.43487-1.474.63486-2.321.42187l-1.125-.28125c-.364-.09142-.726-.18461-1.09-.26953l-1.125-.25781c-.267-.06234-.539-.09332-.797-.09375h-1.125c-.303-.00027-.608.01656-.914.05859l-.562.08203-.563.07032c-.521.07174-1.05.07165-1.57-.01172l-1.125-.1875c-.332-.05314-.665-.09151-.996-.11719l-.562-.04688-.563-.03515c-.038-.00293-.127-.00492-.281.08203l-1.125.63281c-.572.32109-1.209.50542-1.887.49219l-.562-.01172h-.563c-.28-.00534-.56.0121-.844.05859l-1.125.1875c-.747.1235-1.467-.04069-2.097-.38671l-1.125-.60938-.012-.01172-.504.16406-.562.17579c-.434.13503-.874.23979-1.313.3164l-.562.10547-.563.09375c-.778.13524-1.521-.04547-2.156-.42187l-.563-.33985-.562-.32812-.082-.04688-.551.11719-.563.10547c-.244.04712-.501.13073-.773.25781l-.562.25781-.563.26953c-.87.40646-1.784.30399-2.555-.17578l-.562-.35156-.539-.33984-.469.15234-.562.17578c-.497.15607-1.009.25048-1.524.26953l-.562.01172-.563.02344c-.369.01367-.744.03012-1.113.04687l-.563.02344-.562.03516c-.434.01943-.868.01075-1.301-.02344l-1.125-.09375c-.532-.04228-1.057-.16518-1.559-.36328l-.562-.22266-.387-.16406-.469.32813-.562.375c-.393.26756-.889.46118-1.453.44531-.559-.01593-1.033-.22938-1.406-.50391l-.563-.42187-.387-.29297-.304.16406-.563.28125c-.608.30365-1.282.44724-1.98.36328l-1.125-.14062c-.281-.03347-.565-.04232-.844-.02344l-.563.04687-.562.03516c-.51.03415-1.02-.00317-1.523-.10547l-.563-.11719-.562-.10546c-.404-.08211-.805-.18575-1.208-.29297l-.562-.14063-.563-.15234c-.037-.01005-.079-.02383-.164.01172l-.562.24609-.563.23438c-.459.19301-.929.33715-1.406.43359l-1.125.23437c-.434.08769-.875.14252-1.312.17579l-.563.04687-.562.03516c-.48.0362-.964.02979-1.442-.03516l-.562-.08203-.563-.07031c-.355-.04826-.711-.09393-1.066-.12891l-1.125-.11719c-.226-.02208-.459-.01074-.692.03516l-.562.11719-.563.10547c-.431.08497-.866.15455-1.3.1875l-.563.03515-.562.04688c-.541.04058-1.079-.00631-1.606-.14063l-.562-.15234-.563-.14063c-.118-.03005-.228-.02277-.351.01172l-1.125.30469c-.858.24002-1.68.04562-2.356-.39844l-.562-.36328-.563-.375v-.01172l-.48.14063-.563.14062c-.395.10423-.788.20731-1.183.29297l-.563.11719-.562.1289c-.544.11767-1.102.13381-1.653.0586l-.562-.07031-.563-.08204c-.407-.05566-.813-.12654-1.218-.21093l-1.125-.23438c-.107-.02224-.22-.02054-.352.02344l-1.125.375c-.592.1971-1.208.26029-1.828.16406l-.563-.09375-.562-.08203c-.163-.02515-.327-.02435-.504.02344l-1.125.30469c-.84.22703-1.646.05162-2.32-.375l-.563-.36329-.363-.22265-.328.19922-.563.32812c-.702.41093-1.517.55053-2.344.28125l-.562-.1875-.563-.17578c-.053-.01756-.087-.02338-.152 0l-.562.19922-.563.21094c-.708.2551-1.451.24893-2.156-.01172l-.563-.21094-.562-.19922c-.249-.09171-.48-.14819-.703-.16406l-.563-.03516-.562-.04687c-.207-.01443-.423.01204-.645.07031l-.562.14063-.563.15234c-.638.1674-1.289.16064-1.922-.02344l-1.125-.32812c-.325-.09505-.651-.17643-.972-.23438l-.563-.10547-.562-.09375c-.067-.01202-.146-.01656-.27.03516l-.562.24609-.563.23438c-.609.25875-1.265.35732-1.933.25781l-1.125-.16406c-.426-.06378-.855-.15066-1.278-.25781l-.562-.14063-.563-.15234h-.023c-.009.00147-.039.01413-.082.03515l-1.125.53907c-.632.30478-1.324.42218-2.039.29296l-.563-.09375-.562-.10546c-.071-.01274-.155-.00609-.282.04687l-1.125.46875c-.905.37838-1.818.21081-2.554-.29297l-1.125-.77344c-.011-.00716-.016-.01888-.024-.02343l-.468.11718-.563.12891c-.365.08451-.736.17709-1.102.26953l-1.125.28125c-.539.13648-1.088.18533-1.64.12891l-1.125-.11719c-.472-.04877-.945-.14326-1.406-.28125l-.563-.17578-.504-.15234-.012.01171-.562.31641-.563.32813c-.847.48482-1.802.47101-2.636-.02344l-.563-.32813-.48-.29297-.422.1875-.563.23438c-.78.32738-1.604.30268-2.355-.05859l-.563-.28125-.562-.26954c-.044-.02102-.072-.02179-.082-.02343-.005-.00058-.018-.0042-.035 0l-1.125.28125c-.535.13122-1.082.17109-1.629.11718l-1.125-.11718c-.289-.02839-.579-.03283-.867-.01172l-.563.04687-.562.03516c-.343.02506-.688.06967-1.032.11719l-.562.07031-.563.08203c-.552.07611-1.107.04897-1.652-.07031l-.562-.11719-.563-.12891h-.023c-.01.00137-.048.00611-.106.03516l-.562.29297-.563.28125c-.547.2751-1.139.43981-1.758.45703l-.562.01172-.563.02344c-.545.01486-1.082-.0722-1.605-.23438l-.563-.17578-.562-.16406c-.275-.08541-.547-.14233-.809-.16406l-1.125-.09375c-.359-.02984-.719-.05091-1.078-.07032l-1.125-.07031c-.148-.00798-.313.02041-.504.09375l-.562.22266-.563.21093c-.6.23208-1.241.31641-1.886.22266l-1.125-.16406c-.422-.06133-.847-.14386-1.266-.2461l-.563-.14062-.562-.12891c-.371-.09051-.742-.18104-1.113-.26953l-.563-.14062-.562-.12891c-.075-.01773-.151-.01658-.258.02344l-.563.21094-.562.19921c-.59.21932-1.209.30553-1.84.22266l-.563-.07031-.562-.08203c-.395-.05184-.79-.10716-1.184-.17578l-.562-.10547-.563-.09375c-.35-.06107-.704-.10806-1.054-.15235l-.563-.08203-.562-.07031c-.225-.02834-.452-.01688-.68.02344l-.562.09375-.563.10547c-.394.06983-.789.13396-1.184.1875l-.562.07031-.563.08203c-.434.05889-.876.08774-1.312.09375l-.563.01172h-.562c-.231.00364-.468.04524-.715.11719l-1.125.32812c-.507.14837-1.034.22378-1.559.22266h-1.125c-.513-.00153-1.025-.07235-1.523-.21094l-.562-.16406-.563-.15235c-.348-.09664-.696-.17986-1.043-.25781l-1.125-.25781c-.13-.02922-.259-.02724-.398.01172l-.563.15234-.562.16406c-.653.18165-1.323.17401-1.969-.02343l-.563-.17579-.492-.15234-.551.32813-.562.33984c-.393.23347-.864.38154-1.383.36328-.514-.01852-.965-.19888-1.336-.44531l-1.125-.75c-.083-.05537-.142-.08296-.176-.09375-.03-.00955-.051-.00031-.058 0l-1.125.04687c-.152.00647-.329.04082-.539.14063l-1.125.53906c-.56.26678-1.165.41863-1.793.41016l-1.125-.02344c-.53-.0073-1.051-.09604-1.559-.25781l-1.125-.35157c-.315-.10025-.629-.17886-.937-.23437l-.563-.10547-.562-.09375c-.29-.05211-.582-.08144-.868-.08203h-1.125c-.311-.00046-.624.0094-.937.04687l-1.125.14063c-.511.06123-1.026.05461-1.535-.02344l-.563-.09375-.562-.08203c-.22-.03337-.437-.03461-.656 0l-.563.09375-.562.08203c-.191.03028-.412.10307-.657.23438l-1.125.60937c-.726.3883-1.55.47504-2.355.17578l-1.125-.42187c-.299-.11106-.592-.19068-.879-.2461l-.563-.11718-.562-.10547c-.006.00104-.046.01343-.106.04687l-1.125.63282c-.675.38103-1.453.5167-2.25.30468l-.562-.14062-.563-.15235c-.308-.08241-.623-.13955-.925-.17578l-1.125-.14062c-.387-.04635-.774-.09514-1.16-.15235l-1.125-.16406c-.202-.0299-.404-.02874-.61.01172l-.562.11719-.563.10547c-.524.10414-1.063.12995-1.594.07031l-.562-.07031-.563-.0586c-.387-.04356-.773-.09701-1.16-.15234l-.562-.08203-.563-.07031c-.077-.011-.177-.01349-.316.04687l-1.125.49219c-.713.31098-1.483.34701-2.227.08203l-1.125-.39844c-.178-.06401-.338-.0833-.48-.07031l-.563.04687-.562.0586c-.456.04303-.915.04371-1.371.01172l-1.125-.07032c-.201-.01418-.415-.00081-.633.0586l-1.125.30469c-.468.12743-.94.21617-1.418.24609l-1.125.07031c-.694.04297-1.357-.1363-1.945-.45703l-.563-.30469-.515-.28125-.469.1875-.563.22266c-.503.19673-1.025.31236-1.558.35156l-1.125.09375c-.426.03123-.852.03616-1.278.02344l-.562-.02344-.563-.01172c-.307-.00923-.617.00291-.925.03516l-1.125.11719c-.352.03672-.704.08684-1.055.14062l-1.125.16406c-.786.1202-1.519-.07888-2.145-.46875l-.562-.35156-.434-.28125-.386.1875-.563.26953c-.483.22591-.986.38913-1.5.48047l-.562.09375-.563.10547c-.602.10669-1.206.07087-1.793-.09375l-.562-.16406-.563-.15235c-.436-.1224-.872-.27782-1.301-.45703l-1.125-.46875-.023-.01172-.012.01172-.562.19922-.563.21094c-.394.143-.789.27463-1.183.39844l-1.125.35156c-.595.1864-1.211.23578-1.829.12891l-.562-.10547-.563-.09375c-.163-.02853-.33-.02057-.504.02343l-1.125.28125c-.519.13144-1.048.18425-1.582.15235l-1.125-.07031c-.371-.0222-.742-.03922-1.113-.0586l-.562-.03515-.563-.02344c-.55-.02874-1.09-.15814-1.605-.36328l-.563-.22266-.527-.21094-.551.2461-.562.25781c-.846.37891-1.732.29509-2.497-.15234l-.562-.32813-.551-.33984-.492.16406-.562.17578c-.598.18484-1.222.22893-1.84.11719l-1.125-.21094c-.021-.00372-.073-.01125-.188.04688l-1.125.5625c-.787.39752-1.649.41032-2.449.02343l-1.125-.53906h-.012l-.515.19922-.563.19922c-.656.23733-1.347.27873-2.027.09375l-1.125-.30469c-.344-.09342-.689-.17698-1.031-.24609l-1.125-.23438c-.05-.00938-.113-.01316-.223.03516l-.563.25781-.562.24609c-.593.26013-1.23.36497-1.887.29297l-1.125-.11718c-.538-.05968-1.068-.21342-1.57-.4336l-1.125-.49219c-.016-.00681-.028-.00977-.035-.01171h-.035l-.563.1875-.5625.17578c-.6016.19028-1.2272.23383-1.8515.11718l-1.125-.21093c-.0439-.00799-.1071-.00641-.2227.04687l-1.125.51563c-.878.40343-1.7896.28758-2.5547-.19922l-.5625-.35156-.5625-.36329-.457.15235-.5625.16406c-.5013.14682-1.017.21861-1.5352.22266h-.5625l-.5625.01172c-.3402.00231-.6907.00917-1.0312.03515l-1.125.09375c-.4937.03727-.9866.01001-1.4766-.07031l-1.125-.1875c-.0788-.01285-.1721-.00751-.3047.04687l-1.125.46875c-.6186.25701-1.2836.35113-1.957.23438l-.5625-.10547-.5625-.09375c-.1942-.03394-.39-.0377-.5859 0l-.5625.11719-.5625.10547c-.5117.09889-1.0293.13006-1.5469.08203l-.5625-.0586-.5625-.04687c-.3659-.03416-.7358-.06637-1.1016-.09375l-.5625-.04688-.5625-.03515c-.391-.02927-.781-.07446-1.1719-.11719l-1.125-.11719c-.4342-.0475-.8701-.12268-1.3007-.22265l-.5625-.12891-.5039-.12891c-.0102.005-.0279.01134-.0469.02344l-.5625.36328-.5625.35157c-.3844.24371-.8474.41296-1.3711.41015-.5241-.00292-.9898-.17548-1.3711-.42187l-1.125-.72657c-.1843-.11871-.2937-.12806-.3399-.1289l-1.125-.02344c-.0554-.00039-.157.01596-.3281.11719l-1.125.65625c-.3793.22445-.8296.38456-1.3242.38672-.4939.00162-.9431-.15279-1.3242-.375l-1.125-.65625c-.1303-.07542-.1868-.07186-.1992-.07032l-.5625.07032-.5625.05859c-.3376.03771-.6808.08869-1.0196.15234l-1.125.21094c-.5556.10397-1.1199.10309-1.6757 0l-1.125-.21094c-.2911-.05372-.5803-.07719-.8672-.08203l-1.125-.02343c-.483-.00772-.9666-.06645-1.4414-.17579l-1.125-.25781c-.1972-.04538-.3858-.05062-.5743-.02344l-1.125.16407c-.3222.04654-.6472.10517-.9726.1875l-.5625.14062-.5625.15235c-.5995.15135-1.2124.15823-1.8164.02343l-.5625-.1289-.5274-.12891c-.01.00484-.0176.0244-.0351.03516l-1.125.70312c-.379.23691-.8383.40511-1.3477.41016-.511.00466-.9744-.15309-1.3594-.38672l-.5625-.33984-.375-.22266-.3398.19922-.5625.32812c-.6112.35264-1.3103.53151-2.0508.44532l-.5625-.0586-.5625-.07031c-.6074-.07113-1.1844-.27997-1.7109-.58594l-.5625-.32812-.457-.26953-.4102.19921-.5625.25782c-.6061.27766-1.2669.39199-1.9453.30468l-.5625-.07031-.1172-.02344c-.2051.14018-.3925.23802-.5508.26954-.397.07894-.7252-.0221-.8086-.04688-.2449-.07264-.4925-.19746-.6679-.29297l-.4922-.26953-.4219-.23437-.4922.17578-.5508.17578c-.2525.08301-.4992.19627-.7265.33984l-.9844.63281c-.6324.3993-1.3534.54493-2.0742.48047l-.6211-.05859-.4688-.04688-.2695.33985-.3867.49219c-.4674.58252-1.096.97034-1.8282 1.13671l-.5976.14063-.3164.05859-.1172.44532-.1758.64453c-.1894.69869-.5719 1.34942-1.21873 1.80471l-.44532.3281-.45703.3164c-.19655.1383-.37625.2983-.52734.4805l-.35156.4336-.35157.4218c-.32987.3977-.72564.7461-1.16015 1.0547l-.50391.3633-.19922.1289.10547.3867.17578.6797c.11791.4631.12795.9974-.07031 1.5235-.19788.5233-.56114.9133-.94922 1.1836l-.58594.3984-.5039.3398.02343.3868.01172.5859c.01829.4819-.00399.9701-.07031 1.4414l-.07031.5625-.08203.5742c-.01707.1216-.00906.2466.04687.3985l.21094.5742.21094.5625c.17599.474.29832.9614.36328 1.4531l.07031.5625.08203.5625c.05798.4403.08518.8822.08203 1.3242l-.01172.5625v.5625c-.00309.4047-.0192.8143-.04687 1.2188l-.03516.5625-.04687.5625c-.02292.3343-.02788.6737-.02344 1.0078l.01172.5625v.5625c.00501.3772.00904.7595.01172 1.1367l.01172.5625v.5625c.00286.4303-.02381.8597-.07032 1.2891l-.11718 1.125c-.03345.3081-.04326.6187-.03516.9257l.02344 1.125c.00715.27.05245.5425.11719.8204l.25781 1.125c.17049.7296.07436 1.4543-.23438 2.1093l-.53906 1.125c-.13114.2775-.21471.5446-.26953.7969l-.12891.5625-.11718.5625c-.00727.0338-.01267.0833.03515.1875l.51563 1.125c.32966.7183.37917 1.5028.10547 2.2617l-.21094.5625-.19922.5625c-.08797.244-.12913.4732-.14063.6914l-.03515.5625-.02344.5625c-.00687.1323.00645.2855.08203.4688l.46875 1.125c.18134.4357.34043.8793.45703 1.3242l.14063.5625.15234.5625c.21317.8141.04896 1.6009-.35156 2.2734l-.33984.5625-.32813.5625c-.11055.1856-.12804.3047-.12891.375l-.02343 1.125c-.00533.4426-.04019.8838-.10547 1.3243l-.16406 1.125c-.04071.2741-.04967.549-.03516.8203l.02344.5625.03515.5625c.0087.1586.05046.3474.15235.5625l.53906 1.125c.384.8055.3569 1.6769-.04688 2.4609l-.28125.5625-.17578.3164.28125.3867.39844.5625c.41266.5847.6818 1.2854.64453 2.0625l-.02344.5625-.03515.5625c-.02546.521-.12322 1.0363-.29297 1.5352l-.1875.5625-.19922.5625v.0351c.00183.007.00552.0201.01172.0352l.23437.5625.22266.5625c.36775.8952.21063 1.796-.28125 2.5312l-.75 1.125c-.12962.1943-.14958.3091-.15234.3633l-.03516.5625-.02344.5625c-.00024.0049-.00842.0195 0 .0469.00928.0299.03967.0823.09375.1641l.75 1.125c.42689.6404.65478 1.4183.49219 2.25l-.11719.5625-.10547.5625c-.05416.276-.08382.5498-.08203.8203l.01172.5625v.5625c.00429.54-.08217 1.0761-.24609 1.5937l-.35156 1.125c-.0316.0998-.03674.179-.01172.2696l.16406.5625.15234.5625c.19518.7.14427 1.4075-.11718 2.0742l-.21094.5625-.22266.5625c-.00653.0166-.01098.0315-.01172.0351v.0235l.42188 1.125c.25186.6815.27815 1.3995.05859 2.0975l-.17578.563-.1875.55.02344.036.53906 1.125c.40442.844.33645 1.749-.11719 2.531l-.32812.562-.31641.528.17578.48.1875.563c.16611.487.27733.993.31641 1.5l.03516.562.04687.563c.02655.343.05867.687.10547 1.031l.16406 1.125c.07931.582.02725 1.169-.1289 1.734l-.30469 1.125c-.05518.202-.07556.39-.0586.574l.0586.563.04687.562c.0602.635-.04315 1.258-.28125 1.84l-.22265.563-.23438.562c-.05689.14-.06039.242-.04687.328l.08203.563.09375.562c.03235.204.09725.432.22265.68l.29297.563.28125.562c.32247.641.44813 1.352.30469 2.086l-.10547.563-.11719.562c-.03339.171-.02709.342.01172.516l.12891.562.11719.563c.11237.505.15811 1.02.1289 1.535l-.03515.562-.02344.563c-.03943.684-.28227 1.312-.64453 1.863l-.375.563-.2461.363.1875.328.31641.563c.27908.504.47838 1.044.57422 1.605l.1875 1.125c.11525.676.02584 1.339-.23438 1.957l-.23437.563-.23438.515.2461.539.25781.563c.32113.711.36915 1.486.10547 2.238l-.39844 1.125c-.09167.262-.14283.519-.16406.762l-.09375 1.125c-.01476.174-.00017.354.05859.551l.16407.562.17578.563c.16329.54.22579 1.101.1875 1.664l-.07032 1.125c-.02619.382-.06181.766-.09375 1.148l-.09375 1.125c-.03918.469-.12072.935-.24609 1.395l-.30469 1.125c-.00663.024-.01233.039-.01172.046.00088.01.01439.035.03516.082l.49219 1.125c.23789.543.36823 1.117.375 1.711l.01172.563v.562c.0075.661-.16424 1.285-.46875 1.852l-.30469.562-.1875.329.64453.937c.25089.375.43126.836.44531 1.359.01395.528-.14485 1.003-.38672 1.395l-.70312 1.125c-.02998.049-.04266.08-.04688.094l.1875 1.125c.06487.393.12684.79.17579 1.183l.05859.563.07031.562c.07086.573.03423 1.143-.11719 1.7l-.30468 1.125c-.08351.306-.15136.613-.1875.914l-.0586.562-.07031.563c-.00925.08-.00657.181.05859.328l.25782.562.24609.563c.28293.631.38967 1.317.25781 2.015l-.10547.563-.11718.562c-.02178.115-.01156.235.03515.375l.375 1.125c.21905.659.22834 1.346.03516 2.016l-.15234.562-.16407.563c-.05133.178-.05765.345-.03515.504l.07031.562.08203.563c.09388.671-.01504 1.326-.28125 1.933l-.49219 1.125-.01172.036.19922.574.1875.562c.13548.404.25582.814.36328 1.219l.15235.563.14062.562.09375.609c.02398.602-.14873 1.173-.45703 1.676l-.35156.563-.33984.562.15234.481.16406.562c.12035.402.23309.804.32813 1.207l.25781 1.125c.1033.439.17975.881.22266 1.324l.05859.563.04687.562c.05597.579-.00619 1.156-.17578 1.711l-.16406.563-.17578.562c-.11818.387-.24568.774-.375 1.161l-.375 1.125c-.04624.138-.04497.251-.02344.363l.21094 1.125c.08789.453.13934.913.15234 1.371l.02344.562.01172.563c.01128.398.00852.797 0 1.195l-.02344 1.125c-.00887.413-.03016.83-.07031 1.242l-.05859.563-.04688.562c-.00031.004-.00324.01 0 .024.00585.022.02275.076.07031.152l.35157.563.36328.562c.24735.393.41325.871.39843 1.406-.0148.533-.21169.997-.46875 1.372l-.38671.562-.23438.328.1875.317.32813.562c.47463.814.50087 1.744.04687 2.59l-.30469.562-.28125.528.17578.504.21094.562c.21763.601.28931 1.237.1875 1.875l-.1875 1.125c-.01427.094-.00765.2.04688.34l.44531 1.125c.32755.84.20849 1.692-.22266 2.426l-.32812.562-.21094.352.22266.375.32812.562c.33969.57.55173 1.211.55078 1.899v1.125c-.0016.638-.17095 1.246-.45703 1.805l-.29297.562-.30468.609.30468 1.125c.18161.669.15141 1.353-.07031 2.004l-.375 1.125c-.08363.247-.13037.479-.14062.703l-.04688 1.125c-.00999.224.01001.455.07031.692l.28125 1.125c.12652.496.1925 1.003.1875 1.512v.562l-.01172.563c-.0058.551-.10553 1.095-.29296 1.617l-.19922.562-.21094.563c-.01135.033-.01163.051-.01172.058-.00003.007.00043.026.01172.059l.39844 1.125c.14877.426.27619.858.375 1.289l.25781 1.125c.13209.577.13828 1.165.02344 1.746l-.11719.563-.10547.562c-.08724.439-.20583.88-.35156 1.313l-.1875.562-.17578.492.60937 1.125c.35877.661.49742 1.419.31641 2.192l-.14063.562-.1289.563c-.06286.269-.0909.535-.09375.797l-.01172.562v.563c-.0031.291.01333.584.05859.878l.08203.563.09375.562c.06912.45.10562.908.10547 1.36v1.125c-.00042.446-.04114.892-.10547 1.336l-.16406 1.125c-.04871.336-.08225.672-.10547 1.008l-.07031 1.125c-.00777.112.00631.248.08203.421l.49219 1.125c.40526.927.22265 1.862-.30469 2.602l-.41016.563-.23437.316.17578.281.33984.563c.32425.535.54693 1.126.60938 1.757l.11719 1.125c.07661.78-.16341 1.494-.5625 2.098l-.375.563-.1875.269.21093.305.38672.562c.26425.384.4582.866.45703 1.418-.00189.549-.19405 1.026-.45703 1.407l-.39843.562-.17579.246.19922.27.41016.562c.42056.576.70684 1.264.69141 2.039l-.02344 1.125c-.00939.468-.06887.933-.16406 1.395l-.11719.562-.10547.563c-.04739.229-.06798.457-.04688.679l.11719 1.125c.06015.626-.04279 1.238-.26953 1.817l-.44531 1.125c-.02868.073-.02454.109-.01172.152l.17578.563.16406.562c.17855.602.20351 1.222.08203 1.84l-.21093 1.125c-.02591.132-.0205.262.02343.41l.32813 1.125c.2442.825.09352 1.633-.31641 2.321l-.67968 1.125c-.09558.159-.09536.242-.09375.269l.07031 1.125c.01873.315.05001.632.10547.949l.10547.563.09375.562c.03896.222.11825.467.24609.727l.28125.562.26953.563c.27782.565.43413 1.176.42188 1.816l-.02344 1.125c-.01214.626-.17872 1.218-.45703 1.77l-.5625 1.125c-.14257.282-.24186.553-.30469.808l-.14063.563-.1289.527.02344.059.3164.562.32813.563c.37327.654.52449 1.408.35156 2.191l-.11719.563-.1289.562c-.08851.401-.18231.807-.29297 1.207l-.16407.563-.1289.492.33984.562.35156.563c.23226.378.39332.833.39844 1.336.00414.504-.14653.964-.375 1.348l-.67969 1.125c-.01641.027-.03021.046-.03515.058l.1289.539.11719.563c.12461.572.1343 1.159.02344 1.734l-.10547.563-.11719.562c-.04921.257-.0584.511-.04687.762l.04687 1.125c.02197.464.00237.932-.05859 1.394l-.07031.563-.08203.562c-.03612.273-.0439.549-.02344.821l.09375 1.125c.03482.463.02432.931-.02344 1.394l-.05859.563-.0586.515.07032.129.82031 1.125c.26108.36.4644.814.5039 1.336.03952.529-.10635 1.011-.33984 1.418l-.31641.563-.32812.562c-.13526.236-.1971.442-.22266.609l-.08203.563-.09375.562c-.04098.272-.04951.541-.03515.809l.03515.563.02344.562c.01392.254.06234.518.14062.785l.32813 1.125c.12334.42.2347.843.31641 1.266l.21093 1.125c.1243.643.07064 1.285-.14062 1.898l-.1875.563-.19922.562c-.03294.096-.03293.169-.01172.246l.30469 1.125c.1887.691.15702 1.39-.09375 2.051l-.22266.563-.21094.562c-.00445.012-.01078.019-.01171.024.00063.003.00581.019.01171.035l.21094.562.22266.563c.26846.707.26911 1.454.01172 2.168l-.39844 1.125c-.03355.093-.03062.153-.01172.222l.30469 1.125c.15448.571.19034 1.161.10547 1.746l-.08203.575-.08204.492.39844.504.39844.492c.38632.484.68023 1.041.80859 1.664l.10547.539.10547.527c.0482.236.13132.463.23438.68l.23437.492.22266.481c.22716.478.37416.994.44531 1.523l.08203.574.08203.586c.0437.326.09947.66.1875.996l.16406.598.15235.586c.00989.038.02008.053.02344.059.00123.001.00138.019.02343.035l.49219.34.48047.34c.47947.338.8873.761 1.20703 1.253l.32813.504.31643.493.0234.011.5977.141.6093.14c.4663.109.9141.247 1.336.411l.5273.199.5156.199c.272.106.552.188.8321.246l.5508.117.539.118c.4337.09.8554.211 1.2656.363l.504.187.5156.188c.243.09.4935.147.75.187l.539.094.5274.082c.3168.049.6413.082.9609.106l.5391.035.539.047c.3396.024.6884.035 1.043.046l.5625.024.5625.012c.6046.02 1.1812.184 1.7227.445l1.125.539c.2046.099.374.136.5156.141l.5625.011.5625.024c.0932.003.2228-.017.3984-.106l.5625-.293.5625-.281.6211-.234c.4197-.103.8476-.095 1.2657.011l.621.235.5625.293.3868.199.4101-.234.5625-.328.586-.27c.4037-.13.8284-.166 1.2539-.094l.6445.199.5625.235.5625.246c.2324.101.4413.15.6328.164l.5625.047.5625.035c.399.029.7967.079 1.1953.129l1.125.141c.3195.039.6427.053.961.058l1.125.024c.3928.005.7908.014 1.1836.035l.5625.035.5625.023c.0329.002.1195.003.2812-.093l.5625-.34.5625-.328.6094-.282c.6292-.197 1.3047-.151 1.9453.164l.5625.282.5625.269c.2507.124.4835.203.6914.235l1.125.164h.0234c.0173-.005.0541-.022.1172-.059l.5625-.328.5625-.316c.5716-.332 1.2133-.535 1.8985-.528h.5625l.5625.012c.3711.004.7421.01 1.1132.012h1.125c.6458.003 1.2564.185 1.8164.48l1.125.586.0469.023.5625-.152.5625-.141c.5262-.139 1.0638-.199 1.6055-.164l1.125.071c.2418.015.4898.002.7383-.047l.5625-.117.5625-.106c.6387-.126 1.2745-.076 1.8867.129l.5625.188.5391.175h.0117l1.125-.562.5742-.211c.3959-.103.8032-.125 1.207-.047l.6094.199.5625.235.3984.175.4571-.281.5625-.34.5742-.281c.3948-.142.8148-.195 1.2422-.141l.6328.165.5625.21.5625.223c.294.113.5869.194.8672.246l1.125.211c.123.023.2521.012.3984-.035l1.125-.352c.523-.166 1.0589-.257 1.6055-.246l1.125.024c.4877.01.975.081 1.4531.199l1.125.281c.1267.032.2449.023.375-.011l.5625-.153.5625-.14c.4404-.118.8899-.204 1.3359-.258l1.125-.141c.5482-.066 1.1015-.039 1.6407.082l1.125.258c.1261.028.2502.027.3867-.012l.5625-.164.5625-.152c.6814-.192 1.3779-.166 2.039.07l1.125.399c.323.115.644.218.961.293l1.125.257c.051.012.111.018.211-.023l1.125-.469c.525-.217 1.075-.342 1.641-.363l1.125-.047c.311-.012.623-.043.937-.094l.563-.082.562-.093c.676-.109 1.341-.018 1.957.246l.563.246.562.234c.284.122.556.217.82.27l1.125.211c.272.053.543.086.809.082l1.125-.024c.072-.001.199-.017.387-.129l1.125-.679c.58-.348 1.237-.553 1.945-.528l1.125.047c.39.014.782.033 1.172.059l1.125.07c.429.028.862.077 1.289.152l.562.106.563.094c.434.076.871.186 1.301.316l.562.164.457.141.551-.34.563-.352.656-.304c.236-.071.493-.103.762-.094.264.009.511.058.738.14l.633.329.562.386.551.387.445-.117.563-.153c.644-.172 1.307-.166 1.945.024l.563.176.539.152c.007-.003.019-.004.035-.012l.562-.281.563-.293c.672-.344 1.428-.446 2.191-.246l.563.141.562.152c.086.022.166.023.27-.012l.562-.199.563-.187c.531-.178 1.081-.263 1.64-.247l.563.024.562.012c.662.02 1.283.226 1.84.55l.563.328.293.176.351-.234.563-.387c.557-.383 1.199-.638 1.91-.668l1.125-.047c.739-.03 1.419.198 2.004.575l1.125.726c.182.117.295.138.351.141l.563.011.562.024c.358.011.721.012 1.078.012h1.125c.331-.001.666-.018.997-.047l.562-.047.563-.059c.213-.019.445-.074.691-.176l.562-.222.563-.235c.499-.206 1.016-.345 1.547-.398l.562-.059.563-.046c.504-.05 1.011-.045 1.512.035l1.125.187c.461.074.92.185 1.371.34l.562.199.563.188c.297.102.592.176.879.222l1.125.188c.052.008.13 0 .257-.059l1.125-.515c.525-.244 1.077-.396 1.653-.434l1.125-.07c.4-.026.806-.042 1.207-.047l1.125-.024c.614-.007 1.203.136 1.758.387l1.125.516c.023.01.049.009.058.012h.024l1.125-.329c.403-.118.813-.224 1.218-.316l1.125-.258c.456-.103.921-.163 1.383-.187l1.125-.071c.661-.034 1.297.123 1.875.411l.563.281.433.211.446-.223.562-.293.68-.246c.678-.145 1.36 0 1.957.387l.562.363.563.375h.023l.504-.105.563-.129c.527-.123 1.067-.166 1.605-.118l.563.047.562.059c.049.004.141-.002.293-.082l.563-.293.562-.305.574-.234c.401-.114.816-.135 1.231-.059l.609.188.563.234.562.246c.279.12.551.199.809.246l1.125.211c.302.056.603.083.902.094l1.125.047c.231.008.471-.022.715-.082l.562-.141.563-.129c.351-.087.703-.187 1.055-.293l.562-.164.563-.175c.423-.127.85-.226 1.277-.305l1.125-.211c.528-.098 1.062-.116 1.594-.047l.562.07.563.082c.538.071 1.058.227 1.558.457l.563.258.41.188.457-.258.562-.328c.596-.349 1.269-.547 1.993-.492l.562.046.563.036c.618.047 1.208.241 1.746.539l.562.316.528.293.492-.164.562-.199c.522-.183 1.067-.278 1.617-.281l.563-.012h.562c.267-.002.535-.034.809-.094l.563-.117.562-.129c.632-.138 1.271-.107 1.887.082l1.125.352c.272.083.538.132.797.152l.562.035.563.047c.42.032.847.083 1.265.152l1.125.188c.22.036.438.043.656.011l1.125-.164c.291-.042.592-.115.891-.211l1.125-.351c.598-.19 1.218-.239 1.84-.129l.562.094.563.105c.34.06.681.105 1.019.141l1.125.117c.157.016.321 0 .504-.059l.563-.187.562-.176c.585-.189 1.194-.242 1.805-.152l1.125.164c.359.053.72.099 1.078.141l.563.07.562.058c.501.059.996.185 1.477.364l.562.211.563.199c.039.014.063.023.07.023.009 0 .031-.002.059-.011l.562-.188.563-.199c.534-.18 1.089-.265 1.652-.246l.563.023.562.012c.481.016.957.093 1.43.211l.562.14.563.129c.092.023.182.025.293-.011l.562-.188.563-.176c.447-.147.903-.266 1.359-.339l.563-.082.562-.094c.466-.075.937-.108 1.406-.094l.563.012.562.023c.362.011.728.01 1.09.012l.563.012h.562c.43.001.861.021 1.289.07l.563.07.562.059c.268.031.541.039.809.012l1.125-.118c.526-.052 1.051-.023 1.57.082l1.125.235c.269.054.535.074.797.07l1.125-.023c.557-.01 1.112.078 1.641.257l.562.2.516.164.562-.282.563-.292.609-.235c.413-.104.839-.109 1.254-.012l.621.235.563.269.339.164.411-.246.562-.375c.385-.252.86-.423 1.395-.422.267.001.518.04.75.118l.632.316.563.375.41.27.363-.165.563-.269c.592-.283 1.24-.424 1.91-.363l.563.058.562.047c.511.046 1.011.163 1.5.34l.563.199.562.211c.191.07.361.092.516.082l.562-.047.563-.035c.077-.005.209-.034.41-.164l1.125-.726c.743-.48 1.64-.617 2.519-.247l.563.247.562.234c.208.088.391.116.551.117l.563.012h.562c.359.001.719-.002 1.078-.012l.563-.023.562-.012c.204-.005.424-.044.657-.129l.562-.199.563-.211c.709-.257 1.45-.251 2.156.012l1.125.421c.26.098.512.152.75.176l1.125.117c.152.016.321-.008.504-.07l1.125-.375.574-.129c.574-.073 1.146.028 1.676.281l.562.27.457.211 1.031-.516.61-.222c.616-.152 1.253-.085 1.851.211l1.055.527.504-.211.562-.234c.653-.28 1.356-.356 2.063-.188l.562.141.563.129c.085.02.17.015.281-.024l.563-.199.562-.188.633-.152c.421-.043.833.022 1.219.164l.562.27 1.125.703c.188.116.31.139.375.14l1.125.024c.146.003.31-.025.504-.106l1.125-.468c.456-.19.924-.335 1.395-.434l1.125-.234c.73-.154 1.451-.045 2.097.269l.563.282.562.269c.209.101.381.146.528.152l1.125.047c.336.015.672.011 1.008 0l.562-.011.563-.024c.409-.013.821-.015 1.23 0l1.125.047c.02.001.104-.001.27-.105l.562-.364.563-.351c.593-.377 1.28-.601 2.027-.551l.562.035.563.047 2.25.141c.391.024.781.055 1.172.093l.562.059.563.047c.317.031.633.052.949.047l1.125-.024c.544-.01 1.084.071 1.605.235l1.125.351c.086.027.151.025.235 0l.562-.164.563-.176c.616-.187 1.255-.221 1.887-.082l1.125.258c.087.02.174.007.293-.035l1.125-.399c.769-.275 1.566-.214 2.285.129l1.125.539c.152.072.253.078.328.071l.562-.059.563-.047c.52-.051 1.044-.028 1.558.071l1.125.211c.083.015.17.012.293-.036l.563-.211.562-.222c.537-.208 1.101-.32 1.676-.317l.563.012h.562c.413.003.83.025 1.242.059l.563.035.562.047c.335.027.674.046 1.008.047h1.125c.467 0 .932.042 1.395.129l1.125.21c.256.048.511.063.761.047l1.125-.07c.182-.012.384-.054.61-.152l1.125-.493.644-.199c.426-.073.85-.037 1.254.094l.598.27.562.328.563.34c.198.116.338.147.433.152l.563.023.562.035c.052.003.152-.012.317-.105l1.125-.633c.611-.344 1.306-.521 2.039-.433l1.125.14c.444.053.886.13 1.324.246l1.125.305h.024c.007-.001.03-.004.07-.023l1.125-.54c.677-.325 1.429-.418 2.18-.21l1.125.304c.437.121.871.277 1.3.457l.563.235.562.246c.094.039.144.034.188.023l1.125-.281c.281-.07.57-.171.867-.305l.563-.258.562-.246.656-.211c.435-.074.868-.033 1.278.106l.597.281.563.34.562.352c.157.095.229.094.246.093l1.125-.07c.482-.029.963-.003 1.442.07l.562.082.563.094c.05.008.128.003.258-.059l.562-.269.563-.258c.462-.22.933-.401 1.418-.516l1.125-.257c.475-.113.957-.179 1.441-.188l1.125-.023c.484-.008.975.045 1.453.14l.563.106.562.117c.246.049.487.062.727.047l1.125-.07c.484-.031.972-.006 1.453.07l.562.082.563.094c.501.079.999.223 1.476.422l1.125.468c.214.089.404.126.575.129l1.125.024c.164.002.345-.026.55-.106l1.125-.445c.524-.205 1.07-.323 1.629-.34l.563-.012.562-.023c.508-.015 1.014.035 1.512.152l.562.141.563.129c.032.007.072.017.164-.024l.563-.258.562-.246c.572-.256 1.192-.386 1.828-.351l.563.023.562.035c.48.027.96.109 1.43.235l1.125.304c.385.104.776.204 1.16.317l1.125.328c.244.071.476.105.703.105l.563.012h.562c.186.001.39-.037.61-.117l.562-.199.563-.211c.437-.16.878-.294 1.324-.387l1.125-.234c.471-.098.952-.139 1.429-.141l.563-.012h.562c.62-.002 1.215.15 1.77.411l.562.257.551.258.563-.187.562-.2c.569-.2 1.166-.28 1.77-.222l1.125.117c.215.02.432.001.656-.047l.563-.117.562-.129c.682-.148 1.367-.077 2.004.176l1.125.445c.269.107.526.176.773.211l1.125.164c.145.02.299.007.469-.047l.563-.176.562-.187c.53-.167 1.076-.243 1.629-.223l1.125.047c.498.018.992.097 1.477.235l.562.152.563.164c.024.007.04 0 .046 0 .007-.001.035-.003.082-.023l.563-.235.562-.246c.555-.239 1.138-.309 1.711-.199l.575.176.562.222.422.176.492-.281.563-.328c.603-.357 1.301-.551 2.039-.481l.562.047.563.059c.308.029.618.035.926.023l.562-.023.563-.012c.568-.021 1.125.062 1.664.246l.562.199.563.188c.333.114.666.212.996.293l1.125.281c.217.053.428.066.633.047l.562-.059.563-.047c.253-.023.515-.075.785-.164l1.125-.375c.516-.171 1.053-.266 1.593-.269h1.125c.478-.003.958.046 1.43.14l.563.106.562.117c.299.06.596.093.891.106l1.125.046c.381.016.767.038 1.148.059l.563.023.562.036c.413.023.83.061 1.242.117l.563.082.527.058c.013-.004.057-.006.117-.046l.563-.387.562-.375c.509-.345 1.101-.554 1.735-.527l.656.117 1.125.328c.308.09.613.154.914.199l1.125.164c.368.055.745.115 1.113.164l1.125.141c.095.012.205.013.352-.047l1.125-.469.574-.176c.391-.074.786-.055 1.172.036l.574.187 1.125.516c.169.076.295.099.399.093l1.125-.07c.173-.011.374-.062.597-.164l1.125-.516c.609-.279 1.275-.396 1.957-.304l.563.07.562.082c.344.046.688.079 1.032.106l.562.046.563.036c.523.04 1.037.166 1.535.351l.562.199.563.211c.159.06.29.073.41.059l1.125-.141c.365-.046.736-.099 1.101-.152l1.125-.164c.485-.071.978-.086 1.465-.047l1.125.094c.178.013.363-.01.563-.071l.562-.175.563-.164c.656-.2 1.334-.208 1.992-.012l.563.164.562.176c.138.041.263.038.387.011l.562-.117.563-.129c.541-.115 1.092-.133 1.64-.058l.563.082.562.07c.325.045.649.071.973.082l1.125.047c.163.006.338-.03.539-.105l1.125-.422c.527-.199 1.079-.31 1.641-.317h.562l.563-.011c.685-.008 1.326.195 1.898.527l.563.328.398.223.387-.2.562-.304c.846-.451 1.779-.415 2.59.058l.563.34.375.211.375-.211.562-.328c.504-.289 1.066-.438 1.652-.41l.598.082.563.152.562.141c.072.019.137.024.235-.012l.562-.199.563-.211c.735-.267 1.5-.241 2.214.059l.563.234.562.246c.237.1.456.148.657.164l.562.047.563.035c.258.02.523.017.785-.023l.562-.094.563-.082c.317-.049.639-.112.961-.199l1.125-.305c.621-.169 1.261-.18 1.886-.023l1.125.281c.289.072.574.121.856.14l1.125.071c.445.031.895.095 1.336.187l1.125.235c.183.038.359.045.539.011l1.125-.211c.286-.053.581-.134.879-.246l1.125-.422.644-.152c.431-.048.849.015 1.243.164l.562.281.563.364.55.34.469-.129.563-.176c.377-.113.759-.218 1.136-.328l1.125-.328c.578-.169 1.173-.222 1.77-.129l.562.093.563.083c.426.066.854.158 1.277.269l.563.152.527.129c.008-.003.024-.005.035-.011l.563-.317.562-.328.645-.269c.228-.061.472-.094.726-.083.508.023.956.202 1.324.446l.563.375.551.363.48-.117.563-.152c.575-.155 1.169-.179 1.758-.082l1.125.187c.281.047.565.066.843.059l.563-.012.562-.024c.335-.008.673-.023 1.008-.058l1.125-.117c.463-.049.93-.058 1.395-.024l.562.035.563.047c.074.005.179-.013.339-.093l1.125-.563c.526-.264 1.097-.381 1.676-.316l.586.129.563.187.562.176c.404.13.806.276 1.207.433l1.125.446c.144.056.255.061.352.047l.562-.082.563-.094c.22-.034.458-.102.715-.223l.562-.258.563-.269c.674-.317 1.414-.401 2.156-.199l3.375.914c.097.026.186.021.293-.012l.562-.176.563-.164c.488-.151.984-.245 1.488-.269l.563-.024.562-.035c.527-.026 1.057.035 1.57.164l1.125.281c.358.09.721.169 1.079.246l.562.129.563.117c.146.032.293.027.445-.011l1.125-.282c.52-.129 1.049-.176 1.582-.14l.562.035.563.047c.369.025.744.038 1.113.058l1.125.071c.216.011.439-.012.668-.071l.563-.14.562-.152c.343-.088.687-.182 1.031-.293l.563-.188.562-.176.68-.129c.446-.022.869.079 1.254.258l.551.317.562.421.457.329.34-.129.563-.223c.572-.226 1.185-.33 1.804-.281l1.125.094c.465.037.927.113 1.383.234l.563.152.55.141c.009-.003.034.001.059-.012l.563-.305.562-.293.621-.246c.418-.106.846-.103 1.266 0l.633.235.562.293.469.246.469-.199.562-.258c.653-.292 1.361-.37 2.074-.211l1.149.258c.13.028.24.02.351-.012l1.102-.328c.228-.069.449-.171.656-.305l.481-.316.492-.317c.618-.4 1.314-.566 2.027-.515l1.242.093h.094l.012-.011.468-.34.469-.328c.34-.245.69-.485 1.043-.703l.481-.293.48-.305c.185-.114.351-.252.492-.422l.364-.445.363-.434c.154-.185.285-.394.387-.621l.246-.527.234-.539c.3-.668.793-1.181 1.418-1.524l.539-.293.445-.258.094-.445.106-.586c.12-.679.419-1.292.89-1.793l.821-.867.035-.047c.001-.003.011-.021.011-.035l.071-1.148c.03-.494.109-.983.246-1.454l.164-.539.152-.539c.107-.367.223-.744.34-1.125l.176-.562.164-.574c.04-.134.049-.246.023-.364l-.129-.562-.117-.563c-.069-.318-.16-.638-.269-.961l-.375-1.125c-.265-.78-.182-1.575.176-2.285l.562-1.125c.006-.013-.003-.028 0-.035l-.152-.551-.164-.562c-.154-.52-.228-1.054-.211-1.594l.047-1.125c.008-.248-.016-.505-.071-.762l-.129-.562-.117-.563c-.156-.728-.041-1.45.27-2.097l.539-1.125c.04-.086.027-.114.023-.129l-.258-1.125c-.075-.325-.169-.655-.281-.985l-.187-.562-.2-.563c-.167-.493-.271-.998-.304-1.511l-.071-1.125c-.031-.49.002-.979.082-1.465l.188-1.125c.074-.447.177-.896.316-1.336l.352-1.125v-.012c-.002-.006-.004-.018-.012-.035l-.258-.562-.246-.563c-.338-.746-.362-1.556-.047-2.32l.469-1.125c.084-.204.106-.382.106-.539v-1.125c-.004-.43.015-.861.058-1.289l.047-.563.059-.562c.037-.371.082-.743.117-1.114l.047-.562.058-.563c.014-.144-.007-.301-.07-.48l-.398-1.125c-.213-.598-.286-1.23-.188-1.863l.094-.563.082-.562c.067-.431.166-.863.281-1.289l.305-1.125c.009-.037.01-.073-.024-.153l-.468-1.125c-.215-.515-.351-1.053-.387-1.605l-.07-1.125c-.025-.379-.049-.758-.071-1.137l-.07-1.125c-.02-.358-.038-.72-.07-1.078l-.059-.563-.047-.562c-.07-.786.178-1.498.586-2.098l.387-.562.164-.258-.188-.27-.41-.562c-.526-.729-.728-1.66-.34-2.59l.469-1.125c.103-.248.165-.475.188-.691l.117-1.125c.038-.37.071-.744.105-1.114l.059-.562.047-.563c.017-.187.008-.382-.047-.586l-.305-1.125c-.136-.497-.208-1.012-.211-1.523l-.011-.563v-.562c-.002-.229-.035-.47-.106-.715l-.328-1.125c-.249-.863-.051-1.688.398-2.367l.75-1.125c.117-.175.128-.276.129-.316l.024-1.125c.002-.13-.03-.289-.117-.481l-.516-1.125c-.208-.455-.365-.922-.481-1.394l-.281-1.125c-.148-.61-.14-1.232.012-1.84l.844-3.375c.004-.017 0-.029 0-.035-.001-.009.001-.042-.024-.094l-.269-.563-.258-.562c-.258-.552-.408-1.144-.41-1.758v-1.125c-.002-.664.18-1.287.492-1.852l.633-1.125c.086-.156.085-.249.082-.293l-.035-.562-.047-.563c-.011-.136-.061-.303-.176-.515l-.609-1.125c-.222-.409-.349-.89-.305-1.406.044-.51.249-.956.504-1.313l.398-.562.41-.563-.117-.445-.14-.563c-.11-.437-.196-.882-.246-1.324l-.059-.562-.07-.563c-.035-.294-.094-.59-.176-.891l-.305-1.125c-.202-.736-.122-1.482.188-2.156l.515-1.125c.051-.111.043-.169.035-.211l-.211-1.125c-.083-.428-.142-.858-.175-1.289l-.094-1.125c-.044-.567.023-1.131.187-1.676l.176-.562.164-.563c.094-.31.164-.622.211-.925l.094-.563.082-.562c.011-.069.012-.159-.047-.293l-.492-1.125c-.335-.762-.337-1.574 0-2.332l.258-.563.187-.434-.269-.457-.328-.562c-.458-.784-.527-1.685-.118-2.531l.27-.563.211-.433-.246-.446-.293-.562c-.46-.852-.425-1.798.058-2.613l.329-.563.339-.562c.099-.168.106-.272.106-.329v-.562l-.012-.563c-.003-.189-.035-.398-.117-.621l-.422-1.125c-.213-.569-.31-1.171-.258-1.781l.094-1.125c.041-.476.135-.952.27-1.418l.328-1.125v-.023c-.001-.003-.004-.027-.024-.071l-.492-1.125c-.207-.468-.37-.951-.469-1.441l-.105-.563-.117-.562c-.118-.582-.106-1.167.023-1.746l.117-.563.129-.562c.034-.153.037-.302 0-.457l-.14-.563-.129-.562c-.125-.529-.168-1.066-.118-1.606l.059-.562.047-.563c.054-.569.219-1.122.469-1.64l.539-1.125c.102-.212.145-.388.152-.539l.047-1.125c.015-.344.018-.688.012-1.032v-.562l-.012-.563c-.007-.339-.028-.68-.059-1.019l-.047-.563-.058-.562c-.049-.549.003-1.094.141-1.629l.14-.563.152-.562c.031-.12.022-.229-.011-.352l-.305-1.125c-.112-.41-.201-.83-.281-1.242l-.117-.562-.106-.563c-.11-.567-.114-1.144 0-1.711l.235-1.125c.015-.083.01-.171-.036-.293l-.421-1.125c-.24-.634-.301-1.308-.153-1.98l.117-.563.129-.562c.067-.303.108-.604.129-.903l.047-.562.035-.563c.032-.453.097-.911.199-1.359zm-697.17236 62.66c-.00364-.011-.0089-.031-.02344-.058l-.609372-1.125c-.384676-.709-.4919759-1.518-.222656-2.321l.375-1.125c.106017-.314.196415-.629.257812-.937l.105466-.563.11719-.562c.03301-.166.0273-.334-.01172-.504l-.257811-1.125c-.073032-.318-.168354-.638-.28125-.961l-.199218-.562-.1875-.563c-.24490513-.701-.23874344-1.435.011718-2.133l.398438-1.125c.080922-.226.11526-.436.117187-.633l.011719-.562v-.563c.002147-.24-.029437-.486-.09375-.738l-.28125-1.125c-.130527-.512-.187287-1.033-.164062-1.558l.046875-1.125c.023462-.525.122242-1.046.292968-1.547l.199219-.563.1875-.562c.032457-.097.033487-.166.011719-.246l-.304688-1.125c-.208607-.768-.100768-1.526.246094-2.204l.292972-.562.28125-.563c.09743-.19.12875-.335.1289-.445v-1.125c-.00047-.062-.0229-.174-.1289-.351l-.32813-.563-.339842-.562c-.226257-.38-.372825-.828-.375-1.325-.002114-.495.140169-.943.363281-1.324l.328121-.562.30469-.504-.17578-.446-.22266-.562c-.237504-.608-.315349-1.256-.210933-1.91l.082031-.563.093752-.562c.01691-.11.00635-.229-.046877-.375l-.199219-.563-.210937-.562c-.291108-.804-.19934-1.623.1875-2.344l.304683-.563.21094-.386-.23437-.399-.328128-.562c-.233309-.399-.389671-.872-.363281-1.395.026174-.517.21705-.968.46875-1.336l.386719-.562.22266-.317-.1875-.281-.351567-.562c-.381381-.605-.60156-1.312-.527344-2.075l.058594-.562.046875-.563c.032728-.336.051297-.672.058594-1.007l.023437-1.125c.007519-.35.009939-.705 0-1.055l-.011718-.563-.023438-.562c-.008329-.291-.036651-.584-.09375-.879l-.105469-.562-.117187-.563c-.123396-.637-.074617-1.276.128906-1.887l.199219-.562.1875-.563c.121207-.362.229285-.727.339848-1.089l.35156-1.125c.05837-.193.07456-.37.05859-.54l-.11719-1.125c-.02955-.305-.07937-.615-.15234-.925l-.257812-1.125c-.081375-.346-.177379-.696-.28125-1.043l-.175781-.563-.164063-.562c-.2498451-.837-.082825-1.656.339844-2.344l.339844-.563.351558-.562h.02344l-.01172.012c.00067.015.01011.028.01172.035v-.047h-.02344l.01172-.023-.14062-.493-.15235-.562c-.090638-.342-.189329-.688-.304683-1.031l-.375-1.125c-.248676-.742-.202733-1.501.105469-2.204l.492187-1.125c.061447-.14.069407-.239.058597-.316l-.164066-1.125c-.082618-.589-.035483-1.176.128907-1.746l.328129-1.125c.02239-.079.01778-.145-.01172-.234l-.375003-1.125c-.201942-.608-.248703-1.242-.128906-1.875l.210939-1.125c.0094-.05.01611-.119-.035158-.235l-.257813-.562-.246093-.563c-.269351-.601-.3851942-1.253-.304688-1.922l.058594-.562.070312-.563c.054095-.448.148981-.893.269532-1.336l.304687-1.125c.052273-.191.056982-.375.035156-.55l-.140625-1.125c-.044079-.354-.093831-.713-.152343-1.067l-.1875-1.125c-.128796-.787.079646-1.526.46875-2.156l.339839-.563.19922-.304-.22265-.317-.375003-.562c-.242955-.362-.435489-.802-.46875-1.301-.033613-.504.100549-.969.316406-1.371l.292969-.563.304688-.562c.09758-.182.11804-.31.11719-.398v-.563l-.01172-.562c-.00177-.156-.03792-.332-.12891-.54l-.492186-1.125c-.294172-.67-.360946-1.397-.164062-2.121l.304687-1.125c.078754-.288.128771-.575.152341-.855l.09375-1.125c.03063-.366.05691-.735.08203-1.102l.04688-.562.03516-.563c.01277-.186-.00725-.389-.07032-.597l-.17578-.563-.164061-.562c-.16512-.549-.225761-1.117-.175781-1.688l.09375-1.125c.044512-.505.157953-1.003.328122-1.488l.19922-.563.1875-.562v-.012l-.51562-1.125c-.337684-.748-.355374-1.558-.035159-2.32l.246089-.563.23438-.562c.05503-.131.05932-.22.04687-.293l-.09375-.563-.10546-.562c-.03241-.189-.0984-.411-.23438-.656l-.316406-.563-.304687-.562c-.219061-.397-.353844-.856-.328125-1.36.025833-.501.204515-.946.445312-1.312l.363282-.563.375004-.562c.12757-.196.14869-.323.15234-.387l.03516-.562.02343-.563c.01302-.233-.00454-.472-.05859-.715l-.11719-.562-.1289-.563c-.12759-.574-.13633-1.156-.02344-1.734l.10547-.563.11718-.562c.00296-.015.00799-.055-.04687-.164l-.562501-1.125c-.2521-.5-.430389-1.026-.515625-1.571l-.09375-.562-.082031-.563c-.1031276-.662-.014908-1.312.234375-1.921l.234375-.563.222656-.562c.067711-.166.080426-.296.070313-.411l-.046875-.562-.058594-.563c-.05338-.562.001752-1.13.152344-1.675l.152343-.563.16406-.562c.04945-.182.05728-.351.03516-.516l-.08203-.562-.07031-.563c-.05503-.404-.09774-.814-.12891-1.219l-.093751-1.125c-.018889-.24-.064299-.49-.152343-.75l-.199219-.562-.1875-.563c-.281638-.827-.154089-1.657.257812-2.367l.328125-.562.257816-.446-.19922-.398-.269533-.563c-.333329-.696-.414729-1.466-.175781-2.226l.351562-1.125c.016211-.052.024711-.085 0-.153l-.421875-1.1246c-.266875-.7217-.255431-1.4779.023438-2.1914l.445312-1.125c.032457-.0827.0254-.1264.011719-.1757l-.304688-1.125c-.183579-.6585-.170361-1.3311.035157-1.9805l.351559-1.125c.07352-.2321.10714-.4583.10547-.668v-.5625l-.01172-.5625c-.00339-.4755.04852-.9481.14063-1.418l.10547-.5625.10547-.5273c-.00642-.0119-.02278-.0283-.03516-.0469l-.750001-1.125c-.390369-.5869-.6359793-1.272-.597656-2.0273l.035156-.5625.023438-.5625c.035431-.6956.285193-1.3321.65625-1.8867l.375003-.5625.3164-.4688-.16406-.375-.23437-.5625c-.287751-.7014-.317564-1.453-.07032-2.1797l.1875-.5625.19922-.5625c.08409-.2481.12978-.4885.14063-.7148l.04687-1.125v-.0117c-.00831-.0252-.03334-.0905-.09375-.1758l-.796873-1.125c-.249175-.3529-.443668-.781-.492188-1.2774-.048788-.5061.058515-.9835.269532-1.3945l.292968-.5625.246091-.4687-.222653-.4454-.269531-.5625c-.25402-.5328-.412985-1.109-.445313-1.6992l-.023437-.5625-.0351566-.5625c-.0255893-.4739.0005944-.9468.0703126-1.4179l.164062-1.125c.0458-.3085.066588-.6196.070313-.9258l.023437-1.125c.008174-.6797.214606-1.3107.550782-1.875l.328124-.5625.33984-.5625.01172-.0235-.1289-.5156-.15235-.5625c-.07967-.304-.18628-.6127-.3164-.9258l-.468753-1.125c-.23475-.564-.348089-1.1653-.316406-1.7812l.023437-.5625.035156-.5625c.027588-.5309.134212-1.0536.316407-1.5586l.199218-.5625.210941-.5508h-.01172l-.515627-1.125c-.29579-.6444-.387245-1.3478-.234375-2.0625l.234375-1.125c.106728-.4956.281756-.983.503907-1.4531l.25781-.5625.26953-.5625c.04039-.0855.03967-.1212.03516-.1406l-.14063-.5625-.1289-.5625c-.11-.4708-.1747-.951-.1875-1.4297l-.02344-1.125c-.0117-.4416.01094-.8838.05859-1.3242l.11719-1.125c.03452-.3181.04913-.6439.04688-.961v-.5625l-.01172-.5625c-.00265-.3704-.00679-.7428-.01172-1.1133v-.5625l-.01172-.5625c-.00545-.4141.00688-.8283.03516-1.2422l.03515-.5625.04688-.5625c.02363-.3447.03252-.6984.03515-1.0429v-.5625l.01172-.5625c.00206-.303-.01833-.6093-.05859-.9141l-.07031-.5625-.08203-.5625c-.034-.2555-.09674-.5211-.19922-.7969l-.421878-1.125c-.222865-.5991-.300801-1.2364-.210938-1.875l.082032-.5625.082031-.5742c.040795-.2899.05862-.5927.046875-.9023l-.023438-.5977-.023437-.5859c-.038585-1.0171.495683-1.8015 1.207033-2.2969l.58594-.4101.3164-.2344-.08203-.3516-.17578-.6914c-.10775-.425-.14009-.9209.02344-1.4297.16906-.5255.50592-.9254.90234-1.207l.50391-.3633.51562-.3633c.24908-.1769.44328-.3555.58594-.5273l.35156-.43361.35156-.42187c.32087-.3868.6903-.72973 1.10157-1.01953l.45703-.32813.45703-.3164.04687-.14063.17579-.64453.17578-.65625c.11129-.41052.32243-.83212.66797-1.18359.35131-.35596.78466-.56667 1.23046-.66797l.59762-.14063.586-.14062c.0629-.01431.1033-.03264.1523-.09375l.7735-.96094.4804-.46875c.5222-.39785 1.1603-.57542 1.8399-.51563l1.2656.11719c.1224.01094.17-.01669.1992-.03515l.4922-.31641.5039-.30469c.4338-.2737.8962-.49627 1.3828-.656248l.5508-.1875.5508-.175781c.5613-.184539 1.1452-.202574 1.6992-.035156l.5391.222656.4922.269531v.011719c.1254-.03135.2197-.07646.2812-.082031.2628-.023511.5398-.0036.75.023437l.5625.070313.5625.08203c.0712.00907.1622-.00536.3047-.07031l1.125-.515627.6445-.199218c.4274-.080422.8566-.057194 1.2656.070312l.5977.269531 1.125.656252c.2228.12927.4085.18256.5508.19922l.5625.05859.5625.07031c.0177.00167.0775-.00008.1992-.07031l.5625-.31641.5625-.32812.6211-.269532c.2232-.062775.466-.097472.7148-.09375.4947.008372.9373.170689 1.3125.398438l.5625.339844.3282.21094.3515-.22266.5625-.351562c.4907-.30638 1.0477-.496442 1.6407-.492187l.6093.070312 1.125.257813c.1419.031323.2755.025026.4219-.011719l1.125-.28125c.4234-.107104.8508-.196085 1.2773-.257812l.5625-.082032.5625-.0703121c.5603-.0809138 1.1241-.05629377 1.6758.0703121l1.125.257813c.2751.063341.5533.089483.8203.09375l1.125.023437c.459.007527.9163.056276 1.3711.140625l.5625.105469.5625.09375c.193.035783.3811.036299.5743 0l1.125-.210937c.4091-.076862.8201-.129795 1.2304-.175782l.5625-.070312.5625-.058594c.7414-.08282 1.4413.10207 2.0508.457031l.5625.328127.3633.21094.3633-.21094.5625-.339845c.5749-.340226 1.2264-.540051 1.9218-.527344l1.125.023437c.7033.012864 1.3459.244988 1.9102.609375l.5625.363277.3164.21094.3164-.19922.5625-.363278c.658-.417781 1.4455-.614382 2.2734-.421875l1.125.257813c.3171.073621.6358.129763.9493.164062l.5625.070313.5625.058595c.3554.03882.7111.06713 1.0664.09375l.5625.04687.5625.03516c.3842.02875.776.06959 1.1601.10547l.5625.04687.5625.0586c.228.02078.4577.00955.6914-.03516l.5625-.11719.5625-.10547c.5536-.107 1.1204-.10879 1.6758-.01171l.5625.09375.5625.10546c.074.01231.1655.0061.293-.04687l1.125-.46875c.6125-.253584 1.2662-.342999 1.9336-.234375l1.125.1875c.2583.042353.5188.042864.7734.023437l.5625-.035156.5625-.046875c.4092-.031194.821-.044089 1.2305-.046875l.5625-.011719h.5625c.2292-.001786.4687-.033387.7148-.105469l1.125-.328125.6211-.105468c.621-.0349506 1.2091.142934 1.7227.46875l.5625.363281.4336.269534.3867-.17578.5625-.257817c.6319-.291229 1.3224-.400621 2.0273-.269531l1.125.210938c.124.02316.2516.023232.3985-.023438l.5625-.175781.5623-.1875c.737-.2334365 1.487-.174888 2.18.128906l1.125.492188c.248.108695.479.163995.691.187495l.563.07032.562.05859c.09.00958.198-.00287.352-.07031l1.125-.492189c.636-.280008 1.327-.375513 2.027-.234375l1.125.234375c.407.082122.814.17125 1.219.28125l.562.164059.563.15235c.069.01865.13.01014.223-.02344l1.125-.398438c.773-.28006 1.564-.219037 2.285.128908l.562.26953.457.22266.469-.23438.563-.292968c.634-.319894 1.345-.448654 2.074-.316406l1.125.210937c.128.022446.26.011138.41-.035156l1.125-.351562.609-.117188c.608-.048761 1.19.116555 1.711.421875l.563.328128.457.26953.422-.1875.562-.257814c.553-.248645 1.143-.327743 1.723-.222656l.574.164062.562.222658.563.23437c.232.0921.446.12981.645.14063l.562.03515.563.02344c.377.01973.759.04773 1.136.07031l.563.03516.562.02344c.216.0129.439-.00103.668-.0586l1.125-.28125c.576-.14573 1.172-.17243 1.758-.07031l.563.09375.562.10547c.129.02164.26.01134.41-.03516l1.125-.35156c.354-.11082.712-.234534 1.067-.363279l.562-.199219.563-.210937c.735-.2670404 1.5-.2401241 2.214.058593l1.125.46875c.321.133996.636.251912.95.339842l1.125.30469c.161.04528.31.06057.457.03516l.562-.10547.563-.09375c.233-.04149.485-.12296.75-.2461l.562-.269528.563-.257812c.871-.407429 1.783-.304738 2.554.175781l1.125.703129.106.04687 1.125-.16406c.397-.06074.798-.12243 1.195-.16406l1.125-.11719c.442-.046158.894-.060164 1.336-.046877l.563.023438.562.011719c.32.00942.64.000015.961-.023438l.563-.035156.562-.046875c.215-.015786.446-.068081.691-.164063l.563-.210937.562-.222656c.61-.2389912 1.233-.258696 1.817-.082032l.574.246094 1.125.609373c.162.08827.26.09722.316.09375l1.125-.07031c.269-.01682.542-.06459.821-.140625l1.125-.304688c.532-.145095 1.08-.202811 1.629-.164062l.562.046875.563.035156c.291.020371.587.015854.879-.011719l.562-.046875.563-.058594c.605-.056479 1.201.030778 1.769.234375l.563.199219.55.199218c.002-.00047.018-.00427.036-.01172l.562-.234373.563-.246094c.608-.264616 1.262-.377395 1.933-.28125l1.125.164063c.359.051413.719.100243 1.078.140625l1.125.117187c.22.024695.443.02138.668-.023437l.563-.117188.562-.105468c.54-.106821 1.085-.126756 1.629-.046875l.563.09375.562.082031c.361.053485.729.097377 1.09.140625l.562.070312.563.058594c.447.053593.894.151468 1.336.269528l.562.14063.528.15234c.008-.0037.02-.01521.035-.02344l1.125-.632808c.642-.361774 1.377-.522155 2.144-.375l1.125.210938c.459.088091.912.22032 1.36.38672l.562.21094.481.1875.539-.29297.562-.292972c.506-.270925 1.046-.461922 1.606-.550781l1.125-.1874999c.526-.08303641 1.055-.08069872 1.582 0l.562.0820309.563.09375c.239.036723.477.039722.715.011719l1.125-.140625c.435-.0521444.876-.0712165 1.312-.0703124h1.125c.463.0010073.924.0465234 1.383.1289064l.563.09375.562.105469c.441.079348.889.189548 1.324.328125l1.125.35156c.238.07539.462.11368.68.11719l1.125.02344c.121.00167.279-.02675.469-.11719l1.125-.539063c.535-.254655 1.104-.408096 1.699-.433594l1.125-.0468746c.751-.0315478 1.442.2088446 2.027.5976566l.563.374995.328.23438.316-.19922.563-.328124c.521-.309603 1.112-.480352 1.722-.433594l.61.117188 1.125.351562c.102.031316.185.026371.281 0l.563-.152344.562-.164062c.61-.170157 1.244-.185975 1.863-.046875l1.125.257812c.399.089456.798.182485 1.196.292969l.562.164058.563.15235c.25.06954.491.10496.726.10547h1.125c.225.00041.461-.03446.703-.10547l1.125-.328127c.499-.145528 1.009-.227277 1.524-.234375h.562l.563-.011718c.312-.004344.624-.028044.937-.070313l.563-.070312.562-.082032c.354-.0479.713-.101494 1.067-.164062l.562-.105469.563-.09375c.522-.0924736 1.056-.1132828 1.582-.0468749l.562.0703129.563.082031c.397.050227.798.106661 1.195.175781l.563.09375.562.105469c.351.061161.704.106168 1.055.152344l.562.082031.563.070312c.118.015545.25.000725.41-.058593l.562-.199219.563-.210938c.641-.238743 1.317-.289031 1.992-.128906l.563.128906.562.140625c.378.089999.759.177473 1.137.269532l.562.140625.563.12891c.329.08038.657.15174.984.19921l1.125.16407c.104.01511.226-.00076.375-.0586l.563-.21093.562-.22266c.557-.21441 1.147-.313577 1.746-.28125l.563.023437.562.035156c.387.020911.774.049944 1.16.082032l1.125.09375c.489.040551.979.134005 1.454.281245l1.125.35157c.222.06853.431.09919.632.09375l.563-.02344.562-.01172c.13-.00361.291-.03889.493-.14062l1.125-.562504c.651-.328414 1.377-.455479 2.121-.292969l.562.128906.563.117188c.204.044744.4.050618.597.023437l.563-.070312.562-.082031c.406-.05613.813-.099111 1.219-.128907l.563-.035156.562-.046875c.46-.03365.923-.021696 1.383.023438l.562.046875.563.058593c.201.019817.407.005679.621-.046875l1.125-.28125c.74-.182222 1.47-.072861 2.133.246094l.562.269531.504.246097.516-.21094.562-.234375c.636-.267043 1.286-.28055 1.887-.082032l.586.269532.562.328125.364.23437.375-.22265.562-.316408c.69-.39612 1.485-.534823 2.297-.292969l.563.164063.562.175781c.289.086313.577.135313.856.164063l1.125.11719c.194.01987.39.00539.597-.04688l1.125-.281248c.385-.097428.775-.192112 1.16-.28125l1.125-.257812.633-.070313c.616.002688 1.187.216181 1.676.550781l.562.375002.457.3164.364-.15234.562-.24609c.622-.260629 1.291-.344193 1.969-.222659l.563.105469.562.09375c.033.00599.094.02124.211-.03516l.562-.281247.563-.269531c.665-.321747 1.401-.4224082 2.144-.234375l.563.140625.562.152344c.328.083143.66.138796.985.1875l.562.09375.563.082031c.08.011291.179-.000261.316-.058594l1.125-.46875c.623-.263972 1.289-.3562556 1.969-.234375l.563.09375.562.105469c.428.077224.864.180616 1.289.304688l1.125.328125c.113.03234.209.02831.316 0l.563-.140625.562-.152344c.529-.138927 1.074-.190317 1.618-.152344l.562.035156.563.046875c.523.03707 1.037.144296 1.535.328125l1.125.421877c.027.00986.041.01137.047.01172 0 0 .016-.00073.047-.01172l.562-.19922.563-.210938c.683-.246938 1.403-.260479 2.097-.035156l.563.187504.468.16406 1.125-.656252.633-.269531c.227-.064091.473-.09964.727-.09375.252.0063.493.043964.715.117188l.609.292968.563.363277.562.35157v.01172l.492-.14063.563-.15234c.571-.154464 1.16-.18421 1.746-.09375l.562.08203.563.09375c.128.01993.264.00562.422-.04688l1.125-.374997c.618-.206263 1.267-.251189 1.91-.117187l1.125.234375c.34.070903.68.129429 1.019.175779l.563.08203.562.07032c.2.02721.403.02125.61-.02344l1.125-.234377c.351-.076147.702-.164807 1.054-.257812l1.125-.304688.633-.082031c.618-.016657 1.198.174679 1.7.503906l.562.375002.551.36328.469-.12891.562-.16406c.625-.17499 1.268-.18349 1.898-.02344l.563.14063.562.15234c.222.05652.437.07435.645.0586l1.125-.09375c.314-.0239.632-.06624.949-.12891l.563-.10547.562-.11719c.516-.10162 1.037-.1215 1.559-.07031l.562.04688.563.05859c.393.03876.79.08716 1.183.14062l.563.08204.562.07031c.271.03673.54.04388.809.02344l.563-.04688.562-.03516c.311-.02365.624-.06562.938-.1289l1.125-.23438c.271-.054829.555-.136526.843-.257809l.563-.234375.562-.246094c.665-.2793514 1.386-.342101 2.098-.152344l1.125.304688c.345.09178.688.176224 1.031.246094l.563.117187.562.105469c.246.049941.488.074614.727.058594l.562-.046875.563-.035157c.469-.031671.938-.021072 1.406.035157l1.125.140625c.051.00607.13-.00146.27-.07031l1.125-.562503.679-.222656c.236-.044713.484-.065439.738-.035156.249.029728.48.09696.692.1875l.586.339843.562.421872.258.19922.258-.17578.562-.386718.575-.304687c.397-.15929.825-.226121 1.265-.175782l.68.164063.562.234375.563.222656c.245.096713.477.146983.691.164063l.563.04687.562.03516c.313.02476.626.03759.938.02344l.562-.02344.563-.03516c.378-.01717.758-.03287 1.137-.04687l.562-.01172.563-.02344c.233-.0087.474-.05012.726-.128903l1.125-.351562c.846-.265928 1.673-.103512 2.367.328125l.563.35156.433.28125.399-.19922.562-.25781c.475-.221463.962-.394774 1.465-.492187l1.125-.210937c.786-.151779 1.537.029019 2.18.410156l.562.328128.563.33984c.063.03732.1.04568.105.04688l.563-.10547.562-.09375c.308-.05369.624-.12485.938-.22266l1.125-.351562.598-.128906c.591-.052998 1.166.089936 1.687.375l.563.304688.562.31641c.12.06556.162.04724.164.04687l1.125-.1875c.463-.07626.928-.10273 1.395-.09375l.562.01172h.563c.07.00137.186-.00617.363-.10547l1.125-.632812c.595-.334922 1.268-.523797 1.98-.46875l1.125.09375c.415.032179.829.086154 1.243.152344l.562.082031.563.09375c.227.036391.453.0426.679.011719l1.125-.164062c.443-.061012.891-.082779 1.336-.082032h1.125c.492.000931.983.051409 1.465.164063l.563.140625.562.128906c.382.089269.766.185156 1.148.281248l.563.14063.48.1289.024-.02343 1.125-.726567.598-.304687c.217-.076989.454-.126863.703-.140625.249-.013354.488.01476.715.070312l.644.246094.563.304688.539.304685.515-.175779.563-.1875c.527-.176166 1.074-.267413 1.629-.257813l1.125.023438c.457.007998.917.057832 1.371.140625l.562.09375.563.105469c.313.056948.627.100257.937.117187l.563.023438.562.035156c.413.022669.83.061999 1.242.117189l.563.07031.562.08203c.15.01943.307.00692.481-.04687l1.125-.351565c.409-.126732.819-.234891 1.23-.328125l1.125-.257813.61-.070312c.59-.006117 1.149.177703 1.64.480468l.563.339847.562.35156c.173.10575.272.11749.317.11719l.562-.01172h.563c.23-.00277.467-.04394.715-.11719l1.125-.32812c.714-.212255 1.442-.17136 2.121.10546l.562.23438.563.22266c.168.06876.304.09166.422.08203l.562-.0586.563-.04687c.156-.01381.352-.06018.574-.17578l1.125-.58594c.516-.268073 1.066-.447361 1.64-.515625l1.125-.140625.575-.011719c.569.044875 1.099.256877 1.558.5625l.563.374999.445.29297.375-.16406.563-.234378c.752-.324787 1.555-.334394 2.308-.011719l.563.246097.468.21093.516-.25781.563-.292967c.536-.272184 1.121-.383126 1.71-.304687l.586.140625.563.199219.516.1875 1.125-.5625c.525-.2654 1.095-.38028 1.675-.316407l.586.128907.563.175781.562.1875c.091.029072.163.024396.246 0l1.125-.328125c.642-.186984 1.301-.192178 1.946-.011719l.562.164063.563.152343c.094.026402.18.031282.281 0l1.125-.351562.609-.117188c.601-.049386 1.179.100304 1.699.398438l.563.316406.562.328123c.231.13265.429.1895.586.21094l.563.08203.562.07031c.138.0187.28.00746.446-.04687l.562-.1875.563-.17578c.425-.14059.859-.260836 1.289-.351565l1.125-.234375c.587-.123712 1.184-.121162 1.769.011718l1.125.257813c.3.067953.597.109152.891.128909l1.125.07031c.08.00533.198.00017.363-.08203l1.125-.562502.68-.234375c.461-.087414.92-.043698 1.348.117188l.609.328125.562.375004.446.3164.375-.16406.562-.234375c.571-.240161 1.179-.357829 1.805-.316407l.562.046875.563.035157c.203.013616.413-.011293.633-.070313l1.125-.304687c.694-.187418 1.401-.137868 2.062.117187l.563.222656.562.210938.012.011719.012-.011719 1.125-.445313c.646-.257457 1.338-.326381 2.027-.164062l.563.140625.562.128906c.194.045695.378.049821.563.023438l1.125-.164063c.448-.065172.908-.096767 1.359-.09375l.562.011719h.563c.331.00206.664-.009663.996-.035156l1.125-.09375c.689-.052508 1.343.112025 1.934.421875l.562.304687.434.234373.433-.234373.563-.292969c.522-.269211 1.094-.38703 1.676-.328125l.586.117188 1.125.351562c.076.023933.131.025999.21 0l.563-.1875.562-.175781c.754-.24552 1.526-.184122 2.227.140625l.563.257813.562.26953c.192.08801.349.11747.48.11719h.563l.562-.01172h2.262c.304-.00026.609-.01661.914-.05859l1.125-.164067c.477-.065711.963-.080406 1.442-.046875l.562.046875.563.035157c.101.00638.231-.005768.398-.082032l1.125-.515625.609-.199218c.408-.083463.819-.068989 1.219.035156l.598.222656.562.28125.563.292973c.171.0865.29.09761.375.09375l1.125-.04688c.323-.01483.648-.0462.973-.093749l1.125-.164063c.645-.094535 1.286-.008279 1.886.222652l.563.21094.515.19922.528-.26953.562-.269532c.549-.269684 1.14-.433524 1.758-.445312l1.125-.023438c.302-.005434.609-.032252.914-.082031l.563-.082031.562-.09375c.845-.1379973 1.614.117726 2.238.5625l.563.398434.269.19922.258-.17578.563-.386718c.494-.338931 1.076-.554917 1.699-.550781l.633.082031.562.128906.563.140625c.427.103884.855.236182 1.277.386719l1.125.398438c.068.02374.107.01827.164 0l1.125-.35156 1.653-.550784.562-.199219.68-.140625c.447-.030054.876.057058 1.265.234375l.563.328125.562.421878.563.41015c.075.05492.119.08559.14.09375l1.125-.07031c.075-.00454.201-.03699.399-.16406l.562-.35156.563-.363285c.537-.345305 1.162-.524689 1.805-.457032l.656.152344 1.125.421875c.169.062034.316.072972.445.058594l.563-.058594.562-.070312c.614-.067372 1.217.01481 1.793.222656l.563.199214.55.21094c.002-.00033.009-.00549.024-.01172l1.125-.492184c.558-.243867 1.155-.368529 1.769-.351563l.563.011719.562.023438c.569.01625 1.125.136126 1.653.351562l.562.234378.563.22265c.213.08716.403.12732.574.12891h.562l.563.01172c.273.00243.554-.02854.832-.08203l1.125-.21094c.61-.11644 1.222-.08963 1.816.08203l.563.16406.398.12891.528-.41016.562-.43359.61-.363282c.227-.09613.477-.167031.75-.1875.276-.020518.54.015498.785.082032l.679.292968 1.125.703122c.173.10707.269.10626.305.10547l1.125-.02344c.08-.00214.21-.01807.398-.1289l.563-.339845.562-.328125.668-.28125c.239-.061262.496-.089376.762-.070313.527.038179.975.251886 1.336.515625l.563.410158.527.39844.422-.12891.562-.16406c.574-.16622 1.165-.215148 1.758-.12891l1.125.16406c.183.0267.37.02283.563-.02343l.562-.12891.563-.140625c.563-.135052 1.138-.163006 1.711-.070313l1.125.187498c.308.05017.62.07449.925.08203l.563.02344.562.01172c.45.0112.901.05063 1.348.12891l.563.10546.562.09375c.291.0509.58.08023.867.08204h1.125c.306.00167.618-.00794.926-.04688l.562-.08203.563-.07031c.489-.06236.986-.06449 1.477-.01172l.562.05859.563.07031c.237.0258.485.01684.726-.02343l1.125-.1875c.471-.07841.943-.11036 1.418-.09375l.563.01172.562.02343c.327.01154.657.0082.984-.01172l1.125-.07031c.426-.02586.852-.02934 1.278-.01172l3.375.14063c.41.01751.821.04681 1.23.09375l1.125.14062c.283.03254.574.03188.856.01172l.562-.03515.563-.04688c.363-.026.726-.0491 1.09-.08203l.562-.05859.563-.04688c.428-.03891.859-.05521 1.289-.04687l1.125.02343c.327.00641.657.00153.984-.02343l1.125-.09375c.35-.02672.704-.0614 1.055-.10547l1.125-.140628c.527-.065989 1.058-.049475 1.582.046875l1.125.210933c.325.05979.648.09232.961.11719l1.101.09375c.271.02122.558.01852.856-.01172l1.148-.11718c.7-.0711 1.384.07761 1.992.43359l.493.29297.503.29297c.151.08697.313.14276.493.16406l.574.05859.586.07032c.457.0543.91.14817 1.359.26953l1.149.30468c.784.21206 1.406.71446 1.804 1.39454l.633 1.07812c.041.06839.069.08672.117.10547l.574.22266.575.21093c.433.1643.828.4469 1.125.85547.146.20121.251.41744.328.63281l.152.64454.082.67968.071.67969c.005.0441.006.07585.011.09375l.41.33982.434.3633c.417.3546.761.7775 1.031 1.2539l.27.4805.281.4804c.186.3284.369.6605.551.9961l.269.5039.258.4922c.309.5721.458 1.1962.434 1.8399l-.047 1.1484c-.012.3039-.001.5919.035.8555l.082.539.07.5274c.05.3603.094.7266.141 1.0898l.141 1.0782c.057.4459.076.9032.058 1.3593l-.047 1.125c-.013.342-.008.6894 0 1.0313l.024 1.125c.008.3347.036.6725.07 1.0078l.047.5625.059.5625c.024.2342.088.4798.187.7383l.211.5625.223.5625c.221.5798.312 1.1926.246 1.8164l-.071.5625-.058.5625c-.06.5526-.209 1.0961-.445 1.6055l-.27.5625-.258.5625c-.06.1313-.055.2102-.047.2695l.164 1.125c.044.2948.105.5994.2.9023l.351 1.125c.194.6231.219 1.2712.07 1.9102l-.257 1.125c-.017.0735-.018.1497.023.2578l.422 1.125c.193.5147.307 1.0483.328 1.5937l.047 1.125c.02.5211-.035 1.0388-.164 1.5469l-.152.5625-.141.5625c-.099.3893-.206.7829-.316 1.1719l-.153.5625-.152.5039.012.0117.656 1.125c.331.5656.536 1.1974.539 1.875v1.125c.001.6365-.164 1.2454-.445 1.8047l-.586 1.1602.328 1.125c.123.4238.227.8497.304 1.2773l.094.5625.106.5625c.083.4625.13.9277.129 1.3945l-.012.5625v.5625c-.002.5139-.071 1.0248-.211 1.5235l-.164.5625-.153.5625c-.068.2453-.106.4853-.105.7148l.012.5625v1.6875l.011.5625v.5625c.003.5222-.078 1.0412-.222 1.5469l-.153.5625-.164.5625c-.029.1031-.029.1896 0 .293l.329 1.125c.145.5048.211 1.0253.21 1.5468v1.125c0 .2834.031.5681.082.8555l.094.5625.106.5625c.086.4828.116.9772.093 1.4649l-.046 1.125c-.018.3848-.044.7753-.071 1.1601l-.07 1.125c-.022.3162-.026.6332-.012.9492l.047 1.125c.027.5923-.072 1.1706-.281 1.7227l-.211.5625-.223.5625c-.048.1258-.052.2193-.035.3047l.117.5625.106.5625c.096.488.137.9821.117 1.4765l-.047 1.125c-.013.3302-.004.6659.012.9961l.047 1.125c.016.3276.048.6558.093.9844l.164 1.125c.044.3123.104.6324.188.9492l.152.5625.141.5623c.2.751.105 1.496-.223 2.168l-.269.563-.281.562c-.115.235-.167.446-.188.633l-.07.563-.059.562c-.023.203-.012.409.035.621l.258 1.125c.064.284.156.581.281.879l.469 1.125c.298.709.329 1.468.07 2.203l-.199.563-.187.562c-.109.308-.199.614-.258.914l-.106.563-.117.562c-.06.305-.09.613-.105.914l-.035.563-.024.562c-.017.346-.026.698-.023 1.043v.563l.011.562c.002.088.027.214.129.399l.305.562.316.563c.317.565.505 1.196.504 1.863v1.125c-.001.706-.225 1.353-.586 1.922l-.363.562-.281.434.176.398.257.563c.246.544.391 1.122.399 1.723v.562l.012.563c.004.378.01.758.011 1.136v1.125c.002.487-.047.974-.152 1.453l-.129.563-.117.562c-.057.261-.088.522-.082.774l.012.562.023.563c.01.425-.001.852-.035 1.277l-.094 1.125c-.01.126.011.27.082.445l.445 1.125c.324.804.261 1.637-.128 2.379l-.586 1.125c-.014.027-.032.047-.036.059v.023l.141.563.129.562c.136.568.166 1.147.07 1.723l-.187 1.125c-.009.056-.011.132.047.258l.246.562.258.563c.26.574.388 1.188.351 1.828l-.023.562-.035.563c-.017.28-.003.562.035.844l.14 1.125c.061.459.09.921.071 1.383l-.047 1.125c-.017.421-.061.845-.117 1.265l-.071.563-.082.562c-.059.436-.145.869-.258 1.301l-.14.562-.153.563c-.083.321-.142.644-.187.961l-.164 1.125c-.025.179-.012.36.035.551l.281 1.125c.109.438.188.88.235 1.324l.117 1.125c.074.704-.083 1.377-.399 1.98l-.586 1.125c-.078.151-.086.242-.082.293l.059.563.047.562c.015.161.072.351.187.575l.293.562.282.563c.339.656.465 1.39.293 2.144l-.258 1.125c-.099.429-.217.865-.363 1.289l-.2.563-.187.562c-.061.176-.086.326-.071.469l.071.562.058.563c.052.479.05.962 0 1.441l-.117 1.125c-.033.321-.049.642-.047.961v.563l.012.562c.001.157.03.334.117.539l.246.563.235.562c.278.651.365 1.357.199 2.063l-.141.562-.129.563c-.07.299-.118.597-.14.89l-.094 1.125c-.012.161.017.336.082.528l.375 1.125c.164.481.272.977.316 1.476l.059.563.047.562c.066.75-.144 1.45-.516 2.051l-.351.563-.34.562c-.044.071-.064.118-.07.141-.005.018-.001.03 0 .035l.117 1.125c.016.151.075.339.199.562l.305.563.316.562c.363.656.516 1.405.34 2.18l-.258 1.125c-.069.302-.12.606-.141.902l-.07 1.125c-.031.448-.102.893-.199 1.336l-.129.563-.117.562c-.017.078-.02.166.023.282l.422 1.125c.235.624.309 1.282.176 1.945l-.234 1.125c-.037.182-.035.358 0 .539l.105.562.117.563c.066.338.142.68.235 1.02l.304 1.125c.172.626.186 1.269.024 1.898l-.153.562-.14.563c-.055.212-.076.412-.059.609l.059.563.047.562c.036.409.062.822.07 1.231v.562l.012.563c.007.405.006.814-.012 1.219l-.047 1.125c-.026.597-.187 1.173-.445 1.71l-.539 1.125c-.112.232-.171.441-.188.622l-.047.562-.058.563c-.019.206-.004.415.047.632l.14.563.129.562c.14.595.145 1.208.012 1.805l-.258 1.125c-.037.168-.033.327 0 .492l.117.563.106.562c.052.261.144.538.269.821l.492 1.125c.301.678.375 1.413.164 2.144l-.328 1.125c-.082.285-.14.57-.164.844l-.093 1.125c-.012.138.003.291.07.469l.422 1.125c.196.525.308 1.07.316 1.629l.012.562v.563c.01.692-.188 1.337-.527 1.91l-.34.562-.235.387.211.387.305.562c.423.785.453 1.666.059 2.484l-.27.563-.199.398.258.446.328.562c.446.764.529 1.651.152 2.496l-.258.563-.234.515.234.516.246.563c.272.615.376 1.287.27 1.968l-.082.563-.094.562c-.07.444-.172.887-.305 1.325l-.164.562-.175.563c-.062.203-.085.393-.071.574l.094 1.125c.024.315.067.631.129.949l.105.562.118.563c.137.707.033 1.404-.258 2.039l-.27.563-.258.562-.023.082.012.024.304 1.125c.122.445.206.895.258 1.347l.07.563.059.562c.036.308.097.625.176.938l.281 1.125c.22.882-.024 1.699-.492 2.355l-.399.563-.269.363.164.305.305.562c.29.536.481 1.111.527 1.723l.047.562.035.563c.053.706-.116 1.375-.445 1.969l-.633 1.125c-.1.179-.117.303-.117.386v1.125c0 .135.037.296.129.492l.257.563.27.562c.31.663.394 1.399.211 2.133l-.129.563-.141.562c-.093.375-.198.75-.293 1.125l-.281 1.125c-.034.137-.032.263 0 .399l.281 1.125c.068.277.159.572.293.867l.516 1.125c.254.557.398 1.15.387 1.769l-.024 1.125c-.012.714-.257 1.369-.632 1.934l-.375.562-.364.528.141.469.164.562c.146.503.22 1.016.223 1.535v.563l.011.562c.002.239.025.486.094.739l.164.562.152.563c.149.543.194 1.103.141 1.664l-.047.562-.058.563c-.036.378-.067.758-.106 1.136l-.117 1.125c-.055.531-.19 1.048-.398 1.547l-.235.563-.152.351.328.446.398.562c.272.376.481.85.493 1.406.011.56-.18 1.052-.446 1.442l-.386.562-.375.563-.083.14.047.563.059.562c.035.39.06.782.082 1.172l.035.563.024.562c.021.369.046.744.07 1.113l.035.563.047.562c.013.196.056.412.152.645l.469 1.125c.278.666.344 1.387.152 2.098l-.304 1.125c-.087.321-.162.643-.211.961l-.082.562-.094.563c-.018.116-.007.246.047.398l.398 1.125c.202.569.28 1.165.223 1.77l-.047.562-.059.563c-.035.376-.067.759-.105 1.136l-.117 1.125c-.032.32-.038.642-.035.961v1.125c.004.591-.115 1.167-.34 1.711l-.235.563-.222.504.246.55.258.563c.314.694.375 1.446.14 2.191l-.351 1.125c-.098.31-.173.623-.223.926l-.187 1.125c-.044.262-.052.527-.036.785l.071 1.125c.015.235.065.484.152.738l.375 1.125c.143.42.265.843.363 1.266l.129.563.141.562c.17.734.057 1.454-.258 2.109l-.539 1.125c-.049.103-.04.143-.035.165l.129.562.117.563c.105.491.145.989.129 1.488l-.012.562-.023.563c-.007.208.026.428.093.656l.329 1.125c.224.766.132 1.53-.211 2.215l-.293.562-.282.563.176.539.199.562c.144.426.259.859.352 1.29l.129.562.117.563c.137.631.107 1.271-.082 1.886l-.176.563-.164.562c-.113.367-.225.726-.328 1.078l-.164.551-.152.539c-.074.252-.124.52-.141.797l-.07 1.149c-.047.747-.351 1.42-.856 1.957l-.398.433-.41.434c-.074.078-.111.149-.129.246l-.211 1.172c-.152.856-.666 1.528-1.406 1.933l-1.079.586c-.091.05-.113.095-.128.129l-.469 1.055c-.213.477-.487.924-.821 1.324l-.363.434-.363.445c-.347.416-.759.77-1.219 1.055l-.48.293-.492.304c-.291.18-.575.372-.856.575l-.937.679c-.621.447-1.341.615-2.075.563l-.621-.035-.621-.047c-.115-.009-.157.015-.187.035l-.493.316-.48.317c-.441.285-.916.505-1.418.656l-1.102.328c-.616.185-1.249.198-1.875.059l-1.148-.258c-.046-.01-.095-.006-.187.035l-.563.246-.562.258c-.808.361-1.671.317-2.438-.082l-.562-.293-.434-.234-.422.234-.562.305c-.673.354-1.431.473-2.204.269l-1.125-.305c-.29-.077-.585-.118-.867-.14l-1.125-.094c-.128-.009-.271.014-.445.082l-1.125.445c-.937.371-1.852.14-2.566-.386l-.563-.41-.516-.387-.386.14-.563.176c-.404.131-.813.248-1.219.352l-.562.152-.563.141c-.517.132-1.05.182-1.582.152l-.562-.023-.563-.036c-.379-.021-.757-.044-1.136-.07l-.563-.035-.562-.047c-.214-.014-.43.014-.657.07l-1.125.282c-.596.149-1.214.153-1.816.023l-.562-.117-.563-.129c-.389-.084-.783-.172-1.172-.269l-1.125-.282c-.234-.058-.458-.08-.68-.07l-.562.023-.563.036c-.243.011-.501.048-.761.128l-1.125.352c-.642.198-1.307.211-1.957.035l-3.375-.914h-.024c-.007.001-.029.004-.07.024l-.563.257-.562.27c-.493.231-1.006.388-1.535.469l-.563.093-.562.082c-.652.1-1.294.015-1.899-.222l-1.125-.446c-.347-.136-.698-.251-1.043-.363l-.562-.187-.539-.176-.012.012-1.125.562c-.588.296-1.234.448-1.91.399l-.563-.047-.562-.035c-.285-.021-.57-.019-.856.011l-1.125.117c-.413.044-.828.072-1.242.082l-.562.012-.563.024c-.47.012-.94-.029-1.406-.106l-1.125-.187c-.159-.027-.32-.011-.492.035l-.563.152-.562.141c-.858.23-1.673.022-2.344-.422l-.562-.363-.364-.246-.316.187-.563.328c-.673.387-1.448.539-2.25.328l-.562-.152-.563-.141c-.325-.085-.65-.16-.972-.211l-.563-.082-.562-.093c-.151-.024-.311-.015-.481.035l-1.125.328c-.371.108-.742.229-1.113.34l-1.125.328c-.851.253-1.67.073-2.355-.363l-.563-.364-.504-.316-.422.164-.562.211c-.45.168-.909.3-1.371.387l-1.125.211c-.569.106-1.145.095-1.711-.024l-1.125-.234c-.307-.065-.611-.108-.914-.129l-.563-.035-.562-.047c-.466-.033-.937-.108-1.395-.223l-1.125-.281c-.122-.03-.236-.023-.363.012l-1.125.304c-.428.116-.858.204-1.289.27l-.563.094-.562.082c-.486.074-.976.096-1.465.058l-1.125-.094c-.547-.042-1.083-.172-1.594-.386l-.562-.246-.563-.235c-.011-.005-.019-.01-.023-.011l-.012.011-.562.199-.563.211c-.651.236-1.338.271-2.016.094l-.562-.14-.539-.153-.024.024-1.125.656c-.841.482-1.79.475-2.625-.012l-.562-.34-.41-.234-.375.211-.563.293c-.844.45-1.777.425-2.59-.047l-1.125-.656c-.176-.102-.287-.118-.351-.117l-.563.011h-.562c-.188.002-.388.046-.61.129l-1.125.422c-.547.207-1.124.314-1.71.293l-1.125-.047c-.426-.015-.853-.047-1.278-.105l-.562-.082-.563-.071c-.199-.027-.403-.021-.609.024l-1.125.234c-.625.134-1.254.111-1.863-.07l-.563-.164-.562-.176c-.092-.027-.165-.017-.258.012l-.563.164-.562.176c-.547.166-1.118.232-1.688.187l-1.125-.094c-.26-.02-.522-.014-.785.024l-1.125.164c-.383.055-.766.115-1.148.164l-1.125.14c-.629.08-1.252-.004-1.84-.222l-.563-.211-.562-.199c-.251-.094-.489-.147-.715-.164l-1.125-.094c-.404-.031-.815-.075-1.219-.129l-.562-.07-.563-.082c-.067-.009-.155.007-.293.07l-1.125.516c-.524.24-1.078.384-1.652.421l-1.125.071c-.645.041-1.274-.088-1.852-.352l-.562-.258-.539-.246-.516.223-.562.223c-.599.246-1.234.344-1.887.257l-.563-.07-.562-.082c-.381-.051-.768-.096-1.149-.152l-.562-.094-.563-.082c-.445-.066-.896-.164-1.335-.293l-.563-.164-.445-.129-.539.363-.563.387c-.616.417-1.359.66-2.168.551l-.562-.082-.563-.071c-.334-.045-.674-.075-1.008-.093l-1.125-.071c-.366-.02-.735-.031-1.101-.047l-1.125-.046c-.454-.02-.91-.075-1.36-.164l-.562-.118-.563-.105c-.276-.055-.549-.084-.82-.082h-1.125c-.208.001-.424.04-.656.117l-1.125.375c-.478.158-.971.259-1.465.305l-.562.047-.563.058c-.544.05-1.085.002-1.617-.129l-.563-.129-.562-.14c-.42-.103-.838-.232-1.254-.375l-.563-.188-.562-.199c-.21-.072-.406-.1-.586-.094l-1.125.047c-.44.016-.885.007-1.324-.035l-.563-.059-.562-.046c-.019-.002-.08-.007-.211.07l-.563.34-.562.328c-.743.439-1.615.544-2.461.199l-.563-.234-.55-.223-.539.246-.563.234c-.674.292-1.398.357-2.121.153l-.563-.153-.562-.164c-.263-.074-.523-.119-.773-.129l-.563-.011-.562-.024c-.195-.007-.403.013-.622.082l-.562.188-.563.176c-.578.182-1.177.236-1.781.152l-.562-.082-.563-.07c-.501-.07-.997-.208-1.476-.399l-1.125-.445c-.11-.043-.18-.049-.246-.035l-.563.129-.562.117c-.524.114-1.062.145-1.594.094l-.563-.047-.562-.059c-.145-.013-.301.007-.481.07l-1.125.399c-.762.268-1.547.206-2.261-.129l-.563-.258-.562-.269c-.194-.091-.351-.118-.481-.118h-.562l-.563.012c-.27.001-.543.025-.82.082l-1.125.235c-.301.062-.616.156-.926.269l-.562.199-.563.211c-.529.193-1.079.295-1.641.293h-.562l-.563-.012c-.519-.001-1.032-.075-1.535-.222l-1.125-.328c-.364-.107-.738-.207-1.101-.305l-1.125-.305c-.277-.074-.554-.114-.821-.129l-1.125-.07c-.112-.005-.248.017-.421.094l-.563.258-.562.246c-.655.293-1.369.38-2.086.211l-1.125-.258c-.251-.059-.498-.089-.739-.082l-.562.012-.563.023c-.189.006-.396.041-.621.129l-1.125.445c-.543.213-1.115.327-1.699.317l-1.125-.024c-.578-.011-1.142-.141-1.676-.363l-1.125-.469c-.269-.112-.527-.183-.773-.222l-.563-.094-.562-.082c-.266-.042-.534-.052-.797-.035l-1.125.07c-.508.032-1.022-.005-1.524-.106l-.562-.117-.563-.105c-.269-.054-.533-.086-.796-.082l-1.125.023c-.265.005-.536.041-.809.106l-1.125.257c-.265.063-.545.169-.832.305l-.563.27-.562.257c-.619.294-1.294.424-1.992.317l-.563-.094-.562-.082c-.271-.041-.541-.051-.809-.035l-.562.035-.563.024c-.732.043-1.413-.165-2.004-.528l-.562-.34-.446-.281-.398.188-.562.246c-.452.204-.915.364-1.383.48l-1.125.281c-.705.174-1.408.111-2.063-.164l-.562-.246-.563-.234c-.318-.134-.639-.243-.949-.328l-1.125-.305v-.012l-.023.012c-.01.003-.028.002-.047.012l-.563.281-.562.27c-.671.322-1.411.408-2.157.211l-.562-.141-.563-.152c-.308-.082-.622-.14-.925-.176l-1.125-.141c-.021-.002-.086 0-.211.07l-1.125.633c-.585.33-1.236.516-1.934.481l-1.125-.047c-.654-.033-1.266-.248-1.816-.574l-.563-.328-.469-.282-.41.188-.562.246c-.522.229-1.074.375-1.641.41l-1.125.07c-.498.031-.996-.002-1.488-.093l-1.125-.211c-.286-.054-.574-.082-.856-.082h-1.125c-.413-.001-.828-.013-1.242-.047l-1.125-.094c-.336-.028-.672-.044-1.008-.047h-.562l-.563-.012c-.172-.001-.363.036-.574.118l-.562.211-.563.222c-.622.241-1.291.315-1.957.188l-.562-.118-.563-.105c-.234-.044-.463-.058-.691-.035l-1.125.117c-.675.066-1.327-.067-1.922-.352l-1.125-.539h-.012l-.515.188-.563.199c-.63.226-1.296.286-1.957.141l-1.125-.258c-.117-.026-.23-.017-.363.023l-.563.164-.562.176c-.665.203-1.353.196-2.016-.011l-1.125-.352c-.227-.071-.44-.097-.644-.094l-1.125.024c-.433.008-.869-.017-1.301-.059l-.563-.047-.562-.058c-.358-.035-.721-.072-1.078-.094l-2.813-.176-.562-.047c-.002 0-.067-.005-.223.094l-.562.351-.563.364c-.582.369-1.251.588-1.98.562l-.563-.011-.562-.024c-.34-.012-.681-.011-1.02 0l-.562.012-.563.023c-.413.014-.829.006-1.242-.011l-1.125-.047c-.601-.026-1.173-.184-1.711-.446l-.563-.269-.562-.281c-.1-.049-.144-.04-.164-.036l-.563.118-.562.129c-.278.058-.562.147-.856.269l-.562.223-.563.234c-.553.23-1.143.355-1.746.34l-.562-.012-.563-.023c-.683-.018-1.315-.239-1.875-.586l-.562-.34-.516-.328-.445.164-.563.199c-.637.224-1.305.264-1.968.106l-.563-.141-.562-.129c-.042-.01-.092-.018-.188.024l-.562.246-.563.234c-.79.339-1.622.304-2.379-.07l-.562-.282-.457-.234-.457.246-.563.281c-.784.397-1.65.419-2.449.036l-1.125-.54-.024-.011-.539.187-.562.188c-.565.189-1.151.258-1.746.199l-.563-.047-.562-.058c-.51-.052-1.013-.171-1.5-.352l-1.125-.422c-.016-.006-.029-.01-.035-.012h-.024c-.006.002-.02.007-.035.012l-.562.199-.563.211c-.515.187-1.049.29-1.594.305l-.562.012-.563.023c-.39.01-.781.014-1.172.012h-.562l-.563-.012c-.588-.003-1.158-.123-1.699-.351l-.562-.247-.41-.175-.446.304-.562.364c-.549.354-1.167.599-1.84.644l-1.125.07c-.595.04-1.176-.055-1.734-.257l-.563-.2-.562-.211c-.261-.094-.512-.142-.75-.164l-.563-.046-.562-.059c-.08-.007-.184.008-.34.082l-1.125.539c-.896.427-1.832.299-2.602-.211l-.562-.375-.305-.199-.293.199-.563.363c-.78.512-1.723.628-2.613.188l-.562-.281-.457-.235-.446.246-.562.282c-.709.365-1.499.452-2.285.187l-1.125-.375c-.22-.074-.429-.108-.621-.105l-1.125.023c-.486.008-.974-.043-1.454-.141l-.562-.105-.563-.117c-.229-.047-.457-.058-.679-.035l-1.125.117c-.48.048-.962.043-1.442-.012l-.562-.07-.563-.059c-.32-.037-.641-.057-.961-.058h-.562l-.563-.012c-.386-.002-.773 0-1.16-.012l-.562-.023-.563-.012c-.279-.008-.561.014-.843.059l-.563.082-.562.093c-.292.047-.59.124-.891.223l-.563.176-.562.187c-.637.211-1.302.245-1.957.082l-1.125-.281c-.276-.069-.554-.108-.82-.117l-.563-.024-.562-.011c-.183-.006-.375.023-.586.094l-1.125.375c-.705.238-1.439.222-2.133-.036l-.563-.199-.562-.211c-.268-.099-.526-.158-.774-.187l-1.125-.141c-.389-.045-.782-.095-1.172-.152l-1.125-.164c-.137-.021-.28-.007-.445.047l-.562.175-.563.188c-.565.182-1.154.238-1.746.176l-1.125-.118c-.409-.043-.822-.092-1.23-.164l-.563-.105-.562-.094c-.127-.022-.26-.024-.411.024l-.562.187-.563.176c-.448.143-.901.25-1.359.316l-1.125.164c-.526.076-1.057.075-1.582-.011l-1.125-.188c-.331-.055-.666-.104-.996-.129l-.563-.035-.562-.047c-.491-.037-.976-.135-1.453-.281l-.563-.164-.562-.176c-.133-.041-.247-.048-.363-.023l-.563.129-.562.117c-.475.103-.96.161-1.442.164h-.562l-.563.012c-.198.001-.406.038-.633.117l-.562.187-.563.199c-.813.285-1.64.175-2.355-.222l-.563-.305-.562-.316c-.209-.115-.374-.154-.504-.164l-1.125-.094c-.025-.002-.104.004-.258.094l-1.125.656c-.77.45-1.662.529-2.508.14l-.562-.269-.563-.258c-.249-.115-.48-.171-.691-.199l-.563-.082-.562-.07c-.218-.029-.434-.018-.656.023l-.563.094-.562.105c-.322.06-.648.137-.973.235l-.562.175-.563.164c-.397.119-.797.23-1.195.329l-1.125.281c-.505.124-1.019.183-1.535.164l-1.125-.047c-.45-.016-.902-.07-1.348-.152l-.563-.094-.562-.106c-.491-.09-.972-.244-1.442-.445l-.562-.246-.469-.199-.48.269-.563.293c-.598.318-1.268.485-1.968.422l-.563-.058-.562-.047c-.211-.019-.424-.005-.645.047l-.563.129-.562.14c-.837.195-1.628-.018-2.285-.445l-.563-.363-.398-.258-.34.187-.562.293c-.795.414-1.677.424-2.485.024l-1.125-.563c-.17-.085-.299-.098-.387-.094l-.562.036-.563.023c-.286.016-.574.063-.867.129l-.562.129-.563.117c-.342.078-.687.169-1.031.27l-.562.175-.563.164c-.738.217-1.486.145-2.168-.164l-1.125-.515c-.194-.088-.359-.119-.492-.118l-1.125.024c-.348.005-.695.013-1.043.035l-1.125.07c-.172.011-.374.061-.598.164l-.562.258-.563.27c-.62.286-1.297.393-1.992.281l-.562-.082-.563-.094c-.463-.074-.919-.196-1.371-.351l-.563-.188-.562-.199c-.297-.102-.593-.165-.879-.211l-1.125-.187c-.247-.039-.494-.048-.738-.024l-1.125.117c-.218.022-.454.073-.703.176l-1.125.469c-.503.207-1.024.338-1.559.387l-.562.058-.563.047c-.418.038-.836.058-1.254.059h-1.125c-.389 0-.782 0-1.172-.012l-.562-.024-.563-.011c-.695-.022-1.338-.26-1.898-.621l-1.125-.727c-.155-.1-.229-.106-.246-.105l-1.125.046c-.038.002-.148.021-.34.153l-1.125.773c-.367.252-.819.442-1.336.469-.522.027-.996-.119-1.395-.352l-1.125-.656c-.189-.11-.322-.137-.41-.14l-.562-.024-.563-.012c-.188-.005-.393.022-.609.094l-1.125.375c-.645.216-1.318.244-1.981.07l-.562-.14-.563-.152c-.008.002-.027.007-.058.023l-.563.293-.562.281c-.69.353-1.464.454-2.238.223l-1.125-.328c-.11-.033-.202-.039-.305-.012l-1.125.305c-.879.235-1.712.007-2.379-.457l-.563-.387-.316-.223-.269.176-.563.363c-.689.434-1.519.608-2.367.352l-.563-.176-.562-.164c-.318-.096-.637-.179-.949-.234l-.563-.094-.562-.106c-.321-.056-.642-.096-.961-.117l-1.125-.07c-.36-.024-.719-.046-1.078-.059l-.563-.011-.562-.024c-.041-.001-.137.005-.305.106l-.563.34-.562.328c-.562.336-1.187.55-1.863.562l-1.125.024c-.482.008-.966-.036-1.442-.129l-.562-.118-.563-.105c-.485-.095-.964-.246-1.43-.445l-.562-.246-.563-.235c-.133-.057-.219-.058-.292-.047l-.563.082-.562.094c-.435.07-.876.113-1.313.129l-1.125.047c-.181.007-.377.049-.598.141l-.562.222-.563.235c-.648.268-1.352.339-2.05.175l-1.125-.257c-.431-.102-.864-.235-1.2895-.387l-1.125-.399c-.0857-.03-.1442-.03-.2109-.011l-.5625.164-.5625.152c-.6109.172-1.2422.199-1.8633.059l-1.125-.258c-.2088-.047-.4094-.059-.6094-.035l-1.125.14c-.3016.037-.6068.094-.914.176l-1.125.305c-.6178.165-1.2535.165-1.875.012l-1.125-.282c-.2702-.066-.5364-.099-.7969-.105l-1.125-.024c-.2011-.004-.4197.022-.6445.094l-.5625.188-.5625.175c-.6017.192-1.2267.234-1.8516.118l-1.125-.211c-.4671-.087-.9293-.213-1.3828-.387l-.5625-.223-.4453-.176-.4805.317-.5625.351c-.7551.467-1.6537.577-2.5195.2l-.5625-.246-.4922-.223-.4922.258-.5625.281c-.7057.349-1.4888.434-2.2617.176l-.5625-.199-.5625-.188c-.1362-.046-.2538-.045-.3633-.023l-.5625.105-.5625.117c-.4991.099-1.006.139-1.5117.106l-.5625-.047-.5625-.035c-.2062-.013-.4229.011-.6446.07l-1.125.305c-.7707.203-1.5308.083-2.2031-.27l-.5625-.305-.5625-.292c-.1888-.1-.3295-.129-.4336-.129h-1.125c-.3778-.002-.7589-.008-1.1367-.012l-.5625-.012h-.5625c-.0649 0-.1749.015-.3516.117l-1.125.657c-.6254.363-1.3494.536-2.1093.421l-1.125-.164c-.5406-.082-1.0607-.258-1.5586-.503l-.961-.481-.4218.258-.5625.34c-.5871.349-1.2527.552-1.9688.515l-.5625-.035-.5625-.023c-.3547-.019-.7117-.03-1.0664-.035l-1.125-.024c-.4286-.006-.8617-.029-1.2891-.082l-1.125-.141c-.3498-.043-.7052-.079-1.0546-.105l-.5625-.047-.5625-.035c-.5571-.041-1.1014-.186-1.6172-.41l-.5625-.246-.4219-.188-.4688.281-.5625.329c-.8046.469-1.7317.511-2.5781.07l-.5625-.293-.4453-.234-.4219.222-.5625.293c-.5706.291-1.1967.452-1.8515.434l-.5625-.024-.5625-.011c-.6071-.018-1.191-.172-1.7344-.434l-.5625-.269-.5625-.282c-.2072-.099-.3848-.136-.5274-.14l-.5507-.012-.5625-.024c-.3918-.012-.7807-.031-1.1602-.058l-.5508-.035-.539-.047c-.4-.029-.7991-.067-1.1953-.129l-.5391-.082-.5274-.094c-.4551-.071-.9041-.18-1.3359-.34l-.5156-.187-.5039-.188c-.2658-.098-.5418-.185-.8321-.246l-.5507-.105-.5391-.117c-.4431-.093-.8768-.223-1.3008-.387l-.5273-.199-.5274-.211c-.2748-.107-.5849-.202-.9257-.282l-.5977-.14-.60938-.141c-.76555-.178-1.41395-.614-1.85156-1.289l-.32813-.504-.32812-.492c-.11351-.175-.24388-.327-.41016-.445l-.49218-.34-.48047-.34c-.62071-.439-1.04045-1.056-1.23047-1.781l-.15235-.598-.15234-.586c-.11809-.451-.20882-.907-.26953-1.359l-.08203-.574-.08203-.586c-.03335-.248-.09299-.459-.17578-.633l-.23438-.492-.23437-.481c-.2069-.435-.34859-.899-.44532-1.371l-.11718-.527-.10547-.528c-.01698-.083-.06586-.216-.21094-.398l-.79688-1.008c-.492219-.618-.752703-1.379-.632808-2.215l.164062-1.148c.025586-.177.024463-.35-.023437-.527l-.304688-1.125c-.184204-.681-.154571-1.371.082032-2.028l.199218-.562.210938-.563v-.047c-.001171-.006-.005008-.017-.011719-.035l-.421875-1.125c-.272925-.718-.2725-1.473 0-2.191l.421875-1.125c.033351-.088.039445-.141.023438-.199l-.164063-.563-.152344-.562c-.18295-.671-.154064-1.352.070313-2.004l.199219-.563.187499-.562c.04656-.135.05504-.246.03516-.352l-.11719-.562-.105469-.563c-.062909-.325-.137892-.656-.234375-.984l-.164063-.563-.175781-.562c-.141657-.482-.21891-.982-.2460939-1.477l-.07031248-1.125c-.02577562-.477-.001796-.956.07031248-1.43l.0937499-.562.082031-.563c.088577-.579.292908-1.128.585938-1.64l.328123-.563.16406-.293-.24609-.328-.410156-.562c-.436612-.603-.7175799-1.347-.6328121-2.168l.1171871-1.125c.029261-.286.033202-.571.011719-.856l-.035156-.562-.0468751-.563c-.0359397-.477-.0158468-.954.0468751-1.429l.140625-1.125c.037725-.286.048232-.573.035156-.856l-.046875-1.125c-.02347-.496.011103-.998.105469-1.488l.210937-1.125c.033036-.173.037739-.34 0-.516l-.128906-.562-.117187-.563c-.173689-.798-.002222-1.562.386718-2.215l.339841-.562.21094-.352-.22266-.351-.339839-.563c-.415346-.677-.592711-1.479-.363282-2.308l.164063-.563.152344-.562c.0962-.348.181197-.696.257812-1.043l.128902-.563.11719-.539-.03515-.082-.316411-.562-.328125-.563c-.379602-.665-.5229474-1.433-.328125-2.226l.140625-.563.128907-.562c.121119-.493.304002-.976.539062-1.442l.292967-.562.28125-.563c.10012-.198.12653-.356.12891-.48l.02344-1.125c.00205-.109-.01552-.25-.10547-.434l-.5625-1.125c-.24009-.488-.411218-.998-.503909-1.523l-.09375-.563-.105469-.562c-.075502-.431-.126682-.868-.152344-1.301l-.035156-.563-.023438-.562c-.0427083-.721.152224-1.391.503907-1.981l.679689-1.125-.15235-.492-.164058-.562c-.177685-.601-.214488-1.223-.09375-1.84l.117188-.563.10547-.562c.0258-.131.02055-.262-.02344-.41l-.328124-1.125c-.209243-.705-.170627-1.423.09375-2.098l.445314-1.125c.06644-.169.08159-.311.07031-.434l-.11719-1.125c-.05053-.525-.01278-1.052.09375-1.57l.23438-1.125c.05915-.286.08804-.574.09375-.855l.02344-1.125c.00002-.002-.00439-.015-.01172-.035-.01165-.032-.04291-.091-.10547-.176l-.820314-1.125c-.274835-.376-.493103-.856-.503907-1.418-.010349-.566.198494-1.064.46875-1.453l.386721-.563.1875-.269-.1875-.27-.386721-.562c-.260926-.379-.460619-.853-.46875-1.395-.007085-.542.17815-1.019.433594-1.406l.374997-.563.36328-.562c.05084-.077.07714-.124.08204-.141v-.012l-.11719-1.125c-.01189-.118-.05791-.278-.1875-.492l-.679689-1.125c-.242187-.4-.39093-.883-.363282-1.418.028355-.53.230802-.992.492188-1.359l.398433-.563.30469-.433-.15234-.34-.246096-.563c-.251659-.575-.371289-1.192-.328125-1.828l.035157-.562.046875-.563c.028485-.412.069162-.83.128906-1.242l.164063-1.125c.04408-.304.07021-.612.07031-.914v-1.125c-.00015-.295-.02454-.592-.07031-.891l-.093751-.562-.082031-.563c-.069934-.454-.09875-.913-.09375-1.371v-.562l.011719-.563c.005384-.487.06366-.974.175781-1.453z"/></g></svg>