<?xml version="1.0" encoding="UTF-8" standalone="no"?>
<!DOCTYPE svg PUBLIC "-//W3C//DTD SVG 1.1//EN" "http://www.w3.org/Graphics/SVG/1.1/DTD/svg11.dtd">
<svg width="100%" height="100%" viewBox="0 0 185 65" version="1.1" xmlns="http://www.w3.org/2000/svg" xmlns:xlink="http://www.w3.org/1999/xlink" xml:space="preserve" xmlns:serif="http://www.serif.com/" style="fill-rule:evenodd;clip-rule:evenodd;stroke-linejoin:round;stroke-miterlimit:2;">
    <path d="M1.383,32.349C1.383,15.781 14.814,2.349 31.383,2.349L152.383,2.349C168.951,2.349 182.383,15.781 182.383,32.349C182.383,48.918 168.951,62.349 152.383,62.349L31.383,62.349C14.814,62.349 1.383,48.918 1.383,32.349Z" style="fill:rgb(249,55,91);fill-rule:nonzero;"/>
    <path d="M32.958,1.909L33.361,3.354L32.958,1.909ZM34.008,1.794L34.098,0.297L34.008,1.794ZM37.158,2.813L36.399,4.107L37.158,2.813ZM38.208,3.07L38.354,4.563L38.208,3.07ZM39.258,2.967L39.112,1.474L39.258,2.967ZM40.308,2.575L39.491,1.317L40.308,2.575ZM41.358,1.893L40.541,0.635L41.358,1.893ZM42.408,1.874L43.192,0.596L42.408,1.874ZM43.458,2.518L42.673,3.797L43.458,2.518ZM44.508,2.906L44.692,1.417L44.508,2.906ZM45.558,3.035L45.374,4.524L45.558,3.035ZM46.608,3.081L46.553,1.582L46.608,3.081ZM47.658,3.043L47.603,1.544L47.658,3.043ZM49.758,3.063L49.72,4.562L49.758,3.063ZM50.808,3.008L50.615,1.521L50.808,3.008ZM51.858,2.872L52.05,4.36L51.858,2.872ZM52.908,2.626L53.391,4.046L52.908,2.626ZM53.958,2.269L53.475,0.849L53.958,2.269ZM55.008,2.369L54.304,3.694L55.008,2.369ZM56.058,2.926L56.761,1.602L56.058,2.926ZM57.108,3.058L57.512,4.503L57.108,3.058ZM58.158,2.765L57.754,1.32L58.158,2.765ZM59.208,2.713L59.476,1.237L59.208,2.713ZM60.258,2.904L59.989,4.38L60.258,2.904ZM61.308,2.712L62.029,4.028L61.308,2.712ZM62.358,2.137L61.637,0.821L62.358,2.137ZM63.408,1.842L63.387,0.342L63.408,1.842ZM65.508,2.161L66.325,0.903L65.508,2.161ZM66.033,2.502L65.215,3.76L66.033,2.502ZM66.558,2.843L65.74,4.101L66.558,2.843ZM67.608,2.792L68.507,3.993L67.608,2.792ZM68.658,2.006L67.759,0.805L68.658,2.006ZM71.808,2.328L72.17,0.872L71.808,2.328ZM72.858,2.589L72.496,4.045L72.858,2.589ZM73.908,2.812L74.168,1.335L73.908,2.812ZM74.433,2.904L74.693,1.427L74.433,2.904ZM74.958,2.997L74.698,4.474L74.958,2.997ZM76.008,2.75L76.821,4.01L76.008,2.75ZM76.533,2.411L75.719,1.151L76.533,2.411ZM77.058,2.072L76.244,0.812L77.058,2.072ZM79.158,2.602L79.882,1.288L79.158,2.602ZM80.208,2.747L80.606,4.193L80.208,2.747ZM80.733,2.602L80.335,1.156L80.733,2.602ZM81.258,2.458L80.86,1.012L81.258,2.458ZM82.308,2.268L82.437,3.762L82.308,2.268ZM83.358,2.177L83.228,0.682L83.358,2.177ZM84.933,2.077L84.855,0.579L84.933,2.077ZM85.458,2.05L85.536,3.548L85.458,2.05ZM86.508,2.153L86.145,3.609L86.508,2.153ZM87.033,2.284L87.396,0.829L87.033,2.284ZM89.658,2.587L89.619,4.087L89.658,2.587ZM90.708,2.445L91.136,3.882L90.708,2.445ZM91.758,2.132L91.33,0.694L91.758,2.132ZM92.808,2.061L92.567,3.542L92.808,2.061ZM93.858,2.233L94.099,0.752L93.858,2.233ZM95.433,2.474L95.212,3.958L95.433,2.474ZM95.958,2.552L96.178,1.068L95.958,2.552ZM97.008,2.425L96.463,1.028L97.008,2.425ZM97.533,2.221L98.078,3.618L97.533,2.221ZM99.633,1.972L99.405,3.455L99.633,1.972ZM100.158,2.052L100.385,0.57L100.158,2.052ZM101.208,1.966L101.663,3.395L101.208,1.966ZM101.733,1.799L101.278,0.369L101.733,1.799ZM102.258,1.631L101.803,0.202L102.258,1.631ZM103.308,1.51L103.179,3.004L103.308,1.51ZM104.358,1.6L104.487,0.106L104.358,1.6ZM105.408,1.752L105.706,0.282L105.408,1.752ZM106.458,1.965L106.16,3.435L106.458,1.965ZM107.508,2.226L107.082,3.665L107.508,2.226ZM108.033,2.382L108.459,0.943L108.033,2.382ZM108.558,2.537L108.984,1.099L108.558,2.537ZM110.133,2.41L109.743,0.961L110.133,2.41ZM110.658,2.269L111.048,3.717L110.658,2.269ZM111.708,2.23L111.996,0.758L111.708,2.23ZM112.758,2.435L112.47,3.907L112.758,2.435ZM113.808,2.68L113.416,4.128L113.808,2.68ZM114.858,2.965L115.25,1.517L114.858,2.965ZM115.908,2.908L115.377,1.505L115.908,2.908ZM116.433,2.71L116.963,4.113L116.433,2.71ZM118.008,2.43L117.681,3.894L118.008,2.43ZM119.058,2.665L119.385,1.201L119.058,2.665ZM120.108,2.797L120.064,4.297L120.108,2.797ZM120.633,2.813L120.589,4.312L120.633,2.813ZM121.158,2.828L121.202,1.329L121.158,2.828ZM122.208,2.562L122.917,3.884L122.208,2.562ZM123.258,1.999L122.549,0.677L123.258,1.999ZM124.308,2.098L123.427,3.313L124.308,2.098ZM124.833,2.479L125.713,1.265L124.833,2.479ZM126.408,2.922L125.63,1.639L126.408,2.922ZM126.933,2.604L126.155,1.321L126.933,2.604ZM127.458,2.286L128.235,3.569L127.458,2.286ZM128.508,1.859L128.205,0.39L128.508,1.859ZM129.558,1.643L129.861,3.112L129.558,1.643ZM130.608,1.864L129.811,3.135L130.608,1.864ZM131.658,2.523L132.455,1.252L131.658,2.523ZM132.708,2.51L131.889,1.253L132.708,2.51ZM133.758,1.826L134.576,3.083L133.758,1.826ZM134.808,1.833L133.978,3.083L134.808,1.833ZM135.858,2.531L136.688,1.281L135.858,2.531ZM136.908,2.811L137.101,4.299L136.908,2.811ZM137.958,2.675L137.765,1.187L137.958,2.675ZM139.008,2.684L138.788,4.168L139.008,2.684ZM140.058,2.84L139.838,4.323L140.058,2.84ZM141.108,2.68L141.726,4.046L141.108,2.68ZM141.633,2.442L141.014,1.075L141.633,2.442ZM142.158,2.204L142.776,3.571L142.158,2.204ZM143.208,2.106L142.823,3.556L143.208,2.106ZM144.258,2.385L144.643,0.935L144.258,2.385ZM145.308,2.481L145.184,0.986L145.308,2.481ZM146.358,2.394L146.234,0.899L146.358,2.394ZM147.408,2.306L147.535,3.8L147.408,2.306ZM147.933,2.261L147.806,0.767L147.933,2.261ZM148.458,2.217L148.585,3.711L148.458,2.217ZM149.508,2.019L149.088,0.579L149.508,2.019ZM150.558,1.712L150.978,3.152L150.558,1.712ZM151.61,1.687L151.259,3.145L151.61,1.687ZM152.665,1.941L153.017,0.483L152.665,1.941ZM157.916,2.55L156.845,3.6L157.916,2.55ZM158.802,3.453L159.873,2.402L158.802,3.453ZM160.811,4.041L160.68,5.535L160.811,4.041ZM161.856,4.173L161.612,5.653L161.856,4.173ZM162.379,4.259L162.623,2.779L162.379,4.259ZM162.903,4.345L163.146,2.865L162.903,4.345ZM164.358,4.915L165.049,3.584L164.358,4.915ZM164.824,5.157L164.132,6.488L164.824,5.157ZM165.798,5.563L165.338,6.99L165.798,5.563ZM166.306,5.726L165.846,7.154L166.306,5.726ZM166.814,5.89L167.274,4.462L166.814,5.89ZM167.851,6.213L168.284,4.777L167.851,6.213ZM168.38,6.372L167.947,7.809L168.38,6.372ZM168.909,6.532L169.342,5.096L168.909,6.532ZM169.674,7.267L168.286,7.836L169.674,7.267ZM169.91,7.843L171.298,7.274L169.91,7.843ZM170.985,9.093L170.741,10.573L170.985,9.093ZM172.189,9.291L171.946,10.771L172.189,9.291ZM172.935,10L174.395,9.656L172.935,10ZM173.079,10.611L171.619,10.955L173.079,10.611ZM173.223,11.221L171.764,11.566L173.223,11.221ZM173.989,11.976L173.649,13.437L173.989,11.976ZM175.233,12.266L175.574,10.806L175.233,12.266ZM176.167,12.85L177.389,11.98L176.167,12.85ZM176.48,13.289L177.701,12.418L176.48,13.289ZM176.792,13.727L178.014,12.857L176.792,13.727ZM177.21,14.734L178.685,14.46L177.21,14.734ZM177.316,15.303L178.791,15.028L177.316,15.303ZM177.421,15.871L175.947,16.145L177.421,15.871ZM177.755,16.908L179.104,16.253L177.755,16.908ZM177.982,17.376L176.633,18.031L177.982,17.376ZM178.21,17.845L176.86,18.5L178.21,17.845ZM178.661,18.78L180.013,18.129L178.661,18.78ZM178.886,19.246L177.534,19.896L178.886,19.246ZM179.11,19.712L180.462,19.062L179.11,19.712ZM179.755,20.574L178.727,21.667L179.755,20.574ZM180.176,20.97L181.203,19.877L180.176,20.97ZM180.596,21.365L181.624,20.273L180.596,21.365ZM181.177,22.27L182.608,21.821L181.177,22.27ZM181.497,23.289L182.928,22.839L181.497,23.289ZM181.663,24.342L180.163,24.36L181.663,24.342ZM181.924,26.47L183.272,25.812L181.924,26.47ZM182.165,26.965L183.513,26.307L182.165,26.965ZM182.407,27.459L181.059,28.117L182.407,27.459ZM182.458,28.504L181.04,28.014L182.458,28.504ZM182.077,29.604L183.495,30.095L182.077,29.604ZM182.223,30.67L180.966,31.489L182.223,30.67ZM182.896,31.703L184.153,30.884L182.896,31.703ZM183.2,32.758L184.697,32.849L183.2,32.758ZM183.167,33.297L181.67,33.207L183.167,33.297ZM183.025,34.908L181.541,34.692L183.025,34.908ZM182.87,35.973L184.354,36.189L182.87,35.973ZM182.377,36.967L183.491,37.971L182.377,36.967ZM181.545,37.89L180.431,36.886L181.545,37.89ZM181.361,38.951L182.76,38.41L181.361,38.951ZM181.593,39.55L182.992,39.009L181.593,39.55ZM181.824,40.149L180.425,40.689L181.824,40.149ZM181.713,41.197L180.52,40.288L181.713,41.197ZM181.027,42.096L182.219,43.006L181.027,42.096ZM180.482,43.032L181.868,43.606L180.482,43.032ZM180.079,44.004L178.694,43.429L180.079,44.004ZM179.465,44.865L178.456,43.756L179.465,44.865ZM179.051,45.241L180.061,46.351L179.051,45.241ZM178.638,45.617L179.647,46.727L178.638,45.617ZM178.042,46.48L176.638,45.952L178.042,46.48ZM177.675,47.456L179.079,47.984L177.675,47.456ZM176.946,50.752L177.798,51.987L176.946,50.752ZM176.024,51.389L175.172,50.154L176.024,51.389ZM175.229,52.118L176.394,53.063L175.229,52.118ZM174.561,52.942L173.396,51.997L174.561,52.942ZM173.817,53.689L174.767,54.85L173.817,53.689ZM173.406,54.025L172.457,52.864L173.406,54.025ZM172.996,54.361L173.945,55.522L172.996,54.361ZM172.138,54.981L172.941,56.247L172.138,54.981ZM171.244,55.547L172.047,56.814L171.244,55.547ZM170.379,56.145L171.28,57.344L170.379,56.145ZM169.543,56.773L168.642,55.573L169.543,56.773ZM168.752,57.482L169.842,58.512L168.752,57.482ZM168.004,58.274L166.913,57.244L168.004,58.274ZM167.191,58.985L166.316,57.767L167.191,58.985ZM166.315,59.614L167.191,60.832L166.315,59.614ZM165.303,59.942L165.27,58.442L165.303,59.942ZM164.729,59.955L164.696,58.455L164.729,59.955ZM164.155,59.968L164.189,61.468L164.155,59.968ZM163.125,60.262L162.339,58.984L163.125,60.262ZM162.668,60.542L163.453,61.82L162.668,60.542ZM162.211,60.823L162.996,62.101L162.211,60.823ZM161.252,61.275L161.738,62.695L161.252,61.275ZM160.248,61.619L159.762,60.2L160.248,61.619ZM159.213,61.82L159.295,63.318L159.213,61.82ZM158.679,61.85L158.762,63.347L158.679,61.85ZM158.146,61.879L158.063,60.381L158.146,61.879ZM157.079,61.855L157.227,60.363L157.079,61.855ZM156.545,61.803L156.693,60.31L156.545,61.803ZM156.012,61.75L155.864,63.243L156.012,61.75ZM154.962,61.696L154.966,60.196L154.962,61.696ZM153.93,61.693L153.926,63.193L153.93,61.693ZM152.894,61.755L152.712,60.266L152.894,61.755ZM152.374,61.819L152.556,63.308L152.374,61.819ZM151.854,61.882L151.672,60.393L151.854,61.882ZM150.809,62.085L151.193,63.535L150.809,62.085ZM149.759,62.362L149.376,60.912L149.759,62.362ZM148.709,62.304L149.236,60.899L148.709,62.304ZM148.184,62.107L147.658,63.512L148.184,62.107ZM147.659,61.91L148.186,60.506L147.659,61.91ZM146.609,61.768L146.455,60.276L146.609,61.768ZM145.559,61.877L145.714,63.369L145.559,61.877ZM144.509,61.875L144.35,63.366L144.509,61.875ZM143.459,61.763L143.619,60.271L143.459,61.763ZM142.409,62.007L141.664,60.706L142.409,62.007ZM141.359,62.609L142.105,63.91L141.359,62.609ZM140.309,62.554L139.468,63.796L140.309,62.554ZM139.784,62.198L140.626,60.956L139.784,62.198ZM139.259,61.842L140.101,60.6L139.259,61.842ZM138.209,61.659L138.677,63.084L138.209,61.659ZM137.684,61.831L137.217,60.406L137.684,61.831ZM137.159,62.003L136.692,60.578L137.159,62.003ZM136.109,62.078L136.383,60.603L136.109,62.078ZM135.059,61.883L134.785,63.357L135.059,61.883ZM134.009,62.026L134.636,63.389L134.009,62.026ZM132.959,62.509L132.333,61.146L132.959,62.509ZM131.909,62.486L132.584,61.146L131.909,62.486ZM131.384,62.222L130.71,63.562L131.384,62.222ZM130.859,61.958L130.185,63.298L130.859,61.958ZM129.809,61.883L129.3,60.472L129.809,61.883ZM128.759,62.262L129.269,63.673L128.759,62.262ZM127.709,62.212L127.086,63.576L127.709,62.212ZM127.184,61.972L126.561,63.336L127.184,61.972ZM126.659,61.732L127.283,60.368L126.659,61.732ZM125.609,61.876L126.495,63.087L125.609,61.876ZM125.084,62.26L124.199,61.05L125.084,62.26ZM124.559,62.645L123.674,61.434L124.559,62.645ZM123.509,62.752L124.209,61.425L123.509,62.752ZM122.984,62.475L123.684,61.148L122.984,62.475ZM122.459,62.198L121.76,63.525L122.459,62.198ZM121.409,62.111L120.899,60.7L121.409,62.111ZM120.884,62.301L121.395,63.711L120.884,62.301ZM120.359,62.491L119.849,61.08L120.359,62.491ZM119.309,62.451L118.708,63.825L119.309,62.451ZM118.784,62.221L118.183,63.596L118.784,62.221ZM118.259,61.992L118.86,60.618L118.259,61.992ZM117.209,61.802L117.096,60.306L117.209,61.802ZM116.684,61.842L116.571,60.346L116.684,61.842ZM116.159,61.882L116.273,63.377L116.159,61.882ZM115.109,62.117L115.634,63.523L115.109,62.117ZM114.584,62.313L114.06,60.908L114.584,62.313ZM114.059,62.509L113.535,61.104L114.059,62.509ZM113.009,62.567L112.626,64.017L113.009,62.567ZM112.484,62.428L112.868,60.978L112.484,62.428ZM111.959,62.289L112.343,60.839L111.959,62.289ZM110.909,62.042L110.605,63.511L110.909,62.042ZM110.384,61.933L110.08,63.402L110.384,61.933ZM109.859,61.825L110.163,60.356L109.859,61.825ZM108.809,61.679L108.914,60.183L108.809,61.679ZM107.759,61.605L107.864,60.109L107.759,61.605ZM106.709,61.707L106.328,60.256L106.709,61.707ZM105.659,61.983L106.041,63.434L105.659,61.983ZM104.609,62.279L105.04,63.716L104.609,62.279ZM103.559,62.593L103.129,61.156L103.559,62.593ZM102.509,62.8L102.368,61.306L102.509,62.8ZM101.984,62.849L102.126,64.343L101.984,62.849ZM101.459,62.899L101.318,61.406L101.459,62.899ZM100.409,62.983L100.506,64.479L100.409,62.983ZM99.884,63.016L99.98,64.513L99.884,63.016ZM99.359,63.05L99.263,61.553L99.359,63.05ZM98.309,62.968L97.986,64.433L98.309,62.968ZM97.784,62.852L98.108,61.387L97.784,62.852ZM97.259,62.736L97.583,61.271L97.259,62.736ZM96.209,62.688L96.403,64.176L96.209,62.688ZM95.159,62.825L94.966,61.338L95.159,62.825ZM94.109,62.821L93.904,64.306L94.109,62.821ZM93.059,62.675L93.265,61.189L93.059,62.675ZM92.009,62.544L91.842,64.034L92.009,62.544ZM91.484,62.485L91.652,60.994L91.484,62.485ZM90.959,62.426L90.792,63.917L90.959,62.426ZM89.909,62.222L90.309,60.776L89.909,62.222ZM89.384,62.077L88.985,63.523L89.384,62.077ZM88.859,61.932L88.46,63.377L88.859,61.932ZM87.809,62.083L88.548,63.389L87.809,62.083ZM86.759,62.677L86.021,61.371L86.759,62.677ZM85.709,62.965L85.734,61.466L85.709,62.965ZM84.659,62.948L84.635,64.448L84.659,62.948ZM83.609,62.837L83.321,64.309L83.609,62.837ZM83.084,62.734L82.796,64.206L83.084,62.734ZM82.559,62.631L82.847,61.159L82.559,62.631ZM80.984,62.357L81.226,60.877L80.984,62.357ZM80.459,62.272L80.218,63.752L80.459,62.272ZM79.409,62.244L79.245,60.753L79.409,62.244ZM78.884,62.302L78.72,60.811L78.884,62.302ZM78.359,62.359L78.523,63.85L78.359,62.359ZM77.309,62.332L77.55,60.851L77.309,62.332ZM76.784,62.246L76.544,63.727L76.784,62.246ZM76.259,62.161L76.5,60.681L76.259,62.161ZM75.209,62.042L75.113,63.539L75.209,62.042ZM74.684,62.009L74.78,60.512L74.684,62.009ZM74.159,61.975L74.063,63.472L74.159,61.975ZM72.584,62.21L72.213,60.757L72.584,62.21ZM72.059,62.344L72.431,63.798L72.059,62.344ZM71.009,62.614L70.635,61.162L71.009,62.614ZM70.484,62.75L70.859,64.202L70.484,62.75ZM69.959,62.885L70.334,64.337L69.959,62.885ZM68.909,63.029L68.884,61.529L68.909,63.029ZM68.384,63.038L68.359,61.538L68.384,63.038ZM67.859,63.047L67.884,64.546L67.859,63.047ZM66.809,62.922L66.44,64.376L66.809,62.922ZM66.284,62.789L66.653,61.335L66.284,62.789ZM65.759,62.656L65.39,64.11L65.759,62.656ZM64.709,62.514L64.735,61.014L64.709,62.514ZM63.659,62.496L63.634,63.996L63.659,62.496ZM62.609,62.591L62.902,64.062L62.609,62.591ZM61.559,62.8L61.852,64.271L61.559,62.8ZM60.509,62.636L61.191,61.3L60.509,62.636ZM59.984,62.368L59.303,63.705L59.984,62.368ZM59.459,62.101L60.141,60.764L59.459,62.101ZM56.309,62.441L55.734,63.826L56.309,62.441ZM55.259,62.005L55.835,60.62L55.259,62.005ZM54.209,61.82L54.304,63.317L54.209,61.82ZM53.684,61.853L53.59,60.356L53.684,61.853ZM53.159,61.886L53.254,63.383L53.159,61.886ZM52.109,62.114L51.589,60.707L52.109,62.114ZM51.059,62.502L51.58,63.909L51.059,62.502ZM50.009,62.695L50.006,64.195L50.009,62.695ZM48.959,62.693L48.963,61.193L48.959,62.693ZM47.909,62.652L47.797,64.147L47.909,62.652ZM46.859,62.573L46.972,61.077L46.859,62.573ZM45.809,62.308L46.4,60.929L45.809,62.308ZM44.759,61.858L44.168,63.237L44.759,61.858ZM43.709,61.609L43.777,60.111L43.709,61.609ZM42.659,61.562L42.592,63.06L42.659,61.562ZM41.609,61.778L42.233,63.142L41.609,61.778ZM40.559,62.259L39.935,60.895L40.559,62.259ZM39.509,62.61L39.819,64.077L39.509,62.61ZM38.459,62.831L38.15,61.364L38.459,62.831ZM37.409,62.758L37.905,61.342L37.409,62.758ZM36.359,62.39L35.863,63.806L36.359,62.39ZM35.309,62.4L34.79,60.993L35.309,62.4ZM34.259,62.787L34.779,64.195L34.259,62.787ZM33.209,62.693L33.93,61.378L33.209,62.693ZM32.159,62.118L31.438,63.433L32.159,62.118ZM31.115,61.859L31.031,60.361L31.115,61.859ZM30.595,61.887L30.678,63.385L30.595,61.887ZM30.075,61.916L30.158,63.414L30.075,61.916ZM29.016,62.071L29.356,63.532L29.016,62.071ZM27.936,62.323L28.277,63.783L27.936,62.323ZM26.869,62.381L27.058,60.893L26.869,62.381ZM25.814,62.247L25.624,63.735L25.814,62.247ZM24.814,61.888L24.024,63.163L24.814,61.888ZM24.343,61.596L25.132,60.32L24.343,61.596ZM23.871,61.304L24.661,60.028L23.871,61.304ZM22.935,60.765L22.231,62.089L22.935,60.765ZM22.471,60.518L23.175,59.193L22.471,60.518ZM22.007,60.271L21.303,61.596L22.007,60.271ZM21,59.984L21.111,58.488L21,59.984ZM19.915,59.903L19.803,61.399L19.915,59.903ZM18.813,59.799L18.641,61.289L18.813,59.799ZM17.696,59.67L17.868,58.18L17.696,59.67ZM16.681,59.321L15.888,60.594L16.681,59.321ZM15.768,58.752L14.975,60.025L15.768,58.752ZM14.842,58.202L14.103,59.508L14.842,58.202ZM14.373,57.937L15.112,56.631L14.373,57.937ZM13.904,57.671L13.165,58.976L13.904,57.671ZM13.086,56.981L14.245,56.029L13.086,56.981ZM12.389,56.133L11.23,57.086L12.389,56.133ZM11.6,55.403L10.745,56.636L11.6,55.403ZM10.717,54.792L11.572,53.559L10.717,54.792ZM10.151,53.876L8.682,54.179L10.151,53.876ZM9.9,52.658L11.369,52.355L9.9,52.658ZM9.217,51.837L9.749,50.434L9.217,51.837ZM8.103,51.415L7.572,52.818L8.103,51.415ZM7.309,50.722L5.963,51.385L7.309,50.722ZM6.834,49.759L5.489,50.421L6.834,49.759ZM6.392,48.181L4.918,48.456L6.392,48.181ZM6.29,47.633L7.764,47.357L6.29,47.633ZM5.758,46.727L6.718,45.574L5.758,46.727ZM4.053,45.261L5.085,44.172L4.053,45.261ZM3.218,44.469L2.186,45.558L3.218,44.469ZM2.805,42.934L1.305,42.928L2.805,42.934ZM2.576,41.311L3.928,40.66L2.576,41.311ZM2.11,40.343L0.759,40.995L2.11,40.343ZM2.06,38.205L0.569,38.039L2.06,38.205ZM2.052,36.614L0.556,36.714L2.052,36.614ZM1.859,35.063L3.317,34.709L1.859,35.063ZM1.735,34.55L0.277,34.904L1.735,34.55ZM1.611,34.038L3.068,33.684L1.611,34.038ZM1.648,33.005L0.215,32.561L1.648,33.005ZM1.972,30.917L3.408,30.484L1.972,30.917ZM1.652,29.857L0.216,30.29L1.652,29.857ZM2.312,24.669L3.764,25.048L2.312,24.669ZM2.579,23.65L1.127,23.271L2.579,23.65ZM3.238,21.65L1.824,21.151L3.238,21.65ZM3.621,20.669L2.242,20.079L3.621,20.669ZM3.829,20.184L5.208,20.774L3.829,20.184ZM4.036,19.7L5.415,20.29L4.036,19.7ZM4.428,18.713L3.02,18.196L4.428,18.713ZM4.797,17.709L6.205,18.226L4.797,17.709ZM5.237,16.737L3.919,16.02L5.237,16.737ZM5.492,16.268L6.81,16.985L5.492,16.268ZM5.748,15.799L4.43,15.082L5.748,15.799ZM6.529,15.061L5.848,13.725L6.529,15.061ZM7.58,14.525L6.899,13.189L7.58,14.525ZM8.475,13.896L7.424,12.825L8.475,13.896ZM9.212,13.172L10.263,14.243L9.212,13.172ZM9.716,12.215L8.254,11.882L9.716,12.215ZM9.987,11.023L11.45,11.355L9.987,11.023ZM10.502,10.049L11.562,11.11L10.502,10.049ZM10.881,9.67L9.821,8.609L10.881,9.67ZM12.287,8.891L12.236,7.391L12.287,8.891ZM12.934,8.869L12.985,10.368L12.934,8.869ZM14.649,8.537L13.803,7.299L14.649,8.537ZM16.298,7.318L17.314,8.421L16.298,7.318ZM17.072,6.605L16.056,5.501L17.072,6.605ZM17.901,5.971L18.698,7.242L17.901,5.971ZM19.64,4.748L18.607,3.66L19.64,4.748ZM20.052,4.357L21.085,5.444L20.052,4.357ZM20.464,3.965L19.431,2.878L20.464,3.965ZM21.402,3.466L21.1,1.997L21.402,3.466ZM21.928,3.358L21.626,1.889L21.928,3.358ZM23.496,3.014L23.136,1.558L23.496,3.014ZM25.611,2.847L26.148,1.447L25.611,2.847ZM26.745,3.282L26.208,4.682L26.745,3.282ZM27.814,3.379L27.466,1.92L27.814,3.379ZM28.818,3.139L29.167,4.598L28.818,3.139ZM29.835,2.833L30.345,4.244L29.835,2.833ZM30.35,2.648L29.841,1.237L30.35,2.648ZM30.865,2.462L31.374,3.872L30.865,2.462ZM31.38,2.294L32.879,2.231L31.38,2.294ZM31.381,2.313L29.883,2.376L31.381,2.313ZM31.908,2.203L31.504,0.758L31.908,2.203ZM32.433,2.056L32.836,3.501L33.361,3.354L32.958,1.909L32.554,0.465L32.029,0.611L32.433,2.056ZM32.958,1.909L33.361,3.354C33.557,3.3 33.74,3.281 33.918,3.292L34.008,1.794L34.098,0.297C33.575,0.266 33.059,0.324 32.554,0.465L32.958,1.909ZM34.008,1.794L33.918,3.292L34.443,3.323L34.533,1.826L34.623,0.329L34.098,0.297L34.008,1.794ZM34.533,1.826L34.443,3.323L34.968,3.355L35.148,0.36L34.623,0.329L34.533,1.826ZM35.148,0.36L34.968,3.355C35.047,3.36 35.17,3.386 35.349,3.491L36.108,2.197L36.867,0.903C36.345,0.597 35.768,0.397 35.148,0.36ZM36.108,2.197L35.349,3.491L35.874,3.799L36.633,2.505L37.392,1.212L36.867,0.903L36.108,2.197ZM36.633,2.505L35.874,3.799L36.399,4.107L37.158,2.813L37.917,1.52L37.392,1.212L36.633,2.505ZM37.158,2.813L36.399,4.107C36.978,4.447 37.642,4.633 38.354,4.563L38.062,1.577C38.059,1.577 38.054,1.578 38.039,1.575C38.022,1.57 37.982,1.558 37.917,1.52L37.158,2.813ZM38.062,1.577L38.354,4.563L38.879,4.512L38.587,1.526L38.062,1.577ZM38.587,1.526L38.879,4.512L39.404,4.46L39.112,1.474L38.587,1.526ZM39.112,1.474L39.404,4.46C40.034,4.398 40.611,4.167 41.125,3.833L40.308,2.575L39.491,1.317C39.305,1.438 39.181,1.468 39.112,1.474ZM40.308,2.575L41.125,3.833L41.65,3.492L40.016,0.976L39.491,1.317L40.308,2.575ZM40.016,0.976L41.65,3.492L42.175,3.151L41.358,1.893L40.541,0.635L40.016,0.976ZM41.358,1.893L42.175,3.151C42.16,3.16 42.065,3.214 41.91,3.217C41.752,3.22 41.649,3.168 41.623,3.152L42.408,1.874L43.192,0.596C42.817,0.365 42.364,0.209 41.856,0.218C41.35,0.227 40.905,0.398 40.541,0.635L41.358,1.893ZM42.408,1.874L41.623,3.152L42.148,3.475L43.717,0.918L43.192,0.596L42.408,1.874ZM43.717,0.918L42.148,3.475L42.673,3.797L43.458,2.518L44.242,1.24L43.717,0.918ZM43.458,2.518L42.673,3.797C43.176,4.106 43.729,4.321 44.324,4.394L44.692,1.417C44.587,1.404 44.439,1.361 44.242,1.24L43.458,2.518ZM44.692,1.417L44.324,4.394L44.849,4.459L45.217,1.482L44.692,1.417ZM45.217,1.482L44.849,4.459L45.374,4.524L45.742,1.546L45.217,1.482ZM45.742,1.546L45.374,4.524C45.802,4.577 46.232,4.596 46.662,4.58L46.553,1.582C46.283,1.592 46.013,1.58 45.742,1.546ZM46.553,1.582L46.662,4.58L47.187,4.561L47.078,1.563L46.553,1.582ZM47.078,1.563L47.187,4.561L47.712,4.542L47.603,1.544L47.078,1.563ZM47.603,1.544L47.712,4.542C48.032,4.53 48.351,4.528 48.67,4.536L48.708,3.037L48.745,1.537C48.365,1.528 47.984,1.53 47.603,1.544ZM48.708,3.037L48.67,4.536L49.195,4.549L49.233,3.05L49.27,1.55L48.745,1.537L48.708,3.037ZM49.233,3.05L49.195,4.549L49.72,4.562L49.758,3.063L49.795,1.563L49.27,1.55L49.233,3.05ZM49.758,3.063L49.72,4.562C50.148,4.573 50.574,4.551 51,4.496L50.615,1.521C50.341,1.556 50.068,1.57 49.795,1.563L49.758,3.063ZM50.615,1.521L51,4.496L51.525,4.428L51.14,1.453L50.615,1.521ZM51.14,1.453L51.525,4.428L52.05,4.36L51.665,1.385L51.14,1.453ZM51.665,1.385L52.05,4.36C52.504,4.301 52.951,4.196 53.391,4.046L52.425,1.206C52.165,1.294 51.912,1.353 51.665,1.385ZM52.425,1.206L53.391,4.046L53.916,3.867L52.95,1.027L52.425,1.206ZM52.95,1.027L53.916,3.867L54.441,3.689L53.475,0.849L52.95,1.027ZM53.475,0.849L54.441,3.689C54.435,3.691 54.422,3.695 54.403,3.697C54.383,3.699 54.361,3.7 54.34,3.698C54.296,3.693 54.281,3.682 54.304,3.694L55.008,2.369L55.711,1.044C55.025,0.68 54.247,0.586 53.475,0.849ZM55.008,2.369L54.304,3.694L54.829,3.973L55.533,2.648L56.236,1.323L55.711,1.044L55.008,2.369ZM55.533,2.648L54.829,3.973L55.354,4.251L56.058,2.926L56.761,1.602L56.236,1.323L55.533,2.648ZM56.058,2.926L55.354,4.251C56.011,4.6 56.756,4.714 57.512,4.503L56.704,1.614C56.707,1.613 56.716,1.611 56.73,1.61C56.744,1.609 56.757,1.609 56.77,1.61C56.782,1.612 56.788,1.614 56.788,1.614C56.788,1.614 56.779,1.611 56.761,1.602L56.058,2.926ZM56.704,1.614L57.512,4.503L58.037,4.356L57.229,1.467L56.704,1.614ZM57.229,1.467L58.037,4.356L58.562,4.209L57.754,1.32L57.229,1.467ZM57.754,1.32L58.562,4.209C58.698,4.171 58.818,4.167 58.939,4.189L59.476,1.237C58.898,1.132 58.318,1.162 57.754,1.32ZM59.476,1.237L58.939,4.189L59.464,4.285L60.001,1.333L59.476,1.237ZM60.001,1.333L59.464,4.285L59.989,4.38L60.526,1.429L60.001,1.333ZM60.526,1.429L59.989,4.38C60.719,4.513 61.416,4.363 62.029,4.028L61.308,2.712L60.587,1.397C60.561,1.411 60.542,1.419 60.53,1.423C60.519,1.427 60.513,1.429 60.513,1.429C60.513,1.429 60.515,1.428 60.52,1.428C60.524,1.428 60.526,1.429 60.526,1.429ZM61.308,2.712L62.029,4.028L62.554,3.74L61.833,2.425L61.112,1.109L60.587,1.397L61.308,2.712ZM61.833,2.425L62.554,3.74L63.079,3.452L62.358,2.137L61.637,0.821L61.112,1.109L61.833,2.425ZM62.358,2.137L63.079,3.452C63.244,3.362 63.356,3.343 63.429,3.342L63.387,0.342C62.76,0.351 62.171,0.529 61.637,0.821L62.358,2.137ZM63.387,0.342L63.429,3.342L63.954,3.334L63.912,0.335L63.387,0.342ZM63.912,0.335L63.954,3.334L64.479,3.327L64.458,1.827L64.437,0.327L63.912,0.335ZM64.458,1.827L64.479,3.327C64.485,3.327 64.499,3.327 64.528,3.337C64.559,3.346 64.613,3.369 64.69,3.419L65.508,2.161L66.325,0.903C65.775,0.546 65.137,0.318 64.437,0.327L64.458,1.827ZM65.508,2.161L64.69,3.419L65.215,3.76L66.85,1.245L66.325,0.903L65.508,2.161ZM66.85,1.245L65.215,3.76L65.74,4.101L66.558,2.843L67.375,1.586L66.85,1.245ZM66.558,2.843L65.74,4.101C66.128,4.353 66.61,4.526 67.157,4.499C67.696,4.473 68.152,4.258 68.507,3.993L66.709,1.591C66.714,1.587 66.819,1.512 67.009,1.503C67.205,1.493 67.338,1.561 67.375,1.586L66.558,2.843ZM66.709,1.591L68.507,3.993L69.032,3.6L67.234,1.198L66.709,1.591ZM67.234,1.198L69.032,3.6L69.557,3.207L67.759,0.805L67.234,1.198ZM67.759,0.805L69.557,3.207C69.601,3.173 69.591,3.193 69.526,3.208C69.494,3.215 69.455,3.22 69.413,3.219C69.371,3.218 69.334,3.212 69.306,3.204L70.11,0.314C69.219,0.066 68.397,0.328 67.759,0.805ZM70.11,0.314L69.306,3.204L69.831,3.35L70.635,0.46L70.11,0.314ZM70.635,0.46L69.831,3.35L70.356,3.496L71.16,0.606L70.635,0.46ZM71.16,0.606L70.356,3.496C70.719,3.597 71.082,3.693 71.446,3.784L72.17,0.872C71.833,0.789 71.497,0.7 71.16,0.606ZM72.17,0.872L71.446,3.784L71.971,3.914L72.333,2.458L72.695,1.003L72.17,0.872ZM72.333,2.458L71.971,3.914L72.496,4.045L73.22,1.133L72.695,1.003L72.333,2.458ZM73.22,1.133L72.496,4.045C72.879,4.14 73.263,4.222 73.648,4.289L73.908,2.812L74.168,1.335C73.852,1.279 73.536,1.212 73.22,1.133ZM73.908,2.812L73.648,4.289L74.173,4.382L74.433,2.904L74.693,1.427L74.168,1.335L73.908,2.812ZM74.433,2.904L74.173,4.382L74.698,4.474L74.958,2.997L75.218,1.519L74.693,1.427L74.433,2.904ZM74.958,2.997L74.698,4.474C75.483,4.612 76.212,4.404 76.821,4.01L75.194,1.49C75.141,1.524 75.124,1.525 75.14,1.521C75.148,1.519 75.16,1.517 75.176,1.516C75.192,1.516 75.206,1.517 75.218,1.519L74.958,2.997ZM75.194,1.49L76.821,4.01L77.346,3.672L76.533,2.411L75.719,1.151L75.194,1.49ZM76.533,2.411L77.346,3.672L77.871,3.333L77.058,2.072L76.244,0.812L75.719,1.151L76.533,2.411ZM77.058,2.072L77.871,3.333C77.866,3.336 77.789,3.383 77.653,3.389C77.514,3.396 77.416,3.355 77.384,3.337L78.108,2.023L78.832,0.709C78.449,0.498 78.001,0.369 77.512,0.392C77.027,0.415 76.599,0.583 76.244,0.812L77.058,2.072ZM78.108,2.023L77.384,3.337L77.909,3.626L78.633,2.312L79.357,0.999L78.832,0.709L78.108,2.023ZM78.633,2.312L77.909,3.626L78.434,3.915L79.158,2.602L79.882,1.288L79.357,0.999L78.633,2.312ZM79.158,2.602L78.434,3.915C79.088,4.276 79.839,4.404 80.606,4.193L80.208,2.747L79.81,1.301C79.816,1.299 79.827,1.296 79.843,1.295C79.859,1.294 79.874,1.295 79.888,1.297C79.917,1.301 79.917,1.307 79.882,1.288L79.158,2.602ZM80.208,2.747L80.606,4.193L81.131,4.049L80.733,2.602L80.335,1.156L79.81,1.301L80.208,2.747ZM80.733,2.602L81.131,4.049L81.656,3.904L80.86,1.012L80.335,1.156L80.733,2.602ZM80.86,1.012L81.656,3.904C81.921,3.831 82.181,3.784 82.437,3.762L82.178,0.773C81.734,0.812 81.295,0.892 80.86,1.012ZM82.178,0.773L82.437,3.762L82.962,3.717L82.703,0.728L82.178,0.773ZM82.703,0.728L82.962,3.717L83.487,3.671L83.228,0.682L82.703,0.728ZM83.228,0.682L83.487,3.671C83.82,3.642 84.153,3.619 84.486,3.602L84.33,0.606C83.963,0.625 83.595,0.651 83.228,0.682ZM84.33,0.606L84.486,3.602L85.011,3.575L84.855,0.579L84.33,0.606ZM84.855,0.579L85.011,3.575L85.536,3.547L85.38,0.552L84.855,0.579ZM85.38,0.552L85.536,3.547C85.733,3.537 85.934,3.556 86.145,3.609L86.871,0.698C86.381,0.576 85.883,0.525 85.38,0.552ZM86.871,0.698L86.145,3.609L86.67,3.74L87.396,0.829L86.871,0.698ZM87.396,0.829L86.67,3.74L87.195,3.871L87.921,0.96L87.396,0.829ZM87.921,0.96L87.195,3.871C87.647,3.984 88.106,4.047 88.569,4.059L88.608,2.56L88.647,1.06C88.409,1.054 88.168,1.022 87.921,0.96ZM88.608,2.56L88.569,4.059L89.094,4.073L89.133,2.574L89.172,1.074L88.647,1.06L88.608,2.56ZM89.133,2.574L89.094,4.073L89.619,4.087L89.658,2.587L89.697,1.088L89.172,1.074L89.133,2.574ZM89.658,2.587L89.619,4.087C90.133,4.1 90.641,4.03 91.136,3.882L90.708,2.445L90.28,1.007C90.075,1.068 89.882,1.093 89.697,1.088L89.658,2.587ZM90.708,2.445L91.136,3.882L91.661,3.726L91.233,2.288L90.805,0.851L90.28,1.007L90.708,2.445ZM91.233,2.288L91.661,3.726L92.186,3.57L91.758,2.132L91.33,0.694L90.805,0.851L91.233,2.288ZM91.758,2.132L92.186,3.57C92.325,3.528 92.447,3.522 92.567,3.542L93.049,0.581C92.469,0.486 91.89,0.528 91.33,0.694L91.758,2.132ZM93.049,0.581L92.567,3.542L93.092,3.627L93.574,0.667L93.049,0.581ZM93.574,0.667L93.092,3.627L93.617,3.713L94.099,0.752L93.574,0.667ZM94.099,0.752L93.617,3.713C93.973,3.771 94.33,3.827 94.687,3.88L95.128,0.912C94.785,0.861 94.442,0.808 94.099,0.752ZM95.128,0.912L94.687,3.88L95.212,3.958L95.653,0.99L95.128,0.912ZM95.653,0.99L95.212,3.958L95.737,4.036L96.178,1.068L95.653,0.99ZM96.178,1.068L95.737,4.036C96.362,4.128 96.975,4.048 97.553,3.823L96.463,1.028C96.34,1.075 96.254,1.08 96.178,1.068ZM96.463,1.028L97.553,3.823L98.078,3.618L97.533,2.22L96.988,0.823L96.463,1.028ZM97.533,2.22L98.078,3.618L98.603,3.413L98.058,2.016L97.513,0.618L96.988,0.823L97.533,2.22ZM98.058,2.016L98.603,3.413C98.723,3.366 98.807,3.363 98.88,3.374L99.108,1.891L99.335,0.409C98.709,0.313 98.093,0.392 97.513,0.618L98.058,2.016ZM99.108,1.891L98.88,3.374L99.405,3.455L99.633,1.972L99.86,0.489L99.335,0.409L99.108,1.891ZM99.633,1.972L99.405,3.455L99.93,3.535L100.158,2.052L100.385,0.57L99.86,0.489L99.633,1.972ZM100.158,2.052L99.93,3.535C100.518,3.625 101.101,3.574 101.663,3.395L100.753,0.537C100.615,0.581 100.498,0.587 100.385,0.57L100.158,2.052ZM100.753,0.537L101.663,3.395L102.188,3.228L101.733,1.799L101.278,0.369L100.753,0.537ZM101.733,1.799L102.188,3.228L102.713,3.061L102.258,1.631L101.803,0.202L101.278,0.369L101.733,1.799ZM102.258,1.631L102.713,3.061C102.883,3.007 103.035,2.992 103.179,3.004L103.437,0.015C102.881,-0.033 102.332,0.033 101.803,0.202L102.258,1.631ZM103.437,0.015L103.179,3.004L103.704,3.049L103.962,0.06L103.437,0.015ZM103.962,0.06L103.704,3.049L104.229,3.095L104.487,0.106L103.962,0.06ZM104.487,0.106L104.229,3.095C104.521,3.12 104.815,3.162 105.11,3.222L105.706,0.282C105.301,0.2 104.894,0.141 104.487,0.106ZM105.706,0.282L105.11,3.222L105.635,3.328L105.933,1.858L106.231,0.388L105.706,0.282ZM105.933,1.858L105.635,3.328L106.16,3.435L106.756,0.494L106.231,0.388L105.933,1.858ZM106.756,0.494L106.16,3.435C106.466,3.497 106.773,3.573 107.082,3.665L107.508,2.226L107.934,0.788C107.542,0.672 107.15,0.574 106.756,0.494ZM107.508,2.226L107.082,3.665L107.607,3.82L108.459,0.943L107.934,0.788L107.508,2.226ZM108.459,0.943L107.607,3.82L108.132,3.975L108.984,1.099L108.459,0.943ZM108.984,1.099L108.132,3.975C108.746,4.157 109.378,4.166 109.998,4L109.218,1.103C109.138,1.124 109.07,1.124 108.984,1.099ZM109.218,1.103L109.998,4L110.523,3.858L110.133,2.41L109.743,0.961L109.218,1.103ZM110.133,2.41L110.523,3.858L111.048,3.717L110.658,2.269L110.268,0.82L109.743,0.961L110.133,2.41ZM110.658,2.269L111.048,3.717C111.18,3.681 111.299,3.678 111.42,3.702L111.996,0.758C111.417,0.645 110.835,0.667 110.268,0.82L110.658,2.269ZM111.996,0.758L111.42,3.702L111.945,3.805L112.521,0.86L111.996,0.758ZM112.521,0.86L111.945,3.805L112.47,3.907L112.758,2.435L113.046,0.963L112.521,0.86ZM112.758,2.435L112.47,3.907C112.784,3.969 113.099,4.042 113.416,4.128L113.808,2.68L114.2,1.232C113.816,1.128 113.431,1.038 113.046,0.963L112.758,2.435ZM113.808,2.68L113.416,4.128L113.941,4.27L114.333,2.822L114.725,1.375L114.2,1.232L113.808,2.68ZM114.333,2.822L113.941,4.27L114.466,4.412L115.25,1.517L114.725,1.375L114.333,2.822ZM115.25,1.517L114.466,4.412C115.13,4.593 115.803,4.552 116.438,4.311L115.908,2.908L115.377,1.505C115.312,1.53 115.285,1.526 115.25,1.517ZM115.908,2.908L116.438,4.311L116.963,4.113L116.433,2.71L115.902,1.307L115.377,1.505L115.908,2.908ZM116.433,2.71L116.963,4.113L117.488,3.914L116.958,2.511L116.427,1.108L115.902,1.307L116.433,2.71ZM116.958,2.511L117.488,3.914C117.577,3.881 117.629,3.882 117.681,3.894L118.335,0.966C117.686,0.821 117.038,0.877 116.427,1.108L116.958,2.511ZM118.335,0.966L117.681,3.894L118.206,4.011L118.86,1.083L118.335,0.966ZM118.86,1.083L118.206,4.011L118.731,4.128L119.385,1.201L118.86,1.083ZM119.385,1.201L118.731,4.128C119.171,4.227 119.616,4.283 120.064,4.297L120.152,1.298C119.899,1.291 119.644,1.259 119.385,1.201ZM120.152,1.298L120.064,4.297L120.589,4.312L120.677,1.313L120.152,1.298ZM120.677,1.313L120.589,4.312L121.114,4.328L121.202,1.329L120.677,1.313ZM121.202,1.329L121.114,4.328C121.759,4.347 122.367,4.179 122.917,3.884L121.499,1.24C121.349,1.321 121.256,1.33 121.202,1.329ZM121.499,1.24L122.917,3.884L123.442,3.603L122.733,2.281L122.024,0.959L121.499,1.24ZM122.733,2.281L123.442,3.603L123.967,3.321L122.549,0.677L122.024,0.959L122.733,2.281ZM122.549,0.677L123.967,3.321C123.916,3.348 123.798,3.391 123.642,3.376C123.495,3.363 123.42,3.307 123.427,3.313L124.308,2.098L125.188,0.884C124.846,0.636 124.421,0.437 123.924,0.39C123.418,0.342 122.949,0.462 122.549,0.677ZM124.308,2.098L123.427,3.313L123.952,3.693L124.833,2.479L125.713,1.265L125.188,0.884L124.308,2.098ZM124.833,2.479L123.952,3.693L124.477,4.074L125.358,2.86L126.238,1.645L125.713,1.265L124.833,2.479ZM125.358,2.86L124.477,4.074C124.83,4.329 125.273,4.532 125.794,4.563C126.321,4.594 126.795,4.442 127.185,4.205L126.408,2.922L125.63,1.639C125.671,1.615 125.795,1.558 125.972,1.568C126.142,1.578 126.236,1.643 126.238,1.645L125.358,2.86ZM126.408,2.922L127.185,4.205L127.71,3.887L126.933,2.604L126.155,1.321L125.63,1.639L126.408,2.922ZM126.933,2.604L127.71,3.887L128.235,3.569L127.458,2.286L126.68,1.003L126.155,1.321L126.933,2.604ZM127.458,2.286L128.235,3.569C128.46,3.433 128.651,3.361 128.811,3.328L128.205,0.39C127.665,0.502 127.156,0.715 126.68,1.003L127.458,2.286ZM128.205,0.39L128.811,3.328L129.336,3.22L128.73,0.282L128.205,0.39ZM128.73,0.282L129.336,3.22L129.861,3.112L129.255,0.174L128.73,0.282ZM129.255,0.174L129.861,3.112C129.85,3.114 129.835,3.116 129.817,3.116C129.8,3.116 129.785,3.114 129.774,3.112C129.751,3.107 129.763,3.105 129.811,3.135L130.608,1.864L131.405,0.593C130.782,0.203 130.043,0.011 129.255,0.174ZM130.608,1.864L129.811,3.135L130.336,3.464L131.133,2.193L131.93,0.923L131.405,0.593L130.608,1.864ZM131.133,2.193L130.336,3.464L130.861,3.793L131.658,2.523L132.455,1.252L131.93,0.923L131.133,2.193ZM131.658,2.523L130.861,3.793C131.235,4.028 131.689,4.19 132.201,4.184C132.711,4.178 133.16,4.006 133.526,3.767L132.708,2.51L131.889,1.253C131.906,1.242 132.004,1.186 132.165,1.184C132.326,1.182 132.431,1.237 132.455,1.252L131.658,2.523ZM132.708,2.51L133.526,3.767L134.051,3.425L133.233,2.168L132.414,0.911L131.889,1.253L132.708,2.51ZM133.233,2.168L134.051,3.425L134.576,3.083L133.758,1.826L132.939,0.569L132.414,0.911L133.233,2.168ZM133.758,1.826L134.576,3.083C134.553,3.098 134.445,3.158 134.273,3.157C134.102,3.156 133.997,3.095 133.978,3.083L134.808,1.833L135.638,0.584C135.269,0.339 134.814,0.16 134.293,0.157C133.771,0.154 133.312,0.326 132.939,0.569L133.758,1.826ZM134.808,1.833L133.978,3.083L134.503,3.431L136.163,0.932L135.638,0.584L134.808,1.833ZM136.163,0.932L134.503,3.431L135.028,3.78L135.858,2.531L136.688,1.281L136.163,0.932ZM135.858,2.531L135.028,3.78C135.619,4.173 136.327,4.399 137.101,4.299L136.715,1.324C136.725,1.322 136.736,1.322 136.748,1.323C136.76,1.324 136.767,1.325 136.77,1.326C136.775,1.327 136.748,1.321 136.688,1.281L135.858,2.531ZM136.715,1.324L137.101,4.299L137.626,4.23L137.24,1.255L136.715,1.324ZM137.24,1.255L137.626,4.23L138.151,4.162L137.765,1.187L137.24,1.255ZM137.765,1.187L138.151,4.162C138.364,4.135 138.575,4.137 138.788,4.168L139.008,2.684L139.227,1.2C138.741,1.128 138.252,1.124 137.765,1.187ZM139.008,2.684L138.788,4.168L139.313,4.246L139.533,2.762L139.752,1.278L139.227,1.2L139.008,2.684ZM139.533,2.762L139.313,4.246L139.838,4.323L140.058,2.84L140.277,1.356L139.752,1.278L139.533,2.762ZM140.058,2.84L139.838,4.323C140.498,4.421 141.138,4.313 141.726,4.046L141.108,2.68L140.489,1.313C140.378,1.363 140.318,1.362 140.277,1.356L140.058,2.84ZM141.108,2.68L141.726,4.046L142.251,3.808L141.633,2.442L141.014,1.075L140.489,1.313L141.108,2.68ZM141.633,2.442L142.251,3.808L142.776,3.571L142.158,2.204L141.539,0.838L141.014,1.075L141.633,2.442ZM142.158,2.204L142.776,3.571C142.796,3.562 142.809,3.558 142.815,3.556C142.822,3.554 142.824,3.554 142.822,3.554C142.821,3.555 142.819,3.555 142.817,3.554C142.815,3.554 142.817,3.554 142.823,3.556L143.593,0.656C142.887,0.469 142.184,0.546 141.539,0.838L142.158,2.204ZM143.593,0.656L142.823,3.556L143.348,3.695L144.118,0.796L143.593,0.656ZM144.118,0.796L143.348,3.695L143.873,3.835L144.258,2.385L144.643,0.935L144.118,0.796ZM144.258,2.385L143.873,3.835C144.383,3.97 144.905,4.019 145.432,3.976L145.184,0.986C145.01,1 144.832,0.986 144.643,0.935L144.258,2.385ZM145.184,0.986L145.432,3.976L145.957,3.932L145.709,0.943L145.184,0.986ZM145.709,0.943L145.957,3.932L146.482,3.889L146.234,0.899L145.709,0.943ZM146.234,0.899L146.482,3.889C146.833,3.86 147.184,3.83 147.535,3.8L147.281,0.811C146.932,0.841 146.583,0.87 146.234,0.899ZM147.281,0.811L147.535,3.8L148.06,3.756L147.806,0.767L147.281,0.811ZM147.806,0.767L148.06,3.756L148.585,3.711L148.331,0.722L147.806,0.767ZM148.331,0.722L148.585,3.711C149.038,3.673 149.486,3.588 149.928,3.459L149.088,0.579C148.83,0.654 148.578,0.701 148.331,0.722ZM149.088,0.579L149.928,3.459L150.453,3.306L149.613,0.426L149.088,0.579ZM149.613,0.426L150.453,3.306L150.978,3.152L150.138,0.272L149.613,0.426ZM150.138,0.272L150.978,3.152C151.079,3.123 151.164,3.122 151.259,3.145L151.61,1.687L151.962,0.228C151.354,0.082 150.737,0.098 150.138,0.272ZM151.61,1.687L151.259,3.145L151.786,3.272L152.138,1.814L152.489,0.355L151.962,0.228L151.61,1.687ZM152.138,1.814L151.786,3.272L152.314,3.399L152.665,1.941L153.017,0.483L152.489,0.355L152.138,1.814ZM152.665,1.941L152.314,3.399C152.769,3.509 153.229,3.569 153.694,3.578L153.723,2.078L153.753,0.579C153.51,0.574 153.265,0.543 153.017,0.483L152.665,1.941ZM153.723,2.078L153.694,3.578L154.225,3.588L154.283,0.589L153.753,0.579L153.723,2.078ZM154.283,0.589L154.225,3.588L154.756,3.599L154.814,0.599L154.283,0.589ZM154.814,0.599L154.756,3.599C155.122,3.606 155.491,3.608 155.863,3.607L155.847,0.607C155.5,0.608 155.155,0.606 154.814,0.599ZM155.847,0.607L155.863,3.607L156.402,3.604L156.386,0.604L155.847,0.607ZM156.386,0.604L156.402,3.604L156.941,3.601L156.925,0.601L156.386,0.604ZM156.925,0.601L156.941,3.601C156.925,3.601 156.904,3.599 156.882,3.594C156.859,3.589 156.84,3.583 156.825,3.576C156.796,3.563 156.804,3.559 156.845,3.6L157.916,2.55L158.986,1.499C158.46,0.963 157.761,0.596 156.925,0.601ZM157.916,2.55L156.845,3.6L157.288,4.052L158.359,3.001L159.429,1.95L158.986,1.499L157.916,2.55ZM158.359,3.001L157.288,4.052L157.731,4.503L159.873,2.402L159.429,1.95L158.359,3.001ZM159.873,2.402L157.731,4.503C158.223,5.004 158.862,5.376 159.636,5.444L159.898,2.456C159.909,2.457 159.921,2.459 159.933,2.462C159.944,2.465 159.951,2.469 159.952,2.469C159.954,2.471 159.926,2.457 159.873,2.402ZM159.898,2.456L159.636,5.444L160.158,5.49L160.289,3.995L160.419,2.501L159.898,2.456ZM160.289,3.995L160.158,5.49L160.68,5.535L160.811,4.041L160.941,2.547L160.419,2.501L160.289,3.995ZM160.811,4.041L160.68,5.535C160.99,5.562 161.3,5.602 161.612,5.653L161.856,4.173L162.099,2.693C161.714,2.629 161.327,2.581 160.941,2.547L160.811,4.041ZM161.856,4.173L161.612,5.653L162.136,5.739L162.379,4.259L162.623,2.779L162.099,2.693L161.856,4.173ZM162.379,4.259L162.136,5.739L162.659,5.825L162.903,4.345L163.146,2.865L162.623,2.779L162.379,4.259ZM162.903,4.345L162.659,5.825C162.854,5.857 163.032,5.917 163.201,6.004L164.583,3.342C164.131,3.107 163.65,2.948 163.146,2.865L162.903,4.345ZM164.583,3.342L163.201,6.004L163.667,6.246L165.049,3.584L164.583,3.342ZM165.049,3.584L163.667,6.246L164.132,6.488L164.824,5.157L165.515,3.826L165.049,3.584ZM164.824,5.157L164.132,6.488C164.519,6.689 164.921,6.856 165.338,6.99L165.798,5.563L166.258,4.135C165.997,4.051 165.75,3.948 165.515,3.826L164.824,5.157ZM165.798,5.563L165.338,6.99L165.846,7.154L166.306,5.726L166.766,4.298L166.258,4.135L165.798,5.563ZM166.306,5.726L165.846,7.154L166.354,7.318L166.814,5.89L167.274,4.462L166.766,4.298L166.306,5.726ZM166.814,5.89L166.354,7.318C166.702,7.43 167.057,7.54 167.418,7.649L168.284,4.777C167.94,4.673 167.603,4.568 167.274,4.462L166.814,5.89ZM168.284,4.777L167.418,7.649L167.947,7.809L168.813,4.936L168.284,4.777ZM168.813,4.936L167.947,7.809L168.476,7.968L169.342,5.096L168.813,4.936ZM169.342,5.096L168.476,7.968C168.459,7.963 168.434,7.953 168.405,7.936C168.375,7.919 168.348,7.899 168.326,7.877C168.279,7.832 168.273,7.805 168.286,7.836L171.062,6.698C170.758,5.956 170.186,5.35 169.342,5.096ZM171.062,6.698L168.286,7.836L168.523,8.412L169.91,7.843L171.298,7.274L171.062,6.698ZM169.91,7.843L168.523,8.412L168.759,8.988L170.146,8.419L171.534,7.849L171.298,7.274L169.91,7.843ZM170.146,8.419L168.759,8.988C169.109,9.842 169.814,10.421 170.741,10.573L170.985,9.093L171.228,7.613C171.248,7.616 171.327,7.636 171.415,7.707C171.501,7.776 171.532,7.844 171.534,7.849L170.146,8.419ZM170.985,9.093L170.741,10.573L171.344,10.672L171.587,9.192L171.83,7.712L171.228,7.613L170.985,9.093ZM171.587,9.192L171.344,10.672L171.946,10.771L172.189,9.291L172.432,7.811L171.83,7.712L171.587,9.192ZM172.189,9.291L171.946,10.771C171.906,10.765 171.775,10.73 171.643,10.605C171.514,10.483 171.48,10.363 171.475,10.345L172.935,10L174.395,9.656C174.295,9.231 174.088,8.79 173.71,8.431C173.329,8.069 172.873,7.884 172.432,7.811L172.189,9.291ZM172.935,10L171.475,10.345L171.619,10.955L173.079,10.611L174.539,10.266L174.395,9.656L172.935,10ZM173.079,10.611L171.619,10.955L171.764,11.566L173.223,11.221L174.683,10.876L174.539,10.266L173.079,10.611ZM173.223,11.221L171.764,11.566C171.866,11.997 172.074,12.428 172.434,12.783C172.792,13.136 173.223,13.338 173.649,13.437L173.989,11.976L174.33,10.515C174.341,10.518 174.437,10.545 174.54,10.647C174.645,10.75 174.677,10.851 174.683,10.876L173.223,11.221ZM173.989,11.976L173.649,13.437L174.27,13.582L174.952,10.66L174.33,10.515L173.989,11.976ZM174.952,10.66L174.27,13.582L174.892,13.727L175.233,12.266L175.574,10.805L174.952,10.66ZM175.233,12.266L174.892,13.727C174.964,13.744 174.987,13.76 174.983,13.757C174.981,13.755 174.974,13.751 174.966,13.743C174.958,13.736 174.951,13.727 174.945,13.72L176.167,12.85L177.389,11.98C176.931,11.336 176.274,10.969 175.574,10.805L175.233,12.266ZM176.167,12.85L174.945,13.72L175.258,14.159L176.48,13.289L177.701,12.418L177.389,11.98L176.167,12.85ZM176.48,13.289L175.258,14.159L175.57,14.597L176.792,13.727L178.014,12.857L177.701,12.418L176.48,13.289ZM176.792,13.727L175.57,14.597C175.643,14.699 175.702,14.828 175.735,15.008L177.21,14.734L178.685,14.46C178.578,13.882 178.358,13.34 178.014,12.857L176.792,13.727ZM177.21,14.734L175.735,15.008L175.841,15.577L177.316,15.303L178.791,15.028L178.685,14.46L177.21,14.734ZM177.316,15.303L175.841,15.577L175.947,16.145L177.421,15.871L178.896,15.597L178.791,15.028L177.316,15.303ZM177.421,15.871L175.947,16.145C176.039,16.642 176.189,17.117 176.405,17.563L177.755,16.908L179.104,16.253C179.017,16.073 178.945,15.858 178.896,15.597L177.421,15.871ZM177.755,16.908L176.405,17.563L176.633,18.031L177.982,17.376L179.331,16.721L179.104,16.253L177.755,16.908ZM177.982,17.376L176.633,18.031L176.86,18.5L178.21,17.845L179.559,17.19L179.331,16.721L177.982,17.376ZM178.21,17.845L176.86,18.5C177.011,18.811 177.161,19.121 177.31,19.43L178.661,18.78L180.013,18.129C179.863,17.817 179.711,17.504 179.559,17.19L178.21,17.845ZM178.661,18.78L177.31,19.43L177.534,19.896L178.886,19.246L180.237,18.596L180.013,18.129L178.661,18.78ZM178.886,19.246L177.534,19.896L177.758,20.362L180.462,19.062L180.237,18.596L178.886,19.246ZM180.462,19.062L177.758,20.362C177.996,20.857 178.328,21.291 178.727,21.667L179.755,20.574L180.782,19.481C180.621,19.329 180.522,19.188 180.462,19.062ZM179.755,20.574L178.727,21.667L179.148,22.062L180.176,20.97L181.203,19.877L180.782,19.481L179.755,20.574ZM180.176,20.97L179.148,22.062L179.569,22.458L180.596,21.365L181.624,20.273L181.203,19.877L180.176,20.97ZM180.596,21.365L179.569,22.458C179.678,22.56 179.723,22.646 179.746,22.72L182.608,21.821C182.418,21.216 182.076,20.698 181.624,20.273L180.596,21.365ZM182.608,21.821L179.746,22.72L179.906,23.229L181.337,22.779L182.768,22.33L182.608,21.821ZM181.337,22.779L179.906,23.229L180.066,23.738L181.497,23.289L182.928,22.839L182.768,22.33L181.337,22.779ZM181.497,23.289L180.066,23.738C180.128,23.935 180.161,24.14 180.163,24.36L181.663,24.342L183.163,24.324C183.157,23.818 183.079,23.321 182.928,22.839L181.497,23.289ZM181.663,24.342L180.163,24.36L180.17,24.904L181.67,24.886L183.169,24.869L183.163,24.324L181.663,24.342ZM181.67,24.886L180.17,24.904L180.176,25.448L181.676,25.43L183.176,25.413L183.169,24.869L181.67,24.886ZM181.676,25.43L180.176,25.448C180.183,26.036 180.319,26.6 180.576,27.127L181.924,26.47L183.272,25.812C183.207,25.679 183.177,25.551 183.176,25.413L181.676,25.43ZM181.924,26.47L180.576,27.127L180.817,27.622L182.165,26.965L183.513,26.307L183.272,25.812L181.924,26.47ZM182.165,26.965L180.817,27.622L181.059,28.117L182.407,27.459L183.755,26.802L183.513,26.307L182.165,26.965ZM182.407,27.459L181.059,28.117C181.058,28.115 181.054,28.106 181.05,28.091C181.046,28.076 181.043,28.059 181.042,28.041C181.04,28.004 181.048,27.991 181.04,28.014L182.458,28.504L183.875,28.995C184.124,28.275 184.101,27.512 183.755,26.802L182.407,27.459ZM182.458,28.504L181.04,28.014L180.85,28.563L182.267,29.054L183.685,29.545L183.875,28.995L182.458,28.504ZM182.267,29.054L180.85,28.563L180.66,29.113L182.077,29.604L183.495,30.095L183.685,29.545L182.267,29.054ZM182.077,29.604L180.66,29.113C180.371,29.947 180.506,30.783 180.966,31.489L182.223,30.67L183.48,29.851C183.471,29.838 183.495,29.87 183.505,29.942C183.515,30.016 183.502,30.074 183.495,30.095L182.077,29.604ZM182.223,30.67L180.966,31.489L181.303,32.005L182.56,31.187L183.816,30.368L183.48,29.851L182.223,30.67ZM182.56,31.187L181.303,32.005L181.639,32.522L182.896,31.703L184.153,30.884L183.816,30.368L182.56,31.187ZM182.896,31.703L181.639,32.522C181.68,32.584 181.694,32.623 181.699,32.64C181.703,32.655 181.703,32.662 181.703,32.668L183.2,32.758L184.697,32.848C184.741,32.124 184.527,31.458 184.153,30.884L182.896,31.703ZM183.2,32.758L181.703,32.668L181.67,33.207L183.167,33.297L184.665,33.387L184.697,32.848L183.2,32.758ZM183.167,33.297L181.67,33.207L181.638,33.746L183.135,33.836L184.632,33.926L184.665,33.387L183.167,33.297ZM183.135,33.836L181.638,33.746C181.619,34.063 181.586,34.378 181.541,34.692L183.025,34.908L184.509,35.124C184.567,34.727 184.608,34.327 184.632,33.926L183.135,33.836ZM183.025,34.908L181.541,34.692L181.463,35.224L182.947,35.44L184.432,35.656L184.509,35.124L183.025,34.908ZM182.947,35.44L181.463,35.224L181.386,35.757L182.87,35.973L184.354,36.189L184.432,35.656L182.947,35.44ZM182.87,35.973L181.386,35.757C181.383,35.776 181.372,35.841 181.262,35.963L182.377,36.967L183.491,37.971C183.936,37.478 184.254,36.881 184.354,36.189L182.87,35.973ZM182.377,36.967L181.262,35.963L180.847,36.425L181.961,37.429L183.076,38.433L183.491,37.971L182.377,36.967ZM181.961,37.429L180.847,36.425L180.431,36.886L181.545,37.89L182.66,38.894L183.076,38.433L181.961,37.429ZM181.545,37.89L180.431,36.886C180.133,37.217 179.9,37.634 179.814,38.129C179.728,38.622 179.806,39.087 179.962,39.491L182.76,38.41C182.762,38.415 182.793,38.504 182.769,38.643C182.745,38.785 182.681,38.871 182.66,38.894L181.545,37.89ZM182.76,38.41L179.962,39.491L180.193,40.09L181.593,39.55L182.992,39.009L182.76,38.41ZM181.593,39.55L180.193,40.09L180.425,40.689L181.824,40.149L183.223,39.608L182.992,39.009L181.593,39.55ZM181.824,40.149L180.425,40.689C180.434,40.715 180.409,40.66 180.42,40.552C180.433,40.434 180.48,40.34 180.52,40.288L181.713,41.197L182.905,42.107C183.498,41.33 183.535,40.416 183.223,39.608L181.824,40.149ZM181.713,41.197L180.52,40.288L180.177,40.737L181.37,41.647L182.562,42.557L182.905,42.107L181.713,41.197ZM181.37,41.647L180.177,40.737L179.834,41.186L181.027,42.096L182.219,43.006L182.562,42.557L181.37,41.647ZM181.027,42.096L179.834,41.186C179.533,41.581 179.284,42.005 179.097,42.457L180.482,43.032L181.868,43.606C181.949,43.41 182.064,43.21 182.219,43.006L181.027,42.096ZM180.482,43.032L179.097,42.457L178.895,42.943L181.667,44.092L181.868,43.606L180.482,43.032ZM181.667,44.092L178.895,42.943L178.694,43.429L180.079,44.004L181.465,44.578L181.667,44.092ZM180.079,44.004L178.694,43.429C178.649,43.537 178.578,43.644 178.456,43.756L180.474,45.975C180.902,45.586 181.241,45.119 181.465,44.578L180.079,44.004ZM180.474,45.975L178.456,43.756L178.042,44.131L179.051,45.241L180.061,46.351L180.474,45.975ZM179.051,45.241L178.042,44.131L177.629,44.507L179.647,46.727L180.061,46.351L179.051,45.241ZM179.647,46.727L177.629,44.507C177.191,44.906 176.85,45.389 176.638,45.952L178.042,46.48L179.445,47.009C179.478,46.922 179.535,46.829 179.647,46.727ZM178.042,46.48L176.638,45.952L176.454,46.44L177.858,46.968L179.262,47.496L179.445,47.009L178.042,46.48ZM177.858,46.968L176.454,46.44L176.271,46.927L179.079,47.984L179.262,47.496L177.858,46.968ZM179.079,47.984L176.271,46.927C176.081,47.432 175.99,47.968 175.971,48.515L177.47,48.566L178.969,48.617C178.979,48.334 179.024,48.129 179.079,47.984ZM177.47,48.566L175.971,48.515L175.95,49.138L178.948,49.239L178.969,48.617L177.47,48.566ZM178.948,49.239L175.95,49.138L175.929,49.761L178.927,49.862L178.948,49.239ZM178.927,49.862L175.929,49.761C175.928,49.787 175.925,49.746 175.962,49.674C176.002,49.597 176.056,49.544 176.094,49.518L177.798,51.987C178.544,51.472 178.899,50.691 178.927,49.862ZM177.798,51.987L176.094,49.518L175.633,49.836L177.337,52.305L177.798,51.987ZM177.337,52.305L175.633,49.836L175.172,50.154L176.876,52.623L177.337,52.305ZM176.876,52.623L175.172,50.154C174.754,50.443 174.382,50.782 174.064,51.174L176.394,53.063C176.522,52.906 176.679,52.759 176.876,52.623ZM176.394,53.063L174.064,51.174L173.73,51.585L174.895,52.53L176.06,53.475L176.394,53.063ZM174.895,52.53L173.73,51.585L173.396,51.997L174.561,52.942L175.727,53.886L176.06,53.475L174.895,52.53ZM174.561,52.942L173.396,51.997C173.238,52.192 173.062,52.369 172.867,52.528L174.767,54.85C175.119,54.562 175.44,54.24 175.727,53.886L174.561,52.942ZM174.767,54.85L172.867,52.528L172.457,52.864L173.406,54.025L174.356,55.186L174.767,54.85ZM173.406,54.025L172.457,52.864L172.046,53.2L172.996,54.361L173.945,55.522L174.356,55.186L173.406,54.025ZM172.996,54.361L172.046,53.2C171.819,53.386 171.582,53.557 171.335,53.714L172.941,56.247C173.29,56.026 173.625,55.784 173.945,55.522L172.996,54.361ZM172.941,56.247L171.335,53.714L170.888,53.997L171.691,55.264L172.494,56.531L172.941,56.247ZM171.691,55.264L170.888,53.997L170.44,54.281L171.244,55.547L172.047,56.814L172.494,56.531L171.691,55.264ZM171.244,55.547L170.44,54.281C170.109,54.491 169.788,54.712 169.478,54.946L170.379,56.145L171.28,57.344C171.526,57.159 171.782,56.982 172.047,56.814L171.244,55.547ZM170.379,56.145L169.478,54.946L169.06,55.26L169.961,56.459L170.862,57.658L171.28,57.344L170.379,56.145ZM169.961,56.459L169.06,55.26L168.642,55.573L169.543,56.773L170.444,57.972L170.862,57.658L169.961,56.459ZM169.543,56.773L168.642,55.573C168.293,55.836 167.966,56.129 167.661,56.452L168.752,57.482L169.842,58.512C170.035,58.308 170.236,58.128 170.444,57.972L169.543,56.773ZM168.752,57.482L167.661,56.452L167.287,56.848L168.378,57.878L169.468,58.908L169.842,58.512L168.752,57.482ZM168.378,57.878L167.287,56.848L166.913,57.244L168.004,58.274L169.094,59.304L169.468,58.908L168.378,57.878ZM168.004,58.274L166.913,57.244C166.729,57.439 166.53,57.613 166.316,57.767L167.191,58.985L168.067,60.203C168.437,59.936 168.78,59.637 169.094,59.304L168.004,58.274ZM167.191,58.985L166.316,57.767L165.878,58.081L166.753,59.299L167.629,60.517L168.067,60.203L167.191,58.985ZM166.753,59.299L165.878,58.081L165.44,58.396L166.315,59.614L167.191,60.832L167.629,60.517L166.753,59.299ZM166.315,59.614L165.44,58.396C165.41,58.418 165.37,58.44 165.27,58.442L165.303,59.942L165.337,61.442C166.002,61.427 166.637,61.23 167.191,60.832L166.315,59.614ZM165.303,59.942L165.27,58.442L164.696,58.455L164.729,59.955L164.763,61.455L165.337,61.442L165.303,59.942ZM164.729,59.955L164.696,58.455L164.122,58.468L164.155,59.968L164.189,61.468L164.763,61.455L164.729,59.955ZM164.155,59.968L164.122,58.468C163.493,58.483 162.886,58.647 162.339,58.984L163.125,60.262L163.91,61.54C163.972,61.502 164.053,61.471 164.189,61.468L164.155,59.968ZM163.125,60.262L162.339,58.984L161.883,59.264L162.668,60.542L163.453,61.82L163.91,61.54L163.125,60.262ZM162.668,60.542L161.883,59.264L161.426,59.545L162.996,62.101L163.453,61.82L162.668,60.542ZM162.996,62.101L161.426,59.545C161.215,59.675 160.995,59.778 160.767,59.856L161.252,61.275L161.738,62.695C162.179,62.544 162.599,62.345 162.996,62.101ZM161.252,61.275L160.767,59.856L160.264,60.028L160.75,61.447L161.236,62.866L161.738,62.695L161.252,61.275ZM160.75,61.447L160.264,60.028L159.762,60.2L160.734,63.038L161.236,62.866L160.75,61.447ZM160.734,63.038L159.762,60.2C159.559,60.27 159.349,60.31 159.13,60.323L159.213,61.82L159.295,63.318C159.787,63.291 160.268,63.198 160.734,63.038ZM159.213,61.82L159.13,60.323L158.597,60.352L158.679,61.85L158.762,63.347L159.295,63.318L159.213,61.82ZM158.679,61.85L158.597,60.352L158.063,60.381L158.146,61.879L158.228,63.377L158.762,63.347L158.679,61.85ZM158.146,61.879L158.063,60.381C157.785,60.397 157.506,60.39 157.227,60.363L156.931,63.348C157.363,63.391 157.796,63.401 158.228,63.377L158.146,61.879ZM156.931,63.348L157.227,60.363L156.693,60.31L156.545,61.803L156.398,63.295L156.931,63.348ZM156.545,61.803L156.693,60.31L156.16,60.257L155.864,63.243L156.398,63.295L156.545,61.803ZM155.864,63.243L156.16,60.257C155.758,60.217 155.36,60.197 154.966,60.196L154.958,63.196C155.252,63.196 155.554,63.212 155.864,63.243ZM154.958,63.196L154.966,60.196L154.45,60.194L154.442,63.194L154.958,63.196ZM154.442,63.194L154.45,60.194L153.934,60.193L153.926,63.193L154.442,63.194ZM153.926,63.193L153.934,60.193C153.527,60.192 153.119,60.216 152.712,60.266L153.076,63.244C153.362,63.209 153.645,63.192 153.926,63.193ZM153.076,63.244L152.712,60.266L152.192,60.33L152.556,63.307L153.076,63.244ZM152.556,63.307L152.192,60.33L151.672,60.393L152.036,63.371L152.556,63.307ZM152.036,63.371L151.672,60.393C151.255,60.444 150.84,60.525 150.426,60.634L150.809,62.084L151.193,63.535C151.479,63.459 151.76,63.405 152.036,63.371ZM150.809,62.084L150.426,60.634L149.901,60.773L150.284,62.223L150.668,63.673L151.193,63.535L150.809,62.084ZM150.284,62.223L149.901,60.773L149.376,60.912L149.759,62.362L150.143,63.812L150.668,63.673L150.284,62.223ZM149.759,62.362L149.376,60.912C149.337,60.922 149.305,60.925 149.236,60.899L148.709,62.304L148.183,63.709C148.814,63.945 149.482,63.987 150.143,63.812L149.759,62.362ZM148.709,62.304L149.236,60.899L148.711,60.703L148.184,62.107L147.658,63.512L148.183,63.709L148.709,62.304ZM148.184,62.107L148.711,60.703L148.186,60.506L147.659,61.91L147.133,63.315L147.658,63.512L148.184,62.107ZM147.659,61.91L148.186,60.506C147.632,60.298 147.05,60.214 146.455,60.276L146.609,61.768L146.764,63.26C146.869,63.249 146.986,63.26 147.133,63.315L147.659,61.91ZM146.609,61.768L146.455,60.276L145.93,60.33L146.084,61.822L146.239,63.314L146.764,63.26L146.609,61.768ZM146.084,61.822L145.93,60.33L145.405,60.385L145.559,61.877L145.714,63.369L146.239,63.314L146.084,61.822ZM145.559,61.877L145.405,60.385C145.159,60.41 144.915,60.41 144.669,60.383L144.509,61.875L144.35,63.366C144.804,63.415 145.259,63.416 145.714,63.369L145.559,61.877ZM144.509,61.875L144.669,60.383L144.144,60.327L143.984,61.819L143.825,63.31L144.35,63.366L144.509,61.875ZM143.984,61.819L144.144,60.327L143.619,60.271L143.459,61.763L143.3,63.254L143.825,63.31L143.984,61.819ZM143.459,61.763L143.619,60.271C142.91,60.195 142.246,60.372 141.664,60.705L142.409,62.007L143.155,63.309C143.219,63.272 143.258,63.26 143.275,63.256C143.289,63.253 143.295,63.254 143.3,63.254L143.459,61.763ZM142.409,62.007L141.664,60.705L141.139,61.006L141.884,62.308L142.63,63.609L143.155,63.309L142.409,62.007ZM141.884,62.308L141.139,61.006L140.614,61.307L141.359,62.609L142.105,63.91L142.63,63.609L141.884,62.308ZM141.359,62.609L140.614,61.307C140.65,61.286 140.758,61.239 140.913,61.247C141.062,61.255 141.146,61.309 141.151,61.312L140.309,62.554L139.468,63.796C139.823,64.036 140.257,64.217 140.756,64.243C141.26,64.269 141.718,64.131 142.105,63.91L141.359,62.609ZM140.309,62.554L141.151,61.312L140.626,60.956L139.784,62.198L138.943,63.44L139.468,63.796L140.309,62.554ZM139.784,62.198L140.626,60.956L140.101,60.6L139.259,61.842L138.418,63.084L138.943,63.44L139.784,62.198ZM139.259,61.842L140.101,60.6C139.431,60.147 138.602,59.952 137.742,60.233L138.209,61.659L138.677,63.084C138.655,63.091 138.624,63.099 138.586,63.101C138.548,63.104 138.51,63.102 138.476,63.096C138.407,63.084 138.386,63.062 138.418,63.084L139.259,61.842ZM138.209,61.659L137.742,60.233L137.217,60.406L137.684,61.831L138.152,63.256L138.677,63.084L138.209,61.659ZM137.684,61.831L137.217,60.406L136.692,60.578L137.159,62.003L137.627,63.428L138.152,63.256L137.684,61.831ZM137.159,62.003L136.692,60.578C136.573,60.617 136.477,60.62 136.383,60.603L135.835,63.552C136.441,63.665 137.046,63.619 137.627,63.428L137.159,62.003ZM135.835,63.552L136.383,60.603L135.858,60.505L135.31,63.455L135.835,63.552ZM135.31,63.455L135.858,60.505L135.333,60.408L135.059,61.883L134.785,63.357L135.31,63.455ZM135.059,61.883L135.333,60.408C134.654,60.281 133.99,60.384 133.383,60.663L134.009,62.026L134.636,63.389C134.729,63.347 134.765,63.354 134.785,63.357L135.059,61.883ZM134.009,62.026L133.383,60.663L132.858,60.905L133.484,62.268L134.111,63.631L134.636,63.389L134.009,62.026ZM133.484,62.268L132.858,60.905L132.333,61.146L132.959,62.509L133.586,63.872L134.111,63.631L133.484,62.268ZM132.959,62.509L132.333,61.146C132.343,61.141 132.393,61.122 132.467,61.124C132.501,61.125 132.53,61.13 132.553,61.136C132.575,61.141 132.585,61.147 132.584,61.146L131.909,62.486L131.235,63.826C131.984,64.203 132.813,64.227 133.586,63.872L132.959,62.509ZM131.909,62.486L132.584,61.146L132.059,60.882L131.384,62.222L130.71,63.562L131.235,63.826L131.909,62.486ZM131.384,62.222L132.059,60.882L131.534,60.618L130.859,61.958L130.185,63.298L130.71,63.562L131.384,62.222ZM130.859,61.958L131.534,60.618C130.837,60.267 130.06,60.198 129.3,60.472L129.809,61.883L130.319,63.294C130.316,63.295 130.305,63.298 130.287,63.301C130.269,63.304 130.249,63.305 130.228,63.303C130.184,63.3 130.167,63.288 130.185,63.298L130.859,61.958ZM129.809,61.883L129.3,60.472L128.775,60.662L129.284,62.073L129.794,63.484L130.319,63.294L129.809,61.883ZM129.284,62.073L128.775,60.662L128.25,60.852L128.759,62.262L129.269,63.673L129.794,63.484L129.284,62.073ZM128.759,62.262L128.25,60.852C128.248,60.852 128.253,60.85 128.265,60.848C128.277,60.847 128.291,60.846 128.306,60.846C128.321,60.847 128.333,60.849 128.339,60.851C128.345,60.852 128.343,60.853 128.333,60.848L127.709,62.212L127.086,63.576C127.779,63.893 128.536,63.938 129.269,63.673L128.759,62.262ZM127.709,62.212L128.333,60.848L127.808,60.608L127.184,61.972L126.561,63.336L127.086,63.576L127.709,62.212ZM127.184,61.972L127.808,60.608L127.283,60.368L126.659,61.732L126.036,63.096L126.561,63.336L127.184,61.972ZM126.659,61.732L127.283,60.368C126.368,59.949 125.444,60.138 124.724,60.666L125.609,61.876L126.495,63.087C126.515,63.073 126.46,63.117 126.338,63.134C126.206,63.152 126.095,63.124 126.036,63.096L126.659,61.732ZM125.609,61.876L124.724,60.666L124.199,61.05L125.084,62.26L125.97,63.471L126.495,63.087L125.609,61.876ZM125.084,62.26L124.199,61.05L123.674,61.434L124.559,62.645L125.445,63.855L125.97,63.471L125.084,62.26ZM124.559,62.645L123.674,61.434C123.664,61.441 123.736,61.386 123.882,61.371C124.037,61.355 124.156,61.397 124.209,61.425L123.509,62.752L122.81,64.079C123.212,64.291 123.682,64.407 124.187,64.356C124.682,64.305 125.105,64.104 125.445,63.855L124.559,62.645ZM123.509,62.752L124.209,61.425L123.684,61.148L122.984,62.475L122.285,63.802L122.81,64.079L123.509,62.752ZM122.984,62.475L123.684,61.148L123.159,60.871L122.459,62.198L121.76,63.525L122.285,63.802L122.984,62.475ZM122.459,62.198L123.159,60.871C122.462,60.504 121.674,60.42 120.899,60.7L121.409,62.111L121.92,63.522C121.914,63.524 121.9,63.528 121.879,63.531C121.857,63.534 121.834,63.535 121.81,63.533C121.76,63.529 121.741,63.515 121.76,63.525L122.459,62.198ZM121.409,62.111L120.899,60.7L120.374,60.89L120.884,62.301L121.395,63.711L121.92,63.522L121.409,62.111ZM120.884,62.301L120.374,60.89L119.849,61.08L120.359,62.491L120.87,63.901L121.395,63.711L120.884,62.301ZM120.359,62.491L119.849,61.08C119.845,61.082 119.848,61.08 119.857,61.079C119.866,61.077 119.878,61.076 119.891,61.077C119.904,61.077 119.914,61.079 119.919,61.08C119.923,61.081 119.921,61.081 119.91,61.077L118.708,63.825C119.4,64.128 120.148,64.162 120.87,63.901L120.359,62.491ZM118.708,63.825L119.91,61.077L119.385,60.847L118.183,63.596L118.708,63.825ZM118.183,63.596L119.385,60.847L118.86,60.618L117.658,63.366L118.183,63.596ZM117.658,63.366L118.86,60.618C118.306,60.375 117.712,60.26 117.096,60.306L117.209,61.802L117.323,63.298C117.407,63.291 117.513,63.302 117.658,63.366ZM117.209,61.802L117.096,60.306L116.571,60.346L116.684,61.842L116.798,63.338L117.323,63.298L117.209,61.802ZM116.684,61.842L116.571,60.346L116.046,60.386L116.159,61.882L116.273,63.377L116.798,63.338L116.684,61.842ZM116.159,61.882L116.046,60.386C115.547,60.424 115.058,60.535 114.585,60.712L115.109,62.117L115.634,63.523C115.86,63.438 116.072,63.393 116.273,63.377L116.159,61.882ZM115.109,62.117L114.585,60.712L114.06,60.908L114.584,62.313L115.109,63.719L115.634,63.523L115.109,62.117ZM114.584,62.313L114.06,60.908L113.535,61.104L114.059,62.509L114.584,63.915L115.109,63.719L114.584,62.313ZM114.059,62.509L113.535,61.104C113.466,61.13 113.433,61.127 113.393,61.116L113.009,62.567L112.626,64.017C113.286,64.191 113.953,64.15 114.584,63.915L114.059,62.509ZM113.009,62.567L113.393,61.116L112.868,60.978L112.484,62.428L112.101,63.878L112.626,64.017L113.009,62.567ZM112.484,62.428L112.868,60.978L112.343,60.839L111.959,62.289L111.576,63.739L112.101,63.878L112.484,62.428ZM111.959,62.289L112.343,60.839C111.967,60.74 111.59,60.651 111.213,60.573L110.605,63.511C110.929,63.578 111.252,63.654 111.576,63.739L111.959,62.289ZM110.605,63.511L111.213,60.573L110.688,60.464L110.08,63.402L110.605,63.511ZM110.08,63.402L110.688,60.464L110.163,60.356L109.555,63.293L110.08,63.402ZM109.555,63.293L110.163,60.356C109.749,60.27 109.332,60.212 108.914,60.183L108.704,63.175C108.986,63.195 109.27,63.234 109.555,63.293ZM108.704,63.175L108.914,60.183L108.389,60.146L108.284,61.642L108.179,63.139L108.704,63.175ZM108.284,61.642L108.389,60.146L107.864,60.109L107.654,63.102L108.179,63.139L108.284,61.642ZM107.654,63.102L107.864,60.109C107.346,60.073 106.831,60.124 106.328,60.256L106.709,61.707L107.091,63.157C107.288,63.106 107.473,63.089 107.654,63.102ZM106.709,61.707L106.328,60.256L105.803,60.394L106.184,61.845L106.566,63.296L107.091,63.157L106.709,61.707ZM106.184,61.845L105.803,60.394L105.278,60.533L105.659,61.983L106.041,63.434L106.566,63.296L106.184,61.845ZM105.659,61.983L105.278,60.533C104.911,60.629 104.545,60.732 104.179,60.842L104.609,62.279L105.04,63.716C105.374,63.616 105.708,63.522 106.041,63.434L105.659,61.983ZM104.609,62.279L104.179,60.842L103.654,60.999L104.084,62.436L104.515,63.873L105.04,63.716L104.609,62.279ZM104.084,62.436L103.654,60.999L103.129,61.156L103.559,62.593L103.99,64.03L104.515,63.873L104.084,62.436ZM103.559,62.593L103.129,61.156C102.87,61.234 102.616,61.283 102.368,61.306L102.509,62.8L102.651,64.293C103.102,64.25 103.549,64.162 103.99,64.03L103.559,62.593ZM102.509,62.8L102.368,61.306L101.843,61.356L101.984,62.849L102.126,64.343L102.651,64.293L102.509,62.8ZM101.984,62.849L101.843,61.356L101.318,61.406L101.459,62.899L101.601,64.392L102.126,64.343L101.984,62.849ZM101.459,62.899L101.318,61.406C100.983,61.438 100.648,61.464 100.313,61.486L100.409,62.983L100.506,64.479C100.871,64.456 101.236,64.427 101.601,64.392L101.459,62.899ZM100.409,62.983L100.313,61.486L99.788,61.519L99.884,63.016L99.98,64.513L100.506,64.479L100.409,62.983ZM99.884,63.016L99.788,61.519L99.263,61.553L99.359,63.05L99.455,64.547L99.98,64.513L99.884,63.016ZM99.359,63.05L99.263,61.553C99.057,61.566 98.848,61.551 98.633,61.503L98.309,62.968L97.986,64.433C98.471,64.54 98.962,64.579 99.455,64.547L99.359,63.05ZM98.309,62.968L98.633,61.503L98.108,61.387L97.784,62.852L97.461,64.317L97.986,64.433L98.309,62.968ZM97.784,62.852L98.108,61.387L97.583,61.271L97.259,62.736L96.936,64.201L97.461,64.317L97.784,62.852ZM97.259,62.736L97.583,61.271C97.066,61.157 96.541,61.133 96.016,61.201L96.209,62.688L96.403,64.176C96.578,64.153 96.753,64.16 96.936,64.201L97.259,62.736ZM96.209,62.688L96.016,61.201L95.491,61.269L95.684,62.757L95.878,64.244L96.403,64.176L96.209,62.688ZM95.684,62.757L95.491,61.269L94.966,61.338L95.159,62.825L95.353,64.312L95.878,64.244L95.684,62.757ZM95.159,62.825L94.966,61.338C94.749,61.366 94.533,61.365 94.315,61.335L94.109,62.821L93.904,64.306C94.386,64.373 94.87,64.375 95.353,64.312L95.159,62.825ZM94.109,62.821L94.315,61.335L93.79,61.262L93.584,62.748L93.379,64.234L93.904,64.306L94.109,62.821ZM93.584,62.748L93.79,61.262L93.265,61.189L93.059,62.675L92.854,64.161L93.379,64.234L93.584,62.748ZM93.059,62.675L93.265,61.189C92.902,61.139 92.539,61.094 92.177,61.053L92.009,62.544L91.842,64.034C92.179,64.072 92.516,64.114 92.854,64.161L93.059,62.675ZM92.009,62.544L92.177,61.053L91.652,60.994L91.484,62.485L91.317,63.975L91.842,64.034L92.009,62.544ZM91.484,62.485L91.652,60.994L91.127,60.935L90.959,62.426L90.792,63.917L91.317,63.975L91.484,62.485ZM90.959,62.426L91.127,60.935C90.857,60.905 90.585,60.852 90.309,60.776L89.909,62.222L89.51,63.668C89.933,63.785 90.361,63.868 90.792,63.917L90.959,62.426ZM89.909,62.222L90.309,60.776L89.784,60.631L89.384,62.077L88.985,63.523L89.51,63.668L89.909,62.222ZM89.384,62.077L89.784,60.631L89.259,60.486L88.859,61.932L88.46,63.377L88.985,63.523L89.384,62.077ZM88.859,61.932L89.259,60.486C88.483,60.271 87.726,60.407 87.071,60.778L87.809,62.083L88.548,63.389C88.583,63.369 88.581,63.377 88.549,63.382C88.534,63.384 88.516,63.385 88.498,63.383C88.48,63.382 88.467,63.379 88.46,63.377L88.859,61.932ZM87.809,62.083L87.071,60.778L86.546,61.075L87.284,62.38L88.023,63.686L88.548,63.389L87.809,62.083ZM87.284,62.38L86.546,61.075L86.021,61.371L86.759,62.677L87.498,63.983L88.023,63.686L87.284,62.38ZM86.759,62.677L86.021,61.371C85.868,61.458 85.779,61.466 85.734,61.466L85.709,62.965L85.685,64.465C86.339,64.476 86.95,64.292 87.498,63.983L86.759,62.677ZM85.709,62.965L85.734,61.466L85.209,61.457L85.184,62.957L85.16,64.456L85.685,64.465L85.709,62.965ZM85.184,62.957L85.209,61.457L84.684,61.448L84.659,62.948L84.635,64.448L85.16,64.456L85.184,62.957ZM84.659,62.948L84.684,61.448C84.424,61.444 84.162,61.416 83.897,61.364L83.609,62.837L83.321,64.309C83.756,64.394 84.194,64.441 84.635,64.448L84.659,62.948ZM83.609,62.837L83.897,61.364L83.372,61.262L83.084,62.734L82.796,64.206L83.321,64.309L83.609,62.837ZM83.084,62.734L83.372,61.262L82.847,61.159L82.559,62.631L82.271,64.103L82.796,64.206L83.084,62.734ZM82.559,62.631L82.847,61.159C82.482,61.087 82.116,61.022 81.751,60.962L81.509,62.443L81.268,63.923C81.602,63.978 81.937,64.038 82.271,64.103L82.559,62.631ZM81.509,62.443L81.751,60.962L81.226,60.877L80.984,62.357L80.743,63.838L81.268,63.923L81.509,62.443ZM80.984,62.357L81.226,60.877L80.701,60.791L80.459,62.272L80.218,63.752L80.743,63.838L80.984,62.357ZM80.459,62.272L80.701,60.791C80.218,60.712 79.731,60.699 79.245,60.753L79.409,62.244L79.573,63.735C79.787,63.711 80.001,63.717 80.218,63.752L80.459,62.272ZM79.409,62.244L79.245,60.753L78.72,60.811L78.884,62.302L79.048,63.793L79.573,63.735L79.409,62.244ZM78.884,62.302L78.72,60.811L78.195,60.868L78.359,62.359L78.523,63.85L79.048,63.793L78.884,62.302ZM78.359,62.359L78.195,60.868C77.981,60.892 77.767,60.886 77.55,60.851L77.309,62.332L77.069,63.812C77.552,63.891 78.038,63.904 78.523,63.85L78.359,62.359ZM77.309,62.332L77.55,60.851L77.025,60.766L76.784,62.246L76.544,63.727L77.069,63.812L77.309,62.332ZM76.784,62.246L77.025,60.766L76.5,60.681L76.259,62.161L76.019,63.642L76.544,63.727L76.784,62.246ZM76.259,62.161L76.5,60.681C76.102,60.616 75.704,60.571 75.305,60.545L75.209,62.042L75.113,63.539C75.414,63.558 75.716,63.593 76.019,63.642L76.259,62.161ZM75.209,62.042L75.305,60.545L74.78,60.512L74.684,62.009L74.588,63.506L75.113,63.539L75.209,62.042ZM74.684,62.009L74.78,60.512L74.255,60.478L74.159,61.975L74.063,63.472L74.588,63.506L74.684,62.009ZM74.159,61.975L74.255,60.478C73.743,60.445 73.235,60.495 72.737,60.623L73.109,62.076L73.481,63.529C73.683,63.477 73.875,63.46 74.063,63.472L74.159,61.975ZM73.109,62.076L72.737,60.623L72.213,60.757L72.956,63.663L73.481,63.529L73.109,62.076ZM72.956,63.663L72.213,60.757L71.688,60.891L72.431,63.798L72.956,63.663ZM72.431,63.798L71.688,60.891C71.337,60.981 70.986,61.071 70.635,61.162L71.009,62.614L71.384,64.067C71.733,63.977 72.082,63.887 72.431,63.798ZM71.009,62.614L70.635,61.162L70.11,61.297L70.484,62.75L70.859,64.202L71.384,64.067L71.009,62.614ZM70.484,62.75L70.11,61.297L69.585,61.433L69.959,62.885L70.334,64.337L70.859,64.202L70.484,62.75ZM69.959,62.885L69.585,61.433C69.345,61.494 69.113,61.526 68.884,61.529L68.909,63.029L68.934,64.529C69.406,64.521 69.873,64.456 70.334,64.337L69.959,62.885ZM68.909,63.029L68.884,61.529L68.359,61.538L68.384,63.038L68.409,64.538L68.934,64.529L68.909,63.029ZM68.384,63.038L68.359,61.538L67.834,61.547L67.859,63.047L67.884,64.546L68.409,64.538L68.384,63.038ZM67.859,63.047L67.834,61.547C67.621,61.55 67.404,61.525 67.178,61.468L66.809,62.922L66.44,64.376C66.915,64.497 67.397,64.555 67.884,64.546L67.859,63.047ZM66.809,62.922L67.178,61.468L66.653,61.335L66.284,62.789L65.915,64.243L66.44,64.376L66.809,62.922ZM66.284,62.789L66.653,61.335L66.128,61.202L65.759,62.656L65.39,64.11L65.915,64.243L66.284,62.789ZM65.759,62.656L66.128,61.202C65.669,61.085 65.204,61.022 64.735,61.014L64.709,62.514L64.684,64.013C64.914,64.017 65.149,64.049 65.39,64.11L65.759,62.656ZM64.709,62.514L64.735,61.014L64.21,61.005L64.159,64.005L64.684,64.013L64.709,62.514ZM64.159,64.005L64.21,61.005L63.685,60.996L63.659,62.496L63.634,63.996L64.159,64.005ZM63.659,62.496L63.685,60.996C63.226,60.988 62.77,61.03 62.317,61.12L62.609,62.591L62.902,64.062C63.149,64.013 63.392,63.992 63.634,63.996L63.659,62.496ZM62.609,62.591L62.317,61.12L61.792,61.224L62.377,64.167L62.902,64.062L62.609,62.591ZM62.377,64.167L61.792,61.224L61.267,61.328L61.559,62.8L61.852,64.271L62.377,64.167ZM61.559,62.8L61.267,61.328C61.264,61.329 61.263,61.329 61.265,61.329C61.266,61.329 61.267,61.329 61.265,61.329C61.263,61.329 61.24,61.325 61.191,61.3L60.509,62.636L59.828,63.972C60.446,64.288 61.137,64.413 61.852,64.271L61.559,62.8ZM60.509,62.636L61.191,61.3L60.666,61.032L59.984,62.368L59.303,63.705L59.828,63.972L60.509,62.636ZM59.984,62.368L60.666,61.032L60.141,60.764L59.459,62.101L58.778,63.437L59.303,63.705L59.984,62.368ZM59.459,62.101L60.141,60.764C59.428,60.401 58.63,60.341 57.86,60.644L58.409,62.039L58.958,63.435C58.946,63.44 58.904,63.452 58.847,63.449C58.791,63.446 58.765,63.431 58.778,63.437L59.459,62.101ZM58.409,62.039L57.86,60.644L57.335,60.85L57.884,62.246L58.433,63.642L58.958,63.435L58.409,62.039ZM57.884,62.246L57.335,60.85L56.81,61.057L57.359,62.452L57.908,63.848L58.433,63.642L57.884,62.246ZM57.359,62.452L56.81,61.057C56.805,61.059 56.806,61.057 56.815,61.056C56.824,61.054 56.836,61.053 56.851,61.053C56.865,61.053 56.877,61.055 56.884,61.056C56.892,61.058 56.892,61.059 56.885,61.056L56.309,62.441L55.734,63.826C56.44,64.119 57.193,64.13 57.908,63.848L57.359,62.452ZM56.309,62.441L56.885,61.056L56.36,60.838L55.784,62.223L55.209,63.608L55.734,63.826L56.309,62.441ZM55.784,62.223L56.36,60.838L55.835,60.62L55.259,62.005L54.684,63.39L55.209,63.608L55.784,62.223ZM55.259,62.005L55.835,60.62C55.29,60.394 54.712,60.285 54.115,60.323L54.209,61.82L54.304,63.317C54.407,63.311 54.528,63.326 54.684,63.39L55.259,62.005ZM54.209,61.82L54.115,60.323L53.59,60.356L53.779,63.35L54.304,63.317L54.209,61.82ZM53.779,63.35L53.59,60.356L53.065,60.389L53.254,63.383L53.779,63.35ZM53.254,63.383L53.065,60.389C52.56,60.421 52.067,60.53 51.589,60.707L52.109,62.114L52.63,63.521C52.852,63.439 53.059,63.396 53.254,63.383ZM52.109,62.114L51.589,60.707L51.064,60.901L51.584,62.308L52.105,63.715L52.63,63.521L52.109,62.114ZM51.584,62.308L51.064,60.901L50.539,61.095L51.059,62.502L51.58,63.909L52.105,63.715L51.584,62.308ZM51.059,62.502L50.539,61.095C50.345,61.167 50.173,61.195 50.013,61.195L50.009,62.695L50.006,64.195C50.546,64.196 51.073,64.096 51.58,63.909L51.059,62.502ZM50.009,62.695L50.013,61.195L49.488,61.194L49.484,62.694L49.481,64.194L50.006,64.195L50.009,62.695ZM49.484,62.694L49.488,61.194L48.963,61.193L48.959,62.693L48.956,64.193L49.481,64.194L49.484,62.694ZM48.959,62.693L48.963,61.193C48.649,61.192 48.336,61.18 48.022,61.156L47.909,62.652L47.797,64.147C48.183,64.177 48.569,64.192 48.956,64.193L48.959,62.693ZM47.909,62.652L48.022,61.156L47.497,61.116L47.384,62.612L47.272,64.108L47.797,64.147L47.909,62.652ZM47.384,62.612L47.497,61.116L46.972,61.077L46.859,62.573L46.747,64.068L47.272,64.108L47.384,62.612ZM46.859,62.573L46.972,61.077C46.8,61.064 46.611,61.02 46.4,60.929L45.809,62.308L45.218,63.687C45.707,63.896 46.218,64.028 46.747,64.068L46.859,62.573ZM45.809,62.308L46.4,60.929L45.875,60.704L45.284,62.083L44.693,63.462L45.218,63.687L45.809,62.308ZM45.284,62.083L45.875,60.704L45.35,60.479L44.168,63.237L44.693,63.462L45.284,62.083ZM44.168,63.237L45.35,60.479C44.849,60.264 44.322,60.135 43.777,60.111L43.642,63.108C43.796,63.115 43.97,63.152 44.168,63.237ZM43.642,63.108L43.777,60.111L43.252,60.087L43.184,61.586L43.117,63.084L43.642,63.108ZM43.184,61.586L43.252,60.087L42.727,60.063L42.659,61.562L42.592,63.06L43.117,63.084L43.184,61.586ZM42.659,61.562L42.727,60.063C42.116,60.036 41.53,60.165 40.985,60.414L41.609,61.778L42.233,63.142C42.388,63.071 42.502,63.056 42.592,63.06L42.659,61.562ZM41.609,61.778L40.985,60.414L40.46,60.655L41.084,62.019L41.708,63.383L42.233,63.142L41.609,61.778ZM41.084,62.019L40.46,60.655L39.935,60.895L40.559,62.259L41.183,63.623L41.708,63.383L41.084,62.019ZM40.559,62.259L39.935,60.895C39.678,61.012 39.434,61.093 39.2,61.142L39.819,64.077C40.285,63.979 40.74,63.826 41.183,63.623L40.559,62.259ZM39.819,64.077L39.2,61.142L38.675,61.253L39.294,64.188L39.819,64.077ZM39.294,64.188L38.675,61.253L38.15,61.364L38.769,64.299L39.294,64.188ZM38.769,64.299L38.15,61.364C38.078,61.379 38.007,61.378 37.905,61.342L37.409,62.758L36.913,64.174C37.512,64.383 38.141,64.431 38.769,64.299ZM37.409,62.758L37.905,61.342L37.38,61.158L36.388,63.99L36.913,64.174L37.409,62.758ZM36.388,63.99L37.38,61.158L36.855,60.974L36.359,62.39L35.863,63.806L36.388,63.99ZM36.359,62.39L36.855,60.974C36.174,60.736 35.465,60.744 34.79,60.993L35.309,62.4L35.829,63.807C35.842,63.802 35.849,63.801 35.851,63.8C35.852,63.8 35.851,63.8 35.848,63.801C35.845,63.801 35.844,63.8 35.845,63.8C35.846,63.801 35.852,63.802 35.863,63.806L36.359,62.39ZM35.309,62.4L34.79,60.993L34.265,61.186L34.784,62.594L35.304,64.001L35.829,63.807L35.309,62.4ZM34.784,62.594L34.265,61.186L33.74,61.38L34.259,62.787L34.779,64.195L35.304,64.001L34.784,62.594ZM34.259,62.787L33.74,61.38C33.748,61.377 33.765,61.372 33.789,61.369C33.814,61.365 33.841,61.364 33.868,61.367C33.925,61.372 33.949,61.388 33.93,61.378L33.209,62.693L32.488,64.009C33.189,64.393 33.99,64.486 34.779,64.195L34.259,62.787ZM33.209,62.693L33.93,61.378L33.405,61.09L32.684,62.405L31.963,63.721L32.488,64.009L33.209,62.693ZM32.684,62.405L33.405,61.09L32.88,60.802L32.159,62.118L31.438,63.433L31.963,63.721L32.684,62.405ZM32.159,62.118L32.88,60.802C32.322,60.496 31.698,60.324 31.031,60.361L31.115,61.859L31.198,63.356C31.224,63.355 31.296,63.355 31.438,63.433L32.159,62.118ZM31.115,61.859L31.031,60.361L30.511,60.39L30.595,61.887L30.678,63.385L31.198,63.356L31.115,61.859ZM30.595,61.887L30.511,60.39L29.992,60.419L30.075,61.916L30.158,63.414L30.678,63.385L30.595,61.887ZM30.075,61.916L29.992,60.419C29.553,60.443 29.114,60.508 28.675,60.61L29.356,63.532C29.637,63.466 29.904,63.428 30.158,63.414L30.075,61.916ZM29.356,63.532L28.675,60.61L28.135,60.736L28.476,62.197L28.816,63.658L29.356,63.532ZM28.476,62.197L28.135,60.736L27.596,60.862L27.936,62.323L28.277,63.783L28.816,63.658L28.476,62.197ZM27.936,62.323L27.596,60.862C27.402,60.907 27.226,60.915 27.058,60.893L26.869,62.381L26.68,63.869C27.216,63.937 27.751,63.906 28.277,63.783L27.936,62.323ZM26.869,62.381L27.058,60.893L26.531,60.826L26.341,62.314L26.152,63.802L26.68,63.869L26.869,62.381ZM26.341,62.314L26.531,60.826L26.003,60.759L25.814,62.247L25.624,63.735L26.152,63.802L26.341,62.314ZM25.814,62.247L26.003,60.759C25.873,60.743 25.744,60.699 25.604,60.613L24.814,61.888L24.024,63.163C24.513,63.466 25.05,63.662 25.624,63.735L25.814,62.247ZM24.814,61.888L25.604,60.613L25.132,60.32L23.553,62.871L24.024,63.163L24.814,61.888ZM23.553,62.871L25.132,60.32L24.661,60.028L23.871,61.304L23.081,62.579L23.553,62.871ZM23.871,61.304L24.661,60.028C24.32,59.817 23.979,59.621 23.639,59.44L22.935,60.765L22.231,62.089C22.51,62.237 22.793,62.4 23.081,62.579L23.871,61.304ZM22.935,60.765L23.639,59.44L23.175,59.193L22.471,60.518L21.767,61.843L22.231,62.089L22.935,60.765ZM22.471,60.518L23.175,59.193L22.711,58.947L21.303,61.596L21.767,61.843L22.471,60.518ZM21.303,61.596L22.711,58.947C22.211,58.681 21.673,58.53 21.111,58.488L21,59.984L20.889,61.48C21.051,61.492 21.183,61.532 21.303,61.596ZM21,59.984L21.111,58.488L20.569,58.448L20.457,59.944L20.346,61.44L20.889,61.48L21,59.984ZM20.457,59.944L20.569,58.448L20.026,58.408L19.915,59.903L19.803,61.399L20.346,61.44L20.457,59.944ZM19.915,59.903L20.026,58.408C19.685,58.382 19.338,58.349 18.985,58.308L18.813,59.799L18.641,61.289C19.033,61.334 19.421,61.371 19.803,61.399L19.915,59.903ZM18.813,59.799L18.985,58.308L18.426,58.244L18.254,59.734L18.083,61.224L18.641,61.289L18.813,59.799ZM18.254,59.734L18.426,58.244L17.868,58.18L17.696,59.67L17.524,61.16L18.083,61.224L18.254,59.734ZM17.696,59.67L17.868,58.18C17.705,58.161 17.581,58.114 17.474,58.048L16.681,59.321L15.888,60.594C16.389,60.906 16.941,61.093 17.524,61.16L17.696,59.67ZM16.681,59.321L17.474,58.048L17.018,57.763L16.224,59.037L15.431,60.31L15.888,60.594L16.681,59.321ZM16.224,59.037L17.018,57.763L16.561,57.479L15.768,58.752L14.975,60.025L15.431,60.31L16.224,59.037ZM15.768,58.752L16.561,57.479C16.239,57.278 15.913,57.084 15.582,56.897L14.103,59.508C14.398,59.674 14.689,59.847 14.975,60.025L15.768,58.752ZM14.103,59.508L15.582,56.897L15.112,56.631L14.373,57.937L13.634,59.242L14.103,59.508ZM14.373,57.937L15.112,56.631L14.643,56.366L13.904,57.671L13.165,58.976L13.634,59.242L14.373,57.937ZM13.904,57.671L14.643,56.366C14.493,56.281 14.362,56.171 14.245,56.029L11.927,57.934C12.275,58.356 12.689,58.706 13.165,58.976L13.904,57.671ZM11.927,57.934L14.245,56.029L13.896,55.605L12.738,56.557L11.579,57.51L11.927,57.934ZM12.738,56.557L13.896,55.605L13.548,55.181L12.389,56.133L11.23,57.086L11.579,57.51L12.738,56.557ZM12.389,56.133L13.548,55.181C13.23,54.794 12.865,54.455 12.454,54.171L10.745,56.636C10.923,56.759 11.084,56.908 11.23,57.086L12.389,56.133ZM10.745,56.636L12.454,54.171L12.013,53.865L10.304,56.33L10.745,56.636ZM10.304,56.33L12.013,53.865L11.572,53.559L10.717,54.792L9.863,56.024L10.304,56.33ZM10.717,54.792L11.572,53.559C11.581,53.565 11.593,53.575 11.605,53.587C11.616,53.6 11.625,53.611 11.631,53.62C11.642,53.639 11.632,53.631 11.62,53.574L10.151,53.876L8.682,54.179C8.83,54.898 9.202,55.566 9.863,56.024L10.717,54.792ZM10.151,53.876L11.62,53.574L11.494,52.964L10.025,53.267L8.556,53.569L8.682,54.179L10.151,53.876ZM10.025,53.267L11.494,52.964L11.369,52.355L9.9,52.658L8.431,52.96L8.556,53.569L10.025,53.267ZM9.9,52.658L11.369,52.355C11.187,51.473 10.626,50.767 9.749,50.434L8.686,53.24C8.658,53.229 8.584,53.192 8.513,53.107C8.445,53.025 8.43,52.958 8.431,52.96L9.9,52.658ZM8.686,53.24L9.749,50.434L9.192,50.223L8.66,51.626L8.129,53.029L8.686,53.24ZM8.66,51.626L9.192,50.223L8.635,50.012L8.103,51.415L7.572,52.818L8.129,53.029L8.66,51.626ZM8.103,51.415L8.635,50.012C8.614,50.004 8.603,49.999 8.601,49.997C8.599,49.996 8.604,49.999 8.612,50.006C8.62,50.013 8.63,50.023 8.638,50.034C8.647,50.045 8.652,50.054 8.654,50.059L7.309,50.722L5.963,51.385C6.308,52.085 6.887,52.558 7.572,52.818L8.103,51.415ZM7.309,50.722L8.654,50.059L8.417,49.578L7.072,50.24L5.726,50.903L5.963,51.385L7.309,50.722ZM7.072,50.24L8.417,49.578L8.18,49.096L6.834,49.759L5.489,50.421L5.726,50.903L7.072,50.24ZM6.834,49.759L8.18,49.096C8.085,48.902 8.013,48.69 7.969,48.453L6.495,48.729L5.02,49.004C5.113,49.499 5.268,49.973 5.489,50.421L6.834,49.759ZM6.495,48.729L7.969,48.453L7.867,47.905L6.392,48.181L4.918,48.456L5.02,49.004L6.495,48.729ZM6.392,48.181L7.867,47.905L7.764,47.357L6.29,47.633L4.815,47.908L4.918,48.456L6.392,48.181ZM6.29,47.633L7.764,47.357C7.632,46.648 7.272,46.036 6.718,45.574L5.758,46.727L4.799,47.881C4.809,47.889 4.813,47.894 4.814,47.895C4.815,47.896 4.814,47.894 4.812,47.892C4.811,47.889 4.81,47.887 4.811,47.888C4.811,47.889 4.813,47.895 4.815,47.908L6.29,47.633ZM5.758,46.727L6.718,45.574L6.289,45.217L4.37,47.524L4.799,47.881L5.758,46.727ZM4.37,47.524L6.289,45.217L5.86,44.86L4.9,46.014L3.941,47.167L4.37,47.524ZM4.9,46.014L5.86,44.86C5.599,44.644 5.341,44.414 5.085,44.172L3.022,46.35C3.323,46.635 3.629,46.907 3.941,47.167L4.9,46.014ZM3.022,46.35L5.085,44.172L4.667,43.776L2.604,45.954L3.022,46.35ZM2.604,45.954L4.667,43.776L4.249,43.38L2.186,45.558L2.604,45.954ZM2.186,45.558L4.249,43.38C4.244,43.375 4.264,43.394 4.283,43.437C4.291,43.457 4.297,43.475 4.3,43.491C4.303,43.505 4.302,43.513 4.302,43.51L1.302,43.497C1.299,44.296 1.611,45.013 2.186,45.558ZM1.302,43.497L4.302,43.51L4.305,42.94L1.305,42.928L1.302,43.497ZM1.305,42.928L4.305,42.94L4.307,42.371L1.307,42.358L1.305,42.928ZM1.307,42.358L4.307,42.371C4.31,41.777 4.188,41.2 3.928,40.66L2.576,41.311L1.225,41.962C1.276,42.067 1.308,42.192 1.307,42.358ZM2.576,41.311L3.928,40.66L3.694,40.176L2.343,40.827L0.992,41.479L1.225,41.962L2.576,41.311ZM2.343,40.827L3.694,40.176L3.461,39.692L0.759,40.995L0.992,41.479L2.343,40.827ZM0.759,40.995L3.461,39.692C3.432,39.632 3.418,39.571 3.429,39.473L1.938,39.308L0.447,39.143C0.376,39.781 0.477,40.41 0.759,40.995ZM1.938,39.308L3.429,39.473L3.49,38.922L1.999,38.756L0.508,38.591L0.447,39.143L1.938,39.308ZM1.999,38.756L3.49,38.922L3.551,38.37L2.06,38.205L0.569,38.039L0.508,38.591L1.999,38.756ZM2.06,38.205L3.551,38.37C3.601,37.92 3.613,37.474 3.584,37.034L2.087,37.134L0.59,37.233C0.607,37.486 0.601,37.754 0.569,38.039L2.06,38.205ZM2.087,37.134L3.584,37.034L3.549,36.515L2.052,36.614L0.556,36.714L0.59,37.233L2.087,37.134ZM2.052,36.614L3.549,36.515L3.515,35.996L0.521,36.194L0.556,36.714L2.052,36.614ZM0.521,36.194L3.515,35.996C3.486,35.562 3.42,35.133 3.317,34.709L1.859,35.063L0.401,35.416C0.464,35.676 0.504,35.935 0.521,36.194ZM1.859,35.063L3.317,34.709L3.193,34.197L1.735,34.55L0.277,34.904L0.401,35.416L1.859,35.063ZM1.735,34.55L3.193,34.197L3.068,33.684L1.611,34.038L0.153,34.391L0.277,34.904L1.735,34.55ZM1.611,34.038L3.068,33.684C3.051,33.614 3.05,33.546 3.08,33.45L1.648,33.005L0.215,32.561C0.03,33.157 0.004,33.777 0.153,34.391L1.611,34.038ZM1.648,33.005L3.08,33.45L3.241,32.931L1.809,32.486L0.376,32.041L0.215,32.561L1.648,33.005ZM1.809,32.486L3.241,32.931L3.403,32.411L1.97,31.966L0.537,31.522L0.376,32.041L1.809,32.486ZM1.97,31.966L3.403,32.411C3.6,31.774 3.599,31.118 3.408,30.484L0.535,31.35C0.557,31.422 0.555,31.466 0.537,31.522L1.97,31.966ZM0.535,31.35L3.408,30.484L3.248,29.954L1.812,30.387L0.376,30.82L0.535,31.35ZM1.812,30.387L3.248,29.954L3.088,29.424L1.652,29.857L0.216,30.29L0.376,30.82L1.812,30.387ZM1.652,29.857L3.088,29.424C3.024,29.213 2.997,29.013 3,28.819L0.001,28.771C-0.007,29.287 0.066,29.795 0.216,30.29L1.652,29.857ZM0.001,28.771L3,28.819L3.009,28.287L0.009,28.239L0.001,28.771ZM0.009,28.239L3.009,28.287L3.017,27.756L0.018,27.708L0.009,28.239ZM0.018,27.708L3.017,27.756C3.021,27.549 3.054,27.351 3.117,27.156L1.689,26.694L0.262,26.233C0.107,26.712 0.026,27.205 0.018,27.708ZM1.689,26.694L3.117,27.156L3.28,26.65L1.853,26.189L0.425,25.728L0.262,26.233L1.689,26.694ZM1.853,26.189L3.28,26.65L3.443,26.145L2.016,25.684L0.589,25.222L0.425,25.728L1.853,26.189ZM2.016,25.684L3.443,26.145C3.561,25.781 3.668,25.416 3.764,25.048L0.861,24.29C0.78,24.602 0.689,24.912 0.589,25.222L2.016,25.684ZM0.861,24.29L3.764,25.048L3.897,24.539L0.994,23.78L0.861,24.29ZM0.994,23.78L3.897,24.539L4.03,24.03L2.579,23.65L1.127,23.271L0.994,23.78ZM2.579,23.65L4.03,24.03C4.108,23.731 4.199,23.435 4.302,23.144L2.887,22.644L1.473,22.145C1.342,22.515 1.227,22.891 1.127,23.271L2.579,23.65ZM2.887,22.644L4.302,23.144L4.477,22.647L3.063,22.147L1.648,21.648L1.473,22.145L2.887,22.644ZM3.063,22.147L4.477,22.647L4.653,22.15L1.824,21.151L1.648,21.648L3.063,22.147ZM1.824,21.151L4.653,22.15C4.759,21.849 4.875,21.552 5,21.259L3.621,20.669L2.242,20.079C2.091,20.432 1.952,20.789 1.824,21.151ZM3.621,20.669L5,21.259L5.208,20.774L3.829,20.184L2.45,19.594L2.242,20.079L3.621,20.669ZM3.829,20.184L5.208,20.774L5.415,20.29L4.036,19.7L2.657,19.11L2.45,19.594L3.829,20.184ZM4.036,19.7L5.415,20.29C5.564,19.942 5.704,19.589 5.836,19.23L4.428,18.713L3.02,18.196C2.906,18.506 2.785,18.811 2.657,19.11L4.036,19.7ZM4.428,18.713L5.836,19.23L6.02,18.728L3.204,17.693L3.02,18.196L4.428,18.713ZM3.204,17.693L6.02,18.728L6.205,18.226L3.389,17.191L3.204,17.693ZM3.389,17.191L6.205,18.226C6.303,17.96 6.419,17.703 6.554,17.454L3.919,16.02C3.714,16.398 3.537,16.788 3.389,17.191ZM3.919,16.02L6.554,17.454L6.81,16.985L4.175,15.551L3.919,16.02ZM4.175,15.551L6.81,16.985L7.065,16.516L5.748,15.799L4.43,15.082L4.175,15.551ZM5.748,15.799L7.065,16.516C7.076,16.496 7.1,16.454 7.21,16.398L6.529,15.061L5.848,13.725C5.257,14.026 4.76,14.475 4.43,15.082L5.748,15.799ZM6.529,15.061L7.21,16.398L7.736,16.13L7.054,14.793L6.373,13.457L5.848,13.725L6.529,15.061ZM7.054,14.793L7.736,16.13L8.261,15.862L6.899,13.189L6.373,13.457L7.054,14.793ZM6.899,13.189L8.261,15.862C8.729,15.624 9.156,15.328 9.525,14.967L8.475,13.896L7.424,12.825C7.301,12.945 7.133,13.07 6.899,13.189ZM8.475,13.896L9.525,14.967L9.894,14.605L8.843,13.534L7.793,12.463L7.424,12.825L8.475,13.896ZM8.843,13.534L9.894,14.605L10.263,14.243L8.162,12.101L7.793,12.463L8.843,13.534ZM8.162,12.101L10.263,14.243C10.749,13.766 11.037,13.173 11.179,12.547L9.716,12.215L8.254,11.882C8.215,12.051 8.167,12.096 8.162,12.101ZM9.716,12.215L11.179,12.547L11.314,11.951L9.852,11.619L8.389,11.287L8.254,11.882L9.716,12.215ZM9.852,11.619L11.314,11.951L11.45,11.355L9.987,11.023L8.524,10.691L8.389,11.287L9.852,11.619ZM9.987,11.023L11.45,11.355C11.486,11.195 11.536,11.135 11.562,11.11L10.502,10.049L9.442,8.987C8.962,9.467 8.668,10.057 8.524,10.691L9.987,11.023ZM10.502,10.049L11.562,11.11L11.941,10.731L10.881,9.67L9.821,8.609L9.442,8.987L10.502,10.049ZM10.881,9.67L11.941,10.731L12.32,10.352L11.26,9.291L10.2,8.23L9.821,8.609L10.881,9.67ZM11.26,9.291L12.32,10.352C12.31,10.363 12.297,10.373 12.283,10.382C12.269,10.392 12.257,10.397 12.252,10.399C12.24,10.404 12.262,10.392 12.337,10.39L12.236,7.391C11.508,7.416 10.775,7.655 10.2,8.23L11.26,9.291ZM12.236,7.391L12.337,10.39L12.985,10.368L12.934,8.869L12.883,7.369L12.236,7.391ZM12.934,8.869L12.985,10.368L13.632,10.346L13.581,8.847L13.531,7.347L12.883,7.369L12.934,8.869ZM13.581,8.847L13.632,10.346C14.272,10.324 14.925,10.166 15.496,9.775L14.649,8.537L13.803,7.299C13.813,7.291 13.754,7.34 13.531,7.347L13.581,8.847ZM14.649,8.537L15.496,9.775L15.917,9.487L15.07,8.249L14.223,7.011L13.803,7.299L14.649,8.537ZM15.07,8.249L15.917,9.487L16.337,9.2L15.49,7.962L14.644,6.724L14.223,7.011L15.07,8.249ZM15.49,7.962L16.337,9.2C16.679,8.966 17.005,8.706 17.314,8.421L15.282,6.214C15.075,6.404 14.862,6.574 14.644,6.724L15.49,7.962ZM15.282,6.214L17.314,8.421L17.701,8.065L16.685,6.961L15.669,5.858L15.282,6.214ZM16.685,6.961L17.701,8.065L18.088,7.709L17.072,6.605L16.056,5.501L15.669,5.858L16.685,6.961ZM17.072,6.605L18.088,7.709C18.279,7.533 18.482,7.378 18.698,7.242L17.901,5.971L17.104,4.701C16.731,4.935 16.381,5.202 16.056,5.501L17.072,6.605ZM17.901,5.971L18.698,7.242L19.141,6.965L18.344,5.694L17.547,4.423L17.104,4.701L17.901,5.971ZM18.344,5.694L19.141,6.965L19.583,6.687L18.786,5.417L17.989,4.146L17.547,4.423L18.344,5.694ZM18.786,5.417L19.583,6.687C19.97,6.445 20.333,6.159 20.673,5.836L19.64,4.748L18.607,3.66C18.399,3.858 18.192,4.018 17.989,4.146L18.786,5.417ZM19.64,4.748L20.673,5.836L21.085,5.444L20.052,4.357L19.019,3.269L18.607,3.66L19.64,4.748ZM20.052,4.357L21.085,5.444L21.497,5.053L20.464,3.965L19.431,2.878L19.019,3.269L20.052,4.357ZM20.464,3.965L21.497,5.053C21.581,4.973 21.644,4.948 21.704,4.935L21.1,1.997C20.459,2.129 19.897,2.436 19.431,2.878L20.464,3.965ZM21.1,1.997L21.704,4.935L22.23,4.827L21.626,1.889L21.1,1.997ZM21.626,1.889L22.23,4.827L22.756,4.719L22.454,3.25L22.152,1.78L21.626,1.889ZM22.454,3.25L22.756,4.719C23.126,4.643 23.493,4.56 23.857,4.47L23.496,3.014L23.136,1.558C22.811,1.638 22.483,1.712 22.152,1.78L22.454,3.25ZM23.496,3.014L23.857,4.47L24.373,4.342L24.012,2.886L23.652,1.43L23.136,1.558L23.496,3.014ZM24.012,2.886L24.373,4.342L24.889,4.214L24.529,2.758L24.168,1.302L23.652,1.43L24.012,2.886ZM24.529,2.758L24.889,4.214C24.895,4.213 24.941,4.197 25.075,4.248L25.611,2.847L26.148,1.447C25.526,1.208 24.851,1.133 24.168,1.302L24.529,2.758ZM25.611,2.847L25.075,4.248L25.641,4.465L26.715,1.664L26.148,1.447L25.611,2.847ZM26.715,1.664L25.641,4.465L26.208,4.682L26.745,3.282L27.282,1.881L26.715,1.664ZM26.745,3.282L26.208,4.682C26.818,4.916 27.484,5 28.162,4.838L27.814,3.379L27.466,1.92C27.463,1.921 27.454,1.923 27.431,1.921C27.407,1.919 27.358,1.91 27.282,1.881L26.745,3.282ZM27.814,3.379L28.162,4.838L28.664,4.718L28.316,3.259L27.968,1.8L27.466,1.92L27.814,3.379ZM28.316,3.259L28.664,4.718L29.167,4.598L28.818,3.139L28.47,1.68L27.968,1.8L28.316,3.259ZM28.818,3.139L29.167,4.598C29.559,4.504 29.952,4.386 30.345,4.244L29.835,2.833L29.326,1.423C29.032,1.529 28.747,1.614 28.47,1.68L28.818,3.139ZM29.835,2.833L30.345,4.244L30.86,4.058L30.35,2.648L29.841,1.237L29.326,1.423L29.835,2.833ZM30.35,2.648L30.86,4.058L31.374,3.872L30.865,2.462L30.355,1.051L29.841,1.237L30.35,2.648ZM30.865,2.462L31.374,3.872C31.543,3.812 31.653,3.774 31.715,3.753C31.751,3.742 31.744,3.745 31.715,3.752C31.713,3.753 31.638,3.773 31.536,3.784C31.506,3.787 31.337,3.807 31.125,3.771C31.024,3.754 30.771,3.702 30.508,3.514C30.185,3.283 29.904,2.88 29.882,2.357L31.38,2.294L32.879,2.231C32.857,1.707 32.575,1.304 32.251,1.072C31.988,0.884 31.734,0.832 31.632,0.814C31.417,0.777 31.244,0.798 31.209,0.802C31.095,0.814 31.004,0.837 30.98,0.843C30.908,0.862 30.837,0.884 30.788,0.9C30.678,0.936 30.53,0.988 30.355,1.051L30.865,2.462ZM31.38,2.294L29.882,2.357L29.883,2.376L31.381,2.313L32.88,2.249L32.879,2.231L31.38,2.294ZM31.381,2.313L29.883,2.376L29.883,2.394L31.382,2.331L32.881,2.268L32.88,2.249L31.381,2.313ZM31.382,2.331L29.883,2.394C29.905,2.917 30.184,3.301 30.466,3.519C30.703,3.702 30.934,3.767 31.032,3.791C31.236,3.84 31.403,3.833 31.441,3.832C31.554,3.828 31.646,3.812 31.671,3.808C31.745,3.795 31.819,3.778 31.869,3.765C31.982,3.738 32.133,3.697 32.311,3.647L31.908,2.203L31.504,0.758C31.333,0.806 31.221,0.836 31.158,0.851C31.121,0.86 31.129,0.857 31.159,0.852C31.162,0.851 31.238,0.837 31.34,0.834C31.372,0.833 31.535,0.826 31.736,0.874C31.833,0.898 32.063,0.962 32.299,1.145C32.581,1.362 32.859,1.746 32.881,2.268L31.382,2.331ZM31.908,2.203L32.311,3.647L32.836,3.501L32.433,2.056L32.029,0.611L31.504,0.758L31.908,2.203Z" style="fill:rgb(13,10,0);fill-rule:nonzero;"/>
    <g transform="matrix(1.165569,0,0,1.165569,3.962832,-2.820979)">
        <path d="M23.071,36.261C26.144,36.261 27.599,34.251 27.68,32.175C27.697,31.636 27.092,31.521 26.781,31.881C26.308,32.567 25.539,33.613 24.019,33.613C22.156,33.613 20.342,31.538 20.342,28.351C20.342,26.536 21.29,25.507 22.32,25.507C24.281,25.507 24.248,28.759 26.291,28.759C27.141,28.759 27.648,28.22 27.648,27.468C27.648,25.752 25.458,24.346 22.908,24.346C19.623,24.346 17.465,26.831 17.465,30.148C17.465,33.319 19.803,36.261 23.071,36.261Z" style="fill:white;fill-rule:nonzero;"/>
        <path d="M32.927,36.261C35.313,36.261 37.291,34.578 37.291,32.191C37.291,29.789 35.264,28.089 32.812,28.089C30.475,28.089 28.4,29.74 28.4,32.159C28.4,34.529 30.426,36.261 32.927,36.261ZM33.27,35.46C31.946,35.46 31.292,32.257 31.292,30.933C31.292,29.609 31.57,28.89 32.355,28.89C33.646,28.89 34.316,32.175 34.316,33.45C34.316,34.676 34.038,35.46 33.27,35.46Z" style="fill:white;fill-rule:nonzero;"/>
        <path d="M46.934,34.316L46.721,31.489C46.525,28.89 45.021,28.089 43.599,28.089C42.521,28.089 41.704,28.53 41.262,29.315L41.262,28.547C41.262,28.22 41.05,27.942 40.641,28.154L38.353,29.282C38.124,29.397 37.961,29.495 37.961,29.691L37.961,29.74C37.961,30.214 38.827,30.312 38.827,31.096L38.827,34.316C38.827,35.068 38.108,35.264 38.108,35.738L38.108,35.803C38.108,35.999 38.255,36.114 38.5,36.114L42.03,36.114C42.276,36.114 42.423,35.999 42.423,35.803L42.423,35.738C42.423,35.264 41.704,35.068 41.704,34.316L41.704,30.753C41.704,29.805 42.047,29.168 42.766,29.168C43.501,29.168 43.812,29.772 43.894,31.391L44.057,34.316C44.106,35.068 43.469,35.264 43.469,35.738L43.469,35.803C43.469,35.999 43.616,36.114 43.861,36.114L47.13,36.114C47.359,36.114 47.522,35.999 47.522,35.803L47.522,35.738C47.522,35.264 46.983,35.068 46.934,34.316Z" style="fill:white;fill-rule:nonzero;"/>
        <path d="M51.494,36.261C53.275,36.261 54.207,34.937 54.207,33.679C54.207,33.368 53.814,33.27 53.586,33.564C53.406,33.858 53.144,34.169 52.507,34.169C52.098,34.169 51.771,33.842 51.771,33.286L51.771,29.364L53.455,29.364C53.667,29.364 53.831,29.2 53.831,28.988L53.831,28.628C53.831,28.416 53.667,28.252 53.455,28.252L51.771,28.252L51.771,26.602C51.771,26.34 51.592,26.177 51.33,26.177L50.954,26.177C50.742,26.177 50.562,26.34 50.513,26.602C50.3,27.599 49.516,28.252 48.519,28.252L48.208,28.252C47.98,28.252 47.832,28.4 47.832,28.628L47.832,28.988C47.832,29.2 47.996,29.364 48.208,29.364L48.829,29.364L48.829,33.237C48.829,35.215 49.875,36.261 51.494,36.261Z" style="fill:white;fill-rule:nonzero;"/>
        <path d="M62.444,34.316L62.084,31.391C61.823,29.364 60.303,28.089 58.113,28.089C56.446,28.089 54.844,28.661 54.844,30.001C54.844,30.639 55.302,31.064 55.988,31.064C57.443,31.064 56.985,28.874 58.113,28.874C58.963,28.874 59.077,29.707 59.273,31.636L59.273,31.685C58.865,31.44 58.309,31.276 57.623,31.276C56.07,31.276 54.681,32.126 54.681,33.777C54.681,35.46 56.021,36.261 57.77,36.261C58.848,36.261 59.502,35.885 59.845,35.411C59.976,35.999 60.45,36.196 61.431,36.196C62.33,36.196 63.278,36.081 63.278,35.656C63.278,35.199 62.591,35.476 62.444,34.316ZM58.669,35.427C57.998,35.427 57.606,34.414 57.606,33.254C57.606,32.584 57.949,32.142 58.44,32.142C58.914,32.142 59.339,32.518 59.453,33.499L59.518,34.251C59.518,34.806 59.208,35.427 58.669,35.427Z" style="fill:white;fill-rule:nonzero;"/>
        <path d="M67.674,36.261C69.913,36.261 71.041,34.904 71.09,33.483C71.09,33.123 70.681,33.041 70.469,33.303C70.126,33.76 69.57,34.251 68.655,34.251C67.037,34.251 65.991,32.845 65.991,30.72C65.991,29.723 66.448,28.906 67.135,28.89C68.344,28.874 68.197,31.358 69.864,31.456C70.747,31.489 71.057,30.998 71.057,30.508C71.057,29.053 69.488,28.073 67.576,28.089C65.353,28.105 63.425,29.609 63.425,32.159C63.425,34.3 65.108,36.261 67.674,36.261Z" style="fill:white;fill-rule:nonzero;"/>
        <path d="M75.225,36.261C77.006,36.261 77.938,34.937 77.938,33.679C77.938,33.368 77.546,33.27 77.317,33.564C77.137,33.858 76.876,34.169 76.238,34.169C75.83,34.169 75.503,33.842 75.503,33.286L75.503,29.364L77.186,29.364C77.399,29.364 77.562,29.2 77.562,28.988L77.562,28.628C77.562,28.416 77.399,28.252 77.186,28.252L75.503,28.252L75.503,26.602C75.503,26.34 75.323,26.177 75.062,26.177L74.686,26.177C74.473,26.177 74.293,26.34 74.244,26.602C74.032,27.599 73.247,28.252 72.25,28.252L71.94,28.252C71.711,28.252 71.564,28.4 71.564,28.628L71.564,28.988C71.564,29.2 71.727,29.364 71.94,29.364L72.561,29.364L72.561,33.237C72.561,35.215 73.607,36.261 75.225,36.261Z" style="fill:white;fill-rule:nonzero;"/>
        <path d="M85.048,33.515C84.753,33.907 84.116,34.234 83.413,34.234C82.612,34.234 81.975,33.842 81.55,33.172L84.803,31.341C85.178,31.145 85.44,30.818 85.44,30.328C85.44,29.298 84.459,28.089 82.318,28.089C80.177,28.089 78.298,29.707 78.298,32.126C78.298,34.61 79.965,36.261 82.335,36.261C84.476,36.261 85.62,34.643 85.652,33.744C85.669,33.384 85.277,33.286 85.048,33.515ZM82.024,28.89C82.858,28.89 83.119,30.05 83.119,30.573C83.119,30.917 82.956,31.227 82.694,31.407L81.174,32.322C81.011,31.832 80.929,31.243 80.929,30.606C80.929,29.658 81.354,28.89 82.024,28.89Z" style="fill:white;fill-rule:nonzero;"/>
        <path d="M93.824,33.483L93.71,33.483C92.876,33.483 92.337,35.378 91.079,35.378L89.51,35.378L93.236,29.691C93.465,29.331 93.743,28.939 93.743,28.726L93.743,28.563C93.743,28.4 93.596,28.252 93.367,28.252L87.287,28.252C86.911,28.252 86.829,28.416 86.715,28.759L86.273,30.083C86.159,30.426 86.29,30.704 86.649,30.704L86.747,30.704C87.646,30.704 88.006,28.972 89.101,28.972L90.49,28.972L86.649,34.823C86.519,35.003 86.29,35.28 86.29,35.493L86.29,35.705C86.29,35.934 86.502,36.098 86.715,36.098L93.269,36.098C93.498,36.098 93.612,35.918 93.677,35.705L94.168,33.989C94.266,33.646 94.119,33.483 93.824,33.483Z" style="fill:white;fill-rule:nonzero;"/>
        <path d="M106.801,34.316L106.589,31.489C106.393,28.89 104.889,28.089 103.467,28.089C102.389,28.089 101.571,28.53 101.13,29.315L101.13,28.547C101.13,28.22 100.918,27.942 100.509,28.154L98.221,29.282C97.992,29.397 97.829,29.495 97.829,29.691L97.829,29.74C97.829,30.214 98.695,30.312 98.695,31.096L98.695,34.316C98.695,35.068 97.976,35.264 97.976,35.738L97.976,35.803C97.976,35.999 98.123,36.114 98.368,36.114L101.898,36.114C102.143,36.114 102.291,35.999 102.291,35.803L102.291,35.738C102.291,35.264 101.571,35.068 101.571,34.316L101.571,30.753C101.571,29.805 101.915,29.168 102.634,29.168C103.369,29.168 103.68,29.772 103.762,31.391L103.925,34.316C103.974,35.068 103.337,35.264 103.337,35.738L103.337,35.803C103.337,35.999 103.484,36.114 103.729,36.114L106.998,36.114C107.226,36.114 107.39,35.999 107.39,35.803L107.39,35.738C107.39,35.264 106.851,35.068 106.801,34.316Z" style="fill:white;fill-rule:nonzero;"/>
        <path d="M112.457,36.261C114.843,36.261 116.82,34.578 116.82,32.191C116.82,29.789 114.794,28.089 112.342,28.089C110.005,28.089 107.929,29.74 107.929,32.159C107.929,34.529 109.956,36.261 112.457,36.261ZM112.8,35.46C111.476,35.46 110.822,32.257 110.822,30.933C110.822,29.609 111.1,28.89 111.884,28.89C113.176,28.89 113.846,32.175 113.846,33.45C113.846,34.676 113.568,35.46 112.8,35.46Z" style="fill:white;fill-rule:nonzero;"/>
        <path d="M125.94,34.3L125.94,28.498C125.94,28.203 125.695,28.105 125.221,28.171L122.786,28.498C122.557,28.53 122.41,28.694 122.41,28.874L122.41,28.939C122.41,29.348 123.064,29.544 123.064,30.312L123.064,33.548C123.064,34.545 122.59,35.182 121.985,35.182C121.266,35.182 120.923,34.676 120.939,33.335L120.988,28.498C120.988,28.203 120.694,28.105 120.22,28.171L117.785,28.498C117.556,28.53 117.409,28.694 117.409,28.874L117.409,28.939C117.409,29.348 118.062,29.544 118.062,30.312L118.062,33.041C118.062,35.133 119.468,36.261 121.119,36.261C122.23,36.261 122.998,35.901 123.423,35.248C123.505,35.95 123.946,36.196 124.96,36.196C126.006,36.196 126.643,36.098 126.643,35.656C126.643,34.986 125.94,35.624 125.94,34.3Z" style="fill:white;fill-rule:nonzero;"/>
        <path d="M130.892,36.245C133.164,36.245 134.455,35.199 134.455,33.842C134.455,30.835 130.271,32.012 130.271,29.772C130.271,29.298 130.533,28.841 131.04,28.841C132.167,28.841 131.644,31.047 133.23,31.047C133.834,31.047 134.325,30.622 134.325,30.05C134.325,28.988 132.968,28.089 130.892,28.089C128.849,28.089 127.444,29.119 127.444,30.573C127.444,33.744 131.775,32.486 131.775,34.627C131.775,35.28 131.383,35.526 130.892,35.526C129.536,35.526 130.092,33.286 128.457,33.286C127.803,33.286 127.297,33.597 127.297,34.332C127.297,35.476 128.833,36.245 130.892,36.245Z" style="fill:white;fill-rule:nonzero;"/>
    </g>
</svg>
