<svg fill="none" height="195" viewBox="0 0 221 195" width="221" xmlns="http://www.w3.org/2000/svg"><g fill="#000" fill-opacity=".7"><path d="m158.116 139.769c.991 0 1.942-.393 2.643-1.094s1.095-1.652 1.095-2.643-.394-1.942-1.095-2.643-1.652-1.095-2.643-1.095-1.942.394-2.643 1.095-1.094 1.652-1.094 2.643.393 1.942 1.094 2.643 1.652 1.094 2.643 1.094zm18.615 6.265c0 .992-.394 1.942-1.094 2.643-.701.701-1.652 1.095-2.643 1.095-.992 0-1.942-.394-2.643-1.095s-1.095-1.651-1.095-2.643c0-.991.394-1.942 1.095-2.642.701-.701 1.651-1.095 2.643-1.095.991 0 1.942.394 2.643 1.095.7.7 1.094 1.651 1.094 2.642zm-18.595 16.265c.493 0 .982-.097 1.437-.285.456-.189.87-.466 1.218-.814.349-.349.626-.763.814-1.219.189-.455.286-.944.286-1.437s-.097-.981-.286-1.437c-.188-.455-.465-.869-.814-1.218-.348-.349-.762-.625-1.218-.814-.455-.189-.944-.286-1.437-.286-.996 0-1.951.396-2.655 1.1s-1.1 1.659-1.1 2.655.396 1.951 1.1 2.656c.704.704 1.659 1.099 2.655 1.099zm-17.52-47.76c0-5.475 4.475-10.11 10.15-9.76 22.235 1.37 41.735 8.85 57.01 23.435 4.335 4.135 3.48 10.89-1.015 14.34-6.995 5.4-14.037 10.739-21.125 16.015v8.7c0 3.585-2.775 7.5-7.5 7.5-.846 0-1.686-.136-2.49-.4v.415c0 3.565-2.78 7.455-7.515 7.455-3.77 0-6.255-2.48-7.13-5.25-2.74 2.05-5.735 4.28-8.41 6.27-4.95 3.685-11.975.15-11.975-6zm35.03 52.73c0 1.295.97 2.5 2.49 2.5 1.525 0 2.5-1.215 2.5-2.5v-9.97c.001-.394.094-.782.273-1.133s.438-.655.757-.887c3.9-2.83 10.54-7.875 16.42-12.37-13.465-12.815-32.34-20.42-52.47-20.58v54.925c.002.463.131.916.375 1.309.243.394.591.712 1.005.919.413.207.876.296 1.337.255.461-.04.902-.207 1.273-.483 3.93-2.93 8.565-6.38 12.045-8.99.372-.278.813-.448 1.276-.49.462-.041.927.047 1.342.254.416.208.765.527 1.009.922s.373.85.373 1.314v2.52c0 1.235.95 2.46 2.48 2.46.328.008.654-.049.959-.17.304-.12.582-.3.816-.529.234-.23.42-.504.546-.806s.191-.627.189-.955v-7.515c0-.663.264-1.299.732-1.767.469-.469 1.105-.733 1.768-.733s1.299.264 1.768.733c.469.468.737 1.104.737 1.767zm28.06-28.675c2.325-1.785 2.5-4.965.61-6.77-14.285-13.635-32.6-20.75-53.86-22.06-2.59-.16-4.84 1.97-4.84 4.775v2.79c21.635.165 42.015 8.435 56.485 22.5z"/><path d="m57.6119 135.452c-.5161 1.212-1.1487 2.344-1.9086 3.421-5.7656 8.237-17.0318 10.231-25.1531 4.488-2.7326-1.925-4.848-4.593-6.1537-7.677-.2604-.61-.7438-1.094-1.3507-1.353-.6069-.258-1.291-.271-1.9112-.036-8.8589 2.563-18.05265-2.571-20.520269-11.481-2.467621-8.91 2.720329-18.214 11.586869-20.774 7.5246-2.1867 15.4756 1.199 19.1894 8.173.7264 1.192 2.2229 1.708 3.5247 1.196 9.3671-3.473 19.7238 1.333 23.0794 10.773 1.5518 4.297 1.4149 9.043-.3828 13.27zm-50.96805-21.706c-.99925 2.346-1.18654 4.978-.47713 7.412.3822 1.413 1.03823 2.733 1.93038 3.884.89214 1.152 2.0028 2.113 3.2681 2.827 1.2654.715 2.6604 1.169 4.1049 1.336 1.4445.168 2.9101.045 4.3123-.36 3.9594-1.238 8.1893.777 9.7996 4.631 2.7458 6.347 10.1186 9.182 16.4384 6.361 6.3198-2.822 9.22-10.268 6.4486-16.627-1.2679-2.917-3.5924-5.229-6.5027-6.469-2.9102-1.239-6.1883-1.313-9.1699-.205-1.9125.761-4.0304.786-5.9479.071-1.9175-.716-3.4997-2.122-4.4434-3.949-1.3817-2.606-3.738-4.544-6.5512-5.388-2.8131-.844-5.853-.525-8.4516.888-1.51744.876-2.78749 1.95-3.79213 3.319zm7.64525 3.256c1.4016.597 3.0425-.075 3.6464-1.493.604-1.418-.0487-3.067-1.4503-3.664s-3.0425.075-3.6465 1.493c-.6039 1.418.0487 3.067 1.4504 3.664zm35.3253 8.952c.604-1.418-.0487-3.066-1.4503-3.663s-3.0425.075-3.6465 1.493c-.6039 1.418.0487 3.066 1.4503 3.663 1.4017.597 3.0426-.075 3.6465-1.493zm-8.7433-.677c.604-1.418-.0487-3.067-1.4503-3.664s-3.0425.075-3.6465 1.493c-.6039 1.418.0487 3.067 1.4504 3.664 1.4016.597 3.0425-.075 3.6464-1.493zm2.9007 7.327c.6039-1.418-.0487-3.067-1.4504-3.664-1.4016-.596-3.0425.075-3.6464 1.494-.604 1.418.0487 3.066 1.4503 3.663s3.0425-.075 3.6465-1.493z"/><path d="m90.8717 30.0802c.2632.041.532.029.7905-.0352.2585-.0643.5016-.1795.715-.339s.3927-.36.5276-.5897c.1348-.2298.2224-.4841.2575-.7482.0352-.2641.0173-.5325-.0527-.7895s-.1906-.4975-.3548-.7073c-.1642-.2097-.3687-.3846-.6013-.5143-.2327-.1297-.489-.2116-.7538-.2408-3.76-.5-7.12 2.356-7.12 6.524 0 .5304.2107 1.0391.5858 1.4142.3751.375.8838.5858 1.4142.5858.5305 0 1.0392-.2108 1.4142-.5858.3751-.3751.5858-.8838.5858-1.4142 0-1.828 1.312-2.732 2.592-2.56zm1.376 21.54c4.7686 0 9.3423-1.8944 12.7143-5.2663 3.371-3.3719 5.266-7.9451 5.266-12.7137s-1.895-9.3419-5.266-12.7138c-3.372-3.3719-7.9457-5.2662-12.7143-5.2662s-9.3418 1.8943-12.7137 5.2662c-3.372 3.3719-5.2663 7.9452-5.2663 12.7138s1.8943 9.3418 5.2663 12.7137c3.3719 3.3719 7.9451 5.2663 12.7137 5.2663zm0-4c-3.7077 0-7.2636-1.4729-9.8853-4.0947-2.6218-2.6217-4.0947-6.1776-4.0947-9.8853 0-3.7078 1.4729-7.2636 4.0947-9.8854 2.6217-2.6218 6.1776-4.0946 9.8853-4.0946 3.7078 0 7.2636 1.4728 9.8853 4.0946 2.622 2.6218 4.095 6.1776 4.095 9.8854 0 3.7077-1.473 7.2636-4.095 9.8853-2.6217 2.6218-6.1775 4.0947-9.8853 4.0947zm4.872-47.5600412c4.1803.2720002 8.1043 1.5160012 10.9083 3.2840012 6.428 4.06 9.2 8.52404 10.8 11.32004 1.556 2.712 4.624 8.732 4.184 15.296-.115 1.7681-.348 3.5266-.696 5.264l-.16.856c-.224 1.296-.364 2.624-.128 5.512.28 3.404-.408 7.132-1.848 10.44-1.44 3.3-3.7 6.348-6.712 8.228-6.26 3.912-13.8003 4.76-20.8723 1.932-3.236-1.292-4.328-1.6-5.552-1.672-.8612-.0318-1.7235-.0238-2.584.024h-.028c-1.16.048-2.648.104-4.716.104-9.092 0-15.14-5.44-18.228-11.376-4.524-8.704-4.4-21.88 5.548-29.732 3.04-2.4 3.948-3.2 4.972-4.908 1.684-2.808 3.284-5.00804 5.22-6.90404 1.94-1.904 4.144-3.436 6.976-4.992 4.116-2.264002 8.72-2.952002 12.916-2.6800018m-.26 3.9920018c-3.6-.24-7.416.368-10.732 2.192-2.616 1.44-4.496 2.768-6.1 4.34004-1.604 1.576-3.004 3.464-4.588 6.104-1.448 2.412-2.912 3.612-5.924 5.988-8.04 6.348-8.384 17.24-4.48 24.752 2.58 4.96 7.432 9.22 14.68 9.22 1.992 0 3.424-.056 4.572-.1h.076c1.104-.04 2.04-.08 2.932-.02 1.932.12 3.56.66 6.784 1.952 5.844 2.336 12.0483 1.652 17.2683-1.612 2.152-1.344 3.96-3.66 5.164-6.436 1.208-2.768 1.752-5.832 1.532-8.512-.264-3.196-.12-4.864.172-6.528l.18-.964c.228-1.212.472-2.5.624-4.736.36-5.308-2.172-10.44-3.66-13.04-1.444-2.512-3.816-6.36-9.468-9.92404-2.16-1.364-5.416-2.436-9.0323-2.676z"/></g></svg>