<svg clip-rule="evenodd" fill-rule="evenodd" stroke-linecap="round" stroke-linejoin="round" viewBox="0 0 705 601" xmlns="http://www.w3.org/2000/svg"><path d="m0 0h705v601h-705z" fill="none"/><path d="m616.875 591v-6.415c.002-5.17-1.183-10.271-3.465-14.91l-1.455-2.96c-2.929-5.964-4.453-12.52-4.455-19.165v-25.6c0-3.94 3.15-7.14 7.03-7.14 3.885 0 7.035 3.2 7.035 7.14m37.5 69.05v-6.395c.01-5.715 5.975-8.625 10.855-11.47 5.58-3.255 10.05-8.51 12.115-14.83 1.355-4.16-2.4-7.775-6.89-7.775s-8.3 3.92-11.55 6.925c-.429.402-.892.765-1.385 1.085-6.34 4.045-14.805-.82-14.805-8.01s8.465-12.055 14.805-8.015c1.58.83 2.885 1.93 3.925 3.075 2.365 2.6 5.48 4.94 9.05 4.94 4.565 0 8.395-3.685 7.04-7.925-1.725-5.322-5.096-9.959-9.627-13.241-4.532-3.282-9.988-5.039-15.583-5.019-4.985 0-7.33 1.41-7.33 1.41l10.725-25.02c1.875-4.645-1.485-9.735-6.43-9.735-2.63 0-5.035 1.51-6.215 3.9l-12.14 24.67m0 0-2.24 4.55m2.24-4.55v-16.665c0-3.945-3.15-7.145-7.03-7.145-3.885 0-7.03 3.2-7.03 7.145v35.715" fill="none" stroke="#000" stroke-opacity=".8" stroke-width="4"/><g fill-opacity=".8" fill-rule="nonzero"><path d="m590 343.008c.793 0 1.554-.315 2.114-.876.561-.56.876-1.321.876-2.114s-.315-1.553-.876-2.114c-.56-.561-1.321-.876-2.114-.876s-1.554.315-2.114.876c-.561.561-.876 1.321-.876 2.114s.315 1.554.876 2.114c.56.561 1.321.876 2.114.876zm14.892 5.012c0 .793-.315 1.554-.876 2.114-.56.561-1.321.876-2.114.876s-1.554-.315-2.114-.876c-.561-.56-.876-1.321-.876-2.114s.315-1.553.876-2.114c.56-.561 1.321-.876 2.114-.876s1.554.315 2.114.876c.561.561.876 1.321.876 2.114zm-14.876 13.012c.394 0 .785-.078 1.15-.229.364-.151.695-.372.974-.651s.5-.61.651-.974c.151-.365.229-.755.229-1.15 0-.394-.078-.785-.229-1.149-.151-.365-.372-.696-.651-.975s-.61-.5-.974-.651c-.365-.151-.756-.229-1.15-.229-.797 0-1.561.317-2.124.88-.564.563-.88 1.327-.88 2.124s.316 1.561.88 2.124c.563.564 1.327.88 2.124.88zm-14.016-38.208c0-4.38 3.58-8.088 8.12-7.808 17.788 1.096 33.388 7.08 45.608 18.748 3.468 3.308 2.784 8.712-.812 11.472-5.596 4.32-11.229 8.591-16.9 12.812v6.96c0 2.868-2.22 6-6 6-.677-.001-1.349-.109-1.992-.32v.332c0 2.852-2.224 5.964-6.012 5.964-3.016 0-5.004-1.984-5.704-4.2-2.192 1.64-4.588 3.424-6.728 5.016-3.96 2.948-9.58.12-9.58-4.8zm28.024 42.184c0 1.036.776 2 1.992 2 1.22 0 2-.972 2-2v-7.976c0-.315.075-.626.218-.907s.351-.524.606-.709c3.12-2.264 8.432-6.3 13.136-9.896-10.772-10.252-25.872-16.336-41.976-16.464v43.94c.001.37.105.733.3 1.047.195.315.473.569.804.735s.701.237 1.07.205c.368-.033.721-.166 1.018-.387 3.144-2.344 6.852-5.104 9.636-7.192.297-.223.65-.358 1.02-.392.37-.033.742.037 1.074.203.333.166.612.422.807.738.196.316.299.68.299 1.051v2.016c0 .988.76 1.968 1.984 1.968.262.007.523-.04.767-.136s.466-.24.653-.423c.187-.184.336-.403.437-.645s.152-.502.151-.764v-6.012c0-.53.211-1.039.586-1.414s.884-.586 1.414-.586 1.039.211 1.414.586.59.884.59 1.414zm22.448-22.94c1.86-1.428 2-3.972.488-5.416-11.428-10.908-26.08-16.6-43.088-17.648-2.072-.128-3.872 1.576-3.872 3.82v2.232c17.308.132 33.612 6.748 45.188 18z"/><path d="m488.192 178.74c.197.031.399.022.593-.026.194-.049.376-.135.536-.255.16-.119.294-.27.396-.442.101-.172.166-.363.193-.561.026-.198.013-.399-.04-.592-.052-.193-.143-.373-.266-.531-.123-.157-.276-.288-.451-.385-.174-.098-.367-.159-.565-.181-2.82-.375-5.34 1.767-5.34 4.893 0 .398.158.779.439 1.061.281.281.663.439 1.061.439s.779-.158 1.06-.439c.282-.282.44-.663.44-1.061 0-1.371.984-2.049 1.944-1.92zm1.032 16.155c3.576 0 7.006-1.421 9.535-3.95s3.95-5.959 3.95-9.535-1.421-7.006-3.95-9.535-5.959-3.95-9.535-3.95c-3.577 0-7.007 1.421-9.536 3.95-2.528 2.529-3.949 5.959-3.949 9.535s1.421 7.006 3.949 9.535c2.529 2.529 5.959 3.95 9.536 3.95zm0-3c-2.781 0-5.448-1.105-7.414-3.071-1.967-1.966-3.071-4.633-3.071-7.414s1.104-5.448 3.071-7.414c1.966-1.966 4.633-3.071 7.414-3.071s5.448 1.105 7.414 3.071 3.071 4.633 3.071 7.414-1.105 5.448-3.071 7.414-4.633 3.071-7.414 3.071zm3.654-35.67c3.135.204 6.078 1.137 8.181 2.463 4.821 3.045 6.9 6.393 8.1 8.49 1.167 2.034 3.468 6.549 3.138 11.472-.087 1.326-.261 2.645-.522 3.948l-.12.642c-.168.972-.273 1.968-.096 4.134.21 2.553-.306 5.349-1.386 7.83-1.08 2.475-2.775 4.761-5.034 6.171-4.695 2.934-10.35 3.57-15.654 1.449-2.427-.969-3.246-1.2-4.164-1.254-.646-.024-1.293-.018-1.938.018h-.021c-.87.036-1.986.078-3.537.078-6.819 0-11.355-4.08-13.671-8.532-3.393-6.528-3.3-16.41 4.161-22.299 2.28-1.8 2.961-2.4 3.729-3.681 1.263-2.106 2.463-3.756 3.915-5.178 1.455-1.428 3.108-2.577 5.232-3.744 3.087-1.698 6.54-2.214 9.687-2.01m-.195 2.994c-2.7-.18-5.562.276-8.049 1.644-1.962 1.08-3.372 2.076-4.575 3.255-1.203 1.182-2.253 2.598-3.441 4.578-1.086 1.809-2.184 2.709-4.443 4.491-6.03 4.761-6.288 12.93-3.36 18.564 1.935 3.72 5.574 6.915 11.01 6.915 1.494 0 2.568-.042 3.429-.075h.057c.828-.03 1.53-.06 2.199-.015 1.449.09 2.67.495 5.088 1.464 4.383 1.752 9.036 1.239 12.951-1.209 1.614-1.008 2.97-2.745 3.873-4.827.906-2.076 1.314-4.374 1.149-6.384-.198-2.397-.09-3.648.129-4.896l.135-.723c.171-.909.354-1.875.468-3.552.27-3.981-1.629-7.83-2.745-9.78-1.083-1.884-2.862-4.77-7.101-7.443-1.62-1.023-4.062-1.827-6.774-2.007z"/></g></svg>