<svg fill="none" height="242" viewBox="0 0 325 242" width="325" xmlns="http://www.w3.org/2000/svg"><g fill="#ff2e84"><rect height="16" opacity=".7" rx="1.5" width="3" y="113"/><rect height="24" opacity=".7" rx="1.5" width="3" x="9" y="109"/><rect height="32" opacity=".7" rx="1.5" width="3" x="17" y="105"/><rect height="34" opacity=".7" rx="1.5" width="3" x="27" y="104"/><rect height="42" opacity=".7" rx="1.5" width="3" x="35" y="100"/><rect height="44" opacity=".7" rx="1.5" width="3" x="43" y="99"/><rect height="50" opacity=".7" rx="1.5" width="3" x="52" y="96"/><rect height="54" opacity=".7" rx="1.5" width="3" x="61" y="94"/><rect height="58" opacity=".7" rx="1.5" width="3" x="70" y="92"/><rect height="46" opacity=".7" rx="1.5" width="3" x="78" y="98"/><rect height="62" opacity=".7" rx="1.5" width="3" x="88" y="90"/><rect height="72" opacity=".7" rx="1.5" width="3" x="96" y="85"/><rect height="82" opacity=".7" rx="1.5" width="3" x="104" y="80"/><rect height="94" opacity=".7" rx="1.5" width="3" x="113" y="74"/><rect height="106" opacity=".7" rx="1.5" width="3" x="122" y="68"/><rect height="118" opacity=".7" rx="1.5" width="3" x="131" y="63"/><rect height="160" opacity=".7" rx="1.5" width="3" x="139" y="41"/><rect height="202" opacity=".7" rx="1.5" width="3" x="148" y="20"/><rect height="242" opacity=".7" rx="1.5" width="3" x="157"/><rect height="242" opacity=".7" rx="1.5" width="3" x="165"/><rect height="202" opacity=".7" rx="1.5" width="3" x="174" y="20"/><rect height="160" opacity=".7" rx="1.5" width="3" x="183" y="41"/><rect height="124" opacity=".7" rx="1.5" width="3" x="191" y="59"/><rect height="108" opacity=".7" rx="1.5" width="3" x="200" y="67"/><rect height="98" opacity=".7" rx="1.5" width="3" x="209" y="72"/><rect height="84" opacity=".7" rx="1.5" width="3" x="218" y="79"/><rect height="76" opacity=".7" rx="1.5" width="3" x="226" y="83"/><rect height="62" opacity=".7" rx="1.5" width="3" x="235" y="90"/><rect height="46" opacity=".7" rx="1.5" width="3" x="244" y="98"/><rect height="58" opacity=".7" rx="1.5" width="3" x="252" y="92"/><rect height="54" opacity=".7" rx="1.5" width="3" x="261" y="94"/><rect height="46" opacity=".7" rx="1.5" width="3" x="270" y="98"/><rect height="42" opacity=".7" rx="1.5" width="3" x="279" y="100"/><rect height="38" opacity=".7" rx="1.5" width="3" x="287" y="102"/><rect height="32" opacity=".7" rx="1.5" width="3" x="295" y="105"/><rect height="24" opacity=".7" rx="1.5" width="3" x="305" y="109"/><rect height="20" opacity=".7" rx="1.5" width="3" x="313" y="111"/><rect height="14" opacity=".7" rx="1.5" width="3" x="322" y="114"/></g></svg>