<svg fill="none" height="272" viewBox="0 0 318 272" width="318" xmlns="http://www.w3.org/2000/svg"><g fill="#ff2e84"><rect height="272" opacity=".7" rx="1.5" width="3"/><rect height="232" opacity=".7" rx="1.5" width="3" x="9" y="20"/><rect height="190" opacity=".7" rx="1.5" width="3" x="18" y="41"/><rect height="150" opacity=".7" rx="1.5" width="3" x="27" y="61"/><rect height="124" opacity=".7" rx="1.5" width="3" x="35" y="74"/><rect height="108" opacity=".7" rx="1.5" width="3" x="45" y="82"/><rect height="94" opacity=".7" rx="1.5" width="3" x="53" y="89"/><rect height="82" opacity=".7" rx="1.5" width="3" x="61" y="95"/><rect height="68" opacity=".7" rx="1.5" width="3" x="70" y="102"/><rect height="50" opacity=".7" rx="1.5" width="3" x="79" y="111"/><rect height="50" opacity=".7" rx="1.5" width="3" x="88" y="111"/><rect height="46" opacity=".7" rx="1.5" width="3" x="96" y="113"/><rect height="42" opacity=".7" rx="1.5" width="3" x="105" y="115"/><rect height="34" opacity=".7" rx="1.5" width="3" x="114" y="119"/><rect height="32" opacity=".7" rx="1.5" width="3" x="122" y="120"/><rect height="28" opacity=".7" rx="1.5" width="3" x="132" y="122"/><rect height="24" opacity=".7" rx="1.5" width="3" x="140" y="124"/><rect height="20" opacity=".7" rx="1.5" width="3" x="149" y="126"/><rect height="16" opacity=".7" rx="1.5" width="3" x="157" y="128"/><rect height="16" opacity=".7" rx="1.5" width="3" x="166" y="128"/><rect height="24" opacity=".7" rx="1.5" width="3" x="175" y="124"/><rect height="32" opacity=".7" rx="1.5" width="3" x="183" y="120"/><rect height="34" opacity=".7" rx="1.5" width="3" x="193" y="119"/><rect height="42" opacity=".7" rx="1.5" width="3" x="201" y="115"/><rect height="44" opacity=".7" rx="1.5" width="3" x="209" y="114"/><rect height="50" opacity=".7" rx="1.5" width="3" x="218" y="111"/><rect height="54" opacity=".7" rx="1.5" width="3" x="227" y="109"/><rect height="58" opacity=".7" rx="1.5" width="3" x="236" y="107"/><rect height="46" opacity=".7" rx="1.5" width="3" x="244" y="113"/><rect height="62" opacity=".7" rx="1.5" width="3" x="254" y="105"/><rect height="72" opacity=".7" rx="1.5" width="3" x="262" y="100"/><rect height="82" opacity=".7" rx="1.5" width="3" x="270" y="95"/><rect height="94" opacity=".7" rx="1.5" width="3" x="279" y="89"/><rect height="106" opacity=".7" rx="1.5" width="3" x="288" y="83"/><rect height="118" opacity=".7" rx="1.5" width="3" x="297" y="78"/><rect height="160" opacity=".7" rx="1.5" width="3" x="305" y="56"/><rect height="202" opacity=".7" rx="1.5" width="3" x="314" y="35"/></g><rect fill="#fff" fill-opacity=".6" height="1" rx=".5" width="3" y="130"/></svg>