<svg fill="none" height="86" viewBox="0 0 143 86" width="143" xmlns="http://www.w3.org/2000/svg"><g clip-rule="evenodd" fill="#1a1a1a" fill-rule="evenodd"><path d="m102.808 80.9141c12.731.3078 25.741-.3078 37.913 4.0574.726.2574 1.524-.1176 1.786-.8451.257-.7275-.117-1.5278-.842-1.7908-12.458-4.4659-25.763-3.9063-38.79-4.2197-.77-.0224-1.412.5932-1.428 1.3655-.023.7723.591 1.4103 1.361 1.4327z"/><path d="m101.664 62.3805c3.968-3.6611 8.299-6.4039 13.535-7.7633.747-.1936 1.194-.9575 1.004-1.7052-.195-.7477-.96-1.1971-1.702-1.0034-5.693 1.4774-10.409 4.4334-14.7232 8.4119-.5693.5227-.6084 1.4086-.0838 1.9772.519.5681 1.406.6055 1.97.0828z"/><path d="m90.6248 22.4094c1.8195-6.2539 5.4026-11.1463 10.8942-14.67931.648-.41693.837-1.28324.419-1.93298-.413-.64974-1.278-.83892-1.926-.42199-6.0776 3.91188-10.0514 9.32578-12.0662 16.25028-.2177.7409.2121 1.5189.9488 1.7349.7423.2166 1.5181-.2099 1.7302-.9509z"/><path d="m27.9199 13.9219c-1.0828 1.2777-2.0539 2.6544-2.8799 4.1201-.3684.6525-1.0158 2.0393-1.1163 3.2285-.1116 1.267.3181 2.336 1.4232 2.899 1.4678.7465 2.6399.6688 3.5441.2171.8707-.4337 1.5515-1.286 1.9813-2.4288.8204-2.1843.6976-5.5225.2679-7.4275 1.1553-1.1954 2.4222-2.2795 3.7784-3.2432 10.102-7.17735 24.9201-4.53081 36.3225 6.2008 3.9906 3.7575 5.9105 11.6484 6.9095 20.1622 1.5572 13.2561.6698 28.062.547 32.3998-.0279 1.0711.0725 1.7068.1283 1.8339.2623.6245.7256.7868 1.0493.8484.4688.0839.8427-.0056 1.1441-.1623.4074-.2149.7424-.5932.8986-1.1769.0837-.3224.106-.7712.0949-1.2497-.0112-.3319-.0782-.6945-.0112-.9324.4353-1.5233.96-3.0108 1.4734-4.509 1.7135-5.0362 3.9292-9.7556 6.3905-14.4695 7.8193-14.9781 15.3815-30.8042 28.2015-42.21581.575-.51207.631-1.39741.118-1.97496-.508-.57755-1.39-.63017-1.971-.11754-13.076 11.63711-20.8454 27.73571-28.8209 43.01051-2.093 4.0098-4.013 8.0253-5.6092 12.2254.1619-7.4298.1005-17.7143-1.2557-26.814-1.2056-8.093-3.4994-15.2452-7.3784-18.898-12.4907-11.7563-28.7822-14.30657-39.8441-6.44364-1.1832.8417-2.3106 1.76734-3.3599 2.77134-5.7877-10.47923-18.1779-14.67936-29.128246-9.66722-.703231.32067-1.010191 1.15118-.692063 1.85353.323709.70235 1.149699 1.0124 1.852929.69173 9.86758-4.516295 21.05788-.48579 25.94148 9.26816zm.8092 3.5084c-.4521.6402-.8707 1.304-1.2613 1.9901-.2065.3682-.5638 1.0762-.7144 1.769-.0335.1623-.0391.4164-.0391.5339.3851.1903.6865.2821.932.1584.307-.1522.4633-.5104.614-.9106.3795-1.004.5023-2.3348.4688-3.5408z"/></g></svg>