<svg fill="none" height="235" viewBox="0 0 1286 235" width="1286" xmlns="http://www.w3.org/2000/svg"><g clip-rule="evenodd" fill="#1a1a1a" fill-rule="evenodd"><path d="m102.762 80.914c12.725.3078 25.728-.3078 37.895 4.0574.726.2574 1.523-.1175 1.786-.845.256-.7276-.118-1.5278-.843-1.7909-12.451-4.4659-25.751-3.9063-38.771-4.2197-.77-.0224-1.412.5932-1.429 1.3655-.022.7723.592 1.4103 1.362 1.4327z"/><path d="m101.618 62.3805c3.966-3.6612 8.295-6.404 13.528-7.7633.747-.1937 1.194-.9576 1.004-1.7053-.195-.7476-.96-1.197-1.702-1.0034-5.69 1.4775-10.404 4.4335-14.716 8.412-.569.5227-.6081 1.4086-.0837 1.9772.5187.568 1.4057.6055 1.9697.0828z"/><path d="m90.5838 22.4095c1.8187-6.2539 5.4002-11.1463 10.8892-14.67929.647-.41693.837-1.28325.419-1.93299-.413-.64974-1.278-.83891-1.9249-.42198-6.0752 3.91188-10.0472 9.32586-12.061 16.25026-.2176.7409.212 1.5189.9484 1.7349.7419.2166 1.5173-.2099 1.7293-.9509z"/><path d="m27.9071 13.9219c-1.0823 1.2777-2.053 2.6544-2.8786 4.1201-.3682.6525-1.0153 2.0393-1.1157 3.2285-.1116 1.2671.3179 2.336 1.4225 2.899 1.4672.7465 2.6387.6688 3.5425.2171.8703-.4337 1.5508-1.286 1.9804-2.4288.82-2.1843.6973-5.5225.2677-7.4275 1.1548-1.1954 2.4212-2.2795 3.7768-3.2432 10.0973-7.17735 24.9087-4.53081 36.3058 6.2008 3.9888 3.7575 5.9078 11.6484 6.9064 20.1622 1.5564 13.2561.6694 28.062.5467 32.3998-.0279 1.0711.0725 1.7068.1283 1.8339.2622.6245.7252.7868 1.0488.8484.4686.0839.8423-.0056 1.1436-.1623.4072-.2149.742-.5932.8982-1.1769.0837-.3224.1059-.7712.0948-1.2497-.0112-.3319-.0781-.6945-.0112-.9324.4351-1.5233.9595-3.0108 1.4728-4.509 1.7126-5.0362 3.9274-9.7556 6.3876-14.4695 7.8156-14.9781 15.3745-30.8042 28.1885-42.21581.575-.51207.631-1.39741.117-1.97496-.507-.57755-1.389-.63017-1.969-.11754-13.071 11.63711-20.836 27.73571-28.8079 43.01051-2.092 4.0098-4.0111 8.0253-5.6066 12.2254.1618-7.4298.1004-17.7143-1.2552-26.814-1.205-8.093-3.4978-15.2452-7.3749-18.898-12.485-11.7563-28.7691-14.30657-39.826-6.44364-1.1826.8417-2.3095 1.76734-3.3582 2.77134-5.7851-10.47923-18.1697-14.67936-29.11502-9.66722-.702909.32067-1.009729 1.15118-.691747 1.85353.323562.70235 1.149167 1.0124 1.852077.69173 9.86309-4.516295 21.04829-.48579 25.92959 9.26816zm.8089 3.5084c-.4519.6402-.8703 1.304-1.2608 1.9901-.2064.3682-.5635 1.0762-.7141 1.769-.0335.1623-.039.4164-.039.5339.3849.1903.6861.2821.9316.1584.3068-.1522.4631-.5104.6137-.9106.3793-1.004.5021-2.3348.4686-3.5408z"/><path d="m1246.24 229.914c12.72.308 25.73-.308 37.9 4.057.72.258 1.52-.117 1.78-.845.26-.727-.12-1.527-.84-1.79-12.45-4.466-25.75-3.907-38.77-4.22-.77-.023-1.42.593-1.43 1.365-.02.773.59 1.411 1.36 1.433z"/><path d="m1245.1 211.38c3.96-3.661 8.29-6.403 13.52-7.763.75-.193 1.2-.957 1.01-1.705-.2-.748-.96-1.197-1.7-1.003-5.69 1.477-10.41 4.433-14.72 8.411-.57.523-.61 1.409-.08 1.978.51.568 1.4.605 1.97.082z"/><path d="m1234.06 171.409c1.82-6.254 5.4-11.146 10.89-14.679.65-.417.84-1.283.42-1.933-.41-.65-1.28-.839-1.92-.422-6.08 3.912-10.05 9.326-12.07 16.25-.21.741.22 1.519.95 1.735.74.217 1.52-.21 1.73-.951z"/><path d="m1171.38 162.922c-1.08 1.278-2.05 2.654-2.87 4.12-.37.653-1.02 2.039-1.12 3.229-.11 1.267.32 2.335 1.42 2.898 1.47.747 2.64.669 3.55.218.87-.434 1.55-1.286 1.98-2.429.82-2.184.69-5.523.26-7.428 1.16-1.195 2.42-2.279 3.78-3.243 10.1-7.177 24.91-4.531 36.31 6.201 3.98 3.757 5.9 11.648 6.9 20.162 1.56 13.256.67 28.062.55 32.4-.03 1.071.07 1.707.13 1.834.26.624.72.787 1.05.848.46.084.84-.005 1.14-.162.41-.215.74-.593.9-1.177.08-.322.1-.771.09-1.25-.01-.332-.08-.694-.01-.932.44-1.523.96-3.011 1.47-4.509 1.72-5.036 3.93-9.756 6.39-14.47 7.82-14.978 15.38-30.804 28.19-42.215.58-.512.63-1.398.12-1.975-.51-.578-1.39-.631-1.97-.118-13.07 11.637-20.84 27.736-28.81 43.011-2.09 4.009-4.01 8.025-5.61 12.225.17-7.43.1-17.714-1.25-26.814-1.21-8.093-3.5-15.245-7.38-18.898-12.48-11.756-28.77-14.307-39.82-6.444-1.18.842-2.31 1.768-3.36 2.772-5.79-10.48-18.17-14.68-29.12-9.668-.7.321-1 1.152-.69 1.854.33.702 1.15 1.012 1.86.692 9.86-4.517 21.04-.486 25.92 9.268zm.81 3.508c-.45.641-.87 1.304-1.26 1.99-.2.369-.56 1.077-.71 1.769-.03.163-.04.417-.04.534.38.191.69.282.93.159.31-.153.46-.511.61-.911.38-1.004.51-2.335.47-3.541z"/></g></svg>